<svg width="76" height="76" viewBox="0 0 76 76" fill="none" xmlns="http://www.w3.org/2000/svg">
<circle cx="38" cy="38" r="38" fill="#D9D9D9"/>
<path d="M37.4999 35.2083C39.3129 35.2083 41.0852 34.6707 42.5926 33.6635C44.1001 32.6562 45.275 31.2246 45.9688 29.5496C46.6626 27.8746 46.8441 26.0315 46.4904 24.2533C46.1368 22.4752 45.2637 20.8418 43.9817 19.5599C42.6997 18.2779 41.0664 17.4048 39.2882 17.0511C37.5101 16.6974 35.667 16.879 33.992 17.5728C32.317 18.2666 30.8854 19.4415 29.8781 20.9489C28.8709 22.4564 28.3333 24.2287 28.3333 26.0417C28.3333 28.4728 29.299 30.8044 31.0181 32.5235C32.7372 34.2426 35.0688 35.2083 37.4999 35.2083Z" fill="#979797"/>
<path d="M51.2499 58.125C51.8577 58.125 52.4406 57.8835 52.8704 57.4537C53.3001 57.024 53.5416 56.4411 53.5416 55.8333C53.5416 51.5788 51.8515 47.4985 48.8431 44.4901C45.8347 41.4817 41.7544 39.7916 37.4999 39.7916C33.2454 39.7916 29.1651 41.4817 26.1567 44.4901C23.1484 47.4985 21.4583 51.5788 21.4583 55.8333C21.4583 56.4411 21.6997 57.024 22.1295 57.4537C22.5592 57.8835 23.1421 58.125 23.7499 58.125H51.2499Z" fill="#979797"/>
</svg>
