<svg width="212" height="553" viewBox="0 0 212 553" fill="none" xmlns="http://www.w3.org/2000/svg">
<path d="M44.9659 338.357C44.9659 338.357 46.2076 363.284 47.1739 365.6C48.1403 367.916 51.7285 377.042 51.7285 377.042L60.5622 359.743L53.9365 335.907L44.9659 338.357Z" fill="#874538"/>
<path d="M29.7433 115.896C11.2633 143.147 23.8018 141.981 34.7625 228.889L44.6233 342.835L52.788 342.145C52.788 342.145 57.8544 235.664 55.7241 223.724C53.5938 211.784 39.6853 135.006 39.6853 135.006L29.7433 115.896Z" fill="#874538"/>
<path d="M30.4562 109.629C30.4562 109.629 18.3806 116.461 15.8533 144.444C15.8533 144.444 18.9077 151.174 34.9617 156.841C51.0141 162.509 30.4562 109.629 30.4562 109.629Z" fill="#FFB878"/>
<path d="M64.8585 396.408C62.2907 396.267 59.7431 395.785 57.3037 394.976C54.305 393.983 51.2912 392.314 49.9262 389.496C48.9464 387.474 48.9497 385.142 48.9734 382.9C49.3569 345.829 54.9757 306.29 63.8973 270.183C76.4729 219.292 107.008 301.125 107.008 301.125C107.674 302.907 103.864 309.844 103.26 311.561C100.278 320.012 97.3941 328.499 94.6455 337.027C88.5722 355.875 87.7326 378.982 73.9287 393.788C73.2361 394.531 72.5029 395.273 71.5856 395.722C70.7004 396.155 69.6969 396.288 68.712 396.365C67.4297 396.465 66.1424 396.48 64.8585 396.408Z" fill="#CFD8DC"/>
<path d="M165.9 358.142C165.236 369.634 163.079 381.036 158.874 391.802C157.678 394.864 156.282 397.927 154.018 400.331C149.719 404.896 142.369 406.336 136.63 403.739C127.095 399.424 127.897 389.235 127.24 380.56C126.414 369.661 125.145 358.703 123.443 347.903C123.397 347.614 116.17 301.796 110.46 298.46C107.012 296.447 79.1777 222.319 79.1777 222.319L139.346 225.081C139.346 225.081 174.394 253.819 165.192 304.977C165.192 304.977 165.229 305.502 165.276 306.421C165.591 312.533 165.023 317.873 164.535 323.828C163.95 330.978 165.851 338.525 166.064 345.727C166.185 349.858 166.14 354.006 165.9 358.142Z" fill="#CFD8DC"/>
<path d="M67.4044 222.578C67.4044 222.578 49.3687 260.273 50.9094 327.576C50.9094 327.576 83.4382 341.251 101.261 333.951L111.189 311.99L121.04 341.485C121.04 341.485 155.826 348.12 166.594 334.66C166.594 334.66 181.219 250.061 148.421 213.724L67.4044 222.578Z" fill="#105E99"/>
<path d="M148.418 213.715C148.418 213.715 118.984 240.863 67.4113 222.584C67.4113 222.584 62.7014 193.679 45.7316 180.927C28.7619 168.175 18.7964 144.287 28.6454 112.208C28.6454 112.208 30.7993 107.646 39.3847 102.205C45.5002 98.3505 54.9201 94.0159 69.1919 90.615C78.007 88.5177 85.6751 87.7525 92.1926 88.0926C110.973 89.0562 120.564 99.059 122.747 112.208C125.674 129.919 138.338 194.586 148.418 213.715Z" fill="#FFB878"/>
<path d="M44.3885 341.448C44.3885 341.448 42.7363 352.958 44.4916 355.657C46.2469 358.356 50.205 366.305 51.1714 368.994C51.1714 368.994 54.3997 367.416 49.0512 357.755C49.0512 357.755 54.5602 346.19 51.9349 339.764C50.3317 335.838 49.9381 329.65 49.9381 329.65L44.3885 341.448Z" fill="#874538"/>
<path d="M92.1925 88.0926C90.9001 89.9914 88.7462 92.9956 86.077 96.4233C78.2079 106.568 65.6322 120.227 56.4421 118.583C49.4075 117.308 44.9561 112.66 42.2565 108.24C40.9066 106.029 39.9876 103.847 39.3845 102.205C45.5 98.3505 54.92 94.0159 69.1917 90.615C78.0069 88.5177 85.6749 87.7525 92.1925 88.0926Z" fill="#A8604F"/>
<path d="M92.1925 88.0926C90.9001 89.9914 88.7462 92.9956 86.077 96.4233C75.4238 102.148 61.0659 108.438 61.0659 108.438L57.7057 112.519L54.8338 109.629C50.009 110.082 45.3869 109.034 42.2565 108.24C40.9066 106.029 39.9876 103.847 39.3845 102.205C45.5 98.3505 54.92 94.0159 69.1917 90.615C78.0069 88.5177 85.6749 87.7525 92.1925 88.0926Z" fill="#874538"/>
<path d="M7.27619 45.8039C-3.17255 51.4488 9.28484 74.0986 28.6146 78.8433C47.9477 83.5863 24.3321 36.5896 7.27619 45.8039Z" fill="#263237"/>
<path d="M41.1041 23.4829C41.1041 23.4829 4.43304 30.9751 10.8324 55.8471C17.2317 80.7208 36.1121 99.9863 49.6304 90.2052C68.651 76.4446 72.0179 21.7824 41.1041 23.4829Z" fill="#A8604F"/>
<path d="M33.2218 50.6071C33.0174 50.7087 32.769 50.7154 32.5511 50.6054C30.1134 49.3684 27.7736 51.0205 27.7516 51.0388C27.4222 51.2789 26.961 51.2055 26.7211 50.8821C26.4795 50.5587 26.5505 50.1019 26.8799 49.8652C27.0032 49.7751 29.9833 47.6662 33.2269 49.3117C33.5901 49.4951 33.732 49.9335 33.5461 50.292C33.4701 50.432 33.3553 50.5404 33.2218 50.6071Z" fill="#263237"/>
<path d="M17.1675 55.4988C17.0323 55.5655 16.8752 55.5922 16.7147 55.5655C14.0286 55.1237 12.346 57.3293 12.2768 57.4244C12.0352 57.7495 11.574 57.8178 11.2462 57.5811C10.9185 57.3443 10.8459 56.8909 11.0841 56.5675C11.1753 56.4424 13.3596 53.5399 16.9563 54.1301C17.3584 54.1968 17.6287 54.5719 17.5628 54.967C17.5239 55.2054 17.3719 55.3971 17.1675 55.4988Z" fill="#263237"/>
<path d="M28.0707 81.0493C28.0707 81.0493 34.4413 81.3343 41.0129 74.1023C41.0129 74.1023 40.6024 80.3624 34.7471 82.1162C28.8883 83.8684 28.0707 81.0493 28.0707 81.0493Z" fill="#3E3B5D"/>
<path d="M35.3486 41.4646C35.3486 41.4646 47.5814 46.2609 53.9874 57.9359C53.9874 57.9359 55.4639 48.75 61.348 52.6144C67.2338 56.4788 61.1098 70.5795 61.1098 70.5795C61.1098 70.5795 79.0492 61.5669 68.0109 38.227C63.3617 28.3925 46.0457 26.9221 35.3486 41.4646Z" fill="#263237"/>
<path d="M57.9065 66.0116C59.2427 73.6221 56.6124 89.65 45.2244 92.0456C45.2244 92.0456 50.1573 96.0101 48.1875 101.693C48.1875 101.693 49.0626 110.989 59.2292 106.523C71.9485 100.936 75.1414 91.9023 75.1414 91.9023C63.1756 83.4465 61.9981 65.208 61.9981 65.208C60.4101 68.3722 57.9065 66.0116 57.9065 66.0116Z" fill="#874538"/>
<path d="M35.5918 59.4483C36.3047 60.8637 36.1476 62.3709 35.2404 62.8176C34.3333 63.2644 33.0172 62.4792 32.3043 61.0655C31.5897 59.6517 31.7468 58.143 32.6557 57.6962C33.5629 57.2494 34.8772 58.0346 35.5918 59.4483Z" fill="#3E3B5D"/>
<path d="M36.2136 58.6179C36.2136 58.6179 33.6339 55.9021 32.4632 56.4756C31.2925 57.0491 30.6421 60.22 30.6421 60.22L27.6975 59.9216L30.1437 59.5482C30.1437 59.5482 30.4546 56.1722 32.3078 55.7588C34.161 55.347 36.2136 58.6179 36.2136 58.6179Z" fill="#3E3B5D"/>
<path d="M21.6564 64.838C22.371 66.2517 22.2139 67.7605 21.305 68.2073C20.3961 68.6541 19.0818 67.8689 18.3689 66.4551C17.6543 65.0414 17.8114 63.5326 18.7203 63.0858C19.6275 62.639 20.9435 63.4243 21.6564 64.838Z" fill="#3E3B5D"/>
<path d="M22.2794 64.0078C22.2794 64.0078 19.6997 61.292 18.529 61.8655C17.3583 62.439 16.7062 65.6099 16.7062 65.6099L13.7616 65.3115L16.2078 64.938C16.2078 64.938 16.5187 61.5621 18.3719 61.1486C20.2251 60.7369 22.2794 64.0078 22.2794 64.0078Z" fill="#3E3B5D"/>
<path d="M26.3764 69.0659C26.3764 69.0659 22.822 70.478 21.7543 72.2468C20.6883 74.0156 26.4541 76.0612 26.4541 76.0612" stroke="#874538" stroke-width="0.64" stroke-miterlimit="10"/>
<path d="M53.4755 48.6851C53.4755 48.6851 35.7202 47.8399 31.8566 42.2517C27.9931 36.6634 25.6533 46.2761 17.5747 44.6023C9.49617 42.9285 6.46038 50.634 6.46038 50.634C6.46038 50.634 -0.993122 50.0288 0.111724 40.4861C1.21657 30.9434 7.63618 37.0335 10.0858 28.2677C12.5353 19.5019 21.4468 12.4649 30.1031 15.439C38.7611 18.4132 39.0365 15.439 47.8702 14.7472C56.7039 14.0553 63.5813 15.404 64.1455 23.4463C64.7098 31.4886 76.1924 29.8548 75.145 40.2077C74.0942 50.5573 67.6392 69.1509 53.4755 48.6851Z" fill="#263237"/>
<path d="M57.53 25.3584C57.53 25.3584 53.9418 5.74285 71.6092 0.839791C89.2766 -4.06327 85.2998 13.9168 88.6684 18.2747C92.037 22.6343 99.7676 19.6368 101.423 27.8091C103.079 35.9814 93.4172 40.3027 101.423 43.727C109.429 47.1513 115.225 54.8101 109.704 63.3759C104.184 71.9416 113.293 72.6952 113.293 72.6952C113.293 72.6952 106.707 80.2607 102.547 72.6952C98.3857 65.1297 106.392 65.6432 94.5204 62.9358C82.6492 60.2267 80.1658 48.2399 83.4787 40.0676C86.7915 31.8953 70.5043 35.1645 70.2273 36.7983C69.9502 38.4321 57.53 25.3584 57.53 25.3584Z" fill="#263237"/>
<path d="M141.054 402.297C150.638 401.522 154.388 392.199 157.029 383.967C159.669 375.734 165.55 388.745 163.18 400.234C160.81 411.724 165.259 420.84 162.95 433.054C161.215 442.228 156.928 450.787 154.902 454.478C154.252 455.664 153.001 456.409 151.635 456.44L142.066 456.669C140.274 456.712 138.679 455.525 138.257 453.805C136.229 445.531 132.465 422.586 135.047 418.363C138.828 412.181 134.923 400.688 134.923 400.688C134.923 400.688 136.927 402.632 141.054 402.297Z" fill="#3B484C"/>
<path d="M139.616 453.392C139.616 453.392 138.897 465.614 140.143 468.793C141.39 471.972 141.39 471.972 141.39 471.972C141.39 471.972 138.25 500.654 139.398 503.476C140.547 506.299 146.247 517.137 147.582 524.317C148.916 531.499 142.765 547.195 140.655 548.459C138.544 549.722 122.202 550.271 122.202 550.271L122.876 553.4C122.876 553.4 141.794 553.6 144.276 553.4C146.757 553.2 156.978 532.668 157.373 525.347C157.77 518.027 150.683 503.846 150.068 500.885C149.453 497.924 153.966 454.417 153.966 454.417C153.966 454.417 149.411 449.594 139.616 453.392Z" fill="#263237"/>
<path d="M56.6177 394.043C66.1136 395.537 71.9994 387.358 76.5454 379.981C81.0915 372.603 83.6729 386.619 78.6065 397.224C73.5401 407.83 75.6687 417.728 70.4874 429.051C66.5951 437.557 60.3714 444.866 57.5147 447.977C56.5974 448.975 55.2037 449.407 53.8691 449.119L44.5184 447.098C42.7665 446.719 41.5029 445.194 41.5079 443.424C41.5299 434.911 43.3933 411.741 46.919 408.242C52.0783 403.122 51.0512 391.044 51.0512 391.044C51.0512 391.044 52.5294 393.399 56.6177 394.043Z" fill="#3B484C"/>
<path d="M43.0335 443.513C43.0335 443.513 39.2898 455.042 39.7358 458.423C40.1818 461.804 40.1818 461.804 40.1818 461.804C40.1818 461.804 30.2314 488.928 30.6673 491.941C31.1032 494.951 41.4759 514.72 41.0434 522.009C40.6126 529.298 32.5898 540.783 30.4021 542.542C28.488 544.08 14.321 548.875 2.39741 550.282C1.60848 550.375 1.28918 553.4 2.08318 553.4C15.4258 553.4 34.4295 546.204 35.8722 545.401C38.685 543.834 48.1624 532.322 50.3079 525.303C52.4534 518.285 41.5401 494.943 41.6549 491.924C41.7698 488.903 57.3678 447.285 57.3678 447.285C57.3678 447.285 53.663 442.697 43.0335 443.513Z" fill="#263237"/>
<path d="M114.288 90.2153C114.288 90.2153 106.505 104.381 113.593 117.406C120.682 130.432 127.032 121.821 127.032 121.821L183.226 136.97C183.226 136.97 179.73 141.698 171.366 157.219C161.255 175.983 147.418 206.19 145.321 212.077C143.225 217.963 153.177 217.33 153.177 217.33C153.177 217.33 177.039 188.777 191.059 169.294C204.091 151.188 213.305 135.87 211.849 132.962C205.149 119.58 182.422 110.429 157.831 103.938C133.244 97.4441 128.706 91.9542 114.288 90.2153Z" fill="#A8604F"/>
<path d="M148.085 206.845C148.085 206.845 143.299 211.64 144.159 216.683C145.021 221.726 157.708 229.691 161.963 228.846C166.219 228.001 172.495 219.615 172.495 219.615C172.495 219.615 169.787 217.715 167.417 220.741C165.047 223.766 165.047 223.766 165.047 223.766L167.956 213.165C167.956 213.165 164.928 211.821 164.729 214.524C164.53 217.226 162.109 219.26 162.109 219.26C162.109 219.26 159.764 215.856 157.377 213.143C154.991 210.433 148.085 206.845 148.085 206.845Z" fill="#874538"/>
<path d="M148.416 204.655C148.416 204.655 143.431 210.759 142.623 213.425C141.814 216.089 142.799 219.281 148.286 223.531C153.773 227.78 159.23 228.877 161.967 228.847C164.702 228.817 165.028 225.485 164.105 223.694C163.183 221.904 156.344 219.7 156.344 219.7C156.344 219.7 158.84 215.599 156.573 210.017C154.304 204.437 148.416 204.655 148.416 204.655Z" fill="#A8604F"/>
<path d="M92.1925 88.0928C106.16 86.0889 118.491 88.0145 140.081 95.0064C140.081 95.0064 131.583 123.189 125.22 135.233C125.22 135.233 109.813 130.628 104.283 116.459C98.754 102.29 92.1925 88.0928 92.1925 88.0928Z" fill="#FFB878"/>
</svg>
