<svg width="203" height="573" viewBox="0 0 203 573" fill="none" xmlns="http://www.w3.org/2000/svg">
<path d="M48.3714 210.771L27.6572 310.749L21.7708 569.194" stroke="#8BBDDB" stroke-width="4.5245" stroke-miterlimit="10"/>
<path d="M3.62859 295.369C3.73711 298.742 4.8355 299.796 6.03949 301.928C7.26694 304.044 10.417 304.311 10.417 304.311C12.7384 305.91 16.9502 305.872 16.9502 305.872C19.0956 307.243 22.8234 306.09 24.9234 303.824C26.3533 302.247 28.0793 296.356 28.685 290.37C28.9621 287.642 29.0164 284.878 28.682 282.513C28.682 282.513 25.2754 269.707 15.9896 276.427C12.275 279.115 9.52532 282.136 7.59982 285.033C4.68591 289.362 3.5626 293.336 3.62859 295.369Z" fill="#A8604F"/>
<path d="M46.1792 197.714L28.7441 184.762C20.806 191.026 12.4075 280.287 12.4075 280.287L28.4978 285.515C29.2691 262.492 44.3388 233.917 45.7495 223.876C46.8772 215.851 46.3566 200.047 46.1792 197.714Z" fill="#A8604F"/>
<path d="M5.99343 295.221C6.03743 296 6.09901 296.779 6.1694 297.555C6.29405 298.948 6.44951 300.361 6.97598 301.649C7.38952 302.659 8.287 304.137 9.42939 304.323C9.89427 304.4 10.1964 304.273 10.6627 304.47C11.1994 304.696 11.6878 304.992 12.2465 305.175C13.7423 305.664 15.3804 305.886 16.9495 305.87C19.095 307.242 22.8228 306.089 24.9228 303.823C26.3526 302.245 28.0787 296.354 28.6844 290.369C27.8749 290.276 26.8322 290.102 25.6531 289.852C23.0912 289.318 20.2535 285.224 20.2535 285.224C19.7784 285.217 19.3047 285.21 18.8296 285.203C15.0959 285.146 11.3197 285.221 7.60069 285.026C7.10062 285.865 6.74572 286.452 6.49935 287.466C6.23685 288.55 6.07995 289.663 5.99636 290.778C5.89078 292.256 5.90984 293.741 5.99343 295.221Z" fill="#874538"/>
<path d="M46.4535 84.7371C25.6851 90.7667 23.5059 102.646 24.1159 117.981C24.726 133.316 25.1029 158.265 24.1159 163.741C23.129 169.218 27.2821 175.533 25.6851 177.529C24.0881 179.523 25.3654 184.762 25.3654 184.762C25.3654 184.762 22.8093 189.605 22.1699 191.546C21.5305 193.486 24.1159 196.611 24.1159 196.611C24.1159 196.611 34.8624 194.355 46.4095 204.392C46.4095 204.392 49.9686 202.795 49.0095 200.468C48.0505 198.141 47.7308 179.425 52.8444 175.818C57.9566 172.212 52.8444 112.579 52.8444 112.579L46.4535 84.7371Z" fill="#F24052"/>
<path d="M139.45 567.383C139.597 569.464 140.117 571.005 140.117 571.005H179.446C179.946 569.812 180.3 568.62 180.55 567.383C184.426 547.803 152.656 523.843 152.656 523.843L149.996 535.358C149.996 535.358 150.955 553.789 143.93 557.626C139.721 559.924 139.18 564.261 139.45 567.383Z" fill="#0E3944"/>
<path d="M180.548 567.383H139.448C139.595 569.464 140.116 571.005 140.116 571.005H179.444C179.944 569.812 180.299 568.619 180.548 567.383Z" fill="#ADBEC4"/>
<path d="M145.728 556.158C145.728 556.158 162.298 552.228 169.852 557.316V554.471C169.852 554.471 155.916 547.424 145.728 556.158Z" fill="#ADBEC4"/>
<path d="M149.011 551.785C149.011 551.785 159.59 546.753 169.853 551.785L168.681 548.915C168.681 548.915 156.424 544.092 149.011 551.785Z" fill="#ADBEC4"/>
<path d="M160.048 250.89C160.048 289.813 172.069 430.244 173.359 440.258C175.832 459.453 174.455 492.654 177.854 512.998C181.52 534.941 180.551 554.552 180.551 554.552C180.551 554.552 160.168 537.41 148.623 550.145L143.851 532.776L147.383 519.101L140.698 499.001C145.429 490.213 111.191 302.353 111.191 302.353C111.191 302.353 107.724 301.747 107.719 301.746C112.496 302.582 110.544 371.682 110.167 374.963C109.812 378.064 109.382 381.276 110.277 384.259C110.711 385.707 111.457 387.11 111.405 388.627C111.352 390.144 109.975 391.747 108.607 391.222C107.631 391.715 108.134 393.343 109.035 393.975C109.934 394.605 111.129 394.905 111.667 395.883C112.587 397.554 110.972 399.052 111.16 400.65C111.633 404.695 115.347 408.39 117.101 411.96C119.421 416.681 120.515 422.353 123.681 426.525C124.273 427.306 124.945 428.084 125.144 429.057C125.304 429.84 125.137 430.652 124.968 431.433C124.016 435.868 122.494 441.002 118.368 442.49C117.467 442.815 116.477 442.941 115.691 443.501C114.811 444.13 114.332 445.198 113.607 446.013C111.441 448.446 107.73 448.144 104.577 447.651C93.6162 445.94 89.1727 439.155 81.8799 431C78.0993 426.772 74.2483 425.005 72.4049 419.036C69.9735 411.164 68.5598 402.887 68.1052 394.635C67.2884 379.789 66.4627 364.942 65.6224 350.096C63.8289 318.383 62.9549 286.351 59.6304 254.755L160.048 250.89Z" fill="#0D527C"/>
<path d="M35.6278 143.804C40.8837 166.147 47.3788 189.504 50.7209 194.622C57.1221 204.406 55.2069 233.369 57.3289 236.884C59.4494 240.399 53.931 260.692 53.931 260.692C98.0254 283.327 162.882 257.157 162.882 257.157C162.882 257.157 154.885 230.049 157.458 223.975C159.109 220.049 157.289 196.555 154.773 176.459C153.384 165.425 151.769 155.426 150.417 150.211C146.588 135.524 146.588 97.753 97.3302 86.1132C48.0739 74.4933 29.0022 91.0932 27.7249 99.8616C27.1237 104.021 30.8588 123.492 35.6278 143.804Z" fill="#CFD8DC"/>
<path d="M51.9542 211.909L48.9406 231.912C48.8291 232.656 48.5476 233.363 48.1238 233.973L46.4534 236.368C46.4534 236.368 41.8208 227.06 32.3942 224.07C22.9691 221.078 18.5521 227.951 18.5521 227.951L18.5198 227.901C17.7176 226.66 17.3613 225.167 17.5123 223.68L19.5405 203.719C19.5874 203.231 19.803 202.769 20.1623 202.451C29.0433 194.609 46.3332 197.858 51.6873 209.711C51.9953 210.393 52.0671 211.166 51.9542 211.909Z" fill="#0E3944"/>
<path d="M29.9129 299.86L3 292.715" stroke="#8BBDDB" stroke-width="4.5246" stroke-miterlimit="10" stroke-linecap="round" stroke-linejoin="round"/>
<path d="M23.9741 284.147C25.4156 287.743 15.5037 288.472 13.6691 289.917C11.833 291.362 13.7732 295.474 13.8099 297.155C13.8451 298.836 13.5518 300.045 12.1263 300.312C10.7009 300.579 8.97486 294.979 7.20774 293.1C5.44062 291.22 5.78086 287.322 6.10349 285.221C6.42465 283.12 13.8553 276.976 13.8553 276.976C13.8553 276.976 22.5897 280.696 23.9741 284.147Z" fill="#A8604F"/>
<path d="M8.43273 300.754C8.43273 300.754 14.5847 298.647 15.0158 297.988C15.447 297.331 18.0632 294.959 19.2495 295.162C20.4359 295.365 19.4988 297.691 19.4988 297.691C19.4988 297.691 20.8187 295.573 22.2119 295.944C23.0302 296.162 22.4304 299.106 22.4304 299.106C22.4304 299.106 22.8512 298.014 23.9731 298.099C25.2269 298.194 25.3252 300.921 25.3252 300.921C25.9763 300.106 26.2285 299.917 26.6157 300.19C27.7112 300.965 27.1774 303.363 26.299 304.105C25.4205 304.846 22.4523 306.7 21.6135 306.479C20.7747 306.258 18.6424 307.303 17.786 307.013C16.9296 306.723 16.8768 305.925 15.8942 306.154C14.9117 306.383 12.8732 305.362 12.8732 305.362C12.8732 305.362 9.87136 305.251 8.55153 304.579C7.23169 303.908 6.04089 301.926 6.04089 301.926L6.06582 296.288C6.06435 296.291 7.44578 300.493 8.43273 300.754Z" fill="#A8604F"/>
<path d="M18.5666 561.439H25.0969C25.5105 561.439 25.8463 561.788 25.8463 562.219V571.754C25.8463 572.185 25.5105 572.534 25.0969 572.534H18.5666C18.1531 572.534 17.8173 572.185 17.8173 571.754V562.219C17.8173 561.788 18.1531 561.439 18.5666 561.439Z" fill="#0E3944"/>
<path d="M35.6278 143.804C42.8737 112.458 68.5724 93.3391 68.5724 93.3391L87.1939 97.1092C103.3 119.354 144.822 192.904 154.773 176.459C153.384 165.425 151.769 155.426 150.417 150.211C146.588 135.524 146.588 97.753 97.3302 86.1132C48.0739 74.4933 29.0022 91.0932 27.7249 99.8616C27.1237 104.021 30.8588 123.492 35.6278 143.804Z" fill="#F24052"/>
<path d="M94.1761 82.7827C96.2849 83.1016 106.41 87.3385 106.521 89.5524C106.87 96.4883 88.3864 100.985 76.6457 100.008C64.905 99.0317 56.2088 89.412 58.4203 86.1103C60.7109 82.6942 74.6044 79.8289 94.1761 82.7827Z" fill="#F24052"/>
<path d="M178.095 153.249C178.095 153.249 200.934 188.61 202.934 193.708C204.935 198.805 160.474 267.629 160.474 267.629L158.284 276.979C158.284 276.979 145.824 276.526 137.196 269.91C137.196 269.91 139.433 261.633 142.948 257.645C146.463 253.655 156.687 232.841 159.563 223.968C162.439 215.094 172.344 192.092 172.344 192.092L154.146 171.682L178.095 153.249Z" fill="#A8604F"/>
<path d="M97.3303 86.1118C97.3303 86.1118 129.37 91.3741 138.476 99.4635C142.63 103.154 146.201 107.667 149.773 111.944C152.813 115.583 156.016 119.194 158.94 122.894C161.661 126.338 164.878 129.27 167.613 132.692C169.499 135.053 170.936 137.804 173.035 139.961C174.547 141.516 176.371 142.727 177.804 144.363C179.877 146.732 181.125 149.974 183.768 151.624C184.278 151.942 184.855 152.217 185.166 152.745C185.46 153.247 185.449 153.871 185.465 154.458C185.498 155.786 185.438 157.632 186.661 158.289C187.845 158.926 189.399 157.936 190.581 158.866C191.508 159.597 191.518 161.057 191.177 162.215C190.835 163.372 190.228 164.476 190.216 165.688C192.052 165.39 193.398 167.728 193.133 169.639C192.868 171.551 191.634 173.138 190.779 174.854C189.874 176.673 189.379 178.69 188.459 180.501C186.377 184.604 182.656 186.699 179.084 189.146C177.288 190.377 175.783 191.631 173.654 192.322C172.645 192.65 167.939 193.853 167.182 192.672C166.764 192.02 166.601 191.196 166.739 190.426C166.789 190.142 166.878 189.849 166.801 189.573C166.685 189.166 166.258 188.955 165.867 188.839C164.949 188.568 163.976 188.539 163.058 188.262C162.142 187.986 161.227 187.37 160.974 186.412C160.844 185.919 160.903 185.38 160.724 184.904C160.52 184.36 160.043 183.987 159.616 183.607C156.45 180.797 155.107 176.415 152.863 172.769C150.156 168.37 146.178 165.082 142.419 161.712C140.502 159.992 138.594 158.247 136.905 156.282C135.358 154.481 134.208 152.423 132.519 150.778C128.336 146.708 125.565 140.66 122.724 135.541C115.491 122.508 108.759 109.17 102.113 95.8063C100.507 92.5809 98.9068 89.3525 97.3303 86.1118Z" fill="#F24052"/>
<path d="M69.3861 68.7934C70.0562 73.781 69.8509 78.5809 69.4843 83.448C69.4843 83.448 59.9917 85.4574 60.7308 88.1213C64.3853 101.273 104.225 99.0913 102.272 89.4929C101.807 87.2089 94.5436 84.7388 94.5436 84.7388C93.1886 78.1308 91.7514 65.7084 97.33 56.6059C97.33 56.6059 95.5775 56.5662 92.7912 56.676L69.3861 68.7934Z" fill="#874538"/>
<path d="M60.6965 23.3526C60.6965 23.3526 53.5929 17.3168 60.0175 15.3517C60.0175 15.3517 57.3075 7.9641 60.4135 6.75572C63.521 5.54735 66.6915 8.51794 68.4147 5.35206C70.1378 2.18617 73.8964 -2.88535 80.5381 2.08395C87.1798 7.05325 90.8754 -1.1033 93.7306 1.53316C96.5859 4.17114 94.8407 8.4325 99.4998 9.07025C104.159 9.708 108.517 10.8355 107.46 15.6889C106.401 20.5422 111.529 20.8611 111.77 23.821C112.01 26.7809 109.824 27.6414 109.629 30.1635C109.432 32.6855 112.88 33.7596 111.644 37.5495C110.407 41.3394 106.879 40.7978 107.158 43.5151C107.436 46.2324 109.755 52.2407 106.411 53.0936C103.069 53.9465 101.815 60.0662 97.916 59.1965C94.0166 58.3284 60.6965 23.3526 60.6965 23.3526Z" fill="#0E3944"/>
<path d="M102.256 44.3939C103.101 68.6469 69.823 79.0768 63.5743 67.5194C61.5726 63.8164 59.5855 53.5376 58.8537 46.4445C58.6821 44.8348 58.5604 43.2099 58.49 41.5789C58.0193 30.5281 59.9111 19.5382 66.0116 17.1032C87.242 8.61555 101.219 14.6498 102.256 44.3939Z" fill="#A8604F"/>
<path d="M79.7281 37.1173C79.7472 38.7712 79.0462 40.1215 78.1633 40.1337C77.279 40.1444 76.5487 38.8124 76.5282 37.1585C76.5091 35.5046 77.2102 34.1544 78.093 34.1422C78.9773 34.1315 79.709 35.4634 79.7281 37.1173Z" fill="#3E3B5D"/>
<path d="M65.1967 38.5551C65.2158 40.2105 64.5148 41.5592 63.6319 41.5715C62.7491 41.5821 62.0174 40.2502 61.9983 38.5963C61.9792 36.9424 62.6802 35.5921 63.563 35.5799C64.4459 35.5677 65.1762 36.8997 65.1967 38.5551Z" fill="#3E3B5D"/>
<path d="M81.3299 28.7581C81.6334 28.7841 81.9429 28.6544 82.1438 28.3874C82.4635 27.9632 82.3916 27.3499 81.984 27.0158C79.4103 24.9179 75.7558 25.5678 75.6003 25.5983C75.0915 25.6929 74.7512 26.198 74.8407 26.7289C74.9301 27.2583 75.4097 27.6123 75.9274 27.5223C75.9552 27.5162 78.9234 27.002 80.8269 28.5567C80.9779 28.6757 81.1524 28.7429 81.3299 28.7581Z" fill="#0E3944"/>
<path d="M60.0511 31.6507C60.0628 31.6523 60.0716 31.6523 60.0819 31.6523C60.601 31.6782 61.0395 31.2617 61.0644 30.7231C61.0967 29.9831 62.7772 29.6108 63.6689 29.5773C64.188 29.5574 64.5928 29.1058 64.5737 28.5672C64.5561 28.0287 64.1132 27.5999 63.6058 27.6259C62.0132 27.6808 59.29 28.3765 59.1873 30.6316C59.1668 31.1579 59.5495 31.608 60.0511 31.6507Z" fill="#0E3944"/>
<path d="M64.6519 53.6568C64.6519 53.6568 65.2091 54.6531 70.2201 53.9909C75.2311 53.3303 78.4192 51.9297 78.4192 51.9297C78.4192 51.9297 77.6963 62.4191 70.1585 62.4603C63.9069 62.4953 64.6519 53.6568 64.6519 53.6568Z" fill="#3E3B5D"/>
<path d="M95.588 44.777C95.588 44.777 96.0851 35.9903 90.9715 30.905C85.8578 25.8198 90.3013 18.3376 90.3013 18.3376C90.3013 18.3376 69.8145 14.7323 60.6944 23.3527C60.6944 23.3527 53.8708 10.8676 73.3634 5.77018C92.8545 0.674246 124.516 16.4259 97.9138 59.1981L102.255 44.394L95.588 44.777Z" fill="#0E3944"/>
<path d="M96.2457 43.6769C96.2457 43.6769 100.836 37.9615 105.174 41.3852C109.512 44.8074 102.386 55.3014 97.7327 54.9642C93.0796 54.6285 96.2457 43.6769 96.2457 43.6769Z" fill="#A8604F"/>
<path d="M68.6702 36.3271C68.6702 36.3271 62.8351 44.9704 63.5962 46.9645C64.3573 48.9587 68.6702 48.7924 68.6702 48.7924" stroke="#874538" stroke-width="0.64" stroke-miterlimit="10"/>
</svg>
