<svg width="409" height="521" viewBox="0 0 409 521" fill="none" xmlns="http://www.w3.org/2000/svg">
<g filter="url(#filter0_d_40_84)">
<path d="M34.421 457.455C25.5375 457.455 18.3097 465.555 18.3097 475.511C18.3097 485.467 25.5375 493.567 34.421 493.567C43.3064 493.567 50.5341 485.467 50.5341 475.511C50.5359 465.555 43.3064 457.455 34.421 457.455Z" fill="#263237"/>
<path d="M34.421 487.11C29.5143 487.11 25.3684 481.8 25.3684 475.511C25.3684 469.222 29.5143 463.912 34.421 463.912C39.3277 463.912 43.4736 469.222 43.4736 475.511C43.4754 481.8 39.3295 487.11 34.421 487.11Z" fill="#475154"/>
<path d="M32.2121 476.385V455.979H48.1948L39.8091 477.581C39.2542 479.008 37.7785 479.961 36.1227 479.961C33.9634 479.961 32.2121 478.361 32.2121 476.385Z" fill="#BAC3C6"/>
<path d="M121.012 484.863C84.7341 484.863 55.2222 442.839 55.2222 391.186C55.2222 339.533 84.7359 297.508 121.012 297.508C157.291 297.508 186.803 339.533 186.803 391.186C186.803 442.839 157.291 484.863 121.012 484.863ZM121.012 303.387C87.5384 303.387 60.3071 342.775 60.3071 391.186C60.3071 439.598 87.5403 478.985 121.012 478.985C154.487 478.985 181.718 439.597 181.718 391.186C181.718 342.773 154.485 303.387 121.012 303.387Z" fill="#CFD8DC"/>
<path d="M73.3495 393.436H57.8667C56.7916 393.436 55.9205 392.428 55.9205 391.186C55.9205 389.944 56.7916 388.936 57.8667 388.936H73.3495C74.4245 388.936 75.2955 389.944 75.2955 391.186C75.2955 392.43 74.4245 393.436 73.3495 393.436Z" fill="#BAC3C6"/>
<path d="M190.146 393.436H185.044C183.969 393.436 183.098 392.428 183.098 391.186C183.098 389.944 183.969 388.936 185.044 388.936H190.146C191.221 388.936 192.092 389.944 192.092 391.186C192.092 392.43 191.221 393.436 190.146 393.436Z" fill="#BAC3C6"/>
<path d="M134.047 309.002C129.644 309.002 119.121 303.552 117.936 302.928C116.958 302.416 116.525 301.083 116.968 299.952C117.411 298.818 118.568 298.314 119.544 298.833C123.727 301.024 131.363 304.503 134.047 304.503C135.123 304.503 135.994 305.512 135.994 306.753C135.994 307.994 135.123 309.002 134.047 309.002Z" fill="#BAC3C6"/>
<path d="M118.741 483.744C118.001 483.744 117.293 483.255 116.966 482.423C116.523 481.292 116.957 479.96 117.934 479.445C119.122 478.822 129.642 473.372 134.046 473.372C135.121 473.372 135.992 474.38 135.992 475.622C135.992 476.864 135.121 477.872 134.046 477.872C131.359 477.872 123.723 481.351 119.542 483.543C119.283 483.68 119.009 483.744 118.741 483.744Z" fill="#BAC3C6"/>
<path d="M61.7791 391.186C61.7791 334.733 94.1984 288.805 134.047 288.805C173.897 288.805 206.316 334.733 206.316 391.186C206.316 447.639 173.897 493.567 134.047 493.567C94.1965 493.567 61.7791 447.639 61.7791 391.186ZM71.0982 391.186C71.0982 441.698 99.3366 482.791 134.046 482.791C168.755 482.791 196.993 441.696 196.993 391.186C196.993 340.676 168.755 299.581 134.046 299.581C99.3366 299.581 71.0982 340.674 71.0982 391.186Z" fill="#263237"/>
<path d="M134.047 298.502C98.8239 298.502 70.1683 340.078 70.1683 391.184C70.1683 442.291 98.8239 483.867 134.047 483.867C169.271 483.867 197.927 442.291 197.927 391.184C197.927 340.079 169.271 298.502 134.047 298.502ZM147.215 375.21L172.849 337.293C176.661 343.573 179.807 350.781 182.142 358.66L149.045 379.356C148.525 377.882 147.911 376.494 147.215 375.21ZM135.911 365.982V311.504C141.753 311.814 147.354 313.56 152.566 316.533L138.769 366.839C137.846 366.438 136.892 366.142 135.911 365.982ZM132.182 365.982C131.114 366.157 130.078 366.476 129.078 366.933L114.797 316.968C120.215 313.738 126.066 311.83 132.18 311.506L132.182 365.982ZM118.941 379.691L85.6401 359.705C88.0016 351.417 91.2654 343.851 95.2458 337.293L120.88 375.21C120.13 376.588 119.485 378.094 118.941 379.691ZM117.809 383.869C117.477 385.524 117.26 387.252 117.159 389.031H81.3876C81.5438 380.229 82.6299 371.772 84.5301 363.898L117.809 383.869ZM117.159 393.341C117.265 395.243 117.504 397.088 117.877 398.846L84.8039 419.529C82.742 411.353 81.5512 402.54 81.3895 393.341H117.159ZM119.048 403.016C119.57 404.49 120.182 405.878 120.878 407.162L95.2441 445.079C91.4326 438.799 88.2864 431.591 85.9507 423.712L119.048 403.016ZM132.182 416.39V470.868C126.34 470.558 120.739 468.812 115.527 465.841L129.325 415.534C130.249 415.933 131.201 416.228 132.182 416.39ZM135.911 416.39C136.979 416.215 138.015 415.896 139.015 415.439L153.296 465.404C147.878 468.634 142.027 470.542 135.913 470.866V416.39H135.911ZM149.153 402.68L182.455 422.665C180.093 430.954 176.83 438.52 172.849 445.079L147.215 407.162C147.965 405.782 148.61 404.276 149.153 402.68ZM150.286 398.502C150.618 396.846 150.835 395.12 150.936 393.341H186.705C186.549 402.142 185.463 410.598 183.563 418.472L150.286 398.502ZM150.936 389.03C150.828 387.127 150.591 385.282 150.218 383.524L183.291 362.841C185.353 371.016 186.542 379.83 186.705 389.03H150.936ZM170.53 333.72L144.875 371.666C144.023 370.607 143.102 369.669 142.121 368.875L155.898 318.642C161.334 322.408 166.272 327.527 170.53 333.72ZM111.489 319.126L125.761 369.064C124.861 369.821 124.008 370.686 123.218 371.666L97.5632 333.72C101.637 327.794 106.329 322.84 111.489 319.126ZM97.5632 448.65L123.218 410.704C124.069 411.763 124.991 412.701 125.971 413.496L112.191 463.728C106.759 459.962 101.821 454.845 97.5632 448.65ZM156.605 463.244L142.334 413.306C143.234 412.55 144.087 411.684 144.877 410.704L170.532 448.65C166.456 454.576 161.764 459.53 156.605 463.244Z" fill="#808B8E"/>
<path d="M137.39 409.906C144.304 409.906 149.909 401.525 149.909 391.186C149.909 380.847 144.304 372.466 137.39 372.466C130.476 372.466 124.872 380.847 124.872 391.186C124.872 401.525 130.476 409.906 137.39 409.906Z" fill="#475154"/>
<path d="M305.959 395.831H142.47C139.664 395.831 137.39 393.751 137.39 391.186C137.39 388.62 139.665 386.541 142.47 386.541H305.959C308.765 386.541 311.038 388.621 311.038 391.186C311.04 393.751 308.765 395.831 305.959 395.831Z" fill="#475154"/>
<path d="M142.334 394.746C142.275 394.746 142.218 394.746 142.161 394.744C140.222 394.665 138.642 393.294 138.454 391.527L126.912 281.958C126.807 280.96 127.167 279.967 127.906 279.224C128.643 278.483 129.69 278.057 130.787 278.057H164.555C165.713 278.057 166.808 278.528 167.549 279.341C168.29 280.155 168.595 281.225 168.383 282.267L146.158 391.836C145.814 393.529 144.199 394.746 142.334 394.746ZM135.075 285.176L143.552 365.648L159.877 285.176H135.075Z" fill="#475154"/>
<path d="M313.354 388.324L233.604 334.412L308.074 284.489C309.809 283.326 310.184 281.097 308.914 279.513C307.642 277.925 305.205 277.588 303.472 278.746L227.047 329.981L151.271 278.755C149.543 277.585 147.103 277.918 145.825 279.501C144.546 281.082 144.914 283.311 146.641 284.48L220.47 334.389L140.029 388.315C138.295 389.478 137.92 391.707 139.191 393.292C139.954 394.245 141.136 394.747 142.334 394.747C143.133 394.747 143.94 394.522 144.633 394.058L227.029 338.821L308.726 394.048C309.423 394.519 310.233 394.745 311.038 394.745C312.231 394.745 313.409 394.246 314.172 393.302C315.449 391.722 315.083 389.492 313.354 388.324Z" fill="#475154"/>
<path d="M160.147 272.728H113.07C103.343 272.728 94.9996 279.078 93.2336 287.825L62.8303 438.343C61.0643 447.081 52.732 453.423 43.016 453.423H15" stroke="#808B8E" stroke-width="4.2368" stroke-miterlimit="10" stroke-linecap="round" stroke-linejoin="round"/>
<path d="M330.638 244.797L327.186 288.539C326.278 300.359 315.508 309.496 302.557 309.496H125.528C121.636 309.496 118.754 306.127 119.741 302.661C120.026 301.688 120.571 300.786 121.349 300.099C122.1 299.433 123.062 298.936 124.126 298.699L145.614 293.976C156.982 291.46 165.936 283.439 168.894 273.09L175.902 248.644C178.809 238.557 188.775 231.532 200.169 231.532H317.116C317.869 231.532 318.595 231.579 319.323 231.722C326.097 232.717 331.132 238.319 330.638 244.797Z" fill="#8B383E"/>
<path d="M319.633 235.399L316.182 279.118C315.274 290.938 304.503 300.099 291.551 300.099H121.349C122.1 299.433 123.062 298.936 124.126 298.699L145.614 293.976C156.982 291.46 165.936 283.439 168.894 273.09L175.901 248.644C178.809 238.557 188.775 231.532 200.169 231.532H317.116C317.869 231.532 318.595 231.579 319.323 231.722C319.608 232.884 319.738 234.141 319.633 235.399Z" fill="#6D2E36"/>
<path d="M180.101 122.496C163.949 143.367 173.042 196.645 168.496 202.137C163.949 207.629 158.851 207.08 161.7 211.474C164.55 215.869 157.111 215.869 156.326 220.262C155.541 224.657 153.244 224.123 146.584 231.531C139.925 238.937 114.799 267.186 114.799 267.186L149.909 278.167L226.685 220.81L180.101 122.496Z" fill="#BAC3C6"/>
<path d="M20.7539 446.419C20.7906 448.76 21.0792 450.403 21.0792 450.403L95.0621 449.427C95.0419 448.089 94.9941 446.753 94.8949 445.441C93.7794 427.756 87.4263 412.481 87.4263 412.481L68.8231 405.464C67.3677 414.202 63.3559 419.82 58.2691 423.519C56.9276 424.516 55.5291 425.346 54.0773 426.058C53.4029 426.401 52.7303 426.721 52.0283 427.016C50.4974 427.682 48.9132 428.228 47.3273 428.678C40.8273 430.579 34.2262 431.048 29.6135 431.756C21.7426 432.981 20.673 441.332 20.7539 446.419Z" fill="#0E3944"/>
<path d="M20.7539 446.419C20.7906 448.76 21.0791 450.403 21.0791 450.403L95.0621 449.427C95.0419 448.089 94.9941 446.753 94.8949 445.441L20.7539 446.419Z" fill="#ADBEC4"/>
<path d="M54.0754 426.057L64.3851 428.931L66.4984 425.464L58.2654 423.517C56.9239 424.516 55.5253 425.346 54.0754 426.057Z" fill="#ADBEC4"/>
<path d="M47.3255 428.678L54.3125 432.791L58.5447 431.206L52.0263 427.016C50.4955 427.682 48.9114 428.228 47.3255 428.678Z" fill="#ADBEC4"/>
<path d="M241.181 238.068C241.181 238.068 189.477 234.569 181.718 236.386C173.959 238.204 103.488 254.681 90.6754 261.272C86.91 263.21 84.1754 266.673 81.8985 269.934C78.7836 274.396 78.9342 277.691 78.3866 282.856C77.2619 293.455 75.8322 304.082 72.732 314.372C71.5724 318.222 70.1665 322.114 70.398 326.102C70.4991 327.84 70.9089 329.558 70.8998 331.297C70.8851 333.749 70.0397 336.124 69.3487 338.493C68.0972 342.782 67.3364 347.177 66.5756 351.561C65.6971 356.63 64.8187 361.697 63.9421 366.766C63.3688 370.076 62.7991 373.486 63.6315 376.75C64.5743 380.444 64.9988 381.955 63.5893 385.496C62.5124 388.197 62.279 391.032 61.8306 393.884C61.3418 396.996 60.9301 400.396 59.2891 403.194C57.0654 406.985 56.9184 408.632 58.87 413.027C59.3607 414.133 59.8091 415.474 59.0519 416.447C58.6513 416.96 57.999 417.242 57.422 417.585C54.3952 419.375 51.5964 422.333 56.2219 423.327C59.9892 424.137 64.4419 423.889 68.3085 424.153C70.2841 424.287 72.2671 424.423 74.2003 424.825C76.6463 425.332 78.9692 426.257 81.1929 427.322C84.7231 429.011 88.042 431.067 91.0706 433.433C97.5504 438.498 99.0848 428.542 97.7396 424.563C97.2434 423.096 96.6333 421.628 96.5855 420.094C96.4734 416.484 100.031 413.123 103.981 413.106C102.143 400.584 105.192 387.941 108.224 375.616C109.591 370.055 110.96 364.492 112.327 358.931C112.802 357.001 113.32 354.99 114.715 353.477C115.639 352.476 116.931 351.711 117.486 350.503C117.848 349.714 117.848 348.83 117.78 347.978C117.486 344.326 116.065 340.515 117.576 337.125C118.486 335.082 120.336 333.537 122.003 331.941C127.816 326.376 131.851 319.536 135.319 312.585C136.811 309.596 137.657 306.535 138.927 303.53C140.114 300.724 142.468 298.289 143.877 295.541C145.258 292.854 145.55 289.694 147.018 287.103C148.837 283.893 153.064 282.032 156.332 280.316C172.364 271.895 243.634 270.517 243.634 270.517L241.181 238.068Z" fill="#0D527C"/>
<path d="M138.717 446.032C138.899 448.324 139.553 450.02 139.553 450.02H188.837C189.464 448.706 189.909 447.393 190.221 446.032C195.078 424.465 162.328 398.073 162.328 398.073L151.934 410.757C151.934 410.757 153.136 431.058 144.333 435.285C139.057 437.817 138.377 442.594 138.717 446.032Z" fill="#0E3944"/>
<path d="M190.221 446.032H138.717C138.899 448.324 139.553 450.02 139.553 450.02H188.837C189.464 448.707 189.907 447.393 190.221 446.032Z" fill="#ADBEC4"/>
<path d="M146.584 433.668C146.584 433.668 167.349 429.339 176.815 434.944V431.809C176.815 431.809 159.349 424.047 146.584 433.668Z" fill="#ADBEC4"/>
<path d="M150.699 428.851C150.699 428.851 163.956 423.309 176.817 428.851L175.348 425.69C175.348 425.69 159.987 420.378 150.699 428.851Z" fill="#ADBEC4"/>
<path d="M309.175 240.784C302.087 229.598 170.811 241.681 134.046 255.413C97.282 269.145 101.862 299.189 111.488 319.126C114.2 324.744 116.519 330.423 119.324 335.981C122.194 341.668 125.484 347.17 128.24 352.906C131.763 360.236 134.432 368.13 133.945 376.126C133.764 379.084 133.158 382.087 133.875 384.976C134.803 388.719 137.8 391.699 140.684 394.49C142.422 396.174 144.162 397.856 145.901 399.54C146.595 400.213 147.297 400.893 147.772 401.71C148.806 403.485 148.617 405.688 147.792 407.552C146.912 409.538 141.597 414.047 142.795 416.225C143.038 416.669 143.49 416.98 143.929 417.269C144.736 417.8 145.557 418.311 146.393 418.803C147.272 419.319 148.207 419.854 148.694 420.699C149.361 421.855 148.439 423.237 147.593 424.062C147.353 424.297 146.989 424.438 146.853 424.734C146.72 425.025 146.858 425.354 146.996 425.643C147.378 426.448 147.957 427.381 148.916 427.404C149.409 427.416 149.859 427.171 150.284 426.941C157.181 423.221 165.625 422.124 173.433 423.62C176.918 424.287 181.321 425.431 183.951 427.717C186.924 430.302 188.788 433.587 191.179 436.545C191.296 436.691 191.43 436.834 191.61 436.908C191.96 437.049 192.38 436.873 192.623 436.602C192.864 436.332 192.974 435.985 193.108 435.659C193.669 434.298 194.714 433.159 195.714 432.028C195.979 431.727 196.258 431.384 196.225 430.999C196.201 430.717 196.012 430.473 195.821 430.25C195.324 429.671 194.771 429.135 194.168 428.65C193.88 428.418 193.571 428.186 193.399 427.872C193.239 427.583 193.209 427.248 193.198 426.924C193.167 426.075 193.244 425.203 193.623 424.428C194.363 422.916 196.653 422.263 198.063 421.326C199.408 420.43 200.838 419.432 201.723 418.116C203.739 415.121 201.523 412.128 199.206 409.904C192.178 403.159 177.423 303.024 181.196 303.386C184.971 303.747 186.705 298.502 186.705 298.502C186.705 298.502 289.353 299.885 301.1 294.41C312.847 288.936 309.175 240.784 309.175 240.784Z" fill="#105E99"/>
<path d="M307.311 285.177C307.311 285.177 319.721 271.908 318.584 267.497C317.448 263.085 313.278 247.533 319.731 241.133C326.185 234.734 332.404 149.226 311.038 117.735C289.675 86.2439 246.764 79.6493 231.382 84.5953C216 89.5395 188.244 108.581 180.099 122.496C171.954 136.411 180.827 163.872 186.801 177.421C192.775 190.968 195.578 214.822 191.974 219.19C188.37 223.558 176.48 223.756 176.82 231.529C176.82 231.529 164.719 233.112 164.851 240.396C164.851 240.396 184.767 242.964 193.176 246.992C201.585 251.02 217.153 238.937 256.416 249.555C295.682 260.174 307.311 285.177 307.311 285.177Z" fill="#CFD8DC"/>
<path d="M221.453 75.5638L229.138 103.265C229.138 103.265 237.842 107.016 256.294 95.6569C256.294 95.6569 246.497 74.5807 255.172 59.5983C255.172 59.5983 252.979 59.7176 249.508 60.0957C249.508 60.0957 246.022 76.5688 221.453 75.5638Z" fill="#EF6E4B"/>
<path d="M260.137 45.7351C260.497 78.5166 222.183 82.787 213.253 70.6767C210.39 66.7979 207.727 59.7226 206.125 52.002C205.755 50.2508 205.443 48.4778 205.197 46.6947C203.534 34.6063 204.827 22.3649 212.211 19.1264C237.904 7.84127 259.777 12.9519 260.137 45.7351Z" fill="#FF8B66"/>
<path d="M231.29 39.8312C231.474 41.6462 230.732 43.1924 229.629 43.2865C228.526 43.3806 227.483 41.9857 227.299 40.1707C227.113 38.3556 227.858 36.8095 228.96 36.7154C230.063 36.6213 231.107 38.0162 231.29 39.8312Z" fill="#3E3B5D"/>
<path d="M213.279 42.7521C213.465 44.5671 212.72 46.115 211.618 46.2074C210.515 46.3015 209.471 44.9066 209.287 43.0916C209.102 41.2766 209.846 39.7304 210.949 39.6363C212.051 39.5439 213.093 40.9388 213.279 42.7521Z" fill="#3E3B5D"/>
<path d="M225.314 28.6049C225.314 28.6049 229.46 27.6066 232.478 29.4301" stroke="#8B383E" stroke-width="1.28" stroke-miterlimit="10" stroke-linecap="round" stroke-linejoin="round"/>
<path d="M210.364 31.9693C210.364 31.9693 206.103 32.4163 206.182 34.5725" stroke="#8B383E" stroke-width="1.28" stroke-miterlimit="10" stroke-linecap="round" stroke-linejoin="round"/>
<path d="M216.159 37.3523C216.159 37.3523 216.346 45.7132 211.322 52.3952C211.322 52.3952 211.121 55.9278 218.068 54.6085" stroke="#DB614D" stroke-width="0.64" stroke-miterlimit="10"/>
<path d="M206.084 26.7545C206.084 26.7545 213.235 18.0726 235.357 20.3481C235.357 20.3481 238.66 32.3777 245.36 35.9507C252.06 39.5236 254.637 49.7768 254.637 49.7768C254.637 49.7768 255.262 44.6813 258.121 44.1217C260.981 43.562 257.29 60.0301 257.29 60.0301C257.29 60.0301 268.179 58.5243 268.717 31.0232C269.204 6.15722 245.863 12.483 245.863 12.483C245.863 12.483 240.249 2.23473 214.431 7.50841L216.298 8.41594C216.298 8.41594 204.349 10.1285 200.11 19.3179L202.12 19.1313C202.12 19.1347 199.836 24.0017 206.084 26.7545Z" fill="#8B383E"/>
<path d="M252.56 45.5031C252.56 45.5031 257.737 38.8043 263.489 42.1604C269.241 45.5165 261.359 57.6974 255.515 57.7579C249.671 57.8201 252.56 45.5031 252.56 45.5031Z" fill="#FF8B66"/>
<path d="M206.619 54.2236C207.06 54.79 207.374 54.9698 207.633 55.6168C207.944 56.3966 208.071 57.2403 208.396 58.0251C209.021 59.5292 209.899 60.946 210.998 62.203C211.079 62.2955 211.188 62.3963 211.314 62.3745C211.485 62.3442 211.513 62.1358 211.511 61.9779C211.493 60.7107 212.112 59.4469 213.16 58.6167C214.369 57.6588 215.82 57.573 217.331 57.4873C219.055 57.3882 220.668 57.1344 222.328 56.684C223.848 56.2723 225.566 56.3765 227.15 56.3109C227.992 56.2756 228.844 56.242 229.668 56.4034C231.123 56.6891 232.375 57.5714 233.306 58.6335C234.238 59.6956 234.887 60.9376 235.515 62.1711C235.602 62.3392 235.708 62.5257 235.905 62.5761C236.094 62.6249 236.285 62.524 236.451 62.4266C239.533 60.5763 241.751 57.7461 243.574 54.8152C245.626 51.5128 247.264 48.0088 248.775 44.4695C249.17 43.5452 250.237 40.2428 251.706 40.9873C252.68 41.4814 253.053 43.6477 253.411 44.5602C253.411 44.5602 257.607 60.1796 255.717 65.4012L254.477 64.8735C254.477 64.8735 254.89 71.3874 244.855 76.3183C234.685 81.3147 227.525 81.3029 227.525 81.3029L229.004 82.6524C229.004 82.6524 212.873 83.765 208.626 73.4462L208.431 75.9099C208.431 75.9099 201.973 62.7291 206.619 54.2236Z" fill="#8B383E"/>
<path d="M270.197 90.679C270.197 90.679 248.953 106.332 237.954 107.705C226.955 109.078 216.998 94.5225 216.998 94.5225C216.998 94.5225 237.765 75.026 270.197 90.679Z" fill="#EF6E4B"/>
<path d="M232.345 61.7833C232.345 61.7833 225.303 63.5445 221.453 61.3463C221.453 61.3463 218.092 63.9092 214.694 63.726C214.694 63.726 214.799 67.2956 223.008 66.7477C231.217 66.1982 232.345 61.7833 232.345 61.7833Z" fill="white"/>
<path d="M190.153 457.455C181.269 457.455 174.04 465.555 174.04 475.511C174.04 485.467 181.268 493.567 190.153 493.567C199.038 493.567 206.266 485.467 206.266 475.511C206.266 465.555 199.038 457.455 190.153 457.455Z" fill="#263237"/>
<path d="M190.153 487.11C185.246 487.11 181.102 481.8 181.102 475.511C181.102 469.222 185.246 463.911 190.153 463.911C195.06 463.911 199.206 469.222 199.206 475.511C199.206 481.8 195.06 487.11 190.153 487.11Z" fill="#475154"/>
<path d="M187.944 476.385V455.979H203.927L195.541 477.581C194.988 479.008 193.511 479.961 191.857 479.961C189.694 479.961 187.944 478.361 187.944 476.385Z" fill="#263237"/>
<path opacity="0.3" d="M187.944 476.385V455.979H203.927L195.541 477.581C194.988 479.008 193.511 479.961 191.857 479.961C189.694 479.961 187.944 478.361 187.944 476.385Z" fill="white"/>
<path d="M311.036 394.745C309.199 394.745 307.598 393.564 307.225 391.899L282.702 282.329C282.467 281.282 282.761 280.192 283.502 279.365C284.241 278.535 285.349 278.056 286.518 278.056H322.881C323.979 278.056 325.027 278.481 325.766 279.227C326.503 279.972 326.863 280.968 326.754 281.966L314.914 391.536C314.725 393.288 313.165 394.651 311.24 394.74C311.172 394.744 311.104 394.745 311.036 394.745ZM291.288 285.176L309.695 367.424L318.584 285.176H291.288Z" fill="#475154"/>
<path d="M309.175 493.567C269.326 493.567 236.906 447.638 236.906 391.186C236.906 334.733 269.326 288.805 309.175 288.805C349.024 288.805 381.443 334.733 381.443 391.186C381.443 447.638 349.024 493.567 309.175 493.567ZM309.175 299.581C274.466 299.581 246.227 340.676 246.227 391.186C246.227 441.698 274.466 482.791 309.175 482.791C343.884 482.791 372.122 441.696 372.122 391.186C372.122 340.674 343.884 299.581 309.175 299.581Z" fill="#263237"/>
<path d="M245.296 391.186C245.296 442.293 273.953 483.869 309.175 483.869C344.398 483.869 373.056 442.293 373.056 391.186C373.056 340.079 344.4 298.503 309.175 298.503C273.951 298.502 245.296 340.079 245.296 391.186ZM294.177 379.356L261.08 358.66C263.416 350.783 266.562 343.573 270.373 337.293L296.008 375.21C295.311 376.494 294.697 377.882 294.177 379.356ZM304.452 366.838L290.654 316.531C295.866 313.56 301.469 311.814 307.311 311.503V365.981C306.33 366.142 305.376 366.438 304.452 366.838ZM311.04 311.504C317.156 311.829 323.006 313.736 328.423 316.966L314.142 366.932C313.144 366.475 312.106 366.155 311.038 365.981L311.04 311.504ZM322.342 375.21L347.976 337.293C351.957 343.851 355.219 351.417 357.582 359.705L324.281 379.691C323.737 378.094 323.092 376.588 322.342 375.21ZM358.692 363.897C360.592 371.772 361.678 380.227 361.835 389.03H326.063C325.964 387.25 325.746 385.522 325.413 383.867L358.692 363.897ZM361.835 393.341C361.673 402.54 360.482 411.355 358.42 419.529L325.347 398.846C325.72 397.087 325.959 395.241 326.065 393.341H361.835ZM357.27 423.712C354.934 431.591 351.788 438.799 347.976 445.079L322.342 407.162C323.039 405.878 323.65 404.49 324.172 403.016L357.27 423.712ZM313.898 415.533L327.695 465.839C322.484 468.811 316.88 470.557 311.04 470.866V416.388C312.021 416.228 312.973 415.933 313.898 415.533ZM307.311 470.866C301.195 470.542 295.346 468.634 289.928 465.404L304.209 415.439C305.207 415.896 306.246 416.215 307.313 416.39V470.866H307.311ZM296.008 407.162L270.373 445.079C266.393 438.52 263.129 430.954 260.767 422.665L294.069 402.68C294.613 404.276 295.258 405.782 296.008 407.162ZM259.659 418.472C257.759 410.597 256.673 402.142 256.517 393.341H292.286C292.387 395.119 292.604 396.846 292.937 398.502L259.659 418.472ZM256.517 389.03C256.68 379.83 257.869 371.016 259.931 362.841L293.005 383.524C292.632 385.284 292.393 387.129 292.286 389.03H256.517ZM287.322 318.644L301.1 368.876C300.118 369.671 299.198 370.609 298.347 371.668L272.692 333.722C276.95 327.527 281.888 322.408 287.322 318.644ZM345.657 333.72L320.003 371.666C319.214 370.686 318.36 369.819 317.459 369.064L331.731 319.126C336.891 322.84 341.585 327.794 345.657 333.72ZM331.029 463.729L317.25 413.496C318.231 412.701 319.152 411.763 320.004 410.704L345.659 448.65C341.401 454.845 336.463 459.962 331.029 463.729ZM272.692 448.65L298.347 410.704C299.137 411.684 299.99 412.55 300.89 413.306L286.619 463.245C281.458 459.53 276.765 454.576 272.692 448.65Z" fill="#808B8E"/>
<path d="M313.618 409.906C320.532 409.906 326.137 401.525 326.137 391.186C326.137 380.847 320.532 372.466 313.618 372.466C306.705 372.466 301.1 380.847 301.1 391.186C301.1 401.525 306.705 409.906 313.618 409.906Z" fill="#BAC3C6"/>
<path d="M369.873 393.436H385.356C386.431 393.436 387.302 392.428 387.302 391.186C387.302 389.944 386.431 388.936 385.356 388.936H369.873C368.798 388.936 367.927 389.944 367.927 391.186C367.927 392.428 368.798 393.436 369.873 393.436Z" fill="#BAC3C6"/>
<path d="M253.075 393.436H258.176C259.251 393.436 260.122 392.428 260.122 391.186C260.122 389.944 259.251 388.936 258.176 388.936H253.075C252 388.936 251.129 389.944 251.129 391.186C251.129 392.428 252.001 393.436 253.075 393.436Z" fill="#BAC3C6"/>
<path d="M309.175 309.001C313.578 309.001 324.101 303.55 325.286 302.927C326.264 302.414 326.697 301.082 326.255 299.951C325.812 298.816 324.654 298.312 323.678 298.831C319.495 301.023 311.86 304.502 309.175 304.502C308.1 304.502 307.229 305.51 307.229 306.752C307.229 307.992 308.1 309.001 309.175 309.001Z" fill="#BAC3C6"/>
<path d="M324.481 483.743C325.222 483.743 325.929 483.254 326.255 482.422C326.697 481.291 326.266 479.958 325.286 479.446C324.101 478.82 313.578 473.37 309.175 473.37C308.1 473.37 307.229 474.379 307.229 475.621C307.229 476.862 308.1 477.871 309.175 477.871C311.863 477.871 319.497 481.35 323.678 483.541C323.939 483.679 324.211 483.743 324.481 483.743Z" fill="#BAC3C6"/>
<path d="M256.419 391.186C256.419 339.533 285.933 297.508 322.21 297.508C358.488 297.508 388 339.533 388 391.186C388 442.839 358.486 484.863 322.21 484.863C285.931 484.863 256.419 442.839 256.419 391.186ZM261.504 391.186C261.504 439.599 288.736 478.985 322.21 478.985C355.684 478.985 382.915 439.597 382.915 391.186C382.915 342.773 355.684 303.387 322.21 303.387C288.736 303.387 261.504 342.773 261.504 391.186Z" fill="#CFD8DC"/>
<path d="M331.202 197.586C337.74 197.586 342.761 202.881 341.835 208.8L337.198 238.434C336.222 244.668 330.384 249.298 323.5 249.298H276.965C269.625 249.298 263.289 253.995 261.767 260.561L220.341 439.452C218.456 447.597 210.594 453.422 201.492 453.422H18.2564" stroke="#808B8E" stroke-width="4.2368" stroke-miterlimit="10" stroke-linecap="round" stroke-linejoin="round"/>
<path d="M300.21 287.418C301.177 289.899 307.045 307.232 306.391 310.592C306.369 310.718 306.348 310.842 306.304 310.972C305.455 314.239 301.763 317.798 300.753 320.072C299.692 322.435 297.154 323.169 295.364 325.194C293.578 327.24 288.346 328.347 288.346 328.347C288.346 328.347 281.048 335.209 280.251 332.194C279.273 328.433 283.542 324.378 283.542 324.378L285.678 315.23C285.678 315.23 281.392 303.989 278.944 304.364C276.498 304.759 278.283 309.395 277.744 313.388C277.402 316.029 274.232 316.106 274.232 316.106L272.659 309.217C272.659 309.217 271.336 299.192 272.4 297.095C273.442 294.999 279.233 287.329 279.233 287.329L288.346 268.229L306.442 278.054C306.442 278.054 299.223 284.943 300.21 287.418Z" fill="#FF8B66"/>
<path d="M306.304 310.972C305.455 314.239 301.763 317.798 300.753 320.072C299.692 322.435 297.154 323.17 295.364 325.195C293.578 327.24 288.346 328.347 288.346 328.347C290.075 326.596 292.192 317.96 293.01 317.324C293.83 316.689 294.581 317.756 296.206 317.508C297.831 317.259 298.001 314.177 299.718 314.424C301.434 314.671 303.092 314.6 303.985 312.426C304.373 311.491 305.316 311.163 306.304 310.972Z" fill="#EF6E4B"/>
<path d="M297.048 102.539C341.945 146.387 353.791 172.204 358.766 180.027C364.692 189.344 365.073 201.588 358.766 214.768C352.459 227.951 320.054 267.648 318.689 270.792C317.323 273.937 319.725 277.108 315.221 277.108C310.717 277.108 310.476 282.923 308.193 284.684C305.911 286.445 303.59 287.269 303.248 289.741C302.908 292.213 284.259 279.311 281.721 278.21C279.183 277.108 284.836 270.544 285.913 268.608C286.992 266.672 282.743 257.06 289.671 254.864C296.601 252.667 292.396 246.35 296.601 242.505C300.806 238.66 319.694 205.705 321.361 202.409C323.028 199.114 284.59 157.645 284.59 157.645C284.59 157.645 280.385 142.54 283.989 123.318C287.595 104.097 297.048 102.539 297.048 102.539Z" fill="#BAC3C6"/>
</g>
<defs>
<filter id="filter0_d_40_84" x="0.781607" y="0.9" width="407.318" height="519.767" filterUnits="userSpaceOnUse" color-interpolation-filters="sRGB">
<feFlood flood-opacity="0" result="BackgroundImageFix"/>
<feColorMatrix in="SourceAlpha" type="matrix" values="0 0 0 0 0 0 0 0 0 0 0 0 0 0 0 0 0 0 127 0" result="hardAlpha"/>
<feOffset dx="4" dy="11"/>
<feGaussianBlur stdDeviation="8.05"/>
<feComposite in2="hardAlpha" operator="out"/>
<feColorMatrix type="matrix" values="0 0 0 0 0 0 0 0 0 0 0 0 0 0 0 0 0 0 0.25 0"/>
<feBlend mode="normal" in2="BackgroundImageFix" result="effect1_dropShadow_40_84"/>
<feBlend mode="normal" in="SourceGraphic" in2="effect1_dropShadow_40_84" result="shape"/>
</filter>
</defs>
</svg>
