<svg width="60" height="60" viewBox="0 0 60 60" fill="none" xmlns="http://www.w3.org/2000/svg">
<g filter="url(#filter0_i_65_15)">
<path d="M31.1603 14.6606C30.2286 13.7798 28.7714 13.7798 27.8397 14.6606L16.1346 25.7273C15.4104 26.4121 15 27.3648 15 28.3614V41.8204C15 43.8224 16.623 45.4454 18.625 45.4454H22.25C24.252 45.4454 25.875 43.8224 25.875 41.8204V35.7788C25.875 35.1115 26.416 34.5705 27.0833 34.5705H31.9167C32.584 34.5705 33.125 35.1115 33.125 35.7788V41.8204C33.125 43.8224 34.748 45.4454 36.75 45.4454H40.375C42.377 45.4454 44 43.8224 44 41.8204V28.3614C44 27.3648 43.5897 26.4121 42.8654 25.7273L31.1603 14.6606Z" fill="#979797"/>
<circle cx="30" cy="30" r="30" fill="#979797" fill-opacity="0.16"/>
</g>
<defs>
<filter id="filter0_i_65_15" x="0" y="0" width="60" height="64" filterUnits="userSpaceOnUse" color-interpolation-filters="sRGB">
<feFlood flood-opacity="0" result="BackgroundImageFix"/>
<feBlend mode="normal" in="SourceGraphic" in2="BackgroundImageFix" result="shape"/>
<feColorMatrix in="SourceAlpha" type="matrix" values="0 0 0 0 0 0 0 0 0 0 0 0 0 0 0 0 0 0 127 0" result="hardAlpha"/>
<feOffset dy="4"/>
<feGaussianBlur stdDeviation="2"/>
<feComposite in2="hardAlpha" operator="arithmetic" k2="-1" k3="1"/>
<feColorMatrix type="matrix" values="0 0 0 0 0 0 0 0 0 0 0 0 0 0 0 0 0 0 0.25 0"/>
<feBlend mode="normal" in2="shape" result="effect1_innerShadow_65_15"/>
</filter>
</defs>
</svg>
