<svg width="1222" height="1024" viewBox="0 0 1222 1024" fill="none" xmlns="http://www.w3.org/2000/svg">
<g clip-path="url(#clip0_48_369)" filter="url(#filter0_i_48_369)">
<path d="M1719.66 56.7728C1685.03 63.6747 1662.87 68.2976 1653.17 70.6414C1623.04 77.9323 1594.2 86.5363 1566.65 96.4534C1534.31 108.087 1503.54 122.855 1474.32 140.758C1430.62 167.529 1392.41 203.702 1359.67 249.278C1352.39 259.394 1343.3 273.046 1332.41 290.233C1322.89 305.249 1314.88 319.232 1308.36 332.181C1308.36 332.181 1302.16 344.463 1289.75 369.028C1288.56 371.383 1287.32 373.685 1286.04 375.933C1283.74 379.979 1282.02 384.411 1280.87 389.228C1280.75 389.745 1280.47 390.199 1280.08 390.515C1279.69 390.83 1279.21 390.988 1278.71 390.961C1278.62 390.958 1278.53 390.972 1278.45 391.003C1278.3 391.042 1278.3 391.03 1278.47 390.968C1280.45 390.383 1282.42 389.983 1284.36 389.767" stroke="#4E7AD8" stroke-width="2"/>
<path d="M1284.36 389.767C1279.3 392.036 1271.49 394.564 1260.94 397.352C1220.04 408.16 1180.47 425.93 1142.26 450.661C1098.91 478.703 1064.67 519.462 1039.54 572.938C1034.6 583.447 1030.85 592.288 1028.3 599.461C1015.54 635.243 1003.55 671.423 992.346 708" stroke="#7798DF" stroke-width="2"/>
<path d="M992.346 708C974.326 712.16 962.928 714.656 958.152 715.487C921.082 721.797 877.787 727.676 828.267 733.123C800.138 736.227 772.474 741.029 745.274 747.53C691.035 760.49 642.796 784.756 606.358 826.816C551.565 890.06 525.887 972.914 495.738 1051.59C477.735 1098.61 454.879 1145.56 423.253 1184.02C410.33 1199.72 394.942 1212.26 378.598 1224.06C360.618 1237.02 341.171 1246.58 320.257 1252.75" stroke="#4E7AD8" stroke-width="2"/>
<path d="M364.188 1367.54C374.324 1346.71 387.807 1329.14 404.635 1314.83C415.302 1305.78 426.244 1297.82 437.463 1290.95C460.248 1276.99 485.754 1263.27 513.982 1249.79C516.955 1248.38 519.808 1246.7 522.54 1244.75C524.971 1243.04 527.466 1241.45 530.027 1239.98C534.167 1237.64 537.986 1235.33 541.483 1233.05C549.875 1227.63 557.524 1222.36 564.429 1217.23C576.961 1207.96 588.808 1195.85 599.968 1180.91C632.155 1137.87 627.176 1081.29 638.153 1031.35C646.177 994.833 664.806 969.41 695.968 952.471C707.214 946.349 717.738 941.862 727.54 939.01C761.899 928.968 803.78 921.969 838.597 909.699C912.609 883.631 955.876 810.961 981.193 737.949C984.727 727.802 988.444 717.819 992.345 708" stroke="#92B6EF" stroke-width="2"/>
<g filter="url(#filter1_i_48_369)">
<path d="M1459.19 -142.509L1619.86 -204L1719.66 56.7728C1685.03 63.6747 1662.87 68.2975 1653.17 70.6414C1623.04 77.9323 1594.2 86.5363 1566.65 96.4534C1534.31 108.087 1503.54 122.855 1474.32 140.758C1430.62 167.529 1392.41 203.702 1359.67 249.278C1352.39 259.394 1343.3 273.046 1332.41 290.232C1322.89 305.249 1314.88 319.232 1308.36 332.181C1308.36 332.181 1302.16 344.463 1289.75 369.028C1288.56 371.383 1287.32 373.685 1286.04 375.933C1283.74 379.979 1282.02 384.411 1280.87 389.228C1280.75 389.745 1280.47 390.199 1280.08 390.515C1279.69 390.83 1279.21 390.988 1278.71 390.961C1278.62 390.958 1278.53 390.972 1278.45 391.003C1278.3 391.042 1278.3 391.03 1278.47 390.968C1280.45 390.383 1282.42 389.983 1284.36 389.767C1279.3 392.036 1271.49 394.564 1260.94 397.352C1220.04 408.16 1180.47 425.93 1142.26 450.661C1098.91 478.703 1064.67 519.462 1039.53 572.938C1034.6 583.447 1030.85 592.288 1028.3 599.461C1015.54 635.243 1003.55 671.423 992.345 708C974.325 712.16 962.927 714.656 958.152 715.487C921.082 721.797 877.787 727.676 828.267 733.123C800.138 736.227 772.474 741.029 745.274 747.53C691.035 760.49 642.796 784.756 606.358 826.816C551.565 890.06 525.887 972.914 495.737 1051.59C477.735 1098.61 454.879 1145.56 423.253 1184.02C410.33 1199.72 394.942 1212.26 378.598 1224.06C360.618 1237.02 341.171 1246.58 320.257 1252.75L243.121 1051.2C262.025 1036.09 278.371 1024.86 292.16 1017.51C324.894 1000.02 358.202 983.733 392.084 968.655C414.516 958.683 437.39 946.489 460.706 932.073C476.187 922.494 490.334 911.637 503.146 899.502C527.052 876.867 545.572 848.076 558.706 813.127C571.311 779.612 584.034 746.189 596.875 712.857C615.054 665.639 637.301 622.199 663.615 582.539C699.228 528.804 744.013 483.345 797.97 446.161C822.479 429.276 848.879 413.983 877.172 400.282C913.632 382.615 957.866 366.439 1009.87 351.753C1031.31 345.698 1052.43 339.424 1073.22 332.934C1075.01 332.366 1075.65 330.977 1077.42 330.419C1135.72 312.561 1189.68 291.676 1239.29 267.765C1300 238.491 1354.06 201.823 1399.32 151.112C1407.93 141.483 1415.24 131.151 1423.22 121.179C1426.52 117.064 1429.48 112.93 1432.11 108.777C1447.41 84.5887 1458.94 59.9882 1466.69 34.9752C1484.73 -23.3316 1482.23 -82.4929 1459.19 -142.509Z" fill="#325CC8"/>
</g>
<path d="M1719.66 56.7729L1752.21 141.822C1715.54 211.441 1664.64 265.004 1599.53 302.511C1587.54 309.407 1573.47 316.088 1557.34 322.556C1539.95 329.524 1525.15 334.825 1512.96 338.458C1452.38 356.57 1386.04 368.237 1321.83 380.498C1309.13 382.927 1296.87 386.447 1284.36 389.767C1282.42 389.983 1280.45 390.383 1278.46 390.968C1278.3 391.03 1278.3 391.042 1278.45 391.003C1278.53 390.972 1278.62 390.958 1278.71 390.961C1279.21 390.988 1279.69 390.83 1280.08 390.515C1280.47 390.199 1280.75 389.745 1280.87 389.228C1282.02 384.411 1283.74 379.979 1286.04 375.933C1287.32 373.685 1288.56 371.383 1289.75 369.028C1302.16 344.463 1308.36 332.181 1308.36 332.181C1314.88 319.232 1322.89 305.249 1332.41 290.233C1343.3 273.046 1352.39 259.394 1359.67 249.278C1392.41 203.702 1430.62 167.529 1474.32 140.758C1503.54 122.855 1534.31 108.087 1566.65 96.4534C1594.2 86.5363 1623.04 77.9323 1653.17 70.6414C1662.87 68.2976 1685.03 63.6747 1719.66 56.7729Z" fill="#6998E8"/>
<g filter="url(#filter3_di_48_369)">
<path d="M1752.21 141.822L1830.96 347.592C1808.85 369.17 1788.39 385.236 1769.6 395.789C1751.67 405.857 1733.73 412.382 1715.78 415.363C1698.75 418.185 1679.03 418.149 1656.62 415.253C1635.09 412.471 1613.92 409.785 1593.11 407.194C1563.23 403.443 1532.45 405.284 1504.42 414.663C1447.1 433.846 1400.73 474.223 1363.52 524.172C1327.28 572.869 1296.43 637.974 1267.5 697.707C1258.28 716.777 1248.45 735.45 1238.03 753.726C1237.38 754.853 1236.74 755.968 1236.1 757.072C1228.24 770.691 1220.21 783.626 1212 795.877C1203.12 809.106 1194.31 821.253 1185.57 832.318C1164.51 858.962 1140.31 881.447 1112.95 899.775C1089.39 915.532 1061.44 926.641 1034.86 933.179C1018.63 937.191 1001.67 940.749 985.096 943.341C956.649 947.798 931.113 952.381 908.489 957.092C899.208 959.022 890.497 961.3 882.356 963.927C849.439 974.531 821.581 991.652 798.783 1015.29C780.986 1033.73 765.613 1054.69 752.665 1078.17C727.605 1123.59 709.156 1171.63 690.67 1220.31C688.391 1226.3 683.037 1237.6 674.609 1254.19L366.008 1372.29L364.188 1367.54C374.324 1346.71 387.807 1329.14 404.636 1314.83C415.302 1305.78 426.244 1297.82 437.463 1290.95C460.248 1276.99 485.754 1263.27 513.982 1249.79C516.955 1248.38 519.808 1246.7 522.54 1244.75C524.971 1243.04 527.467 1241.45 530.028 1239.98C534.167 1237.64 537.986 1235.33 541.483 1233.05C549.875 1227.63 557.524 1222.36 564.43 1217.23C576.961 1207.96 588.808 1195.85 599.969 1180.91C632.155 1137.87 627.176 1081.29 638.153 1031.35C646.177 994.833 664.806 969.41 695.968 952.471C707.214 946.349 717.738 941.862 727.54 939.01C761.899 928.968 803.78 921.969 838.597 909.699C912.609 883.631 955.876 810.961 981.193 737.949C984.727 727.802 988.444 717.819 992.345 708C1003.55 671.423 1015.54 635.243 1028.3 599.461C1030.85 592.288 1034.6 583.447 1039.54 572.938C1064.67 519.462 1098.91 478.703 1142.26 450.661C1180.47 425.93 1220.04 408.16 1260.94 397.352C1271.49 394.564 1279.3 392.036 1284.36 389.767C1296.87 386.447 1309.13 382.927 1321.83 380.498C1386.04 368.236 1452.38 356.57 1512.96 338.458C1525.15 334.825 1539.95 329.524 1557.34 322.556C1573.47 316.088 1587.54 309.407 1599.53 302.511C1664.64 265.004 1715.54 211.441 1752.21 141.822Z" fill="#BBD3F5"/>
</g>
<g filter="url(#filter4_i_48_369)">
<path d="M992.345 708C988.444 717.819 984.727 727.802 981.193 737.949C955.876 810.961 912.609 883.631 838.597 909.699C803.78 921.969 761.899 928.968 727.54 939.01C717.738 941.862 707.214 946.349 695.968 952.471C664.806 969.41 646.177 994.833 638.153 1031.35C627.176 1081.29 632.155 1137.87 599.968 1180.91C588.808 1195.85 576.961 1207.96 564.429 1217.23C557.524 1222.36 549.875 1227.63 541.483 1233.05C537.986 1235.33 534.167 1237.64 530.027 1239.98C527.466 1241.45 524.971 1243.04 522.54 1244.75C519.808 1246.7 516.955 1248.38 513.982 1249.79C485.754 1263.27 460.247 1276.99 437.463 1290.95C426.244 1297.82 415.302 1305.78 404.635 1314.83C387.807 1329.14 374.324 1346.71 364.187 1367.54L320.257 1252.75C341.171 1246.58 360.618 1237.02 378.598 1224.06C394.942 1212.26 410.329 1199.72 423.253 1184.02C454.878 1145.56 477.735 1098.61 495.737 1051.59C525.887 972.914 551.565 890.06 606.358 826.816C642.796 784.756 691.035 760.49 745.274 747.53C772.474 741.029 800.138 736.227 828.267 733.123C877.787 727.676 921.082 721.797 958.152 715.487C962.927 714.656 974.325 712.16 992.345 708Z" fill="#6998E8"/>
</g>
</g>
<defs>
<filter id="filter0_i_48_369" x="0" y="-204" width="1985.87" height="1580.29" filterUnits="userSpaceOnUse" color-interpolation-filters="sRGB">
<feFlood flood-opacity="0" result="BackgroundImageFix"/>
<feBlend mode="normal" in="SourceGraphic" in2="BackgroundImageFix" result="shape"/>
<feColorMatrix in="SourceAlpha" type="matrix" values="0 0 0 0 0 0 0 0 0 0 0 0 0 0 0 0 0 0 127 0" result="hardAlpha"/>
<feOffset dy="4"/>
<feGaussianBlur stdDeviation="2"/>
<feComposite in2="hardAlpha" operator="arithmetic" k2="-1" k3="1"/>
<feColorMatrix type="matrix" values="0 0 0 0 0 0 0 0 0 0 0 0 0 0 0 0 0 0 0.25 0"/>
<feBlend mode="normal" in2="shape" result="effect1_innerShadow_48_369"/>
</filter>
<filter id="filter1_i_48_369" x="243.121" y="-204" width="1476.54" height="1460.75" filterUnits="userSpaceOnUse" color-interpolation-filters="sRGB">
<feFlood flood-opacity="0" result="BackgroundImageFix"/>
<feBlend mode="normal" in="SourceGraphic" in2="BackgroundImageFix" result="shape"/>
<feColorMatrix in="SourceAlpha" type="matrix" values="0 0 0 0 0 0 0 0 0 0 0 0 0 0 0 0 0 0 127 0" result="hardAlpha"/>
<feOffset dy="4"/>
<feGaussianBlur stdDeviation="2"/>
<feComposite in2="hardAlpha" operator="arithmetic" k2="-1" k3="1"/>
<feColorMatrix type="matrix" values="0 0 0 0 0 0 0 0 0 0 0 0 0 0 0 0 0 0 0.1 0"/>
<feBlend mode="normal" in2="shape" result="effect1_innerShadow_48_369"/>
</filter>
<filter id="filter3_di_48_369" x="360.188" y="141.822" width="1474.78" height="1238.47" filterUnits="userSpaceOnUse" color-interpolation-filters="sRGB">
<feFlood flood-opacity="0" result="BackgroundImageFix"/>
<feColorMatrix in="SourceAlpha" type="matrix" values="0 0 0 0 0 0 0 0 0 0 0 0 0 0 0 0 0 0 127 0" result="hardAlpha"/>
<feOffset dy="4"/>
<feGaussianBlur stdDeviation="2"/>
<feComposite in2="hardAlpha" operator="out"/>
<feColorMatrix type="matrix" values="0 0 0 0 0 0 0 0 0 0 0 0 0 0 0 0 0 0 0.25 0"/>
<feBlend mode="normal" in2="BackgroundImageFix" result="effect1_dropShadow_48_369"/>
<feBlend mode="normal" in="SourceGraphic" in2="effect1_dropShadow_48_369" result="shape"/>
<feColorMatrix in="SourceAlpha" type="matrix" values="0 0 0 0 0 0 0 0 0 0 0 0 0 0 0 0 0 0 127 0" result="hardAlpha"/>
<feOffset dy="4"/>
<feGaussianBlur stdDeviation="2"/>
<feComposite in2="hardAlpha" operator="arithmetic" k2="-1" k3="1"/>
<feColorMatrix type="matrix" values="0 0 0 0 0 0 0 0 0 0 0 0 0 0 0 0 0 0 0.44 0"/>
<feBlend mode="normal" in2="shape" result="effect2_innerShadow_48_369"/>
</filter>
<filter id="filter4_i_48_369" x="320.257" y="708" width="672.089" height="663.538" filterUnits="userSpaceOnUse" color-interpolation-filters="sRGB">
<feFlood flood-opacity="0" result="BackgroundImageFix"/>
<feBlend mode="normal" in="SourceGraphic" in2="BackgroundImageFix" result="shape"/>
<feColorMatrix in="SourceAlpha" type="matrix" values="0 0 0 0 0 0 0 0 0 0 0 0 0 0 0 0 0 0 127 0" result="hardAlpha"/>
<feOffset dy="4"/>
<feGaussianBlur stdDeviation="2"/>
<feComposite in2="hardAlpha" operator="arithmetic" k2="-1" k3="1"/>
<feColorMatrix type="matrix" values="0 0 0 0 0 0 0 0 0 0 0 0 0 0 0 0 0 0 0.44 0"/>
<feBlend mode="normal" in2="shape" result="effect1_innerShadow_48_369"/>
</filter>
<clipPath id="clip0_48_369">
<rect width="1734.44" height="1024" fill="white" transform="translate(0 415.94) rotate(-20.9424)"/>
</clipPath>
</defs>
</svg>
