<svg width="294" height="294" viewBox="0 0 294 294" fill="none" xmlns="http://www.w3.org/2000/svg">
<mask id="path-1-inside-1_276_135" fill="white">
<path d="M293.319 146.66C293.319 175.666 284.718 204.021 268.603 228.139C252.488 252.258 229.582 271.055 202.784 282.156C175.985 293.256 146.497 296.16 118.048 290.501C89.5986 284.842 63.4664 270.874 42.9556 250.364C22.4449 229.853 8.47692 203.721 2.81802 175.272C-2.84087 146.822 0.0634796 117.334 11.1638 90.5355C22.2641 63.7369 41.0619 40.8318 65.1799 24.7166C89.298 8.60144 117.653 -3.459e-07 146.66 0V146.66H293.319Z"/>
</mask>
<path d="M293.319 146.66C293.319 175.666 284.718 204.021 268.603 228.139C252.488 252.258 229.582 271.055 202.784 282.156C175.985 293.256 146.497 296.16 118.048 290.501C89.5986 284.842 63.4664 270.874 42.9556 250.364C22.4449 229.853 8.47692 203.721 2.81802 175.272C-2.84087 146.822 0.0634796 117.334 11.1638 90.5355C22.2641 63.7369 41.0619 40.8318 65.1799 24.7166C89.298 8.60144 117.653 -3.459e-07 146.66 0V146.66H293.319Z" fill="#105E99" stroke="white" stroke-width="4" mask="url(#path-1-inside-1_276_135)"/>
<mask id="path-2-inside-2_276_135" fill="white">
<path d="M146.66 0C165.919 2.29669e-07 184.99 3.79347 202.784 11.1638C220.578 18.5342 236.745 29.337 250.364 42.9557C263.982 56.5743 274.785 72.7419 282.156 90.5355C289.526 108.329 293.319 127.4 293.319 146.66L146.66 146.66V0Z"/>
</mask>
<path d="M146.66 0C165.919 2.29669e-07 184.99 3.79347 202.784 11.1638C220.578 18.5342 236.745 29.337 250.364 42.9557C263.982 56.5743 274.785 72.7419 282.156 90.5355C289.526 108.329 293.319 127.4 293.319 146.66L146.66 146.66V0Z" fill="#6998E8" stroke="white" stroke-width="4" mask="url(#path-2-inside-2_276_135)"/>
<path d="M68.208 164.296V166.864C68.208 167.632 68.128 168.256 67.968 168.736C67.808 169.2 67.648 169.592 67.488 169.912L54.336 196.984C54.064 197.544 53.68 198.024 53.184 198.424C52.688 198.808 52.024 199 51.192 199H46.896L60.312 172.48C60.616 171.936 60.912 171.44 61.2 170.992C61.504 170.528 61.84 170.088 62.208 169.672H45.6C45.232 169.672 44.912 169.536 44.64 169.264C44.368 168.992 44.232 168.672 44.232 168.304V164.296H68.208ZM79.5878 176.896C80.3558 176.736 81.0918 176.624 81.7958 176.56C82.4998 176.48 83.1798 176.44 83.8358 176.44C85.6598 176.44 87.2678 176.712 88.6598 177.256C90.0518 177.8 91.2198 178.552 92.1638 179.512C93.1078 180.472 93.8198 181.6 94.2998 182.896C94.7798 184.176 95.0198 185.56 95.0198 187.048C95.0198 188.888 94.6918 190.568 94.0358 192.088C93.3958 193.608 92.4998 194.912 91.3478 196C90.1958 197.072 88.8278 197.904 87.2438 198.496C85.6758 199.088 83.9638 199.384 82.1078 199.384C81.0198 199.384 79.9878 199.272 79.0118 199.048C78.0358 198.824 77.1158 198.528 76.2518 198.16C75.4038 197.776 74.6118 197.344 73.8758 196.864C73.1558 196.368 72.5078 195.848 71.9318 195.304L73.7558 192.784C74.1398 192.24 74.6438 191.968 75.2678 191.968C75.6678 191.968 76.0758 192.096 76.4918 192.352C76.9078 192.608 77.3798 192.888 77.9078 193.192C78.4518 193.496 79.0838 193.776 79.8038 194.032C80.5398 194.288 81.4198 194.416 82.4438 194.416C83.5318 194.416 84.4918 194.24 85.3238 193.888C86.1558 193.536 86.8438 193.048 87.3878 192.424C87.9478 191.784 88.3638 191.032 88.6358 190.168C88.9238 189.288 89.0678 188.336 89.0678 187.312C89.0678 185.424 88.5158 183.952 87.4118 182.896C86.3238 181.824 84.7078 181.288 82.5638 181.288C80.9158 181.288 79.2278 181.592 77.4998 182.2L73.8038 181.144L76.6838 164.296H93.8198V166.816C93.8198 167.664 93.5558 168.352 93.0278 168.88C92.4998 169.408 91.6038 169.672 90.3398 169.672H80.8118L79.5878 176.896ZM115.568 172.696C115.568 174.008 115.344 175.192 114.896 176.248C114.464 177.304 113.88 178.208 113.144 178.96C112.408 179.696 111.552 180.264 110.576 180.664C109.6 181.064 108.584 181.264 107.528 181.264C106.376 181.264 105.312 181.064 104.336 180.664C103.36 180.264 102.512 179.696 101.792 178.96C101.088 178.208 100.536 177.304 100.136 176.248C99.7355 175.192 99.5355 174.008 99.5355 172.696C99.5355 171.352 99.7355 170.136 100.136 169.048C100.536 167.96 101.088 167.04 101.792 166.288C102.512 165.536 103.36 164.96 104.336 164.56C105.312 164.144 106.376 163.936 107.528 163.936C108.68 163.936 109.744 164.144 110.72 164.56C111.712 164.96 112.568 165.536 113.288 166.288C114.008 167.04 114.568 167.96 114.968 169.048C115.368 170.136 115.568 171.352 115.568 172.696ZM111.008 172.696C111.008 171.768 110.912 170.992 110.72 170.368C110.544 169.744 110.296 169.24 109.976 168.856C109.672 168.472 109.304 168.2 108.872 168.04C108.456 167.864 108.008 167.776 107.528 167.776C107.048 167.776 106.6 167.864 106.184 168.04C105.768 168.2 105.408 168.472 105.104 168.856C104.816 169.24 104.584 169.744 104.408 170.368C104.232 170.992 104.144 171.768 104.144 172.696C104.144 173.592 104.232 174.344 104.408 174.952C104.584 175.544 104.816 176.024 105.104 176.392C105.408 176.76 105.768 177.024 106.184 177.184C106.6 177.344 107.048 177.424 107.528 177.424C108.008 177.424 108.456 177.344 108.872 177.184C109.304 177.024 109.672 176.76 109.976 176.392C110.296 176.024 110.544 175.544 110.72 174.952C110.912 174.344 111.008 173.592 111.008 172.696ZM127.112 165.232C127.32 164.992 127.56 164.776 127.832 164.584C128.12 164.392 128.52 164.296 129.032 164.296H133.352L107.576 198.112C107.368 198.368 107.12 198.584 106.832 198.76C106.544 198.92 106.192 199 105.776 199H101.36L127.112 165.232ZM135.176 190.84C135.176 192.152 134.952 193.336 134.504 194.392C134.072 195.448 133.488 196.352 132.752 197.104C132.016 197.84 131.16 198.416 130.184 198.832C129.208 199.232 128.192 199.432 127.136 199.432C125.984 199.432 124.92 199.232 123.944 198.832C122.968 198.416 122.12 197.84 121.4 197.104C120.696 196.352 120.144 195.448 119.744 194.392C119.344 193.336 119.144 192.152 119.144 190.84C119.144 189.496 119.344 188.28 119.744 187.192C120.144 186.104 120.696 185.184 121.4 184.432C122.12 183.68 122.968 183.104 123.944 182.704C124.92 182.288 125.984 182.08 127.136 182.08C128.288 182.08 129.352 182.288 130.328 182.704C131.32 183.104 132.168 183.68 132.872 184.432C133.592 185.184 134.152 186.104 134.552 187.192C134.968 188.28 135.176 189.496 135.176 190.84ZM130.592 190.84C130.592 189.912 130.504 189.136 130.328 188.512C130.152 187.888 129.904 187.384 129.584 187C129.28 186.616 128.912 186.344 128.48 186.184C128.064 186.008 127.616 185.92 127.136 185.92C126.656 185.92 126.208 186.008 125.792 186.184C125.376 186.344 125.016 186.616 124.712 187C124.408 187.384 124.168 187.888 123.992 188.512C123.832 189.136 123.752 189.912 123.752 190.84C123.752 191.736 123.832 192.488 123.992 193.096C124.168 193.704 124.408 194.192 124.712 194.56C125.016 194.928 125.376 195.192 125.792 195.352C126.208 195.512 126.656 195.592 127.136 195.592C127.616 195.592 128.064 195.512 128.48 195.352C128.912 195.192 129.28 194.928 129.584 194.56C129.904 194.192 130.152 193.704 130.328 193.096C130.504 192.488 130.592 191.736 130.592 190.84Z" fill="white"/>
<path d="M68.208 164.296V166.864C68.208 167.632 68.128 168.256 67.968 168.736C67.808 169.2 67.648 169.592 67.488 169.912L54.336 196.984C54.064 197.544 53.68 198.024 53.184 198.424C52.688 198.808 52.024 199 51.192 199H46.896L60.312 172.48C60.616 171.936 60.912 171.44 61.2 170.992C61.504 170.528 61.84 170.088 62.208 169.672H45.6C45.232 169.672 44.912 169.536 44.64 169.264C44.368 168.992 44.232 168.672 44.232 168.304V164.296H68.208ZM79.5878 176.896C80.3558 176.736 81.0918 176.624 81.7958 176.56C82.4998 176.48 83.1798 176.44 83.8358 176.44C85.6598 176.44 87.2678 176.712 88.6598 177.256C90.0518 177.8 91.2198 178.552 92.1638 179.512C93.1078 180.472 93.8198 181.6 94.2998 182.896C94.7798 184.176 95.0198 185.56 95.0198 187.048C95.0198 188.888 94.6918 190.568 94.0358 192.088C93.3958 193.608 92.4998 194.912 91.3478 196C90.1958 197.072 88.8278 197.904 87.2438 198.496C85.6758 199.088 83.9638 199.384 82.1078 199.384C81.0198 199.384 79.9878 199.272 79.0118 199.048C78.0358 198.824 77.1158 198.528 76.2518 198.16C75.4038 197.776 74.6118 197.344 73.8758 196.864C73.1558 196.368 72.5078 195.848 71.9318 195.304L73.7558 192.784C74.1398 192.24 74.6438 191.968 75.2678 191.968C75.6678 191.968 76.0758 192.096 76.4918 192.352C76.9078 192.608 77.3798 192.888 77.9078 193.192C78.4518 193.496 79.0838 193.776 79.8038 194.032C80.5398 194.288 81.4198 194.416 82.4438 194.416C83.5318 194.416 84.4918 194.24 85.3238 193.888C86.1558 193.536 86.8438 193.048 87.3878 192.424C87.9478 191.784 88.3638 191.032 88.6358 190.168C88.9238 189.288 89.0678 188.336 89.0678 187.312C89.0678 185.424 88.5158 183.952 87.4118 182.896C86.3238 181.824 84.7078 181.288 82.5638 181.288C80.9158 181.288 79.2278 181.592 77.4998 182.2L73.8038 181.144L76.6838 164.296H93.8198V166.816C93.8198 167.664 93.5558 168.352 93.0278 168.88C92.4998 169.408 91.6038 169.672 90.3398 169.672H80.8118L79.5878 176.896ZM115.568 172.696C115.568 174.008 115.344 175.192 114.896 176.248C114.464 177.304 113.88 178.208 113.144 178.96C112.408 179.696 111.552 180.264 110.576 180.664C109.6 181.064 108.584 181.264 107.528 181.264C106.376 181.264 105.312 181.064 104.336 180.664C103.36 180.264 102.512 179.696 101.792 178.96C101.088 178.208 100.536 177.304 100.136 176.248C99.7355 175.192 99.5355 174.008 99.5355 172.696C99.5355 171.352 99.7355 170.136 100.136 169.048C100.536 167.96 101.088 167.04 101.792 166.288C102.512 165.536 103.36 164.96 104.336 164.56C105.312 164.144 106.376 163.936 107.528 163.936C108.68 163.936 109.744 164.144 110.72 164.56C111.712 164.96 112.568 165.536 113.288 166.288C114.008 167.04 114.568 167.96 114.968 169.048C115.368 170.136 115.568 171.352 115.568 172.696ZM111.008 172.696C111.008 171.768 110.912 170.992 110.72 170.368C110.544 169.744 110.296 169.24 109.976 168.856C109.672 168.472 109.304 168.2 108.872 168.04C108.456 167.864 108.008 167.776 107.528 167.776C107.048 167.776 106.6 167.864 106.184 168.04C105.768 168.2 105.408 168.472 105.104 168.856C104.816 169.24 104.584 169.744 104.408 170.368C104.232 170.992 104.144 171.768 104.144 172.696C104.144 173.592 104.232 174.344 104.408 174.952C104.584 175.544 104.816 176.024 105.104 176.392C105.408 176.76 105.768 177.024 106.184 177.184C106.6 177.344 107.048 177.424 107.528 177.424C108.008 177.424 108.456 177.344 108.872 177.184C109.304 177.024 109.672 176.76 109.976 176.392C110.296 176.024 110.544 175.544 110.72 174.952C110.912 174.344 111.008 173.592 111.008 172.696ZM127.112 165.232C127.32 164.992 127.56 164.776 127.832 164.584C128.12 164.392 128.52 164.296 129.032 164.296H133.352L107.576 198.112C107.368 198.368 107.12 198.584 106.832 198.76C106.544 198.92 106.192 199 105.776 199H101.36L127.112 165.232ZM135.176 190.84C135.176 192.152 134.952 193.336 134.504 194.392C134.072 195.448 133.488 196.352 132.752 197.104C132.016 197.84 131.16 198.416 130.184 198.832C129.208 199.232 128.192 199.432 127.136 199.432C125.984 199.432 124.92 199.232 123.944 198.832C122.968 198.416 122.12 197.84 121.4 197.104C120.696 196.352 120.144 195.448 119.744 194.392C119.344 193.336 119.144 192.152 119.144 190.84C119.144 189.496 119.344 188.28 119.744 187.192C120.144 186.104 120.696 185.184 121.4 184.432C122.12 183.68 122.968 183.104 123.944 182.704C124.92 182.288 125.984 182.08 127.136 182.08C128.288 182.08 129.352 182.288 130.328 182.704C131.32 183.104 132.168 183.68 132.872 184.432C133.592 185.184 134.152 186.104 134.552 187.192C134.968 188.28 135.176 189.496 135.176 190.84ZM130.592 190.84C130.592 189.912 130.504 189.136 130.328 188.512C130.152 187.888 129.904 187.384 129.584 187C129.28 186.616 128.912 186.344 128.48 186.184C128.064 186.008 127.616 185.92 127.136 185.92C126.656 185.92 126.208 186.008 125.792 186.184C125.376 186.344 125.016 186.616 124.712 187C124.408 187.384 124.168 187.888 123.992 188.512C123.832 189.136 123.752 189.912 123.752 190.84C123.752 191.736 123.832 192.488 123.992 193.096C124.168 193.704 124.408 194.192 124.712 194.56C125.016 194.928 125.376 195.192 125.792 195.352C126.208 195.512 126.656 195.592 127.136 195.592C127.616 195.592 128.064 195.512 128.48 195.352C128.912 195.192 129.28 194.928 129.584 194.56C129.904 194.192 130.152 193.704 130.328 193.096C130.504 192.488 130.592 191.736 130.592 190.84Z" fill="white"/>
<path d="M189.62 95.4C190.153 95.4 190.573 95.5533 190.88 95.86C191.2 96.1533 191.36 96.5467 191.36 97.04V100H171.52V98.36C171.52 98.0267 171.587 97.68 171.72 97.32C171.867 96.9467 172.093 96.6133 172.4 96.32L181.18 87.52C181.913 86.7733 182.567 86.06 183.14 85.38C183.727 84.7 184.213 84.0267 184.6 83.36C184.987 82.6933 185.28 82.02 185.48 81.34C185.693 80.6467 185.8 79.92 185.8 79.16C185.8 78.4667 185.7 77.86 185.5 77.34C185.3 76.8067 185.013 76.36 184.64 76C184.28 75.64 183.84 75.3733 183.32 75.2C182.813 75.0133 182.24 74.92 181.6 74.92C181.013 74.92 180.467 75.0067 179.96 75.18C179.467 75.34 179.027 75.5733 178.64 75.88C178.253 76.1733 177.927 76.52 177.66 76.92C177.393 77.32 177.193 77.76 177.06 78.24C176.833 78.8533 176.54 79.26 176.18 79.46C175.82 79.66 175.3 79.7067 174.62 79.6L172.02 79.14C172.22 77.7533 172.607 76.54 173.18 75.5C173.753 74.4467 174.467 73.5733 175.32 72.88C176.187 72.1733 177.173 71.6467 178.28 71.3C179.4 70.94 180.6 70.76 181.88 70.76C183.213 70.76 184.433 70.96 185.54 71.36C186.647 71.7467 187.593 72.3 188.38 73.02C189.167 73.74 189.78 74.6067 190.22 75.62C190.66 76.6333 190.88 77.76 190.88 79C190.88 80.0667 190.72 81.0533 190.4 81.96C190.093 82.8667 189.673 83.7333 189.14 84.56C188.62 85.3867 188.007 86.1867 187.3 86.96C186.593 87.7333 185.853 88.52 185.08 89.32L178.56 95.98C179.187 95.7933 179.807 95.6533 180.42 95.56C181.047 95.4533 181.64 95.4 182.2 95.4H189.62ZM201.323 81.58C201.963 81.4467 202.576 81.3533 203.163 81.3C203.75 81.2333 204.316 81.2 204.863 81.2C206.383 81.2 207.723 81.4267 208.883 81.88C210.043 82.3333 211.016 82.96 211.803 83.76C212.59 84.56 213.183 85.5 213.583 86.58C213.983 87.6467 214.183 88.8 214.183 90.04C214.183 91.5733 213.91 92.9733 213.363 94.24C212.83 95.5067 212.083 96.5933 211.123 97.5C210.163 98.3933 209.023 99.0867 207.703 99.58C206.396 100.073 204.97 100.32 203.423 100.32C202.516 100.32 201.656 100.227 200.843 100.04C200.03 99.8533 199.263 99.6067 198.543 99.3C197.836 98.98 197.176 98.62 196.563 98.22C195.963 97.8067 195.423 97.3733 194.943 96.92L196.463 94.82C196.783 94.3667 197.203 94.14 197.723 94.14C198.056 94.14 198.396 94.2467 198.743 94.46C199.09 94.6733 199.483 94.9067 199.923 95.16C200.376 95.4133 200.903 95.6467 201.503 95.86C202.116 96.0733 202.85 96.18 203.703 96.18C204.61 96.18 205.41 96.0333 206.103 95.74C206.796 95.4467 207.37 95.04 207.823 94.52C208.29 93.9867 208.636 93.36 208.863 92.64C209.103 91.9067 209.223 91.1133 209.223 90.26C209.223 88.6867 208.763 87.46 207.843 86.58C206.936 85.6867 205.59 85.24 203.803 85.24C202.43 85.24 201.023 85.4933 199.583 86L196.503 85.12L198.903 71.08H213.183V73.18C213.183 73.8867 212.963 74.46 212.523 74.9C212.083 75.34 211.336 75.56 210.283 75.56H202.343L201.323 81.58ZM231.306 78.08C231.306 79.1733 231.12 80.16 230.746 81.04C230.386 81.92 229.9 82.6733 229.286 83.3C228.673 83.9133 227.96 84.3867 227.146 84.72C226.333 85.0533 225.486 85.22 224.606 85.22C223.646 85.22 222.76 85.0533 221.946 84.72C221.133 84.3867 220.426 83.9133 219.826 83.3C219.24 82.6733 218.78 81.92 218.446 81.04C218.113 80.16 217.946 79.1733 217.946 78.08C217.946 76.96 218.113 75.9467 218.446 75.04C218.78 74.1333 219.24 73.3667 219.826 72.74C220.426 72.1133 221.133 71.6333 221.946 71.3C222.76 70.9533 223.646 70.78 224.606 70.78C225.566 70.78 226.453 70.9533 227.266 71.3C228.093 71.6333 228.806 72.1133 229.406 72.74C230.006 73.3667 230.473 74.1333 230.806 75.04C231.14 75.9467 231.306 76.96 231.306 78.08ZM227.506 78.08C227.506 77.3067 227.426 76.66 227.266 76.14C227.12 75.62 226.913 75.2 226.646 74.88C226.393 74.56 226.086 74.3333 225.726 74.2C225.38 74.0533 225.006 73.98 224.606 73.98C224.206 73.98 223.833 74.0533 223.486 74.2C223.14 74.3333 222.84 74.56 222.586 74.88C222.346 75.2 222.153 75.62 222.006 76.14C221.86 76.66 221.786 77.3067 221.786 78.08C221.786 78.8267 221.86 79.4533 222.006 79.96C222.153 80.4533 222.346 80.8533 222.586 81.16C222.84 81.4667 223.14 81.6867 223.486 81.82C223.833 81.9533 224.206 82.02 224.606 82.02C225.006 82.02 225.38 81.9533 225.726 81.82C226.086 81.6867 226.393 81.4667 226.646 81.16C226.913 80.8533 227.12 80.4533 227.266 79.96C227.426 79.4533 227.506 78.8267 227.506 78.08ZM240.926 71.86C241.1 71.66 241.3 71.48 241.526 71.32C241.766 71.16 242.1 71.08 242.526 71.08H246.126L224.646 99.26C224.473 99.4733 224.266 99.6533 224.026 99.8C223.786 99.9333 223.493 100 223.146 100H219.466L240.926 71.86ZM247.646 93.2C247.646 94.2933 247.46 95.28 247.086 96.16C246.726 97.04 246.24 97.7933 245.626 98.42C245.013 99.0333 244.3 99.5133 243.486 99.86C242.673 100.193 241.826 100.36 240.946 100.36C239.986 100.36 239.1 100.193 238.286 99.86C237.473 99.5133 236.766 99.0333 236.166 98.42C235.58 97.7933 235.12 97.04 234.786 96.16C234.453 95.28 234.286 94.2933 234.286 93.2C234.286 92.08 234.453 91.0667 234.786 90.16C235.12 89.2533 235.58 88.4867 236.166 87.86C236.766 87.2333 237.473 86.7533 238.286 86.42C239.1 86.0733 239.986 85.9 240.946 85.9C241.906 85.9 242.793 86.0733 243.606 86.42C244.433 86.7533 245.14 87.2333 245.726 87.86C246.326 88.4867 246.793 89.2533 247.126 90.16C247.473 91.0667 247.646 92.08 247.646 93.2ZM243.826 93.2C243.826 92.4267 243.753 91.78 243.606 91.26C243.46 90.74 243.253 90.32 242.986 90C242.733 89.68 242.426 89.4533 242.066 89.32C241.72 89.1733 241.346 89.1 240.946 89.1C240.546 89.1 240.173 89.1733 239.826 89.32C239.48 89.4533 239.18 89.68 238.926 90C238.673 90.32 238.473 90.74 238.326 91.26C238.193 91.78 238.126 92.4267 238.126 93.2C238.126 93.9467 238.193 94.5733 238.326 95.08C238.473 95.5867 238.673 95.9933 238.926 96.3C239.18 96.6067 239.48 96.8267 239.826 96.96C240.173 97.0933 240.546 97.16 240.946 97.16C241.346 97.16 241.72 97.0933 242.066 96.96C242.426 96.8267 242.733 96.6067 242.986 96.3C243.253 95.9933 243.46 95.5867 243.606 95.08C243.753 94.5733 243.826 93.9467 243.826 93.2Z" fill="white"/>
<path d="M189.62 95.4C190.153 95.4 190.573 95.5533 190.88 95.86C191.2 96.1533 191.36 96.5467 191.36 97.04V100H171.52V98.36C171.52 98.0267 171.587 97.68 171.72 97.32C171.867 96.9467 172.093 96.6133 172.4 96.32L181.18 87.52C181.913 86.7733 182.567 86.06 183.14 85.38C183.727 84.7 184.213 84.0267 184.6 83.36C184.987 82.6933 185.28 82.02 185.48 81.34C185.693 80.6467 185.8 79.92 185.8 79.16C185.8 78.4667 185.7 77.86 185.5 77.34C185.3 76.8067 185.013 76.36 184.64 76C184.28 75.64 183.84 75.3733 183.32 75.2C182.813 75.0133 182.24 74.92 181.6 74.92C181.013 74.92 180.467 75.0067 179.96 75.18C179.467 75.34 179.027 75.5733 178.64 75.88C178.253 76.1733 177.927 76.52 177.66 76.92C177.393 77.32 177.193 77.76 177.06 78.24C176.833 78.8533 176.54 79.26 176.18 79.46C175.82 79.66 175.3 79.7067 174.62 79.6L172.02 79.14C172.22 77.7533 172.607 76.54 173.18 75.5C173.753 74.4467 174.467 73.5733 175.32 72.88C176.187 72.1733 177.173 71.6467 178.28 71.3C179.4 70.94 180.6 70.76 181.88 70.76C183.213 70.76 184.433 70.96 185.54 71.36C186.647 71.7467 187.593 72.3 188.38 73.02C189.167 73.74 189.78 74.6067 190.22 75.62C190.66 76.6333 190.88 77.76 190.88 79C190.88 80.0667 190.72 81.0533 190.4 81.96C190.093 82.8667 189.673 83.7333 189.14 84.56C188.62 85.3867 188.007 86.1867 187.3 86.96C186.593 87.7333 185.853 88.52 185.08 89.32L178.56 95.98C179.187 95.7933 179.807 95.6533 180.42 95.56C181.047 95.4533 181.64 95.4 182.2 95.4H189.62ZM201.323 81.58C201.963 81.4467 202.576 81.3533 203.163 81.3C203.75 81.2333 204.316 81.2 204.863 81.2C206.383 81.2 207.723 81.4267 208.883 81.88C210.043 82.3333 211.016 82.96 211.803 83.76C212.59 84.56 213.183 85.5 213.583 86.58C213.983 87.6467 214.183 88.8 214.183 90.04C214.183 91.5733 213.91 92.9733 213.363 94.24C212.83 95.5067 212.083 96.5933 211.123 97.5C210.163 98.3933 209.023 99.0867 207.703 99.58C206.396 100.073 204.97 100.32 203.423 100.32C202.516 100.32 201.656 100.227 200.843 100.04C200.03 99.8533 199.263 99.6067 198.543 99.3C197.836 98.98 197.176 98.62 196.563 98.22C195.963 97.8067 195.423 97.3733 194.943 96.92L196.463 94.82C196.783 94.3667 197.203 94.14 197.723 94.14C198.056 94.14 198.396 94.2467 198.743 94.46C199.09 94.6733 199.483 94.9067 199.923 95.16C200.376 95.4133 200.903 95.6467 201.503 95.86C202.116 96.0733 202.85 96.18 203.703 96.18C204.61 96.18 205.41 96.0333 206.103 95.74C206.796 95.4467 207.37 95.04 207.823 94.52C208.29 93.9867 208.636 93.36 208.863 92.64C209.103 91.9067 209.223 91.1133 209.223 90.26C209.223 88.6867 208.763 87.46 207.843 86.58C206.936 85.6867 205.59 85.24 203.803 85.24C202.43 85.24 201.023 85.4933 199.583 86L196.503 85.12L198.903 71.08H213.183V73.18C213.183 73.8867 212.963 74.46 212.523 74.9C212.083 75.34 211.336 75.56 210.283 75.56H202.343L201.323 81.58ZM231.306 78.08C231.306 79.1733 231.12 80.16 230.746 81.04C230.386 81.92 229.9 82.6733 229.286 83.3C228.673 83.9133 227.96 84.3867 227.146 84.72C226.333 85.0533 225.486 85.22 224.606 85.22C223.646 85.22 222.76 85.0533 221.946 84.72C221.133 84.3867 220.426 83.9133 219.826 83.3C219.24 82.6733 218.78 81.92 218.446 81.04C218.113 80.16 217.946 79.1733 217.946 78.08C217.946 76.96 218.113 75.9467 218.446 75.04C218.78 74.1333 219.24 73.3667 219.826 72.74C220.426 72.1133 221.133 71.6333 221.946 71.3C222.76 70.9533 223.646 70.78 224.606 70.78C225.566 70.78 226.453 70.9533 227.266 71.3C228.093 71.6333 228.806 72.1133 229.406 72.74C230.006 73.3667 230.473 74.1333 230.806 75.04C231.14 75.9467 231.306 76.96 231.306 78.08ZM227.506 78.08C227.506 77.3067 227.426 76.66 227.266 76.14C227.12 75.62 226.913 75.2 226.646 74.88C226.393 74.56 226.086 74.3333 225.726 74.2C225.38 74.0533 225.006 73.98 224.606 73.98C224.206 73.98 223.833 74.0533 223.486 74.2C223.14 74.3333 222.84 74.56 222.586 74.88C222.346 75.2 222.153 75.62 222.006 76.14C221.86 76.66 221.786 77.3067 221.786 78.08C221.786 78.8267 221.86 79.4533 222.006 79.96C222.153 80.4533 222.346 80.8533 222.586 81.16C222.84 81.4667 223.14 81.6867 223.486 81.82C223.833 81.9533 224.206 82.02 224.606 82.02C225.006 82.02 225.38 81.9533 225.726 81.82C226.086 81.6867 226.393 81.4667 226.646 81.16C226.913 80.8533 227.12 80.4533 227.266 79.96C227.426 79.4533 227.506 78.8267 227.506 78.08ZM240.926 71.86C241.1 71.66 241.3 71.48 241.526 71.32C241.766 71.16 242.1 71.08 242.526 71.08H246.126L224.646 99.26C224.473 99.4733 224.266 99.6533 224.026 99.8C223.786 99.9333 223.493 100 223.146 100H219.466L240.926 71.86ZM247.646 93.2C247.646 94.2933 247.46 95.28 247.086 96.16C246.726 97.04 246.24 97.7933 245.626 98.42C245.013 99.0333 244.3 99.5133 243.486 99.86C242.673 100.193 241.826 100.36 240.946 100.36C239.986 100.36 239.1 100.193 238.286 99.86C237.473 99.5133 236.766 99.0333 236.166 98.42C235.58 97.7933 235.12 97.04 234.786 96.16C234.453 95.28 234.286 94.2933 234.286 93.2C234.286 92.08 234.453 91.0667 234.786 90.16C235.12 89.2533 235.58 88.4867 236.166 87.86C236.766 87.2333 237.473 86.7533 238.286 86.42C239.1 86.0733 239.986 85.9 240.946 85.9C241.906 85.9 242.793 86.0733 243.606 86.42C244.433 86.7533 245.14 87.2333 245.726 87.86C246.326 88.4867 246.793 89.2533 247.126 90.16C247.473 91.0667 247.646 92.08 247.646 93.2ZM243.826 93.2C243.826 92.4267 243.753 91.78 243.606 91.26C243.46 90.74 243.253 90.32 242.986 90C242.733 89.68 242.426 89.4533 242.066 89.32C241.72 89.1733 241.346 89.1 240.946 89.1C240.546 89.1 240.173 89.1733 239.826 89.32C239.48 89.4533 239.18 89.68 238.926 90C238.673 90.32 238.473 90.74 238.326 91.26C238.193 91.78 238.126 92.4267 238.126 93.2C238.126 93.9467 238.193 94.5733 238.326 95.08C238.473 95.5867 238.673 95.9933 238.926 96.3C239.18 96.6067 239.48 96.8267 239.826 96.96C240.173 97.0933 240.546 97.16 240.946 97.16C241.346 97.16 241.72 97.0933 242.066 96.96C242.426 96.8267 242.733 96.6067 242.986 96.3C243.253 95.9933 243.46 95.5867 243.606 95.08C243.753 94.5733 243.826 93.9467 243.826 93.2Z" fill="white"/>
</svg>
