<svg width="200" height="504" viewBox="0 0 200 504" fill="none" xmlns="http://www.w3.org/2000/svg">
<path d="M174.353 87.9173L172.3 98.8879L179.077 100.51L181.643 89.4023L174.353 87.9173Z" fill="#164353"/>
<path d="M150.411 134.38L157.161 144.032C157.161 144.032 161.031 134.21 166.251 136.71C171.471 139.208 166.611 162.03 159.23 163.028C151.85 164.027 148.387 155.623 147.487 152.794C146.586 149.964 150.411 134.38 150.411 134.38Z" fill="#164353"/>
<path d="M166.137 71.7052C166.137 71.7052 166.137 71.7052 168.655 82.3076C171.149 92.9253 172.881 91.9368 178.644 94.372C184.031 96.656 189.626 88.0182 190.872 83.8827C191.951 80.3949 199.649 74.533 199.694 71.4271C199.713 70.1729 198.707 70.7198 196.549 72.8449C194.008 75.3366 190.763 76.8139 190.763 76.8139C189.474 73.1947 199.629 65.026 197.62 61.3487C196.635 59.5643 189.781 73.074 187.264 73.0328C187.264 73.0328 186.663 71.7602 189.447 64.8824C191.04 60.9332 192.721 56.8801 191.714 55.8703C189.875 54.0432 188.087 62.8459 182.18 71.4256C182.18 71.4256 183.079 66.9051 184.216 62.7695C185.272 58.9976 186.683 55.5724 184.822 55.2974C183.297 55.0667 181.825 60.9958 180.731 64.7418C178.679 71.7189 175.539 76.4121 173.728 78.722C172.876 79.8373 172.299 80.3872 172.299 80.3872C168.769 69.7711 166.137 71.7052 166.137 71.7052Z" fill="#CFD8DC"/>
<path d="M172.301 80.3872C172.301 80.3872 176.807 82.7429 177.362 86.3621C177.362 86.3621 179.588 81.2152 173.73 78.722C172.876 79.8372 172.301 80.3872 172.301 80.3872Z" fill="#BAC3C6"/>
<path d="M151.9 157.817C152.474 155.893 152.849 153.919 153.014 151.929C153.227 149.38 153.098 146.818 152.971 144.264C152.824 141.34 153.434 137.779 152.741 134.945C152.186 132.67 150.255 130.299 149.068 128.254C146.191 123.285 143.295 118.326 140.36 113.387C136.163 106.326 132.293 97.7526 126.459 91.6692C115.912 80.668 92.2382 71.6758 89.8753 84.3223C88.5005 91.6753 108.697 114.223 118.431 126.569C123.483 132.976 128.379 139.485 133.498 145.847C136.355 149.397 139.26 152.919 142.295 156.341C142.89 157.011 148.995 164.832 150.42 161.738C151.008 160.463 151.502 159.152 151.9 157.817Z" fill="#CFD8DC"/>
<path d="M173.297 96.167C172.102 95.8141 170.83 96.4435 170.493 97.5603C166.724 110.036 160.588 129.079 159.866 131.468C158.622 135.585 156.296 139.611 158.538 143.54C159.795 145.745 159.217 148.415 158.721 150.864C158.226 153.315 157.927 156.097 159.581 158.066C160.162 158.756 160.937 159.282 161.707 159.792C162.563 160.36 163.51 160.949 164.562 160.906C165.273 160.877 165.929 160.559 166.542 160.226C174.987 155.644 176.524 146.153 176.94 137.619C177.57 124.751 179.387 109.642 180.643 100.086C180.772 99.1125 180.131 98.1928 179.121 97.8934L173.297 96.167Z" fill="#BAC3C6"/>
<path d="M103.345 78.1643C119.81 80.2893 134.119 96.7659 134.119 96.7659L130.309 139.953L103.345 78.1643Z" fill="#0D527C"/>
<path d="M139.818 218.518C137.7 248.554 101.053 246.911 101.053 246.911C101.053 246.911 101.572 109.443 111.612 104.192C121.653 98.9412 146.173 128.426 139.818 218.518Z" fill="#0D527C"/>
<path d="M97.2216 31.5567C97.2216 31.5567 98.2048 66.3215 87.3884 90.2136C76.572 114.106 35.9088 115.577 29.9669 110.679C24.0233 105.781 33.997 68.662 34.5423 49.6923C35.0859 30.7225 30.1172 26.7596 37.7214 13.8748C45.3256 0.991455 97.2216 31.5567 97.2216 31.5567Z" fill="black"/>
<path d="M104.175 503.196C101.092 500.255 90.4552 487.656 90.2636 481.325C89.9909 472.378 90.1826 460.083 90.6288 446.685H75.389C75.9987 461.299 76.0499 479.508 75.8285 485.016C75.503 485.94 74.3926 492.068 73.8423 492.957C73.0112 494.301 73.7101 504.464 73.7101 504.464L104.548 503.313C104.426 503.277 104.327 503.249 104.266 503.234C104.211 503.214 104.191 503.211 104.175 503.196Z" fill="#EF6E4B"/>
<path d="M90.2285 462.128C90.873 424.312 99.0423 367.066 100.168 357.584C100.895 351.458 106.594 335.459 114.211 312.067C131.88 257.811 133.03 218.665 126.976 183.332L87.5021 184.173C80.6663 212.232 41.9347 242.513 68.2851 274.966C69.3475 287.084 76.8261 328.178 73.6536 346.277C69.9093 367.633 67.6737 378.087 69.0782 402.89C69.6632 413.214 75.7207 445.578 75.691 462.128H90.2285Z" fill="#662C33"/>
<path d="M65.149 449.452H47.1332C49.1624 466.665 50.6627 481.28 50.6627 481.28L48.6931 506.677H68.3232C67.0228 499.074 63.3314 476.291 64.0766 466.683C64.5145 461.039 64.8631 455.272 65.149 449.452Z" fill="#FF8B66"/>
<path d="M35.5752 307.733C37.1516 319.812 40.0895 327.893 41.2627 338.058C42.9712 352.857 33.181 374.297 39.5294 398.131C42.5334 409.413 46.8906 446.664 49.161 467.267H64.0439C64.0555 467.071 64.0637 466.868 64.077 466.682C67.9666 416.539 67.1124 358.719 69.9842 335.989C71.1937 326.409 78.403 310.851 81.2137 298.487C81.2286 298.426 89.7713 262.527 95.624 259.516C119.587 247.184 126.976 183.332 126.976 183.332L68.074 185.865C68.074 185.865 31.8359 212.216 37.1747 259.125C37.1747 259.125 37.1004 259.606 36.9896 260.45C33.8452 282.531 34.1476 296.785 35.5752 307.733Z" fill="#8B383E"/>
<path d="M47.4095 487.045C47.4095 487.045 48.1398 480.793 57.4377 481.522C66.7356 482.251 65.5757 488.543 65.5757 488.543C65.5757 488.543 67.0628 487.53 68.2162 488.543C69.3679 489.556 67.6527 498.232 69.8784 500.058C72.1041 501.883 70.9938 506.679 70.9938 506.679H43.6718C43.6718 506.679 42.6738 500.515 45.5572 498.232C48.4422 495.947 42.188 487.729 47.4095 487.045Z" fill="#808B8E"/>
<path d="M71.6926 506.677C71.6926 506.677 70.1889 487.911 74.1546 483.008C74.1546 483.008 78.5433 489.451 84.5464 489.451C88.4526 489.451 90.0289 481.14 93.3717 483.008C96.3046 484.648 98.2759 489.336 106.153 494.138C114.03 498.939 120.429 497.574 120.922 506.677H71.6926Z" fill="#808B8E"/>
<path d="M23.2057 301.512C23.4338 303.321 18.3065 305.334 18.3065 305.334C18.3065 305.334 16.5104 308.519 13.8649 308.519C11.2195 308.519 5.8063 300.238 10.038 295.961C14.2697 291.684 22.4952 295.87 23.2057 301.512Z" fill="#DD8866"/>
<path d="M99.8025 80.0601C99.8025 80.0601 82.6311 75.8192 68.5033 78.1642C58.133 79.886 41.226 73.5368 32.0107 84.2797C18.1771 100.405 40.6824 130.13 52.5232 145.534C56.9384 151.277 59.065 177.098 60.947 192.38C60.947 192.38 100.24 195.605 127.205 184.702L128.38 144.515C128.38 144.515 147.802 111.255 99.8025 80.0601Z" fill="#8BBDDB"/>
<path d="M48.2241 77.3225C48.2241 77.3225 70.1164 108.297 73.7912 144.48C77.4661 180.662 37.2028 253.828 37.2028 253.828C37.2028 253.828 31.4939 252.736 27.6554 245.456C27.6554 245.456 42.1087 183.429 32.872 144.481C24.3606 108.586 10.5005 77.3225 48.2241 77.3225Z" fill="#105E99"/>
<path d="M89.8107 78.1643C89.8107 78.1643 129.724 99.1965 135.629 144.48C141.535 189.762 139.818 218.519 139.818 218.519C139.818 218.519 152.953 105.589 103.345 78.1659C103.345 78.1659 94.049 76.2684 89.8107 78.1643Z" fill="#105E99"/>
<path d="M8.85471 283.312C8.85471 283.312 -0.933933 295.407 0.0723591 298.149C1.08031 300.891 8.85471 304.06 8.85471 304.06C8.85471 304.06 10.3419 309 13.8647 308.519C13.8647 308.519 12.3082 305.593 13.4367 302.552C14.5653 299.51 19.881 298.618 19.881 298.618L23.2055 301.511C23.2055 301.511 23.4237 288.406 21.2591 284.586C19.0928 280.763 8.85471 283.312 8.85471 283.312Z" fill="#FF8B66"/>
<path d="M25.7933 86.3911C33.2191 79.0534 40.7473 93.4996 45.4714 110.144C50.1955 126.789 37.7251 178.566 39.3461 198.871C40.1343 208.756 21.2593 284.586 21.2593 284.586C21.2593 284.586 13.8071 288.59 8.47488 284.222C8.47488 284.222 14.8927 201.789 18.6667 185.857C18.6667 185.857 11.7945 100.226 25.7933 86.3911Z" fill="#FF8B66"/>
<path d="M65.1907 0.03201C65.1907 0.03201 81.5342 -0.20019 92.2069 9.0456C102.88 18.2914 100.776 32.5267 93.7073 34.9039C86.6384 37.2825 59.6238 16.3328 59.6238 16.3328L65.1907 0.03201Z" fill="black"/>
<path d="M51.3373 9.24881C51.3373 9.24881 86.1263 -1.52012 93.1323 21.1253C100.138 43.7723 93.7768 67.6583 77.4448 66.0603C54.4686 63.8115 24.3145 21.987 51.3373 9.24881Z" fill="#FF8B66"/>
<path d="M68.8574 41.0576C68.7038 42.4142 70.0653 43.6593 71.8995 43.838C73.7336 44.0168 75.3463 43.0619 75.5016 41.7069C75.6569 40.3502 74.2937 39.1051 72.4596 38.9264C70.6255 38.7461 69.0128 39.7009 68.8574 41.0576Z" fill="#E05778"/>
<path d="M71.5586 27.1718C71.7817 27.1596 71.9965 27.0511 72.1254 26.8647C73.5729 24.7733 76.3786 25.0162 76.405 25.0223C76.8049 25.062 77.1569 24.7947 77.1982 24.428C77.2411 24.0613 76.9519 23.7329 76.5554 23.6932C76.4067 23.6779 72.8293 23.3632 70.9059 26.1452C70.6911 26.4568 70.7902 26.8693 71.1257 27.0679C71.2612 27.1458 71.4132 27.1794 71.5586 27.1718Z" fill="black"/>
<path d="M87.5932 23.7345C87.7402 23.7269 87.8873 23.6765 88.0096 23.5817C90.0635 22.0082 92.5883 22.9905 92.6957 23.0333C93.0625 23.1815 93.4872 23.0256 93.6458 22.688C93.8044 22.3504 93.6408 21.9578 93.2757 21.8096C93.1352 21.7531 89.8354 20.4453 87.0859 22.5521C86.7802 22.7873 86.7373 23.209 86.9901 23.4931C87.1454 23.6642 87.3701 23.7467 87.5932 23.7345Z" fill="black"/>
<path d="M91.126 47.469C91.126 47.469 85.8748 50.5978 76.6992 47.8555C76.6992 47.8555 79.4569 57.9126 85.2915 56.6354C91.1243 55.3582 91.126 47.469 91.126 47.469Z" fill="black"/>
<path d="M65.1907 20.8884C65.1907 20.8884 57.2295 30.2671 57.6377 42.4476C57.6377 42.4476 51.7998 35.8341 48.7479 41.5814C45.6943 47.3287 57.9219 55.7235 57.9219 55.7235C57.9219 55.7235 38.2306 56.7502 35.9189 33.2049C34.9457 23.2854 48.8719 14.229 65.1907 20.8884Z" fill="black"/>
<path d="M58.3532 50.6394C61.0234 57.2866 71.2565 68.7995 82.0944 65.5103C82.0944 65.5103 79.3713 75.4191 83.879 79.0307C83.879 79.0307 88.6411 86.6983 77.8015 87.7906C64.2438 89.1564 56.6925 79.0307 56.6925 79.0307C62.5997 66.87 54.4866 51.8662 54.4866 51.8662C57.4129 53.6536 58.3532 50.6394 58.3532 50.6394Z" fill="#EF6E4B"/>
<path d="M89.3963 44.107L88.7518 42.7642C89.0162 42.6526 91.313 41.6245 90.391 39.5514C90.1101 38.9219 89.7235 38.5232 89.241 38.3628C88.3867 38.0802 87.4184 38.5629 87.4085 38.569L86.6385 37.2842C86.7029 37.2521 88.228 36.4822 89.7565 36.9756C90.6901 37.2766 91.3973 37.9549 91.86 38.9937C93.0844 41.7436 90.7826 43.5402 89.3963 44.107Z" fill="#E05778"/>
<path d="M58.6401 42.7637C58.6401 42.7637 53.7095 36.4908 50.7964 37.2608C47.8832 38.0308 45.3237 41.459 48.8548 47.6616C52.3859 53.8641 59.6233 52.396 59.6233 52.396L58.6401 42.7637Z" fill="#FF8B66"/>
<path d="M86.6382 6.68968C86.6382 6.68968 95.6403 13.0893 82.2231 22.5475C68.8058 32.0041 51.3287 23.6749 51.3287 23.6749L36.0145 34.0268C36.0145 34.0268 30.9021 22.4894 40.6742 9.04696C50.4447 -4.39549 78.6952 -0.832835 86.6382 6.68968Z" fill="black"/>
<path d="M73.1221 33.7396C73.2246 35.1879 74.1102 36.3123 75.1017 36.2527C76.0931 36.1931 76.8152 34.971 76.7127 33.5242C76.6103 32.0775 75.7246 30.9515 74.7332 31.0111C73.7418 31.0707 73.0197 32.2929 73.1221 33.7396Z" fill="black"/>
<path d="M72.18 33.3653C72.18 33.3653 73.0079 30.0349 74.2852 29.957C75.5625 29.8791 77.6973 32.0973 77.6973 32.0973L80.042 30.5192L77.7849 31.338C77.7849 31.338 75.8351 28.802 74.0604 29.3199C72.2841 29.8348 72.18 33.3653 72.18 33.3653Z" fill="black"/>
<path d="M87.6119 31.665C87.7143 33.1118 88.6 34.2377 89.5914 34.1781C90.5845 34.1185 91.3049 32.8963 91.2025 31.4496C91.1 30.0028 90.2144 28.8769 89.2213 28.9365C88.2315 28.9961 87.5111 30.2167 87.6119 31.665Z" fill="black"/>
<path d="M86.6698 31.2889C86.6698 31.2889 87.4976 27.9585 88.7749 27.8806C90.0522 27.8027 92.187 30.0194 92.187 30.0194L94.5317 28.4412L92.2746 29.2601C92.2746 29.2601 90.3248 26.7241 88.5502 27.242C86.7739 27.7583 86.6698 31.2889 86.6698 31.2889Z" fill="black"/>
<path d="M29.7128 81.9498C19.0947 90.0253 8.47491 132.715 8.47491 132.715L47.1403 150.439C47.1403 150.439 59.5678 104.256 30.1507 83.285" fill="#0D527C"/>
</svg>
