<svg width="367" height="159" viewBox="0 0 367 159" fill="none" xmlns="http://www.w3.org/2000/svg">
<path d="M164.525 150.625V154H153.55V135.787H157.775V150.625H164.525ZM171.794 140.837C172.778 140.837 173.674 140.992 174.482 141.3C175.29 141.608 175.982 142.05 176.557 142.625C177.14 143.2 177.59 143.9 177.907 144.725C178.232 145.542 178.394 146.462 178.394 147.487C178.394 148.521 178.232 149.454 177.907 150.287C177.59 151.112 177.14 151.817 176.557 152.4C175.982 152.975 175.29 153.421 174.482 153.737C173.674 154.046 172.778 154.2 171.794 154.2C170.803 154.2 169.899 154.046 169.082 153.737C168.274 153.421 167.574 152.975 166.982 152.4C166.399 151.817 165.944 151.112 165.619 150.287C165.303 149.454 165.144 148.521 165.144 147.487C165.144 146.462 165.303 145.542 165.619 144.725C165.944 143.9 166.399 143.2 166.982 142.625C167.574 142.05 168.274 141.608 169.082 141.3C169.899 140.992 170.803 140.837 171.794 140.837ZM171.794 151.325C172.686 151.325 173.34 151.012 173.757 150.387C174.182 149.754 174.394 148.796 174.394 147.512C174.394 146.229 174.182 145.275 173.757 144.65C173.34 144.025 172.686 143.712 171.794 143.712C170.878 143.712 170.207 144.025 169.782 144.65C169.357 145.275 169.144 146.229 169.144 147.512C169.144 148.796 169.357 149.754 169.782 150.387C170.207 151.012 170.878 151.325 171.794 151.325ZM185.161 146.837C185.803 146.837 186.265 146.679 186.549 146.362C186.84 146.037 186.986 145.621 186.986 145.112C186.986 144.587 186.84 144.175 186.549 143.875C186.265 143.575 185.803 143.425 185.161 143.425C184.519 143.425 184.053 143.575 183.761 143.875C183.478 144.175 183.336 144.587 183.336 145.112C183.336 145.362 183.369 145.592 183.436 145.8C183.511 146.008 183.624 146.192 183.774 146.35C183.924 146.5 184.111 146.621 184.336 146.712C184.569 146.796 184.844 146.837 185.161 146.837ZM188.161 154.475C188.161 154.167 188.024 153.946 187.749 153.812C187.474 153.671 187.115 153.571 186.674 153.512C186.232 153.454 185.736 153.421 185.186 153.412C184.644 153.396 184.103 153.362 183.561 153.312C183.319 153.479 183.119 153.667 182.961 153.875C182.811 154.075 182.736 154.304 182.736 154.563C182.736 154.746 182.774 154.913 182.849 155.063C182.932 155.213 183.074 155.342 183.274 155.45C183.474 155.558 183.74 155.642 184.074 155.7C184.415 155.767 184.844 155.8 185.361 155.8C185.919 155.8 186.378 155.767 186.736 155.7C187.094 155.633 187.378 155.542 187.586 155.425C187.803 155.308 187.953 155.167 188.036 155C188.119 154.842 188.161 154.667 188.161 154.475ZM191.986 141.438V142.85C191.986 143.067 191.924 143.237 191.799 143.362C191.682 143.487 191.478 143.583 191.186 143.65L190.249 143.862C190.299 144.046 190.336 144.233 190.361 144.425C190.394 144.617 190.411 144.817 190.411 145.025C190.411 145.675 190.274 146.258 189.999 146.775C189.732 147.292 189.361 147.733 188.886 148.1C188.419 148.458 187.865 148.737 187.224 148.937C186.582 149.129 185.894 149.225 185.161 149.225C184.961 149.225 184.765 149.221 184.574 149.212C184.382 149.196 184.194 149.171 184.011 149.137C183.728 149.312 183.586 149.508 183.586 149.725C183.586 149.942 183.703 150.1 183.936 150.2C184.169 150.292 184.478 150.358 184.861 150.4C185.244 150.433 185.678 150.458 186.161 150.475C186.653 150.483 187.153 150.512 187.661 150.562C188.169 150.604 188.665 150.679 189.149 150.788C189.64 150.896 190.078 151.071 190.461 151.312C190.844 151.554 191.153 151.879 191.386 152.287C191.619 152.687 191.736 153.2 191.736 153.825C191.736 154.408 191.594 154.979 191.311 155.538C191.028 156.096 190.611 156.592 190.061 157.025C189.511 157.458 188.836 157.804 188.036 158.063C187.236 158.329 186.319 158.463 185.286 158.463C184.269 158.463 183.39 158.367 182.649 158.175C181.915 157.983 181.303 157.729 180.811 157.413C180.328 157.104 179.969 156.746 179.736 156.338C179.503 155.929 179.386 155.504 179.386 155.063C179.386 154.488 179.553 154.008 179.886 153.625C180.219 153.242 180.686 152.933 181.286 152.7C180.969 152.508 180.719 152.262 180.536 151.962C180.353 151.662 180.261 151.275 180.261 150.8C180.261 150.608 180.294 150.408 180.361 150.2C180.428 149.983 180.532 149.775 180.674 149.575C180.824 149.367 181.007 149.171 181.224 148.987C181.44 148.804 181.699 148.642 181.999 148.5C181.324 148.142 180.79 147.671 180.399 147.087C180.007 146.496 179.811 145.808 179.811 145.025C179.811 144.375 179.949 143.792 180.224 143.275C180.499 142.75 180.874 142.308 181.349 141.95C181.832 141.583 182.399 141.304 183.049 141.112C183.699 140.912 184.403 140.812 185.161 140.812C186.261 140.812 187.236 141.021 188.086 141.438H191.986ZM197.565 141.037V154H193.69V141.037H197.565ZM197.965 137.487C197.965 137.796 197.903 138.087 197.778 138.362C197.653 138.629 197.482 138.867 197.265 139.075C197.048 139.275 196.794 139.437 196.503 139.562C196.219 139.679 195.915 139.737 195.59 139.737C195.273 139.737 194.978 139.679 194.703 139.562C194.428 139.437 194.182 139.275 193.965 139.075C193.757 138.867 193.59 138.629 193.465 138.362C193.348 138.087 193.29 137.796 193.29 137.487C193.29 137.171 193.348 136.875 193.465 136.6C193.59 136.325 193.757 136.083 193.965 135.875C194.182 135.667 194.428 135.504 194.703 135.387C194.978 135.271 195.273 135.212 195.59 135.212C195.915 135.212 196.219 135.271 196.503 135.387C196.794 135.504 197.048 135.667 197.265 135.875C197.482 136.083 197.653 136.325 197.778 136.6C197.903 136.875 197.965 137.171 197.965 137.487ZM203.843 142.437C204.093 142.204 204.351 141.987 204.618 141.787C204.884 141.587 205.168 141.421 205.468 141.287C205.776 141.146 206.105 141.037 206.455 140.962C206.813 140.879 207.201 140.837 207.618 140.837C208.326 140.837 208.951 140.962 209.493 141.212C210.043 141.454 210.505 141.796 210.88 142.237C211.255 142.671 211.538 143.192 211.73 143.8C211.922 144.4 212.018 145.054 212.018 145.762V154H208.143V145.762C208.143 145.129 207.997 144.637 207.705 144.287C207.413 143.929 206.984 143.75 206.418 143.75C205.993 143.75 205.593 143.842 205.218 144.025C204.851 144.2 204.493 144.442 204.143 144.75V154H200.268V141.037H202.668C203.151 141.037 203.468 141.254 203.618 141.687L203.843 142.437Z" fill="#2C2D5B"/>
<path d="M43.3735 86.936C43.6295 86.936 43.8855 86.9893 44.1415 87.096C44.3975 87.1813 44.6428 87.3413 44.8775 87.576L49.1655 92.088C47.2882 94.5413 44.9308 96.3973 42.0935 97.656C39.2775 98.8933 35.9388 99.512 32.0775 99.512C28.5362 99.512 25.3575 98.9147 22.5415 97.72C19.7468 96.504 17.3682 94.84 15.4055 92.728C13.4642 90.5947 11.9708 88.0773 10.9255 85.176C9.88017 82.2533 9.3575 79.0853 9.3575 75.672C9.3575 72.1947 9.92283 69.0053 11.0535 66.104C12.1842 63.1813 13.7735 60.664 15.8215 58.552C17.8695 56.44 20.3228 54.7973 23.1815 53.624C26.0402 52.4507 29.1868 51.864 32.6215 51.864C34.3708 51.864 36.0135 52.024 37.5495 52.344C39.1068 52.6427 40.5575 53.0693 41.9015 53.624C43.2455 54.1573 44.4828 54.808 45.6135 55.576C46.7442 56.344 47.7468 57.176 48.6215 58.072L44.9735 62.968C44.7388 63.2667 44.4615 63.544 44.1415 63.8C43.8215 64.0347 43.3735 64.152 42.7975 64.152C42.4135 64.152 42.0508 64.0667 41.7095 63.896C41.3682 63.7253 41.0055 63.5227 40.6215 63.288C40.2375 63.032 39.8108 62.7653 39.3415 62.488C38.8935 62.1893 38.3495 61.9227 37.7095 61.688C37.0908 61.432 36.3548 61.2187 35.5015 61.048C34.6695 60.8773 33.6882 60.792 32.5575 60.792C30.7655 60.792 29.1228 61.1227 27.6295 61.784C26.1575 62.4453 24.8775 63.416 23.7895 64.696C22.7228 65.9547 21.8908 67.512 21.2935 69.368C20.7175 71.2027 20.4295 73.304 20.4295 75.672C20.4295 78.0613 20.7495 80.184 21.3895 82.04C22.0508 83.896 22.9362 85.464 24.0455 86.744C25.1762 88.0027 26.4882 88.9627 27.9815 89.624C29.4748 90.2853 31.0748 90.616 32.7815 90.616C33.7628 90.616 34.6588 90.5733 35.4695 90.488C36.2802 90.3813 37.0375 90.2213 37.7415 90.008C38.4455 89.7733 39.1068 89.4747 39.7255 89.112C40.3442 88.728 40.9735 88.248 41.6135 87.672C41.8695 87.4587 42.1468 87.288 42.4455 87.16C42.7442 87.0107 43.0535 86.936 43.3735 86.936ZM173.523 75.256C176.339 75.256 178.365 74.584 179.603 73.24C180.84 71.896 181.459 70.0187 181.459 67.608C181.459 66.5413 181.299 65.5707 180.979 64.696C180.659 63.8213 180.168 63.0747 179.507 62.456C178.867 61.816 178.045 61.3253 177.043 60.984C176.061 60.6427 174.888 60.472 173.523 60.472H167.891V75.256H173.523ZM173.523 52.376C176.808 52.376 179.624 52.7707 181.971 53.56C184.339 54.328 186.28 55.3947 187.795 56.76C189.331 58.1253 190.461 59.736 191.187 61.592C191.912 63.448 192.275 65.4533 192.275 67.608C192.275 69.9333 191.901 72.0667 191.155 74.008C190.408 75.9493 189.267 77.6133 187.731 79C186.195 80.3867 184.243 81.4747 181.875 82.264C179.528 83.032 176.744 83.416 173.523 83.416H167.891V99H157.075V52.376H173.523ZM208.642 60.696V71.576H223.298V79.576H208.642V90.68H227.778V99H197.762V52.376H227.778V60.696H208.642ZM249.618 74.296C251.09 74.296 252.338 74.1147 253.362 73.752C254.407 73.368 255.26 72.8453 255.922 72.184C256.583 71.5227 257.063 70.7547 257.362 69.88C257.66 68.984 257.81 68.024 257.81 67C257.81 64.952 257.138 63.352 255.794 62.2C254.471 61.048 252.412 60.472 249.618 60.472H245.266V74.296H249.618ZM272.594 99H262.802C260.988 99 259.687 98.3173 258.898 96.952L251.154 83.416C250.791 82.84 250.386 82.424 249.938 82.168C249.49 81.8907 248.85 81.752 248.017 81.752H245.266V99H234.45V52.376H249.618C252.988 52.376 255.858 52.728 258.226 53.432C260.615 54.1147 262.556 55.0747 264.05 56.312C265.564 57.5493 266.663 59.0107 267.346 60.696C268.028 62.3813 268.37 64.216 268.37 66.2C268.37 67.7147 268.167 69.144 267.762 70.488C267.356 71.832 266.759 73.08 265.97 74.232C265.18 75.3627 264.199 76.376 263.026 77.272C261.874 78.168 260.54 78.904 259.026 79.48C259.73 79.8427 260.391 80.3013 261.01 80.856C261.628 81.3893 262.183 82.0293 262.674 82.776L272.594 99ZM301.152 81.176L296.832 68.408C296.512 67.5973 296.171 66.648 295.808 65.56C295.445 64.4507 295.083 63.256 294.72 61.976C294.4 63.2773 294.059 64.4827 293.696 65.592C293.333 66.7013 292.992 67.6613 292.672 68.472L288.384 81.176H301.152ZM318.336 99H309.952C309.013 99 308.256 98.7867 307.68 98.36C307.104 97.912 306.667 97.3467 306.368 96.664L303.616 88.536H285.888L283.136 96.664C282.901 97.2613 282.475 97.8053 281.856 98.296C281.259 98.7653 280.512 99 279.616 99H271.168L289.216 52.376H300.288L318.336 99ZM337.18 74.296C338.652 74.296 339.9 74.1147 340.924 73.752C341.969 73.368 342.823 72.8453 343.484 72.184C344.145 71.5227 344.625 70.7547 344.924 69.88C345.223 68.984 345.372 68.024 345.372 67C345.372 64.952 344.7 63.352 343.356 62.2C342.033 61.048 339.975 60.472 337.18 60.472H332.828V74.296H337.18ZM360.156 99H350.364C348.551 99 347.249 98.3173 346.46 96.952L338.716 83.416C338.353 82.84 337.948 82.424 337.5 82.168C337.052 81.8907 336.412 81.752 335.58 81.752H332.828V99H322.012V52.376H337.18C340.551 52.376 343.42 52.728 345.788 53.432C348.177 54.1147 350.119 55.0747 351.612 56.312C353.127 57.5493 354.225 59.0107 354.908 60.696C355.591 62.3813 355.932 64.216 355.932 66.2C355.932 67.7147 355.729 69.144 355.324 70.488C354.919 71.832 354.321 73.08 353.532 74.232C352.743 75.3627 351.761 76.376 350.588 77.272C349.436 78.168 348.103 78.904 346.588 79.48C347.292 79.8427 347.953 80.3013 348.572 80.856C349.191 81.3893 349.745 82.0293 350.236 82.776L360.156 99Z" fill="#141414"/>
<path d="M98.5845 75.672C98.5845 79.0427 97.9978 82.1787 96.8245 85.08C95.6725 87.9813 94.0405 90.5093 91.9285 92.664C89.8165 94.7973 87.2672 96.472 84.2805 97.688C81.3152 98.904 78.0192 99.512 74.3925 99.512C70.7658 99.512 67.4592 98.904 64.4725 97.688C61.4858 96.472 58.9258 94.7973 56.7925 92.664C54.6805 90.5093 53.0378 87.9813 51.8645 85.08C50.7125 82.1787 50.1365 79.0427 50.1365 75.672C50.1365 72.3013 50.7125 69.1653 51.8645 66.264C53.0378 63.3627 54.6805 60.8453 56.7925 58.712C58.9258 56.5787 61.4858 54.904 64.4725 53.688C67.4592 52.472 70.7658 51.864 74.3925 51.864C78.0192 51.864 81.3152 52.4827 84.2805 53.72C87.2672 54.936 89.8165 56.6107 91.9285 58.744C94.0405 60.8773 95.6725 63.3947 96.8245 66.296C97.9978 69.1973 98.5845 72.3227 98.5845 75.672ZM87.5125 75.672C87.5125 73.368 87.2138 71.2987 86.6165 69.464C86.0192 67.608 85.1552 66.04 84.0245 64.76C82.9152 63.48 81.5498 62.4987 79.9285 61.816C78.3072 61.1333 76.4618 60.792 74.3925 60.792C72.3018 60.792 70.4352 61.1333 68.7925 61.816C67.1712 62.4987 65.7952 63.48 64.6645 64.76C63.5552 66.04 62.7018 67.608 62.1045 69.464C61.5072 71.2987 61.2085 73.368 61.2085 75.672C61.2085 77.9973 61.5072 80.088 62.1045 81.944C62.7018 83.7787 63.5552 85.336 64.6645 86.616C65.7952 87.896 67.1712 88.8773 68.7925 89.56C70.4352 90.2213 72.3018 90.552 74.3925 90.552C76.4618 90.552 78.3072 90.2213 79.9285 89.56C81.5498 88.8773 82.9152 87.896 84.0245 86.616C85.1552 85.336 86.0192 83.7787 86.6165 81.944C87.2138 80.088 87.5125 77.9973 87.5125 75.672ZM150.71 75.672C150.71 79.0427 150.123 82.1787 148.95 85.08C147.798 87.9813 146.166 90.5093 144.054 92.664C141.942 94.7973 139.392 96.472 136.406 97.688C133.44 98.904 130.144 99.512 126.518 99.512C122.891 99.512 119.584 98.904 116.597 97.688C113.611 96.472 111.051 94.7973 108.918 92.664C106.806 90.5093 105.163 87.9813 103.99 85.08C102.838 82.1787 102.262 79.0427 102.262 75.672C102.262 72.3013 102.838 69.1653 103.99 66.264C105.163 63.3627 106.806 60.8453 108.918 58.712C111.051 56.5787 113.611 54.904 116.597 53.688C119.584 52.472 122.891 51.864 126.518 51.864C130.144 51.864 133.44 52.4827 136.406 53.72C139.392 54.936 141.942 56.6107 144.054 58.744C146.166 60.8773 147.798 63.3947 148.95 66.296C150.123 69.1973 150.71 72.3227 150.71 75.672ZM139.638 75.672C139.638 73.368 139.339 71.2987 138.742 69.464C138.144 67.608 137.28 66.04 136.15 64.76C135.04 63.48 133.675 62.4987 132.054 61.816C130.432 61.1333 128.587 60.792 126.518 60.792C124.427 60.792 122.56 61.1333 120.918 61.816C119.296 62.4987 117.92 63.48 116.79 64.76C115.68 66.04 114.827 67.608 114.23 69.464C113.632 71.2987 113.334 73.368 113.334 75.672C113.334 77.9973 113.632 80.088 114.23 81.944C114.827 83.7787 115.68 85.336 116.79 86.616C117.92 87.896 119.296 88.8773 120.918 89.56C122.56 90.2213 124.427 90.552 126.518 90.552C128.587 90.552 130.432 90.2213 132.054 89.56C133.675 88.8773 135.04 87.896 136.15 86.616C137.28 85.336 138.144 83.7787 138.742 81.944C139.339 80.088 139.638 77.9973 139.638 75.672Z" fill="#2B468B"/>
<path d="M183.436 32.3878C171.068 41.577 153.852 32.1244 155.06 16.5194C155.659 8.80534 161.592 1.98308 169.12 0.489187C174.265 -0.53434 179.003 0.530581 183.332 3.68395C183.397 3.73161 183.46 3.73035 183.522 3.68018C186.751 1.22924 190.311 0.00250871 194.202 7.56703e-08C206.575 9.95514e-08 215.218 12.5608 210.853 24.2222C206.731 35.2327 193.199 39.6203 183.771 32.3916C183.662 32.3063 183.55 32.3051 183.436 32.3878ZM172.012 8.18069C169.953 11.0594 169.864 15.0368 171.559 18.1224C172.746 20.2849 174.554 21.7537 176.983 22.5289C177.011 22.5374 177.041 22.5381 177.069 22.531C177.097 22.5239 177.123 22.5092 177.144 22.4884C177.165 22.4677 177.18 22.4416 177.188 22.413C177.195 22.3844 177.195 22.3542 177.187 22.3257C175.425 15.97 177.444 9.17411 182.277 4.78273C182.317 4.7454 182.346 4.69742 182.361 4.64418C182.376 4.59094 182.376 4.53456 182.361 4.48138C182.346 4.4282 182.316 4.38033 182.276 4.34316C182.235 4.30599 182.185 4.28099 182.132 4.27097C177.799 3.50583 174.426 4.80907 172.012 8.18069ZM179.633 17.1102C178.362 18.8826 178.012 20.5006 177.942 22.5966C177.937 22.7521 178.011 22.8387 178.165 22.8563C180.153 23.0946 181.937 22.8462 183.518 22.1112C186.849 20.5608 189.161 17.1629 189.024 13.3773C189.022 13.3125 188.996 13.2505 188.951 13.2033C188.906 13.1561 188.844 13.1269 188.779 13.1215C184.826 12.7953 181.777 14.1249 179.633 17.1102ZM189.894 13.7499C191.429 20.3426 189.507 26.9278 184.548 31.432C184.535 31.4433 184.526 31.4578 184.521 31.474C184.515 31.4903 184.515 31.5076 184.519 31.5243C184.522 31.5409 184.531 31.5561 184.542 31.5684C184.554 31.5807 184.569 31.5895 184.585 31.5939C188.548 32.6023 192.559 31.3869 194.86 27.9889C195.701 26.7497 196.219 25.5593 196.414 24.4179C197.292 19.3379 194.749 15.3567 190.165 13.5128C190.131 13.4985 190.093 13.494 190.057 13.5C190.02 13.506 189.986 13.5222 189.957 13.5468C189.929 13.5714 189.908 13.6034 189.897 13.6392C189.886 13.6751 189.885 13.7134 189.894 13.7499Z" fill="url(#paint0_linear_272_2)"/>
<defs>
<linearGradient id="paint0_linear_272_2" x1="183.5" y1="5.5012e-08" x2="183.5" y2="36" gradientUnits="userSpaceOnUse">
<stop stop-color="#386DBD"/>
<stop offset="1" stop-color="#0F4571"/>
</linearGradient>
</defs>
</svg>
