<svg width="472" height="115" viewBox="0 0 472 115" fill="none" xmlns="http://www.w3.org/2000/svg">
<path d="M220.674 105.287C220.774 105.287 220.874 105.308 220.974 105.35C221.074 105.383 221.169 105.446 221.261 105.537L222.936 107.3C222.203 108.258 221.282 108.983 220.174 109.475C219.074 109.958 217.769 110.2 216.261 110.2C214.878 110.2 213.636 109.967 212.536 109.5C211.444 109.025 210.515 108.375 209.749 107.55C208.99 106.717 208.407 105.733 207.999 104.6C207.59 103.458 207.386 102.221 207.386 100.887C207.386 99.5292 207.607 98.2833 208.049 97.15C208.49 96.0083 209.111 95.025 209.911 94.2C210.711 93.375 211.669 92.7333 212.786 92.275C213.903 91.8167 215.132 91.5875 216.474 91.5875C217.157 91.5875 217.799 91.65 218.399 91.775C219.007 91.8917 219.574 92.0583 220.099 92.275C220.624 92.4833 221.107 92.7375 221.549 93.0375C221.99 93.3375 222.382 93.6625 222.724 94.0125L221.299 95.925C221.207 96.0417 221.099 96.15 220.974 96.25C220.849 96.3417 220.674 96.3875 220.449 96.3875C220.299 96.3875 220.157 96.3542 220.024 96.2875C219.89 96.2208 219.749 96.1417 219.599 96.05C219.449 95.95 219.282 95.8458 219.099 95.7375C218.924 95.6208 218.711 95.5167 218.461 95.425C218.219 95.325 217.932 95.2417 217.599 95.175C217.274 95.1083 216.89 95.075 216.449 95.075C215.749 95.075 215.107 95.2042 214.524 95.4625C213.949 95.7208 213.449 96.1 213.024 96.6C212.607 97.0917 212.282 97.7 212.049 98.425C211.824 99.1417 211.711 99.9625 211.711 100.887C211.711 101.821 211.836 102.65 212.086 103.375C212.344 104.1 212.69 104.712 213.124 105.212C213.565 105.704 214.078 106.079 214.661 106.337C215.244 106.596 215.869 106.725 216.536 106.725C216.919 106.725 217.269 106.708 217.586 106.675C217.903 106.633 218.199 106.571 218.474 106.487C218.749 106.396 219.007 106.279 219.249 106.137C219.49 105.987 219.736 105.8 219.986 105.575C220.086 105.492 220.194 105.425 220.311 105.375C220.428 105.317 220.549 105.287 220.674 105.287ZM231.018 104.725C230.243 104.758 229.605 104.825 229.105 104.925C228.605 105.025 228.21 105.15 227.918 105.3C227.626 105.45 227.422 105.621 227.305 105.812C227.197 106.004 227.143 106.212 227.143 106.437C227.143 106.879 227.264 107.192 227.505 107.375C227.747 107.55 228.101 107.637 228.568 107.637C229.068 107.637 229.505 107.55 229.88 107.375C230.255 107.2 230.635 106.917 231.018 106.525V104.725ZM224.043 98.8375C224.826 98.1458 225.693 97.6333 226.643 97.3C227.601 96.9583 228.626 96.7875 229.718 96.7875C230.501 96.7875 231.205 96.9167 231.83 97.175C232.464 97.425 232.997 97.7792 233.43 98.2375C233.872 98.6875 234.21 99.225 234.443 99.85C234.676 100.475 234.793 101.158 234.793 101.9V110H233.018C232.651 110 232.372 109.95 232.18 109.85C231.997 109.75 231.843 109.542 231.718 109.225L231.443 108.512C231.118 108.787 230.805 109.029 230.505 109.237C230.205 109.446 229.893 109.625 229.568 109.775C229.251 109.917 228.91 110.021 228.543 110.088C228.185 110.163 227.785 110.2 227.343 110.2C226.751 110.2 226.214 110.125 225.73 109.975C225.247 109.817 224.835 109.587 224.493 109.287C224.16 108.987 223.901 108.617 223.718 108.175C223.535 107.725 223.443 107.208 223.443 106.625C223.443 106.158 223.56 105.687 223.793 105.212C224.026 104.729 224.43 104.292 225.005 103.9C225.58 103.5 226.355 103.167 227.33 102.9C228.305 102.633 229.535 102.483 231.018 102.45V101.9C231.018 101.142 230.86 100.596 230.543 100.262C230.235 99.9208 229.793 99.75 229.218 99.75C228.76 99.75 228.385 99.8 228.093 99.9C227.801 100 227.539 100.112 227.305 100.237C227.08 100.362 226.86 100.475 226.643 100.575C226.426 100.675 226.168 100.725 225.868 100.725C225.601 100.725 225.376 100.658 225.193 100.525C225.01 100.392 224.86 100.233 224.743 100.05L224.043 98.8375ZM245.132 100.512C244.841 100.187 244.524 99.9625 244.182 99.8375C243.841 99.7042 243.482 99.6375 243.107 99.6375C242.749 99.6375 242.42 99.7083 242.12 99.85C241.82 99.9917 241.557 100.221 241.332 100.537C241.116 100.846 240.945 101.25 240.82 101.75C240.695 102.25 240.632 102.854 240.632 103.562C240.632 104.246 240.682 104.821 240.782 105.287C240.882 105.754 241.02 106.133 241.195 106.425C241.378 106.708 241.595 106.912 241.845 107.037C242.095 107.162 242.374 107.225 242.682 107.225C242.966 107.225 243.22 107.2 243.445 107.15C243.678 107.092 243.891 107.012 244.082 106.912C244.274 106.812 244.453 106.687 244.62 106.537C244.795 106.379 244.966 106.2 245.132 106V100.512ZM249.007 91.2875V110H246.607C246.124 110 245.807 109.783 245.657 109.35L245.357 108.362C245.099 108.637 244.828 108.887 244.545 109.112C244.262 109.337 243.953 109.533 243.62 109.7C243.295 109.858 242.941 109.979 242.557 110.063C242.182 110.154 241.774 110.2 241.332 110.2C240.657 110.2 240.032 110.05 239.457 109.75C238.882 109.45 238.387 109.017 237.97 108.45C237.553 107.883 237.224 107.192 236.982 106.375C236.749 105.55 236.632 104.612 236.632 103.562C236.632 102.596 236.766 101.7 237.032 100.875C237.299 100.042 237.674 99.325 238.157 98.725C238.649 98.1167 239.237 97.6417 239.92 97.3C240.603 96.9583 241.357 96.7875 242.182 96.7875C242.857 96.7875 243.424 96.8833 243.882 97.075C244.341 97.2667 244.757 97.525 245.132 97.85V91.2875H249.007ZM258.313 104.725C257.538 104.758 256.9 104.825 256.4 104.925C255.9 105.025 255.505 105.15 255.213 105.3C254.921 105.45 254.717 105.621 254.6 105.812C254.492 106.004 254.438 106.212 254.438 106.437C254.438 106.879 254.559 107.192 254.8 107.375C255.042 107.55 255.396 107.637 255.863 107.637C256.363 107.637 256.8 107.55 257.175 107.375C257.55 107.2 257.93 106.917 258.313 106.525V104.725ZM251.338 98.8375C252.121 98.1458 252.988 97.6333 253.938 97.3C254.896 96.9583 255.921 96.7875 257.013 96.7875C257.796 96.7875 258.5 96.9167 259.125 97.175C259.759 97.425 260.292 97.7792 260.725 98.2375C261.167 98.6875 261.505 99.225 261.738 99.85C261.971 100.475 262.088 101.158 262.088 101.9V110H260.313C259.946 110 259.667 109.95 259.475 109.85C259.292 109.75 259.138 109.542 259.013 109.225L258.738 108.512C258.413 108.787 258.1 109.029 257.8 109.237C257.5 109.446 257.188 109.625 256.863 109.775C256.546 109.917 256.205 110.021 255.838 110.088C255.48 110.163 255.08 110.2 254.638 110.2C254.046 110.2 253.509 110.125 253.025 109.975C252.542 109.817 252.13 109.587 251.788 109.287C251.455 108.987 251.196 108.617 251.013 108.175C250.83 107.725 250.738 107.208 250.738 106.625C250.738 106.158 250.855 105.687 251.088 105.212C251.321 104.729 251.725 104.292 252.3 103.9C252.875 103.5 253.65 103.167 254.625 102.9C255.6 102.633 256.83 102.483 258.313 102.45V101.9C258.313 101.142 258.155 100.596 257.838 100.262C257.53 99.9208 257.088 99.75 256.513 99.75C256.055 99.75 255.68 99.8 255.388 99.9C255.096 100 254.834 100.112 254.6 100.237C254.375 100.362 254.155 100.475 253.938 100.575C253.721 100.675 253.463 100.725 253.163 100.725C252.896 100.725 252.671 100.658 252.488 100.525C252.305 100.392 252.155 100.233 252.038 100.05L251.338 98.8375ZM272.802 99.875C272.702 100.033 272.594 100.146 272.477 100.212C272.369 100.279 272.227 100.312 272.052 100.312C271.869 100.312 271.686 100.275 271.502 100.2C271.319 100.117 271.119 100.029 270.902 99.9375C270.694 99.8458 270.456 99.7625 270.19 99.6875C269.923 99.6042 269.619 99.5625 269.277 99.5625C268.786 99.5625 268.406 99.6583 268.14 99.85C267.881 100.033 267.752 100.292 267.752 100.625C267.752 100.867 267.836 101.067 268.002 101.225C268.177 101.383 268.406 101.525 268.69 101.65C268.973 101.767 269.294 101.879 269.652 101.987C270.011 102.096 270.377 102.217 270.752 102.35C271.127 102.483 271.494 102.642 271.852 102.825C272.211 103 272.531 103.221 272.815 103.487C273.098 103.746 273.323 104.062 273.49 104.437C273.665 104.812 273.752 105.262 273.752 105.787C273.752 106.429 273.636 107.021 273.402 107.562C273.169 108.104 272.819 108.571 272.352 108.962C271.894 109.354 271.323 109.658 270.64 109.875C269.965 110.092 269.186 110.2 268.302 110.2C267.861 110.2 267.419 110.158 266.977 110.075C266.536 109.992 266.106 109.879 265.69 109.737C265.281 109.596 264.902 109.429 264.552 109.237C264.202 109.037 263.902 108.825 263.652 108.6L264.552 107.175C264.652 107.008 264.777 106.879 264.927 106.788C265.086 106.687 265.286 106.637 265.527 106.637C265.752 106.637 265.952 106.687 266.127 106.788C266.311 106.887 266.506 106.996 266.715 107.112C266.923 107.229 267.165 107.337 267.44 107.437C267.723 107.537 268.077 107.587 268.502 107.587C268.802 107.587 269.056 107.558 269.265 107.5C269.473 107.433 269.64 107.346 269.765 107.237C269.89 107.129 269.981 107.008 270.04 106.875C270.098 106.742 270.127 106.604 270.127 106.462C270.127 106.204 270.04 105.992 269.865 105.825C269.69 105.658 269.461 105.517 269.177 105.4C268.894 105.275 268.569 105.162 268.202 105.062C267.844 104.954 267.477 104.833 267.102 104.7C266.727 104.567 266.356 104.408 265.99 104.225C265.631 104.033 265.311 103.796 265.027 103.512C264.744 103.221 264.515 102.867 264.34 102.45C264.165 102.033 264.077 101.529 264.077 100.937C264.077 100.387 264.181 99.8667 264.39 99.375C264.606 98.875 264.927 98.4375 265.352 98.0625C265.777 97.6875 266.311 97.3917 266.952 97.175C267.594 96.95 268.344 96.8375 269.202 96.8375C269.669 96.8375 270.119 96.8792 270.552 96.9625C270.994 97.0458 271.406 97.1625 271.79 97.3125C272.173 97.4625 272.523 97.6417 272.84 97.85C273.156 98.05 273.436 98.2708 273.677 98.5125L272.802 99.875ZM280.335 110.2C279.718 110.2 279.173 110.113 278.698 109.937C278.231 109.754 277.835 109.5 277.51 109.175C277.193 108.842 276.952 108.442 276.785 107.975C276.618 107.508 276.535 106.987 276.535 106.412V99.7125H275.435C275.235 99.7125 275.064 99.65 274.923 99.525C274.781 99.3917 274.71 99.2 274.71 98.95V97.4375L276.773 97.0375L277.535 93.875C277.635 93.475 277.918 93.275 278.385 93.275H280.41V97.0625H283.623V99.7125H280.41V106.15C280.41 106.45 280.481 106.7 280.623 106.9C280.773 107.092 280.985 107.187 281.26 107.187C281.402 107.187 281.518 107.175 281.61 107.15C281.71 107.117 281.793 107.083 281.86 107.05C281.935 107.008 282.002 106.975 282.06 106.95C282.127 106.917 282.202 106.9 282.285 106.9C282.402 106.9 282.493 106.929 282.56 106.987C282.635 107.037 282.71 107.121 282.785 107.237L283.96 109.075C283.46 109.45 282.898 109.733 282.273 109.925C281.648 110.108 281.002 110.2 280.335 110.2ZM288.917 99.0375C289.317 98.3375 289.776 97.7875 290.292 97.3875C290.817 96.9875 291.417 96.7875 292.092 96.7875C292.676 96.7875 293.151 96.925 293.517 97.2L293.267 100.05C293.226 100.233 293.155 100.358 293.055 100.425C292.963 100.492 292.834 100.525 292.667 100.525C292.601 100.525 292.513 100.521 292.405 100.512C292.297 100.504 292.184 100.496 292.067 100.487C291.951 100.471 291.83 100.458 291.705 100.45C291.588 100.433 291.48 100.425 291.38 100.425C290.813 100.425 290.359 100.575 290.017 100.875C289.684 101.175 289.401 101.592 289.167 102.125V110H285.292V97.0375H287.592C287.784 97.0375 287.942 97.0542 288.067 97.0875C288.201 97.1208 288.309 97.175 288.392 97.25C288.484 97.3167 288.551 97.4083 288.592 97.525C288.642 97.6417 288.684 97.7833 288.717 97.95L288.917 99.0375ZM300.594 96.8375C301.577 96.8375 302.473 96.9917 303.281 97.3C304.089 97.6083 304.781 98.05 305.356 98.625C305.939 99.2 306.389 99.9 306.706 100.725C307.031 101.542 307.194 102.462 307.194 103.487C307.194 104.521 307.031 105.454 306.706 106.287C306.389 107.112 305.939 107.817 305.356 108.4C304.781 108.975 304.089 109.421 303.281 109.737C302.473 110.046 301.577 110.2 300.594 110.2C299.602 110.2 298.698 110.046 297.881 109.737C297.073 109.421 296.373 108.975 295.781 108.4C295.198 107.817 294.744 107.112 294.419 106.287C294.102 105.454 293.944 104.521 293.944 103.487C293.944 102.462 294.102 101.542 294.419 100.725C294.744 99.9 295.198 99.2 295.781 98.625C296.373 98.05 297.073 97.6083 297.881 97.3C298.698 96.9917 299.602 96.8375 300.594 96.8375ZM300.594 107.325C301.485 107.325 302.139 107.012 302.556 106.387C302.981 105.754 303.194 104.796 303.194 103.512C303.194 102.229 302.981 101.275 302.556 100.65C302.139 100.025 301.485 99.7125 300.594 99.7125C299.677 99.7125 299.006 100.025 298.581 100.65C298.156 101.275 297.944 102.229 297.944 103.512C297.944 104.796 298.156 105.754 298.581 106.387C299.006 107.012 299.677 107.325 300.594 107.325Z" fill="#2C2D5B"/>
<path d="M153.874 62.936C154.13 62.936 154.386 62.9893 154.642 63.096C154.898 63.1813 155.143 63.3413 155.378 63.576L159.666 68.088C157.788 70.5413 155.431 72.3973 152.594 73.656C149.778 74.8933 146.439 75.512 142.578 75.512C139.036 75.512 135.858 74.9147 133.042 73.72C130.247 72.504 127.868 70.84 125.906 68.728C123.964 66.5947 122.471 64.0773 121.426 61.176C120.38 58.2533 119.858 55.0853 119.858 51.672C119.858 48.1947 120.423 45.0053 121.554 42.104C122.684 39.1813 124.274 36.664 126.322 34.552C128.37 32.44 130.823 30.7973 133.682 29.624C136.54 28.4507 139.687 27.864 143.122 27.864C144.871 27.864 146.514 28.024 148.05 28.344C149.607 28.6427 151.058 29.0693 152.402 29.624C153.746 30.1573 154.983 30.808 156.114 31.576C157.244 32.344 158.247 33.176 159.122 34.072L155.474 38.968C155.239 39.2667 154.962 39.544 154.642 39.8C154.322 40.0347 153.874 40.152 153.298 40.152C152.914 40.152 152.551 40.0667 152.21 39.896C151.868 39.7253 151.506 39.5227 151.122 39.288C150.738 39.032 150.311 38.7653 149.842 38.488C149.394 38.1893 148.85 37.9227 148.21 37.688C147.591 37.432 146.855 37.2187 146.002 37.048C145.17 36.8773 144.188 36.792 143.058 36.792C141.266 36.792 139.623 37.1227 138.13 37.784C136.658 38.4453 135.378 39.416 134.29 40.696C133.223 41.9547 132.391 43.512 131.794 45.368C131.218 47.2027 130.93 49.304 130.93 51.672C130.93 54.0613 131.25 56.184 131.89 58.04C132.551 59.896 133.436 61.464 134.546 62.744C135.676 64.0027 136.988 64.9627 138.482 65.624C139.975 66.2853 141.575 66.616 143.282 66.616C144.263 66.616 145.159 66.5733 145.97 66.488C146.78 66.3813 147.538 66.2213 148.242 66.008C148.946 65.7733 149.607 65.4747 150.226 65.112C150.844 64.728 151.474 64.248 152.114 63.672C152.37 63.4587 152.647 63.288 152.946 63.16C153.244 63.0107 153.554 62.936 153.874 62.936ZM284.023 51.256C286.839 51.256 288.865 50.584 290.103 49.24C291.34 47.896 291.959 46.0187 291.959 43.608C291.959 42.5413 291.799 41.5707 291.479 40.696C291.159 39.8213 290.668 39.0747 290.007 38.456C289.367 37.816 288.545 37.3253 287.543 36.984C286.561 36.6427 285.388 36.472 284.023 36.472H278.391V51.256H284.023ZM284.023 28.376C287.308 28.376 290.124 28.7707 292.471 29.56C294.839 30.328 296.78 31.3947 298.295 32.76C299.831 34.1253 300.961 35.736 301.687 37.592C302.412 39.448 302.775 41.4533 302.775 43.608C302.775 45.9333 302.401 48.0667 301.655 50.008C300.908 51.9493 299.767 53.6133 298.231 55C296.695 56.3867 294.743 57.4747 292.375 58.264C290.028 59.032 287.244 59.416 284.023 59.416H278.391V75H267.575V28.376H284.023ZM319.142 36.696V47.576H333.798V55.576H319.142V66.68H338.278V75H308.262V28.376H338.278V36.696H319.142ZM360.118 50.296C361.59 50.296 362.838 50.1147 363.862 49.752C364.907 49.368 365.76 48.8453 366.422 48.184C367.083 47.5227 367.563 46.7547 367.862 45.88C368.16 44.984 368.31 44.024 368.31 43C368.31 40.952 367.638 39.352 366.294 38.2C364.971 37.048 362.912 36.472 360.118 36.472H355.766V50.296H360.118ZM383.094 75H373.302C371.488 75 370.187 74.3173 369.398 72.952L361.654 59.416C361.291 58.84 360.886 58.424 360.438 58.168C359.99 57.8907 359.35 57.752 358.517 57.752H355.766V75H344.95V28.376H360.118C363.488 28.376 366.358 28.728 368.726 29.432C371.115 30.1147 373.056 31.0747 374.55 32.312C376.064 33.5493 377.163 35.0107 377.846 36.696C378.528 38.3813 378.87 40.216 378.87 42.2C378.87 43.7147 378.667 45.144 378.262 46.488C377.856 47.832 377.259 49.08 376.47 50.232C375.68 51.3627 374.699 52.376 373.526 53.272C372.374 54.168 371.04 54.904 369.526 55.48C370.23 55.8427 370.891 56.3013 371.51 56.856C372.128 57.3893 372.683 58.0293 373.174 58.776L383.094 75ZM411.652 57.176L407.332 44.408C407.012 43.5973 406.671 42.648 406.308 41.56C405.945 40.4507 405.583 39.256 405.22 37.976C404.9 39.2773 404.559 40.4827 404.196 41.592C403.833 42.7013 403.492 43.6613 403.172 44.472L398.884 57.176H411.652ZM428.836 75H420.452C419.513 75 418.756 74.7867 418.18 74.36C417.604 73.912 417.167 73.3467 416.868 72.664L414.116 64.536H396.388L393.636 72.664C393.401 73.2613 392.975 73.8053 392.356 74.296C391.759 74.7653 391.012 75 390.116 75H381.668L399.716 28.376H410.788L428.836 75ZM447.68 50.296C449.152 50.296 450.4 50.1147 451.424 49.752C452.469 49.368 453.323 48.8453 453.984 48.184C454.645 47.5227 455.125 46.7547 455.424 45.88C455.723 44.984 455.872 44.024 455.872 43C455.872 40.952 455.2 39.352 453.856 38.2C452.533 37.048 450.475 36.472 447.68 36.472H443.328V50.296H447.68ZM470.656 75H460.864C459.051 75 457.749 74.3173 456.96 72.952L449.216 59.416C448.853 58.84 448.448 58.424 448 58.168C447.552 57.8907 446.912 57.752 446.08 57.752H443.328V75H432.512V28.376H447.68C451.051 28.376 453.92 28.728 456.288 29.432C458.677 30.1147 460.619 31.0747 462.112 32.312C463.627 33.5493 464.725 35.0107 465.408 36.696C466.091 38.3813 466.432 40.216 466.432 42.2C466.432 43.7147 466.229 45.144 465.824 46.488C465.419 47.832 464.821 49.08 464.032 50.232C463.243 51.3627 462.261 52.376 461.088 53.272C459.936 54.168 458.603 54.904 457.088 55.48C457.792 55.8427 458.453 56.3013 459.072 56.856C459.691 57.3893 460.245 58.0293 460.736 58.776L470.656 75Z" fill="#141414"/>
<path d="M209.085 51.672C209.085 55.0427 208.498 58.1787 207.325 61.08C206.173 63.9813 204.541 66.5093 202.429 68.664C200.317 70.7973 197.767 72.472 194.781 73.688C191.815 74.904 188.519 75.512 184.893 75.512C181.266 75.512 177.959 74.904 174.972 73.688C171.986 72.472 169.426 70.7973 167.293 68.664C165.181 66.5093 163.538 63.9813 162.365 61.08C161.213 58.1787 160.637 55.0427 160.637 51.672C160.637 48.3013 161.213 45.1653 162.365 42.264C163.538 39.3627 165.181 36.8453 167.293 34.712C169.426 32.5787 171.986 30.904 174.972 29.688C177.959 28.472 181.266 27.864 184.893 27.864C188.519 27.864 191.815 28.4827 194.781 29.72C197.767 30.936 200.317 32.6107 202.429 34.744C204.541 36.8773 206.173 39.3947 207.325 42.296C208.498 45.1973 209.085 48.3227 209.085 51.672ZM198.013 51.672C198.013 49.368 197.714 47.2987 197.117 45.464C196.519 43.608 195.655 42.04 194.525 40.76C193.415 39.48 192.05 38.4987 190.429 37.816C188.807 37.1333 186.962 36.792 184.893 36.792C182.802 36.792 180.935 37.1333 179.293 37.816C177.671 38.4987 176.295 39.48 175.165 40.76C174.055 42.04 173.202 43.608 172.605 45.464C172.007 47.2987 171.709 49.368 171.709 51.672C171.709 53.9973 172.007 56.088 172.605 57.944C173.202 59.7787 174.055 61.336 175.165 62.616C176.295 63.896 177.671 64.8773 179.293 65.56C180.935 66.2213 182.802 66.552 184.893 66.552C186.962 66.552 188.807 66.2213 190.429 65.56C192.05 64.8773 193.415 63.896 194.525 62.616C195.655 61.336 196.519 59.7787 197.117 57.944C197.714 56.088 198.013 53.9973 198.013 51.672ZM261.21 51.672C261.21 55.0427 260.623 58.1787 259.45 61.08C258.298 63.9813 256.666 66.5093 254.554 68.664C252.442 70.7973 249.892 72.472 246.906 73.688C243.94 74.904 240.644 75.512 237.018 75.512C233.391 75.512 230.084 74.904 227.097 73.688C224.111 72.472 221.551 70.7973 219.418 68.664C217.306 66.5093 215.663 63.9813 214.49 61.08C213.338 58.1787 212.762 55.0427 212.762 51.672C212.762 48.3013 213.338 45.1653 214.49 42.264C215.663 39.3627 217.306 36.8453 219.418 34.712C221.551 32.5787 224.111 30.904 227.097 29.688C230.084 28.472 233.391 27.864 237.018 27.864C240.644 27.864 243.94 28.4827 246.906 29.72C249.892 30.936 252.442 32.6107 254.554 34.744C256.666 36.8773 258.298 39.3947 259.45 42.296C260.623 45.1973 261.21 48.3227 261.21 51.672ZM250.138 51.672C250.138 49.368 249.839 47.2987 249.242 45.464C248.644 43.608 247.78 42.04 246.65 40.76C245.54 39.48 244.175 38.4987 242.554 37.816C240.932 37.1333 239.087 36.792 237.018 36.792C234.927 36.792 233.06 37.1333 231.418 37.816C229.796 38.4987 228.42 39.48 227.29 40.76C226.18 42.04 225.327 43.608 224.73 45.464C224.132 47.2987 223.834 49.368 223.834 51.672C223.834 53.9973 224.132 56.088 224.73 57.944C225.327 59.7787 226.18 61.336 227.29 62.616C228.42 63.896 229.796 64.8773 231.418 65.56C233.06 66.2213 234.927 66.552 237.018 66.552C239.087 66.552 240.932 66.2213 242.554 65.56C244.175 64.8773 245.54 63.896 246.65 62.616C247.78 61.336 248.644 59.7787 249.242 57.944C249.839 56.088 250.138 53.9973 250.138 51.672Z" fill="#2B468B"/>
<path d="M43.403 69.4814C24.525 83.5204 -1.75212 69.079 0.091991 45.238C1.00553 33.4526 10.0615 23.0297 21.5517 20.7474C29.4048 19.1836 36.6356 20.8106 43.2441 25.6283C43.3424 25.7011 43.4389 25.6991 43.5335 25.6225C48.4624 21.878 53.8964 20.0038 59.8354 20C78.719 20 91.9115 39.1901 85.25 57.0062C78.9573 73.8277 58.3033 80.531 43.9136 69.4872C43.7472 69.3569 43.577 69.355 43.403 69.4814ZM25.9662 32.4983C22.8227 36.8962 22.6865 42.9729 25.274 47.6871C27.0859 50.9908 29.8455 53.2348 33.5526 54.4191C33.5954 54.4321 33.6408 54.4332 33.6842 54.4223C33.7276 54.4115 33.7673 54.389 33.7991 54.3573C33.831 54.3256 33.8539 54.2858 33.8654 54.2421C33.877 54.1983 33.8767 54.1523 33.8647 54.1087C31.1751 44.3987 34.2562 34.016 41.6326 27.307C41.6942 27.2499 41.7388 27.1766 41.7615 27.0953C41.7842 27.0139 41.784 26.9278 41.761 26.8466C41.738 26.7653 41.6931 26.6922 41.6313 26.6354C41.5696 26.5786 41.4934 26.5404 41.4113 26.5251C34.799 25.3561 29.6506 27.3472 25.9662 32.4983ZM37.5983 46.1406C35.6577 48.8484 35.1243 51.3204 35.0165 54.5226C35.009 54.7602 35.1224 54.8924 35.357 54.9193C38.3908 55.2834 41.1144 54.9039 43.5278 53.781C48.6118 51.4124 52.1412 46.2211 51.9312 40.4376C51.9286 40.3385 51.8889 40.2438 51.8198 40.1717C51.7507 40.0996 51.657 40.055 51.5567 40.0467C45.5232 39.5484 40.8704 41.5797 37.5983 46.1406ZM53.259 41.0068C55.6024 51.079 52.6689 61.1397 45.0995 68.0212C45.0801 68.0383 45.0657 68.0605 45.0578 68.0853C45.0499 68.1101 45.0488 68.1367 45.0546 68.1621C45.0604 68.1875 45.073 68.2108 45.0909 68.2295C45.1088 68.2482 45.1314 68.2617 45.1563 68.2684C51.2049 69.8091 57.3274 67.9522 60.8397 62.7609C62.1221 60.8675 62.9127 59.049 63.2115 57.3051C64.5506 49.544 60.6695 43.4616 53.6732 40.6446C53.6208 40.6226 53.5634 40.6159 53.5074 40.625C53.4514 40.6342 53.399 40.6589 53.3561 40.6965C53.3131 40.734 53.2813 40.7829 53.2642 40.8377C53.247 40.8925 53.2452 40.951 53.259 41.0068Z" fill="url(#paint0_linear_147_6)"/>
<defs>
<linearGradient id="paint0_linear_147_6" x1="43.5" y1="20" x2="43.5" y2="75" gradientUnits="userSpaceOnUse">
<stop stop-color="#386DBD"/>
<stop offset="1" stop-color="#0F4571"/>
</linearGradient>
</defs>
</svg>
