<svg width="1440" height="1024" viewBox="0 0 1440 1024" fill="none" xmlns="http://www.w3.org/2000/svg">
<g clip-path="url(#clip0_48_336)" filter="url(#filter0_i_48_336)">
<path d="M1440 279.218C1411.1 273.286 1392.54 269.681 1384.32 268.403C1358.8 264.442 1333.88 262.17 1309.58 261.585C1281.05 260.892 1252.81 263.685 1224.84 269.964C1183.01 279.346 1142.65 299.47 1103.74 330.336C1095.09 337.181 1083.99 346.681 1070.44 358.838C1058.61 369.461 1048.25 379.656 1039.35 389.421C1039.35 389.421 1030.9 398.675 1013.99 417.184C1012.36 418.955 1010.72 420.661 1009.06 422.304C1006.08 425.261 1003.42 428.784 1001.1 432.873C1000.86 433.313 1000.51 433.638 1000.11 433.793C999.713 433.947 999.293 433.922 998.919 433.721C998.847 433.685 998.775 433.667 998.703 433.667C998.573 433.648 998.58 433.639 998.724 433.639C1000.44 433.804 1002.08 434.132 1003.65 434.625" stroke="#4E7AD8" stroke-width="2"/>
<path d="M1003.65 434.625C999.056 434.935 992.252 434.506 983.243 433.338C948.317 428.811 912.368 431.266 875.395 440.703C833.463 451.4 794.818 477.228 759.46 518.188C752.512 526.237 746.984 533.155 742.876 538.942C722.364 567.8 702.335 597.306 682.789 627.46" stroke="#7798DF" stroke-width="2"/>
<path d="M682.789 627.46C667.582 624.905 658.004 623.161 654.054 622.231C623.438 614.875 588.123 604.89 548.108 592.277C525.377 585.122 502.501 579.719 479.481 576.068C433.578 568.785 388.973 574.207 348.238 600.464C286.984 639.945 242.487 708.148 195.762 770.847C167.849 808.33 136.195 844.006 100.259 868.62C85.5784 878.669 69.9243 884.884 53.7514 890.059C35.964 895.735 18.0468 897.716 0 896" stroke="#4E7AD8" stroke-width="2"/>
<g filter="url(#filter1_i_48_336)">
<path d="M1440 370.283C1390.9 422.195 1335.55 454.028 1273.92 465.783C1262.58 467.937 1249.69 469.151 1235.26 469.425C1219.71 469.717 1206.67 469.379 1196.13 468.411C1143.78 463.675 1088.89 450.861 1035.46 439.362C1024.89 437.089 1014.34 435.994 1003.65 434.625" stroke="#92B6EF" stroke-width="2"/>
</g>
<path d="M0 1018.91C14.0396 1003.08 29.7081 991.491 47.0054 984.135C57.9604 979.499 68.8072 975.976 79.546 973.566C101.355 968.675 125.204 964.978 151.092 962.478C153.816 962.222 156.526 961.675 159.222 960.835C161.614 960.105 164.022 959.512 166.443 959.055C170.35 958.343 173.996 957.549 177.384 956.673C185.499 954.611 192.995 952.42 199.87 950.102C212.339 945.922 225.117 938.849 238.205 928.883C275.935 900.189 288.865 845.567 312.195 802.854C329.254 771.614 351.243 754.529 380.432 749.847C390.969 748.15 400.461 747.721 408.908 748.56C438.53 751.463 473.081 759.895 503.719 760.881C568.843 762.989 623.957 710.585 665.254 651.445C671.005 643.231 676.851 635.236 682.789 627.46" stroke="#92B6EF" stroke-width="2"/>
<g filter="url(#filter2_i_48_336)">
<path d="M1297.17 0H1440V279.218C1411.1 273.286 1392.54 269.681 1384.32 268.403C1358.8 264.442 1333.88 262.17 1309.58 261.585C1281.05 260.892 1252.81 263.685 1224.84 269.964C1183.01 279.346 1142.65 299.47 1103.74 330.336C1095.09 337.181 1083.99 346.681 1070.44 358.838C1058.61 369.461 1048.25 379.656 1039.35 389.421C1039.35 389.421 1030.9 398.675 1013.99 417.184C1012.36 418.955 1010.72 420.661 1009.06 422.304C1006.08 425.261 1003.42 428.784 1001.1 432.873C1000.86 433.313 1000.51 433.638 1000.11 433.793C999.713 433.947 999.293 433.922 998.919 433.721C998.847 433.685 998.775 433.667 998.703 433.667C998.573 433.648 998.58 433.639 998.724 433.639C1000.44 433.804 1002.08 434.132 1003.65 434.625C999.056 434.935 992.252 434.506 983.243 433.338C948.317 428.811 912.368 431.266 875.395 440.703C833.463 451.4 794.818 477.228 759.459 518.188C752.512 526.237 746.984 533.155 742.876 538.942C722.364 567.8 702.335 597.306 682.789 627.46C667.582 624.905 658.004 623.161 654.054 622.231C623.438 614.875 588.123 604.89 548.108 592.277C525.377 585.122 502.501 579.719 479.481 576.068C433.578 568.785 388.973 574.207 348.238 600.464C286.984 639.945 242.487 708.148 195.762 770.847C167.849 808.33 136.195 844.006 100.259 868.62C85.5784 878.669 69.9243 884.884 53.7514 890.059C35.964 895.735 18.0468 897.716 0 896V680.193C19.1423 672.837 35.1496 668.192 48.0216 666.257C78.5946 661.621 109.254 658.317 140 656.346C160.353 655.05 181.708 651.837 204.065 646.708C218.912 643.295 233.103 638.211 246.638 631.458C271.892 618.863 294.796 598.593 315.351 570.647C335.07 543.852 354.854 517.184 374.703 490.644C402.811 453.042 432.951 420.424 465.124 392.789C508.685 355.333 556.901 328.885 609.773 313.443C633.787 306.433 658.796 301.587 684.8 298.904C718.314 295.436 757.413 296.139 802.097 301.012C820.519 303.02 838.753 304.708 856.8 306.077C858.357 306.187 859.265 305.119 860.8 305.229C911.308 309.39 959.344 309.171 1004.91 304.572C1060.67 298.931 1113.47 284.009 1163.61 252.824C1173.15 246.91 1181.88 239.873 1191.03 233.412C1194.8 230.747 1198.33 227.945 1201.6 225.006C1220.64 207.885 1236.88 189.029 1250.31 168.44C1281.61 120.434 1297.23 64.2875 1297.17 0Z" fill="#325CC8"/>
</g>
<g filter="url(#filter3_i_48_336)">
<path d="M1440 279.218V370.283C1390.9 422.195 1335.55 454.028 1273.92 465.783C1262.58 467.937 1249.69 469.151 1235.26 469.425C1219.71 469.717 1206.67 469.379 1196.13 468.412C1143.78 463.675 1088.89 450.861 1035.46 439.362C1024.89 437.089 1014.34 435.994 1003.65 434.625C1002.08 434.132 1000.44 433.804 998.724 433.639C998.58 433.639 998.573 433.648 998.703 433.667C998.775 433.667 998.847 433.685 998.919 433.721C999.293 433.922 999.713 433.947 1000.11 433.793C1000.51 433.638 1000.86 433.313 1001.1 432.873C1003.42 428.784 1006.08 425.261 1009.06 422.304C1010.72 420.661 1012.36 418.955 1013.99 417.184C1030.9 398.675 1039.35 389.421 1039.35 389.421C1048.25 379.656 1058.61 369.461 1070.44 358.838C1083.99 346.681 1095.09 337.181 1103.74 330.336C1142.65 299.47 1183.01 279.346 1224.84 269.964C1252.81 263.685 1281.05 260.892 1309.58 261.585C1333.88 262.17 1358.8 264.442 1384.32 268.403C1392.54 269.681 1411.1 273.286 1440 279.218Z" fill="#6998E8"/>
</g>
<g filter="url(#filter4_di_48_336)">
<path d="M1440 370.283V590.607C1416.45 602.855 1395.82 610.548 1378.12 613.688C1361.23 616.682 1345.38 616.362 1330.57 612.73C1316.53 609.28 1301.25 602.198 1284.74 591.483C1268.86 581.188 1253.25 571.113 1237.88 561.256C1215.83 547.073 1191.42 537.792 1166.9 536.532C1116.76 533.958 1068.82 555.096 1025.15 588.444C982.595 620.971 939.351 670.747 899.2 716.198C886.386 730.709 873.225 744.636 859.719 757.979C858.883 758.8 858.054 759.613 857.233 760.416C847.099 770.327 837.031 779.536 827.027 788.042C816.216 797.223 805.78 805.419 795.719 812.629C771.488 829.987 746.047 842.336 719.395 849.673C696.454 855.971 671.481 856.354 648.93 852.959C635.157 850.906 620.951 848.168 607.33 844.663C583.95 838.658 562.789 833.812 543.849 830.124C536.079 828.609 528.649 827.624 521.557 827.167C492.887 825.306 466.205 831.338 441.514 845.265C422.241 856.126 404.101 870.208 387.092 887.512C354.184 920.97 325.622 959.247 296.843 998.099C293.297 1002.88 285.795 1011.51 274.335 1024H0V1018.91C14.0396 1003.08 29.7081 991.491 47.0054 984.135C57.9604 979.499 68.8072 975.976 79.546 973.566C101.355 968.675 125.204 964.978 151.092 962.478C153.816 962.222 156.526 961.675 159.222 960.835C161.614 960.105 164.022 959.512 166.443 959.055C170.35 958.343 173.996 957.549 177.384 956.673C185.499 954.611 192.995 952.42 199.87 950.102C212.339 945.922 225.117 938.849 238.205 928.883C275.935 900.189 288.865 845.567 312.195 802.854C329.254 771.614 351.243 754.529 380.432 749.847C390.969 748.15 400.461 747.721 408.908 748.56C438.53 751.463 473.081 759.896 503.719 760.881C568.843 762.989 623.957 710.585 665.254 651.445C671.005 643.231 676.851 635.236 682.789 627.46C702.335 597.306 722.364 567.8 742.876 538.941C746.984 533.155 752.512 526.237 759.459 518.188C794.818 477.228 833.463 451.4 875.395 440.703C912.368 431.266 948.317 428.811 983.243 433.338C992.252 434.506 999.056 434.935 1003.65 434.625C1014.34 435.994 1024.89 437.089 1035.46 439.362C1088.89 450.861 1143.78 463.675 1196.13 468.411C1206.67 469.379 1219.71 469.717 1235.26 469.424C1249.69 469.151 1262.58 467.937 1273.92 465.783C1335.55 454.028 1390.9 422.195 1440 370.283Z" fill="#BBD3F5"/>
</g>
<g filter="url(#filter5_i_48_336)">
<path d="M682.789 627.46C676.851 635.236 671.005 643.231 665.254 651.445C623.957 710.585 568.843 762.989 503.719 760.881C473.081 759.896 438.53 751.463 408.908 748.56C400.461 747.721 390.969 748.15 380.432 749.847C351.243 754.529 329.254 771.614 312.195 802.854C288.865 845.567 275.935 900.189 238.205 928.883C225.117 938.849 212.339 945.922 199.87 950.102C192.995 952.42 185.499 954.611 177.384 956.673C173.996 957.549 170.35 958.344 166.443 959.055C164.022 959.512 161.614 960.105 159.222 960.835C156.526 961.675 153.816 962.222 151.092 962.478C125.204 964.979 101.355 968.675 79.546 973.567C68.8072 975.976 57.9604 979.499 47.0054 984.135C29.7081 991.491 14.0396 1003.08 0 1018.91V896C18.0468 897.716 35.964 895.735 53.7514 890.059C69.9243 884.884 85.5784 878.669 100.259 868.62C136.195 844.006 167.849 808.33 195.762 770.847C242.487 708.148 286.984 639.945 348.238 600.464C388.973 574.207 433.578 568.785 479.481 576.068C502.501 579.719 525.377 585.122 548.108 592.277C588.123 604.89 623.438 614.875 654.054 622.231C658.004 623.161 667.582 624.905 682.789 627.46Z" fill="#6998E8"/>
</g>
</g>
<defs>
<filter id="filter0_i_48_336" x="0" y="0" width="1440" height="1028" filterUnits="userSpaceOnUse" color-interpolation-filters="sRGB">
<feFlood flood-opacity="0" result="BackgroundImageFix"/>
<feBlend mode="normal" in="SourceGraphic" in2="BackgroundImageFix" result="shape"/>
<feColorMatrix in="SourceAlpha" type="matrix" values="0 0 0 0 0 0 0 0 0 0 0 0 0 0 0 0 0 0 127 0" result="hardAlpha"/>
<feOffset dy="4"/>
<feGaussianBlur stdDeviation="2"/>
<feComposite in2="hardAlpha" operator="arithmetic" k2="-1" k3="1"/>
<feColorMatrix type="matrix" values="0 0 0 0 0 0 0 0 0 0 0 0 0 0 0 0 0 0 0.25 0"/>
<feBlend mode="normal" in2="shape" result="effect1_innerShadow_48_336"/>
</filter>
<filter id="filter1_i_48_336" x="1003.53" y="369.596" width="437.2" height="104.93" filterUnits="userSpaceOnUse" color-interpolation-filters="sRGB">
<feFlood flood-opacity="0" result="BackgroundImageFix"/>
<feBlend mode="normal" in="SourceGraphic" in2="BackgroundImageFix" result="shape"/>
<feColorMatrix in="SourceAlpha" type="matrix" values="0 0 0 0 0 0 0 0 0 0 0 0 0 0 0 0 0 0 127 0" result="hardAlpha"/>
<feOffset dy="4"/>
<feGaussianBlur stdDeviation="2"/>
<feComposite in2="hardAlpha" operator="arithmetic" k2="-1" k3="1"/>
<feColorMatrix type="matrix" values="0 0 0 0 0 0 0 0 0 0 0 0 0 0 0 0 0 0 0.44 0"/>
<feBlend mode="normal" in2="shape" result="effect1_innerShadow_48_336"/>
</filter>
<filter id="filter2_i_48_336" x="0" y="0" width="1440" height="900.597" filterUnits="userSpaceOnUse" color-interpolation-filters="sRGB">
<feFlood flood-opacity="0" result="BackgroundImageFix"/>
<feBlend mode="normal" in="SourceGraphic" in2="BackgroundImageFix" result="shape"/>
<feColorMatrix in="SourceAlpha" type="matrix" values="0 0 0 0 0 0 0 0 0 0 0 0 0 0 0 0 0 0 127 0" result="hardAlpha"/>
<feOffset dy="4"/>
<feGaussianBlur stdDeviation="2"/>
<feComposite in2="hardAlpha" operator="arithmetic" k2="-1" k3="1"/>
<feColorMatrix type="matrix" values="0 0 0 0 0 0 0 0 0 0 0 0 0 0 0 0 0 0 0.1 0"/>
<feBlend mode="normal" in2="shape" result="effect1_innerShadow_48_336"/>
</filter>
<filter id="filter3_i_48_336" x="998.611" y="261.482" width="441.39" height="212.044" filterUnits="userSpaceOnUse" color-interpolation-filters="sRGB">
<feFlood flood-opacity="0" result="BackgroundImageFix"/>
<feBlend mode="normal" in="SourceGraphic" in2="BackgroundImageFix" result="shape"/>
<feColorMatrix in="SourceAlpha" type="matrix" values="0 0 0 0 0 0 0 0 0 0 0 0 0 0 0 0 0 0 127 0" result="hardAlpha"/>
<feOffset dy="4"/>
<feGaussianBlur stdDeviation="2"/>
<feComposite in2="hardAlpha" operator="arithmetic" k2="-1" k3="1"/>
<feColorMatrix type="matrix" values="0 0 0 0 0 0 0 0 0 0 0 0 0 0 0 0 0 0 0.44 0"/>
<feBlend mode="normal" in2="shape" result="effect1_innerShadow_48_336"/>
</filter>
<filter id="filter4_di_48_336" x="-4" y="370.283" width="1448" height="661.717" filterUnits="userSpaceOnUse" color-interpolation-filters="sRGB">
<feFlood flood-opacity="0" result="BackgroundImageFix"/>
<feColorMatrix in="SourceAlpha" type="matrix" values="0 0 0 0 0 0 0 0 0 0 0 0 0 0 0 0 0 0 127 0" result="hardAlpha"/>
<feOffset dy="4"/>
<feGaussianBlur stdDeviation="2"/>
<feComposite in2="hardAlpha" operator="out"/>
<feColorMatrix type="matrix" values="0 0 0 0 0 0 0 0 0 0 0 0 0 0 0 0 0 0 0.25 0"/>
<feBlend mode="normal" in2="BackgroundImageFix" result="effect1_dropShadow_48_336"/>
<feBlend mode="normal" in="SourceGraphic" in2="effect1_dropShadow_48_336" result="shape"/>
<feColorMatrix in="SourceAlpha" type="matrix" values="0 0 0 0 0 0 0 0 0 0 0 0 0 0 0 0 0 0 127 0" result="hardAlpha"/>
<feOffset dy="4"/>
<feGaussianBlur stdDeviation="2"/>
<feComposite in2="hardAlpha" operator="arithmetic" k2="-1" k3="1"/>
<feColorMatrix type="matrix" values="0 0 0 0 0 0 0 0 0 0 0 0 0 0 0 0 0 0 0.44 0"/>
<feBlend mode="normal" in2="shape" result="effect2_innerShadow_48_336"/>
</filter>
<filter id="filter5_i_48_336" x="0" y="573.106" width="682.789" height="449.801" filterUnits="userSpaceOnUse" color-interpolation-filters="sRGB">
<feFlood flood-opacity="0" result="BackgroundImageFix"/>
<feBlend mode="normal" in="SourceGraphic" in2="BackgroundImageFix" result="shape"/>
<feColorMatrix in="SourceAlpha" type="matrix" values="0 0 0 0 0 0 0 0 0 0 0 0 0 0 0 0 0 0 127 0" result="hardAlpha"/>
<feOffset dy="4"/>
<feGaussianBlur stdDeviation="2"/>
<feComposite in2="hardAlpha" operator="arithmetic" k2="-1" k3="1"/>
<feColorMatrix type="matrix" values="0 0 0 0 0 0 0 0 0 0 0 0 0 0 0 0 0 0 0.44 0"/>
<feBlend mode="normal" in2="shape" result="effect1_innerShadow_48_336"/>
</filter>
<clipPath id="clip0_48_336">
<rect width="1440" height="1024" fill="white"/>
</clipPath>
</defs>
</svg>
