<?xml version="1.0" encoding="UTF-8" standalone="no"?>
<!DOCTYPE svg PUBLIC "-//W3C//DTD SVG 1.1//EN" "http://www.w3.org/Graphics/SVG/1.1/DTD/svg11.dtd">
<svg xmlns="http://www.w3.org/2000/svg" version="1.1" viewBox="0.00 0.00 783.00 319.00">
<path fill="#014898" d="
  M 646.74 69.92
  L 646.71 73.86
  A 0.43 0.43 0.0 0 0 647.14 74.29
  L 684.11 74.28
  A 0.43 0.43 0.0 0 1 684.54 74.71
  L 684.55 100.08
  A 0.43 0.43 0.0 0 1 684.12 100.51
  L 647.18 100.51
  A 0.43 0.43 0.0 0 0 646.75 100.94
  L 646.72 105.05
  A 0.43 0.43 0.0 0 0 647.15 105.48
  L 684.11 105.47
  A 0.43 0.43 0.0 0 1 684.54 105.90
  L 684.55 132.10
  A 0.43 0.43 0.0 0 1 684.12 132.53
  L 647.18 132.53
  A 0.43 0.43 0.0 0 0 646.75 132.96
  L 646.73 137.02
  A 0.43 0.43 0.0 0 0 647.16 137.45
  L 684.11 137.44
  A 0.43 0.43 0.0 0 1 684.54 137.87
  L 684.54 164.57
  A 0.43 0.43 0.0 0 1 684.11 165.00
  L 647.18 164.98
  A 0.43 0.43 0.0 0 0 646.75 165.41
  L 646.73 169.32
  A 0.43 0.43 0.0 0 0 647.16 169.75
  L 684.11 169.75
  A 0.43 0.43 0.0 0 1 684.54 170.18
  L 684.55 195.79
  A 0.43 0.43 0.0 0 1 684.12 196.22
  L 647.17 196.22
  A 0.43 0.43 0.0 0 0 646.74 196.65
  L 646.75 200.58
  A 0.43 0.43 0.0 0 0 647.18 201.01
  L 684.11 201.00
  A 0.43 0.43 0.0 0 1 684.54 201.43
  L 684.55 227.34
  A 0.43 0.43 0.0 0 1 684.12 227.77
  L 126.94 227.77
  A 0.43 0.43 0.0 0 1 126.51 227.34
  L 126.52 201.42
  A 0.43 0.43 0.0 0 1 126.95 200.99
  L 164.06 201.00
  A 0.43 0.43 0.0 0 0 164.49 200.57
  L 164.47 196.65
  A 0.43 0.43 0.0 0 0 164.04 196.22
  L 126.94 196.22
  A 0.43 0.43 0.0 0 1 126.51 195.79
  L 126.52 170.18
  A 0.43 0.43 0.0 0 1 126.95 169.75
  L 164.06 169.75
  A 0.43 0.43 0.0 0 0 164.49 169.32
  L 164.45 165.41
  A 0.43 0.43 0.0 0 0 164.02 164.98
  L 126.94 164.98
  A 0.43 0.43 0.0 0 1 126.51 164.55
  L 126.52 137.89
  A 0.43 0.43 0.0 0 1 126.95 137.46
  L 164.05 137.43
  A 0.43 0.43 0.0 0 0 164.48 137.00
  L 164.48 132.97
  A 0.43 0.43 0.0 0 0 164.05 132.54
  L 126.94 132.53
  A 0.43 0.43 0.0 0 1 126.51 132.10
  L 126.52 105.92
  A 0.43 0.43 0.0 0 1 126.95 105.49
  L 164.05 105.48
  A 0.43 0.43 0.0 0 0 164.48 105.05
  L 164.46 100.94
  A 0.43 0.43 0.0 0 0 164.03 100.51
  L 126.94 100.50
  A 0.43 0.43 0.0 0 1 126.51 100.07
  L 126.51 74.72
  A 0.43 0.43 0.0 0 1 126.94 74.29
  L 164.05 74.29
  A 0.43 0.43 0.0 0 0 164.48 73.86
  L 164.46 69.92
  A 0.43 0.43 0.0 0 0 164.03 69.49
  L 126.93 69.49
  A 0.43 0.43 0.0 0 1 126.50 69.06
  L 126.51 42.88
  A 0.43 0.43 0.0 0 1 126.94 42.45
  L 684.11 42.45
  A 0.43 0.43 0.0 0 1 684.54 42.88
  L 684.55 69.06
  A 0.43 0.43 0.0 0 1 684.12 69.49
  L 647.17 69.49
  A 0.43 0.43 0.0 0 0 646.74 69.92
  Z
  M 181.22 159.41
  C 178.32 173.49 180.29 187.73 193.15 195.85
  Q 198.52 199.24 204.14 200.66
  Q 230.43 207.31 257.57 200.24
  Q 269.63 197.10 279.96 189.82
  Q 297.60 177.39 299.23 155.37
  C 300.53 137.79 288.95 128.92 273.30 124.63
  Q 264.42 122.19 253.25 119.58
  Q 246.37 117.98 240.71 115.30
  C 233.82 112.04 231.47 104.97 236.95 98.99
  Q 245.13 90.06 258.44 92.54
  Q 270.74 94.84 268.61 107.38
  A 0.37 0.37 0.0 0 0 268.98 107.81
  L 304.94 107.82
  Q 305.47 107.82 305.61 107.30
  C 308.69 95.75 307.87 84.27 298.19 76.36
  C 291.79 71.14 282.75 68.48 274.56 67.41
  Q 256.00 64.98 237.51 68.79
  Q 223.58 71.66 213.38 78.91
  C 200.80 87.85 192.16 104.10 194.30 119.59
  Q 196.09 132.63 208.36 138.51
  Q 218.70 143.46 234.29 147.04
  Q 244.69 149.43 250.36 151.63
  C 256.41 153.98 260.69 158.09 258.80 165.24
  C 254.18 182.76 212.67 184.30 218.26 159.63
  Q 218.40 159.05 217.80 159.05
  L 181.69 159.03
  A 0.48 0.48 0.0 0 0 181.22 159.41
  Z
  M 526.11 107.88
  L 562.17 107.92
  A 0.34 0.34 0.0 0 0 562.49 107.69
  Q 564.42 101.74 564.28 95.08
  C 563.59 62.69 513.77 64.45 493.21 69.08
  C 473.83 73.45 458.68 84.59 452.70 103.81
  C 448.19 118.32 452.03 132.62 466.71 139.13
  C 476.41 143.44 486.52 146.07 497.33 148.53
  C 503.97 150.04 514.84 152.78 516.13 160.28
  C 517.21 166.57 513.11 172.05 507.58 174.77
  Q 496.27 180.34 485.32 177.09
  Q 472.83 173.38 475.20 159.55
  Q 475.29 159.03 474.77 159.03
  L 438.99 159.05
  Q 438.42 159.05 438.31 159.61
  C 435.10 174.90 438.03 189.68 452.98 197.40
  Q 458.45 200.23 463.94 201.40
  Q 487.78 206.50 511.57 201.09
  C 534.33 195.92 553.81 181.54 556.25 156.88
  C 558.40 135.03 542.59 127.22 524.67 123.07
  Q 517.72 121.46 508.74 119.19
  C 503.68 117.92 496.10 115.68 492.97 111.55
  Q 489.15 106.52 492.90 100.63
  C 497.35 93.62 506.59 91.09 514.92 92.40
  C 522.79 93.63 527.80 99.03 525.65 107.29
  A 0.47 0.47 0.0 0 0 526.11 107.88
  Z
  M 353.72 175.49
  A 0.41 0.41 0.0 0 1 353.32 174.99
  L 359.13 147.92
  A 0.41 0.41 0.0 0 1 359.53 147.60
  L 418.51 147.58
  A 0.41 0.41 0.0 0 0 418.91 147.26
  L 424.23 122.47
  A 0.41 0.41 0.0 0 0 423.83 121.97
  L 365.26 121.98
  A 0.41 0.41 0.0 0 1 364.86 121.48
  L 370.54 95.07
  A 0.41 0.41 0.0 0 1 370.94 94.75
  L 435.08 94.75
  A 0.41 0.41 0.0 0 0 435.48 94.43
  L 440.82 69.75
  A 0.41 0.41 0.0 0 0 440.42 69.25
  L 339.44 69.26
  A 0.41 0.41 0.0 0 0 339.04 69.58
  L 310.82 200.49
  A 0.41 0.41 0.0 0 0 311.22 200.99
  L 412.11 200.98
  A 0.41 0.41 0.0 0 0 412.51 200.66
  L 417.85 175.99
  A 0.41 0.41 0.0 0 0 417.45 175.49
  L 353.72 175.49
  Z
  M 567.52 200.44
  A 0.45 0.45 0.0 0 0 567.96 200.98
  L 604.04 200.99
  A 0.45 0.45 0.0 0 0 604.48 200.63
  L 632.68 69.79
  A 0.45 0.45 0.0 0 0 632.24 69.25
  L 596.16 69.23
  A 0.45 0.45 0.0 0 0 595.72 69.59
  L 567.52 200.44
  Z"
/>
<path fill="#014898" d="
  M 163.8918 286.4812
  A 15.46 15.46 0.0 0 1 148.1909 301.6965
  L 144.5513 301.6393
  A 15.46 15.46 0.0 0 1 129.3361 285.9384
  L 129.3882 282.6188
  A 15.46 15.46 0.0 0 1 145.0891 267.4035
  L 148.7287 267.4607
  A 15.46 15.46 0.0 0 1 163.9439 283.1616
  L 163.8918 286.4812
  Z
  M 146.5716 295.7298
  A 11.16 7.79 90.3 0 0 154.4199 284.6108
  A 11.16 7.79 90.3 0 0 146.6884 273.4102
  A 11.16 7.79 90.3 0 0 138.8401 284.5292
  A 11.16 7.79 90.3 0 0 146.5716 295.7298
  Z"
/>
<path fill="#014898" d="
  M 387.5481 286.4507
  A 15.43 15.43 0.0 0 1 371.9307 301.6911
  L 368.2710 301.6464
  A 15.43 15.43 0.0 0 1 353.0306 286.0290
  L 353.0719 282.6493
  A 15.43 15.43 0.0 0 1 368.6893 267.4089
  L 372.3490 267.4536
  A 15.43 15.43 0.0 0 1 387.5894 283.0710
  L 387.5481 286.4507
  Z
  M 370.2805 295.7300
  A 11.15 7.81 90.1 0 0 378.1100 284.5936
  A 11.15 7.81 90.1 0 0 370.3195 273.4300
  A 11.15 7.81 90.1 0 0 362.4900 284.5664
  A 11.15 7.81 90.1 0 0 370.2805 295.7300
  Z"
/>
<path fill="#014898" d="
  M 480.0589 286.3712
  A 15.51 15.51 0.0 0 1 464.3606 301.6906
  L 460.7809 301.6469
  A 15.51 15.51 0.0 0 1 445.4615 285.9485
  L 445.5011 282.7088
  A 15.51 15.51 0.0 0 1 461.1994 267.3894
  L 464.7791 267.4331
  A 15.51 15.51 0.0 0 1 480.0985 283.1315
  L 480.0589 286.3712
  Z
  M 462.7022 295.7197
  A 11.14 7.81 90.4 0 0 470.5898 284.6345
  A 11.14 7.81 90.4 0 0 462.8578 273.4403
  A 11.14 7.81 90.4 0 0 454.9702 284.5255
  A 11.14 7.81 90.4 0 0 462.7022 295.7197
  Z"
/>
<path fill="#014898" d="
  M 773.1879 286.3405
  A 15.45 15.45 0.0 0 1 757.6304 301.6823
  L 753.9905 301.6569
  A 15.45 15.45 0.0 0 1 738.6487 286.0994
  L 738.6721 282.7395
  A 15.45 15.45 0.0 0 1 754.2296 267.3977
  L 757.8695 267.4231
  A 15.45 15.45 0.0 0 1 773.2113 282.9806
  L 773.1879 286.3405
  Z
  M 755.8723 295.7197
  A 11.13 7.81 90.4 0 0 763.7598 284.6445
  A 11.13 7.81 90.4 0 0 756.0277 273.4603
  A 11.13 7.81 90.4 0 0 748.1402 284.5355
  A 11.13 7.81 90.4 0 0 755.8723 295.7197
  Z"
/>
<path fill="#014898" d="
  M 47.23 289.97
  L 47.25 300.89
  Q 47.25 301.13 47.01 301.13
  L 38.26 301.10
  A 0.33 0.33 0.0 0 1 37.93 300.77
  L 37.93 268.53
  A 0.49 0.48 90.0 0 1 38.41 268.04
  Q 46.42 268.06 54.75 268.04
  C 62.37 268.02 67.49 271.91 66.78 280.01
  C 65.89 290.29 55.40 289.29 47.98 289.22
  Q 47.23 289.21 47.23 289.97
  Z
  M 47.20 274.89
  L 47.20 282.41
  A 0.46 0.46 0.0 0 0 47.66 282.87
  L 52.35 282.87
  A 4.87 4.10 0.0 0 0 57.22 278.77
  L 57.22 278.53
  A 4.87 4.10 -0.0 0 0 52.35 274.43
  L 47.66 274.43
  A 0.46 0.46 0.0 0 0 47.20 274.89
  Z"
/>
<path fill="#014898" d="
  M 80.47 274.91
  L 80.51 280.85
  A 0.41 0.41 0.0 0 0 80.92 281.26
  L 94.98 281.26
  A 0.41 0.41 0.0 0 1 95.39 281.67
  L 95.45 287.31
  A 0.41 0.41 0.0 0 1 95.04 287.72
  L 80.89 287.70
  A 0.41 0.41 0.0 0 0 80.48 288.11
  L 80.49 294.28
  A 0.41 0.41 0.0 0 0 80.90 294.69
  L 96.28 294.69
  A 0.41 0.41 0.0 0 1 96.69 295.10
  L 96.65 300.72
  A 0.41 0.41 0.0 0 1 96.24 301.13
  L 71.64 301.13
  A 0.41 0.41 0.0 0 1 71.23 300.72
  L 71.20 268.47
  A 0.41 0.41 0.0 0 1 71.61 268.06
  L 96.21 268.04
  A 0.41 0.41 0.0 0 1 96.62 268.44
  L 96.70 274.10
  A 0.41 0.41 0.0 0 1 96.29 274.52
  L 80.88 274.50
  A 0.41 0.41 0.0 0 0 80.47 274.91
  Z"
/>
<path fill="#014898" d="
  M 126.50 295.14
  L 126.49 300.67
  A 0.46 0.46 0.0 0 1 126.03 301.13
  L 102.58 301.13
  A 0.46 0.46 0.0 0 1 102.12 300.67
  L 102.07 268.52
  A 0.46 0.46 0.0 0 1 102.53 268.06
  L 110.98 268.03
  A 0.46 0.46 0.0 0 1 111.44 268.49
  L 111.43 294.23
  A 0.46 0.46 0.0 0 0 111.89 294.69
  L 126.04 294.68
  A 0.46 0.46 0.0 0 1 126.50 295.14
  Z"
/>
<path fill="#014898" d="
  M 193.74 274.91
  L 193.74 281.83
  A 0.40 0.40 0.0 0 0 194.14 282.23
  L 206.76 282.22
  A 0.40 0.40 0.0 0 1 207.16 282.62
  L 207.19 288.16
  A 0.40 0.40 0.0 0 1 206.79 288.56
  L 194.15 288.57
  A 0.40 0.40 0.0 0 0 193.75 288.97
  L 193.73 300.72
  A 0.40 0.40 0.0 0 1 193.33 301.12
  L 184.79 301.14
  A 0.40 0.40 0.0 0 1 184.39 300.74
  L 184.37 268.45
  A 0.40 0.40 0.0 0 1 184.77 268.05
  L 207.74 268.07
  A 0.40 0.40 0.0 0 1 208.14 268.47
  L 208.14 274.11
  A 0.40 0.40 0.0 0 1 207.74 274.51
  L 194.14 274.51
  A 0.40 0.40 0.0 0 0 193.74 274.91
  Z"
/>
<path fill="#014898" d="
  M 222.14 288.66
  C 222.16 295.47 230.17 297.65 234.01 293.27
  Q 235.63 291.42 235.60 287.88
  Q 235.54 277.57 235.61 268.42
  Q 235.61 268.04 235.99 268.04
  L 244.32 268.05
  Q 244.80 268.06 244.80 268.53
  Q 244.74 277.50 244.86 288.05
  C 244.95 296.52 239.57 301.07 231.48 301.69
  C 226.27 302.10 220.84 301.54 216.83 298.06
  Q 212.90 294.66 212.82 289.42
  Q 212.68 280.37 212.77 268.69
  Q 212.78 268.05 213.42 268.06
  L 221.51 268.06
  A 0.62 0.61 -0.0 0 1 222.13 268.67
  Q 222.11 278.38 222.14 288.66
  Z"
/>
<path fill="#014898" d="
  M 268.02 274.92
  L 268.03 300.71
  A 0.41 0.41 0.0 0 1 267.62 301.12
  L 259.07 301.13
  A 0.41 0.41 0.0 0 1 258.66 300.72
  L 258.69 274.92
  A 0.41 0.41 0.0 0 0 258.28 274.51
  L 248.90 274.51
  A 0.41 0.41 0.0 0 1 248.49 274.10
  L 248.50 268.47
  A 0.41 0.41 0.0 0 1 248.91 268.06
  L 277.99 268.07
  A 0.41 0.41 0.0 0 1 278.40 268.48
  L 278.43 274.10
  A 0.41 0.41 0.0 0 1 278.02 274.51
  L 268.43 274.51
  A 0.41 0.41 0.0 0 0 268.02 274.92
  Z"
/>
<path fill="#014898" d="
  M 300.33 295.16
  C 303.57 294.46 304.94 291.80 304.96 288.70
  Q 305.03 278.39 304.95 268.49
  A 0.42 0.42 0.0 0 1 305.37 268.07
  L 313.80 268.07
  Q 314.34 268.07 314.33 268.60
  Q 314.27 277.30 314.38 287.25
  C 314.45 294.17 311.51 299.33 304.74 300.99
  C 294.31 303.56 282.07 300.73 282.21 287.67
  Q 282.32 278.09 282.22 268.76
  A 0.68 0.68 0.0 0 1 282.90 268.07
  L 290.97 268.04
  Q 291.45 268.03 291.46 268.51
  Q 291.60 276.92 291.43 287.21
  C 291.34 292.72 294.29 296.47 300.33 295.16
  Z"
/>
<path fill="#014898" d="
  M 341.54 285.09
  Q 342.26 285.24 343.02 285.27
  C 345.37 285.37 347.23 287.96 347.51 289.97
  Q 348.23 295.22 349.47 300.85
  A 0.23 0.23 0.0 0 1 349.24 301.13
  L 339.84 301.13
  A 0.45 0.44 86.3 0 1 339.40 300.74
  L 338.13 291.22
  A 2.70 2.68 0.0 0 0 335.81 288.91
  Q 334.94 288.80 331.54 288.36
  Q 329.77 288.13 329.77 289.92
  L 329.78 300.79
  A 0.33 0.32 -90.0 0 1 329.46 301.12
  L 320.71 301.14
  Q 320.50 301.14 320.50 300.93
  L 320.50 268.30
  A 0.26 0.26 0.0 0 1 320.76 268.04
  Q 328.65 268.03 336.71 268.12
  C 340.52 268.16 347.04 269.19 348.41 273.55
  C 350.32 279.65 347.07 283.08 341.53 284.68
  Q 340.71 284.91 341.54 285.09
  Z
  M 329.76 274.94
  L 329.78 281.64
  A 0.48 0.48 0.0 0 0 330.26 282.11
  L 334.72 282.10
  A 4.60 3.66 -0.2 0 0 339.31 278.42
  L 339.31 278.08
  A 4.60 3.66 -0.2 0 0 334.70 274.44
  L 330.24 274.45
  A 0.48 0.48 0.0 0 0 329.76 274.94
  Z"
/>
<path fill="#014898" d="
  M 407.99 268.44
  A 0.37 0.37 0.0 0 1 408.36 268.07
  L 425.32 268.07
  A 15.97 14.84 -0.0 0 1 441.29 282.91
  L 441.29 286.23
  A 15.97 14.84 0.0 0 1 425.32 301.07
  L 408.36 301.07
  A 0.37 0.37 0.0 0 1 407.99 300.70
  L 407.99 268.44
  Z
  M 417.29 275.00
  L 417.23 294.14
  A 0.58 0.58 0.0 0 0 417.80 294.72
  L 421.74 294.73
  A 9.90 9.68 -89.8 0 0 431.46 284.86
  L 431.46 284.36
  A 9.90 9.68 -89.8 0 0 421.82 274.43
  L 417.88 274.42
  A 0.58 0.58 0.0 0 0 417.29 275.00
  Z"
/>
<path fill="#014898" d="
  M 507.53 274.52
  L 498.22 274.50
  A 0.46 0.46 0.0 0 1 497.76 274.04
  L 497.76 268.52
  A 0.46 0.46 0.0 0 1 498.22 268.06
  L 527.33 268.06
  A 0.46 0.46 0.0 0 1 527.79 268.52
  L 527.81 274.04
  A 0.46 0.46 0.0 0 1 527.35 274.50
  L 517.77 274.51
  A 0.46 0.46 0.0 0 0 517.31 274.97
  L 517.33 300.69
  A 0.46 0.46 0.0 0 1 516.87 301.15
  L 508.44 301.12
  A 0.46 0.46 0.0 0 1 507.98 300.66
  L 507.99 274.98
  A 0.46 0.46 0.0 0 0 507.53 274.52
  Z"
/>
<path fill="#014898" d="
  M 552.43 285.10
  C 553.16 285.28 554.02 285.14 554.68 285.43
  Q 557.93 286.87 558.31 289.89
  Q 559.05 295.75 560.29 300.70
  Q 560.40 301.13 559.95 301.13
  L 551.23 301.12
  A 1.19 1.19 0.0 0 1 550.05 300.08
  L 548.93 291.14
  A 2.57 2.57 0.0 0 0 546.70 288.91
  Q 545.13 288.71 542.19 288.35
  Q 540.58 288.15 540.58 289.76
  L 540.56 300.78
  A 0.34 0.34 0.0 0 1 540.22 301.12
  L 531.63 301.13
  A 0.35 0.34 -0.0 0 1 531.28 300.79
  L 531.28 268.54
  Q 531.28 268.07 531.75 268.06
  Q 540.11 267.99 547.88 268.14
  Q 551.77 268.22 555.42 269.66
  C 560.15 271.53 561.04 277.92 558.06 281.42
  Q 556.23 283.58 552.42 284.64
  Q 551.57 284.88 552.43 285.10
  Z
  M 540.58 275.07
  L 540.56 281.59
  A 0.62 0.62 0.0 0 0 541.18 282.22
  L 545.24 282.23
  A 4.78 3.57 0.2 0 0 550.03 278.68
  L 550.03 278.06
  A 4.78 3.57 0.2 0 0 545.26 274.47
  L 541.20 274.46
  A 0.62 0.62 0.0 0 0 540.58 275.07
  Z"
/>
<path fill="#014898" d="
  M 586.94 294.62
  L 574.08 294.63
  A 0.51 0.51 0.0 0 0 573.60 294.97
  L 571.60 300.79
  A 0.51 0.51 0.0 0 1 571.12 301.13
  L 562.98 301.14
  A 0.51 0.51 0.0 0 1 562.51 300.44
  L 575.28 268.36
  A 0.51 0.51 0.0 0 1 575.76 268.04
  L 586.36 268.05
  A 0.51 0.51 0.0 0 1 586.84 268.37
  L 599.72 300.62
  A 0.51 0.51 0.0 0 1 599.24 301.31
  L 590.00 301.25
  A 0.51 0.51 0.0 0 1 589.52 300.91
  L 587.42 294.96
  A 0.51 0.51 0.0 0 0 586.94 294.62
  Z
  M 576.18 287.86
  A 0.31 0.31 0.0 0 0 576.47 288.27
  L 584.64 288.30
  A 0.31 0.31 0.0 0 0 584.93 287.89
  L 580.89 275.21
  A 0.31 0.31 0.0 0 0 580.30 275.21
  L 576.18 287.86
  Z"
/>
<path fill="#014898" d="
  M 625.36 283.50
  Q 623.63 283.98 625.37 284.42
  Q 629.43 285.45 631.01 288.26
  C 632.94 291.68 631.92 296.84 628.43 298.93
  Q 625.09 300.94 620.33 301.04
  Q 612.27 301.21 604.12 301.12
  Q 603.50 301.11 603.49 300.48
  L 603.48 268.54
  Q 603.48 268.01 604.01 268.02
  Q 611.71 268.05 619.52 268.09
  Q 622.44 268.11 625.32 268.99
  C 633.02 271.36 633.24 281.31 625.36 283.50
  Z
  M 612.75 274.91
  L 612.73 280.77
  A 0.45 0.45 0.0 0 0 613.18 281.22
  L 617.74 281.23
  A 3.89 3.13 0.1 0 0 621.64 278.11
  L 621.64 277.61
  A 3.89 3.13 0.1 0 0 617.76 274.47
  L 613.20 274.46
  A 0.45 0.45 0.0 0 0 612.75 274.91
  Z
  M 612.73 288.06
  L 612.71 294.12
  A 0.58 0.58 0.0 0 0 613.29 294.71
  L 618.11 294.72
  A 4.12 3.46 0.2 0 0 622.24 291.28
  L 622.24 290.98
  A 4.12 3.46 0.2 0 0 618.13 287.50
  L 613.31 287.49
  A 0.58 0.58 0.0 0 0 612.73 288.06
  Z"
/>
<path fill="#014898" d="
  M 645.60 294.98
  L 643.71 300.78
  A 0.51 0.51 0.0 0 1 643.23 301.13
  L 635.01 301.14
  A 0.51 0.51 0.0 0 1 634.54 300.44
  L 647.29 268.36
  A 0.51 0.51 0.0 0 1 647.77 268.04
  L 658.37 268.04
  A 0.51 0.51 0.0 0 1 658.85 268.36
  L 671.74 300.64
  A 0.51 0.51 0.0 0 1 671.26 301.33
  L 661.97 301.27
  A 0.51 0.51 0.0 0 1 661.49 300.93
  L 659.45 294.96
  A 0.51 0.51 0.0 0 0 658.97 294.62
  L 646.08 294.63
  A 0.51 0.51 0.0 0 0 645.60 294.98
  Z
  M 648.22 287.84
  A 0.32 0.32 0.0 0 0 648.52 288.26
  L 656.62 288.29
  A 0.32 0.32 0.0 0 0 656.93 287.87
  L 652.92 275.23
  A 0.32 0.32 0.0 0 0 652.31 275.23
  L 648.22 287.84
  Z"
/>
<path fill="#014898" d="
  M 685.16 294.67
  L 699.42 294.69
  A 0.46 0.46 0.0 0 1 699.87 295.15
  L 699.81 300.67
  A 0.46 0.46 0.0 0 1 699.36 301.12
  L 675.93 301.13
  A 0.46 0.46 0.0 0 1 675.47 300.67
  L 675.37 268.48
  A 0.46 0.46 0.0 0 1 675.83 268.02
  L 684.26 268.04
  A 0.46 0.46 0.0 0 1 684.72 268.50
  L 684.70 294.21
  A 0.46 0.46 0.0 0 0 685.16 294.67
  Z"
/>
<path fill="#014898" d="
  M 724.44 280.76
  L 724.42 268.49
  A 0.45 0.45 0.0 0 1 724.87 268.04
  L 733.20 268.03
  A 0.45 0.45 0.0 0 1 733.65 268.48
  L 733.62 300.68
  A 0.45 0.45 0.0 0 1 733.17 301.13
  L 724.89 301.12
  A 0.45 0.45 0.0 0 1 724.44 300.67
  L 724.45 287.95
  A 0.45 0.45 0.0 0 0 724.00 287.50
  L 713.44 287.52
  A 0.45 0.45 0.0 0 0 712.99 287.97
  L 713.05 300.65
  A 0.45 0.45 0.0 0 1 712.60 301.10
  L 704.19 301.13
  A 0.45 0.45 0.0 0 1 703.74 300.68
  L 703.74 268.47
  A 0.45 0.45 0.0 0 1 704.19 268.02
  L 712.58 268.06
  A 0.45 0.45 0.0 0 1 713.03 268.51
  L 713.02 280.76
  A 0.45 0.45 0.0 0 0 713.47 281.21
  L 723.99 281.21
  A 0.45 0.45 0.0 0 0 724.44 280.76
  Z"
/>
</svg>
