<svg width="1440" height="1024" viewBox="0 0 1440 1024" fill="none" xmlns="http://www.w3.org/2000/svg">
<g clip-path="url(#clip0_48_358)" filter="url(#filter0_i_48_358)">
<path d="M982.641 -275.175C953.38 -255.408 934.731 -242.567 926.695 -236.652C901.733 -218.267 878.471 -199.172 856.909 -179.366C831.594 -156.124 808.933 -130.597 788.926 -102.783C758.991 -61.1841 737.753 -13.0388 725.211 41.6532C722.412 53.7994 719.314 69.9049 715.918 89.9697C712.956 107.498 710.977 123.493 709.983 137.955C709.983 137.955 709.017 151.68 707.087 179.132C706.892 181.767 706.641 184.369 706.333 186.936C705.779 191.557 705.904 196.311 706.709 201.198C706.801 201.72 706.72 202.246 706.481 202.688C706.242 203.131 705.858 203.463 705.394 203.629C705.306 203.663 705.231 203.709 705.168 203.769C705.043 203.864 705.043 203.852 705.168 203.732C706.775 202.423 708.433 201.292 710.141 200.341" stroke="#4E7AD8" stroke-width="2"/>
<path d="M710.141 200.341C706.353 204.392 700.133 209.745 691.482 216.399C657.947 242.197 628.345 273.894 602.677 311.489C573.562 354.121 557.765 404.956 555.286 463.992C554.799 475.594 554.767 485.195 555.189 492.797C557.273 530.729 560.225 568.727 564.046 606.792" stroke="#7798DF" stroke-width="2"/>
<path d="M564.046 606.792C549.04 617.602 539.496 624.315 535.414 626.929C503.676 647.095 466.03 669.272 422.477 693.46C397.742 707.208 374.092 722.343 351.528 738.864C306.532 771.806 271.444 812.851 254.123 865.736C228.077 945.257 236.468 1031.59 239.116 1115.8C240.716 1166.13 237.81 1218.26 223.534 1265.97C217.696 1285.45 208.362 1302.97 197.857 1320.17C186.294 1339.08 172.064 1355.42 155.166 1369.2" stroke="#4E7AD8" stroke-width="2"/>
<g filter="url(#filter1_i_48_358)">
<path d="M1045.57 -209.351C1038.7 -130.965 1012.5 -61.878 966.975 -2.09166C958.587 8.90728 948.207 20.5105 935.834 32.7179C922.495 45.8744 910.904 56.4881 901.062 64.559C852.215 104.704 795.566 141.135 741.105 177.292C730.33 184.45 720.387 192.44 710.141 200.341" stroke="#92B6EF" stroke-width="2"/>
</g>
<path d="M240.099 1458.05C241.386 1434.92 247.018 1413.5 256.994 1393.79C263.328 1381.32 270.337 1369.74 278.021 1359.06C293.628 1337.37 311.837 1314.85 332.648 1291.5C334.843 1289.05 336.824 1286.39 338.591 1283.54C340.169 1281.02 341.855 1278.59 343.648 1276.25C346.557 1272.48 349.183 1268.87 351.527 1265.42C357.167 1257.17 362.179 1249.35 366.563 1241.95C374.53 1228.55 380.768 1212.81 385.276 1194.71C398.295 1142.56 371.806 1092.32 362.602 1042.03C355.866 1005.25 363.204 974.596 385.381 946.917C393.382 936.92 401.349 928.709 409.284 922.286C437.078 899.728 472.987 877.066 500.342 852.277C558.497 799.596 570.267 715.844 565.353 638.724C564.684 627.999 564.249 617.355 564.046 606.792" stroke="#92B6EF" stroke-width="2"/>
<g filter="url(#filter2_i_48_358)">
<path d="M665.339 -358.116L789.692 -477L982.641 -275.175C953.38 -255.408 934.731 -242.567 926.695 -236.652C901.733 -218.267 878.471 -199.172 856.909 -179.366C831.594 -156.124 808.933 -130.597 788.926 -102.783C758.991 -61.1841 737.753 -13.0389 725.211 41.6532C722.412 53.7994 719.314 69.9049 715.918 89.9697C712.956 107.498 710.977 123.493 709.983 137.954C709.983 137.954 709.017 151.68 707.087 179.132C706.892 181.767 706.641 184.369 706.333 186.936C705.779 191.557 705.904 196.311 706.709 201.198C706.801 201.72 706.72 202.246 706.481 202.688C706.242 203.131 705.858 203.463 705.394 203.629C705.306 203.662 705.231 203.709 705.168 203.769C705.043 203.864 705.043 203.851 705.168 203.732C706.775 202.423 708.433 201.292 710.141 200.341C706.352 204.392 700.133 209.745 691.482 216.399C657.946 242.197 628.345 273.894 602.676 311.489C573.561 354.121 557.764 404.956 555.285 463.992C554.799 475.594 554.767 485.195 555.189 492.797C557.273 530.729 560.225 568.727 564.046 606.792C549.04 617.602 539.496 624.315 535.414 626.929C503.676 647.095 466.03 669.272 422.477 693.46C397.742 707.208 374.092 722.343 351.528 738.864C306.532 771.806 271.443 812.851 254.123 865.736C228.077 945.257 236.468 1031.59 239.116 1115.8C240.716 1166.13 237.81 1218.26 223.534 1265.97C217.696 1285.45 208.362 1302.97 197.857 1320.17C186.294 1339.08 172.064 1355.42 155.166 1369.2L6.03642 1213.21C17.6189 1191.97 28.3449 1175.28 38.2146 1163.17C61.6282 1134.37 86.0378 1106.47 111.444 1079.45C128.268 1061.57 144.64 1041.48 160.56 1019.16C171.127 1004.34 179.969 988.851 187.086 972.703C200.369 942.58 206.303 908.864 204.887 871.556C203.538 835.775 202.334 800.032 201.275 764.328C199.762 713.753 203.463 665.089 212.377 618.335C224.418 555.005 248.119 495.756 283.48 440.587C299.543 415.532 317.968 391.214 338.753 367.63C365.534 337.229 400.06 305.194 442.331 271.524C459.757 257.643 476.798 243.686 493.456 229.655C494.887 228.438 494.94 226.911 496.352 225.712C543.202 186.681 584.871 146.541 621.362 105.291C666.012 54.802 701.669 0.0690187 723.772 -64.206C727.987 -76.4172 730.729 -88.7739 734.227 -101.057C735.673 -106.127 736.805 -111.085 737.623 -115.933C742.37 -144.157 743.477 -171.302 740.945 -197.366C735.016 -258.112 709.814 -311.696 665.339 -358.116Z" fill="#325CC8"/>
</g>
<g filter="url(#filter3_i_48_358)">
<path d="M982.641 -275.175L1045.57 -209.351C1038.7 -130.964 1012.5 -61.8779 966.975 -2.0916C958.587 8.90734 948.207 20.5105 935.834 32.718C922.495 45.8745 910.904 56.4882 901.062 64.5591C852.215 104.704 795.566 141.135 741.105 177.292C730.329 184.45 720.386 192.44 710.141 200.341C708.433 201.292 706.775 202.423 705.168 203.732C705.043 203.851 705.043 203.864 705.168 203.769C705.231 203.709 705.306 203.663 705.394 203.629C705.858 203.463 706.242 203.131 706.481 202.688C706.72 202.246 706.801 201.72 706.709 201.198C705.904 196.311 705.779 191.557 706.333 186.936C706.641 184.369 706.892 181.767 707.087 179.132C709.017 151.68 709.983 137.954 709.983 137.954C710.977 123.493 712.956 107.498 715.918 89.9696C719.314 69.9049 722.412 53.7994 725.211 41.6532C737.753 -13.0389 758.991 -61.1842 788.926 -102.783C808.933 -130.597 831.594 -156.124 856.909 -179.366C878.471 -199.172 901.733 -218.267 926.695 -236.652C934.731 -242.567 953.38 -255.408 982.641 -275.175Z" fill="#6998E8"/>
</g>
<g filter="url(#filter4_di_48_358)">
<path d="M1045.57 -209.351L1197.82 -50.0959C1185.78 -21.6388 1173.14 1.09077 1159.9 18.0931C1147.26 34.318 1133.24 47.2783 1117.84 56.9743C1103.23 66.1663 1085.04 73.7645 1063.25 79.769C1042.32 85.5371 1021.76 91.2535 1001.57 96.9182C972.569 105.023 944.902 118.632 922.685 138.129C877.254 178.002 850.127 233.179 835.147 293.636C820.578 352.564 817.327 424.536 813.778 490.808C812.649 511.963 810.815 532.984 808.277 553.87C808.117 555.16 807.957 556.436 807.796 557.701C805.823 573.299 803.421 588.336 800.589 602.811C797.522 618.445 794.099 633.055 790.322 646.641C781.222 679.356 767.605 709.458 749.472 736.945C733.851 760.591 712.374 781.654 690.394 797.97C676.984 807.949 662.725 817.794 648.444 826.598C623.939 841.718 602.167 855.827 583.129 868.927C575.318 874.298 568.168 879.771 561.678 885.344C535.431 907.861 516.37 934.429 504.497 965.048C495.224 988.939 489.161 1014.22 486.311 1040.88C480.781 1092.46 482.365 1143.9 484.157 1195.93C484.375 1202.34 483.809 1214.83 482.46 1233.39L243.618 1461.73L240.099 1458.05C241.387 1434.92 247.018 1413.5 256.994 1393.79C263.328 1381.32 270.337 1369.74 278.022 1359.06C293.628 1337.38 311.837 1314.85 332.648 1291.5C334.843 1289.05 336.824 1286.39 338.591 1283.54C340.17 1281.02 341.855 1278.59 343.648 1276.25C346.557 1272.48 349.184 1268.87 351.527 1265.42C357.167 1257.17 362.179 1249.35 366.564 1241.95C374.53 1228.55 380.768 1212.81 385.276 1194.71C398.295 1142.56 371.806 1092.32 362.602 1042.03C355.866 1005.25 363.204 974.596 385.382 946.917C393.382 936.92 401.35 928.709 409.284 922.286C437.079 899.728 472.987 877.066 500.342 852.277C558.497 799.596 570.267 715.844 565.353 638.724C564.685 627.999 564.249 617.355 564.046 606.792C560.225 568.727 557.273 530.729 555.189 492.797C554.767 485.195 554.799 475.594 555.285 463.992C557.765 404.956 573.562 354.121 602.676 311.489C628.345 273.894 657.947 242.197 691.482 216.399C700.133 209.745 706.353 204.392 710.141 200.341C720.387 192.44 730.33 184.45 741.105 177.292C795.566 141.135 852.216 104.704 901.062 64.559C910.904 56.4881 922.495 45.8744 935.834 32.7179C948.207 20.5105 958.587 8.90727 966.975 -2.09175C1012.5 -61.878 1038.7 -130.965 1045.57 -209.351Z" fill="#BBD3F5"/>
</g>
<g filter="url(#filter5_i_48_358)">
<path d="M564.046 606.792C564.249 617.355 564.684 627.999 565.353 638.724C570.267 715.844 558.497 799.596 500.342 852.277C472.987 877.066 437.078 899.728 409.284 922.286C401.35 928.709 393.382 936.92 385.382 946.917C363.204 974.596 355.866 1005.25 362.602 1042.03C371.806 1092.32 398.295 1142.56 385.276 1194.71C380.768 1212.81 374.53 1228.55 366.564 1241.95C362.179 1249.35 357.167 1257.17 351.527 1265.42C349.184 1268.87 346.557 1272.48 343.648 1276.25C341.855 1278.59 340.169 1281.02 338.591 1283.54C336.824 1286.39 334.843 1289.05 332.648 1291.5C311.837 1314.85 293.628 1337.38 278.021 1359.06C270.337 1369.74 263.328 1381.32 256.994 1393.79C247.018 1413.5 241.387 1434.92 240.099 1458.05L155.166 1369.2C172.064 1355.42 186.294 1339.08 197.857 1320.17C208.362 1302.97 217.696 1285.45 223.534 1265.97C237.81 1218.26 240.716 1166.13 239.116 1115.8C236.468 1031.59 228.077 945.257 254.123 865.736C271.444 812.851 306.532 771.806 351.528 738.864C374.092 722.343 397.742 707.208 422.477 693.46C466.03 669.272 503.676 647.095 535.414 626.929C539.496 624.315 549.04 617.602 564.046 606.792Z" fill="#6998E8"/>
</g>
</g>
<defs>
<filter id="filter0_i_48_358" x="-464" y="-477" width="1961.31" height="1942.73" filterUnits="userSpaceOnUse" color-interpolation-filters="sRGB">
<feFlood flood-opacity="0" result="BackgroundImageFix"/>
<feBlend mode="normal" in="SourceGraphic" in2="BackgroundImageFix" result="shape"/>
<feColorMatrix in="SourceAlpha" type="matrix" values="0 0 0 0 0 0 0 0 0 0 0 0 0 0 0 0 0 0 127 0" result="hardAlpha"/>
<feOffset dy="4"/>
<feGaussianBlur stdDeviation="2"/>
<feComposite in2="hardAlpha" operator="arithmetic" k2="-1" k3="1"/>
<feColorMatrix type="matrix" values="0 0 0 0 0 0 0 0 0 0 0 0 0 0 0 0 0 0 0.25 0"/>
<feBlend mode="normal" in2="shape" result="effect1_innerShadow_48_358"/>
</filter>
<filter id="filter1_i_48_358" x="709.531" y="-209.439" width="337.035" height="414.571" filterUnits="userSpaceOnUse" color-interpolation-filters="sRGB">
<feFlood flood-opacity="0" result="BackgroundImageFix"/>
<feBlend mode="normal" in="SourceGraphic" in2="BackgroundImageFix" result="shape"/>
<feColorMatrix in="SourceAlpha" type="matrix" values="0 0 0 0 0 0 0 0 0 0 0 0 0 0 0 0 0 0 127 0" result="hardAlpha"/>
<feOffset dy="4"/>
<feGaussianBlur stdDeviation="2"/>
<feComposite in2="hardAlpha" operator="arithmetic" k2="-1" k3="1"/>
<feColorMatrix type="matrix" values="0 0 0 0 0 0 0 0 0 0 0 0 0 0 0 0 0 0 0.44 0"/>
<feBlend mode="normal" in2="shape" result="effect1_innerShadow_48_358"/>
</filter>
<filter id="filter2_i_48_358" x="6.03638" y="-477" width="976.605" height="1850.2" filterUnits="userSpaceOnUse" color-interpolation-filters="sRGB">
<feFlood flood-opacity="0" result="BackgroundImageFix"/>
<feBlend mode="normal" in="SourceGraphic" in2="BackgroundImageFix" result="shape"/>
<feColorMatrix in="SourceAlpha" type="matrix" values="0 0 0 0 0 0 0 0 0 0 0 0 0 0 0 0 0 0 127 0" result="hardAlpha"/>
<feOffset dy="4"/>
<feGaussianBlur stdDeviation="2"/>
<feComposite in2="hardAlpha" operator="arithmetic" k2="-1" k3="1"/>
<feColorMatrix type="matrix" values="0 0 0 0 0 0 0 0 0 0 0 0 0 0 0 0 0 0 0.1 0"/>
<feBlend mode="normal" in2="shape" result="effect1_innerShadow_48_358"/>
</filter>
<filter id="filter3_i_48_358" x="705.074" y="-275.175" width="340.496" height="483.007" filterUnits="userSpaceOnUse" color-interpolation-filters="sRGB">
<feFlood flood-opacity="0" result="BackgroundImageFix"/>
<feBlend mode="normal" in="SourceGraphic" in2="BackgroundImageFix" result="shape"/>
<feColorMatrix in="SourceAlpha" type="matrix" values="0 0 0 0 0 0 0 0 0 0 0 0 0 0 0 0 0 0 127 0" result="hardAlpha"/>
<feOffset dy="4"/>
<feGaussianBlur stdDeviation="2"/>
<feComposite in2="hardAlpha" operator="arithmetic" k2="-1" k3="1"/>
<feColorMatrix type="matrix" values="0 0 0 0 0 0 0 0 0 0 0 0 0 0 0 0 0 0 0.44 0"/>
<feBlend mode="normal" in2="shape" result="effect1_innerShadow_48_358"/>
</filter>
<filter id="filter4_di_48_358" x="236.099" y="-209.351" width="965.722" height="1679.08" filterUnits="userSpaceOnUse" color-interpolation-filters="sRGB">
<feFlood flood-opacity="0" result="BackgroundImageFix"/>
<feColorMatrix in="SourceAlpha" type="matrix" values="0 0 0 0 0 0 0 0 0 0 0 0 0 0 0 0 0 0 127 0" result="hardAlpha"/>
<feOffset dy="4"/>
<feGaussianBlur stdDeviation="2"/>
<feComposite in2="hardAlpha" operator="out"/>
<feColorMatrix type="matrix" values="0 0 0 0 0 0 0 0 0 0 0 0 0 0 0 0 0 0 0.25 0"/>
<feBlend mode="normal" in2="BackgroundImageFix" result="effect1_dropShadow_48_358"/>
<feBlend mode="normal" in="SourceGraphic" in2="effect1_dropShadow_48_358" result="shape"/>
<feColorMatrix in="SourceAlpha" type="matrix" values="0 0 0 0 0 0 0 0 0 0 0 0 0 0 0 0 0 0 127 0" result="hardAlpha"/>
<feOffset dy="4"/>
<feGaussianBlur stdDeviation="2"/>
<feComposite in2="hardAlpha" operator="arithmetic" k2="-1" k3="1"/>
<feColorMatrix type="matrix" values="0 0 0 0 0 0 0 0 0 0 0 0 0 0 0 0 0 0 0.44 0"/>
<feBlend mode="normal" in2="shape" result="effect2_innerShadow_48_358"/>
</filter>
<filter id="filter5_i_48_358" x="155.166" y="606.792" width="411.193" height="855.253" filterUnits="userSpaceOnUse" color-interpolation-filters="sRGB">
<feFlood flood-opacity="0" result="BackgroundImageFix"/>
<feBlend mode="normal" in="SourceGraphic" in2="BackgroundImageFix" result="shape"/>
<feColorMatrix in="SourceAlpha" type="matrix" values="0 0 0 0 0 0 0 0 0 0 0 0 0 0 0 0 0 0 127 0" result="hardAlpha"/>
<feOffset dy="4"/>
<feGaussianBlur stdDeviation="2"/>
<feComposite in2="hardAlpha" operator="arithmetic" k2="-1" k3="1"/>
<feColorMatrix type="matrix" values="0 0 0 0 0 0 0 0 0 0 0 0 0 0 0 0 0 0 0.44 0"/>
<feBlend mode="normal" in2="shape" result="effect1_innerShadow_48_358"/>
</filter>
<clipPath id="clip0_48_358">
<rect width="1734.44" height="1024" fill="white" transform="translate(-464 721.556) rotate(-43.712)"/>
</clipPath>
</defs>
</svg>
