<svg width="1440" height="1024" viewBox="0 0 1440 1024" fill="none" xmlns="http://www.w3.org/2000/svg">
<g clip-path="url(#clip0_48_347)" filter="url(#filter0_i_48_347)">
<path d="M1534.64 969.934C1513.56 941.6 1499.89 923.553 1493.62 915.794C1474.12 891.691 1453.99 869.319 1433.23 848.678C1408.86 824.444 1382.33 802.964 1353.64 784.24C1310.72 756.223 1261.66 737.19 1206.46 727.143C1194.2 724.897 1177.97 722.533 1157.77 720.051C1140.13 717.887 1124.06 716.636 1109.57 716.299C1109.57 716.299 1095.81 715.957 1068.3 715.274C1065.66 715.199 1063.05 715.066 1060.47 714.875C1055.83 714.531 1051.08 714.872 1046.24 715.898C1045.72 716.013 1045.19 715.956 1044.74 715.737C1044.29 715.518 1043.94 715.15 1043.75 714.694C1043.71 714.608 1043.66 714.535 1043.6 714.475C1043.5 714.354 1043.51 714.353 1043.64 714.473C1045.02 716.019 1046.22 717.624 1047.25 719.287" stroke="#4E7AD8" stroke-width="2"/>
<path d="M1047.25 719.287C1043.03 715.686 1037.4 709.715 1030.36 701.376C1003.07 669.045 970.063 640.911 931.342 616.975C887.433 589.824 835.934 576.35 776.845 576.551C765.234 576.592 755.641 576.995 748.066 577.762C710.268 581.564 672.443 586.237 634.59 591.781" stroke="#7798DF" stroke-width="2"/>
<path d="M634.59 591.781C623.111 577.281 615.972 568.052 613.175 564.093C591.59 533.302 567.728 496.701 541.589 454.29C526.733 430.204 510.541 407.265 493.013 385.474C458.064 342.018 415.469 308.828 361.854 293.925C281.232 271.513 195.367 283.811 111.363 290.277C61.1605 294.158 8.94852 293.621 -39.3517 281.523C-59.0792 276.575 -77.0064 268.046 -94.6669 258.332C-114.08 247.639 -131.054 234.165 -145.587 217.91" stroke="#4E7AD8" stroke-width="2"/>
<g filter="url(#filter1_i_48_347)">
<path d="M1471.74 1035.78C1393.12 1032.48 1322.92 1009.44 1261.13 966.673C1249.76 958.793 1237.7 948.949 1224.94 937.143C1211.19 924.415 1200.06 913.317 1191.55 903.852C1149.23 856.876 1110.27 801.938 1071.68 749.173C1064.04 738.734 1055.61 729.163 1047.25 719.287" stroke="#92B6EF" stroke-width="2"/>
</g>
<path d="M-230.482 306.786C-207.323 307.023 -185.67 311.677 -165.524 320.748C-152.78 326.51 -140.899 332.986 -129.882 340.178C-107.508 354.785 -84.1835 371.954 -59.9083 391.684C-57.3589 393.765 -54.6204 395.624 -51.6928 397.259C-49.1044 398.722 -46.5981 400.296 -44.1737 401.981C-40.2797 404.716 -36.555 407.176 -32.9995 409.36C-24.5066 414.62 -16.4653 419.273 -8.87558 423.317C4.8713 430.667 20.8865 436.184 39.1699 439.866C91.8511 450.507 140.842 421.766 190.664 410.289C227.101 401.892 258.054 407.832 286.711 428.731C297.06 436.27 305.624 443.856 312.401 451.491C336.196 478.234 360.464 513.077 386.468 539.279C441.733 594.985 525.933 602.943 602.751 594.536C613.434 593.381 624.047 592.463 634.591 591.781" stroke="#92B6EF" stroke-width="2"/>
<g filter="url(#filter2_i_48_347)">
<path d="M1603.1 649.197L1727.5 768.028L1534.64 969.934C1513.56 941.6 1499.89 923.553 1493.62 915.794C1474.12 891.691 1453.99 869.319 1433.23 848.678C1408.86 824.444 1382.33 802.964 1353.64 784.24C1310.72 756.222 1261.66 737.19 1206.46 727.143C1194.2 724.897 1177.97 722.533 1157.77 720.051C1140.13 717.887 1124.06 716.636 1109.57 716.299C1109.57 716.299 1095.81 715.957 1068.3 715.274C1065.66 715.199 1063.05 715.066 1060.47 714.875C1055.83 714.531 1051.08 714.872 1046.24 715.897C1045.72 716.013 1045.19 715.956 1044.74 715.737C1044.29 715.518 1043.94 715.15 1043.75 714.694C1043.71 714.608 1043.66 714.535 1043.6 714.475C1043.5 714.354 1043.51 714.353 1043.64 714.473C1045.02 716.019 1046.22 717.624 1047.25 719.287C1043.03 715.686 1037.4 709.716 1030.36 701.376C1003.07 669.045 970.063 640.911 931.342 616.975C887.433 589.824 835.934 576.35 776.846 576.551C765.234 576.592 755.641 576.995 748.066 577.762C710.268 581.564 672.443 586.237 634.591 591.781C623.111 577.281 615.972 568.052 613.175 564.093C591.59 533.302 567.728 496.701 541.589 454.29C526.733 430.204 510.541 407.265 493.013 385.474C458.064 342.018 415.469 308.828 361.854 293.925C281.232 271.513 195.367 283.811 111.363 290.277C61.1606 294.158 8.94861 293.621 -39.3516 281.523C-59.0791 276.575 -77.0063 268.046 -94.6668 258.332C-114.08 247.639 -131.053 234.165 -145.587 217.91L3.47743 61.8569C25.2308 72.4634 42.3813 82.4217 54.929 91.7317C84.7595 113.815 113.745 136.933 141.885 161.087C160.508 177.083 181.326 192.527 204.341 207.418C219.63 217.302 235.501 225.432 251.955 231.809C282.65 243.712 316.6 248.11 353.806 245.004C389.489 242.033 425.14 239.208 460.76 236.53C511.213 232.725 559.995 234.214 607.105 240.998C670.917 250.154 731.18 271.142 787.897 303.964C813.654 318.874 838.784 336.177 863.285 355.87C894.87 381.245 928.439 414.282 963.991 454.982C978.649 471.76 993.364 488.151 1008.14 504.155C1009.42 505.53 1010.95 505.513 1012.21 506.869C1053.32 551.9 1095.31 591.706 1138.17 626.287C1190.64 668.601 1246.93 701.738 1312.14 720.903C1324.53 724.559 1337 726.738 1349.43 729.675C1354.56 730.89 1359.57 731.796 1364.45 732.393C1392.86 735.854 1420.02 735.729 1445.95 732.017C1506.36 723.338 1558.75 695.732 1603.1 649.197Z" fill="#325CC8"/>
</g>
<g filter="url(#filter3_i_48_347)">
<path d="M1534.64 969.934L1471.74 1035.78C1393.12 1032.48 1322.92 1009.44 1261.13 966.673C1249.76 958.793 1237.7 948.949 1224.94 937.143C1211.19 924.414 1200.06 913.317 1191.55 903.851C1149.23 856.876 1110.27 801.938 1071.68 749.173C1064.04 738.734 1055.61 729.163 1047.25 719.287C1046.22 717.624 1045.02 716.019 1043.64 714.473C1043.51 714.353 1043.5 714.354 1043.6 714.475C1043.66 714.535 1043.71 714.608 1043.75 714.694C1043.94 715.15 1044.29 715.518 1044.74 715.737C1045.19 715.956 1045.72 716.013 1046.24 715.897C1051.08 714.871 1055.83 714.531 1060.47 714.875C1063.05 715.066 1065.66 715.199 1068.3 715.274C1095.81 715.957 1109.57 716.298 1109.57 716.298C1124.06 716.636 1140.13 717.887 1157.77 720.051C1177.97 722.533 1194.2 724.897 1206.46 727.142C1261.66 737.19 1310.72 756.222 1353.64 784.24C1382.33 802.964 1408.86 824.444 1433.23 848.678C1453.99 869.319 1474.12 891.691 1493.62 915.794C1499.89 923.553 1513.56 941.6 1534.64 969.934Z" fill="#6998E8"/>
</g>
<g filter="url(#filter4_di_48_347)">
<path d="M1471.74 1035.78L1319.55 1195.1C1290.58 1184.37 1267.3 1172.77 1249.71 1160.31C1232.93 1148.42 1219.35 1135 1208.97 1120.06C1199.12 1105.89 1190.7 1088.05 1183.72 1066.56C1177.01 1045.91 1170.36 1025.64 1163.79 1005.72C1154.38 977.12 1139.53 950.1 1119.04 928.79C1077.15 885.214 1020.8 860.618 959.722 848.396C900.194 836.516 828.149 836.533 761.784 835.994C740.6 835.826 719.518 834.948 698.538 833.36C697.242 833.258 695.959 833.156 694.689 833.053C679.017 831.79 663.887 830.072 649.299 827.9C633.541 825.545 618.791 822.789 605.047 819.632C571.953 812.026 541.265 799.788 512.983 782.921C488.653 768.389 466.638 747.889 449.341 726.672C438.764 713.729 428.282 699.931 418.839 686.064C402.624 662.27 387.541 641.161 373.591 622.737C367.871 615.177 362.08 608.283 356.218 602.052C332.533 576.853 305.128 559.018 274.002 548.546C249.715 540.366 224.188 535.457 197.422 533.819C145.649 530.634 94.3334 534.55 42.4323 538.701C36.0406 539.21 23.5424 539.211 4.93773 538.705L-234 310.468L-230.482 306.786C-207.323 307.022 -185.67 311.677 -165.524 320.748C-152.78 326.51 -140.899 332.986 -129.882 340.178C-107.508 354.785 -84.1835 371.954 -59.9083 391.684C-57.3589 393.765 -54.6205 395.624 -51.6928 397.259C-49.1044 398.722 -46.5981 400.296 -44.1737 401.981C-40.2797 404.716 -36.555 407.176 -32.9995 409.36C-24.5066 414.62 -16.4653 419.273 -8.87559 423.317C4.87131 430.667 20.8865 436.184 39.1699 439.866C91.8511 450.507 140.842 421.766 190.664 410.289C227.101 401.892 258.054 407.832 286.711 428.731C297.06 436.27 305.624 443.856 312.401 451.491C336.196 478.234 360.464 513.077 386.468 539.279C441.733 594.985 525.933 602.943 602.751 594.536C613.434 593.381 624.047 592.463 634.591 591.781C672.443 586.237 710.268 581.564 748.066 577.762C755.641 576.995 765.234 576.592 776.846 576.551C835.934 576.35 887.433 589.824 931.342 616.975C970.063 640.911 1003.07 669.045 1030.36 701.376C1037.4 709.716 1043.03 715.686 1047.25 719.287C1055.61 729.163 1064.04 738.734 1071.68 749.173C1110.27 801.938 1149.23 856.877 1191.55 903.852C1200.06 913.317 1211.19 924.415 1224.94 937.143C1237.7 948.949 1249.76 958.793 1261.13 966.673C1322.92 1009.44 1393.12 1032.48 1471.74 1035.78Z" fill="#BBD3F5"/>
</g>
<g filter="url(#filter5_i_48_347)">
<path d="M634.59 591.781C624.047 592.463 613.434 593.381 602.751 594.536C525.932 602.943 441.733 594.985 386.468 539.279C360.464 513.077 336.196 478.234 312.401 451.491C305.624 443.856 297.06 436.269 286.71 428.731C258.054 407.832 227.101 401.892 190.664 410.289C140.842 421.766 91.851 450.507 39.1698 439.866C20.8863 436.184 4.87118 430.667 -8.8757 423.317C-16.4654 419.272 -24.5067 414.62 -32.9996 409.36C-36.5551 407.176 -40.2798 404.716 -44.1738 401.981C-46.5982 400.296 -49.1045 398.722 -51.6929 397.259C-54.6206 395.624 -57.3591 393.765 -59.9084 391.684C-84.1836 371.954 -107.508 354.785 -129.882 340.178C-140.899 332.986 -152.78 326.51 -165.524 320.748C-185.67 311.677 -207.323 307.022 -230.482 306.786L-145.587 217.91C-131.054 234.165 -114.08 247.639 -94.6669 258.332C-77.0064 268.046 -59.0792 276.575 -39.3517 281.523C8.94852 293.621 61.1605 294.158 111.363 290.277C195.367 283.811 281.232 271.513 361.854 293.925C415.469 308.828 458.064 342.018 493.013 385.474C510.541 407.265 526.733 430.204 541.589 454.29C567.728 496.701 591.59 533.302 613.175 564.093C615.972 568.052 623.111 577.281 634.59 591.781Z" fill="#6998E8"/>
</g>
</g>
<defs>
<filter id="filter0_i_48_347" x="-234" y="-430" width="1961.5" height="1942.5" filterUnits="userSpaceOnUse" color-interpolation-filters="sRGB">
<feFlood flood-opacity="0" result="BackgroundImageFix"/>
<feBlend mode="normal" in="SourceGraphic" in2="BackgroundImageFix" result="shape"/>
<feColorMatrix in="SourceAlpha" type="matrix" values="0 0 0 0 0 0 0 0 0 0 0 0 0 0 0 0 0 0 127 0" result="hardAlpha"/>
<feOffset dy="4"/>
<feGaussianBlur stdDeviation="2"/>
<feComposite in2="hardAlpha" operator="arithmetic" k2="-1" k3="1"/>
<feColorMatrix type="matrix" values="0 0 0 0 0 0 0 0 0 0 0 0 0 0 0 0 0 0 0.25 0"/>
<feBlend mode="normal" in2="shape" result="effect1_innerShadow_48_347"/>
</filter>
<filter id="filter1_i_48_347" x="1046.49" y="718.641" width="425.292" height="322.142" filterUnits="userSpaceOnUse" color-interpolation-filters="sRGB">
<feFlood flood-opacity="0" result="BackgroundImageFix"/>
<feBlend mode="normal" in="SourceGraphic" in2="BackgroundImageFix" result="shape"/>
<feColorMatrix in="SourceAlpha" type="matrix" values="0 0 0 0 0 0 0 0 0 0 0 0 0 0 0 0 0 0 127 0" result="hardAlpha"/>
<feOffset dy="4"/>
<feGaussianBlur stdDeviation="2"/>
<feComposite in2="hardAlpha" operator="arithmetic" k2="-1" k3="1"/>
<feColorMatrix type="matrix" values="0 0 0 0 0 0 0 0 0 0 0 0 0 0 0 0 0 0 0.44 0"/>
<feBlend mode="normal" in2="shape" result="effect1_innerShadow_48_347"/>
</filter>
<filter id="filter2_i_48_347" x="-145.586" y="61.8569" width="1873.09" height="912.077" filterUnits="userSpaceOnUse" color-interpolation-filters="sRGB">
<feFlood flood-opacity="0" result="BackgroundImageFix"/>
<feBlend mode="normal" in="SourceGraphic" in2="BackgroundImageFix" result="shape"/>
<feColorMatrix in="SourceAlpha" type="matrix" values="0 0 0 0 0 0 0 0 0 0 0 0 0 0 0 0 0 0 127 0" result="hardAlpha"/>
<feOffset dy="4"/>
<feGaussianBlur stdDeviation="2"/>
<feComposite in2="hardAlpha" operator="arithmetic" k2="-1" k3="1"/>
<feColorMatrix type="matrix" values="0 0 0 0 0 0 0 0 0 0 0 0 0 0 0 0 0 0 0.1 0"/>
<feBlend mode="normal" in2="shape" result="effect1_innerShadow_48_347"/>
</filter>
<filter id="filter3_i_48_347" x="1043.53" y="714.384" width="491.106" height="325.401" filterUnits="userSpaceOnUse" color-interpolation-filters="sRGB">
<feFlood flood-opacity="0" result="BackgroundImageFix"/>
<feBlend mode="normal" in="SourceGraphic" in2="BackgroundImageFix" result="shape"/>
<feColorMatrix in="SourceAlpha" type="matrix" values="0 0 0 0 0 0 0 0 0 0 0 0 0 0 0 0 0 0 127 0" result="hardAlpha"/>
<feOffset dy="4"/>
<feGaussianBlur stdDeviation="2"/>
<feComposite in2="hardAlpha" operator="arithmetic" k2="-1" k3="1"/>
<feColorMatrix type="matrix" values="0 0 0 0 0 0 0 0 0 0 0 0 0 0 0 0 0 0 0.44 0"/>
<feBlend mode="normal" in2="shape" result="effect1_innerShadow_48_347"/>
</filter>
<filter id="filter4_di_48_347" x="-238" y="306.786" width="1713.74" height="896.318" filterUnits="userSpaceOnUse" color-interpolation-filters="sRGB">
<feFlood flood-opacity="0" result="BackgroundImageFix"/>
<feColorMatrix in="SourceAlpha" type="matrix" values="0 0 0 0 0 0 0 0 0 0 0 0 0 0 0 0 0 0 127 0" result="hardAlpha"/>
<feOffset dy="4"/>
<feGaussianBlur stdDeviation="2"/>
<feComposite in2="hardAlpha" operator="out"/>
<feColorMatrix type="matrix" values="0 0 0 0 0 0 0 0 0 0 0 0 0 0 0 0 0 0 0.25 0"/>
<feBlend mode="normal" in2="BackgroundImageFix" result="effect1_dropShadow_48_347"/>
<feBlend mode="normal" in="SourceGraphic" in2="effect1_dropShadow_48_347" result="shape"/>
<feColorMatrix in="SourceAlpha" type="matrix" values="0 0 0 0 0 0 0 0 0 0 0 0 0 0 0 0 0 0 127 0" result="hardAlpha"/>
<feOffset dy="4"/>
<feGaussianBlur stdDeviation="2"/>
<feComposite in2="hardAlpha" operator="arithmetic" k2="-1" k3="1"/>
<feColorMatrix type="matrix" values="0 0 0 0 0 0 0 0 0 0 0 0 0 0 0 0 0 0 0.44 0"/>
<feBlend mode="normal" in2="shape" result="effect2_innerShadow_48_347"/>
</filter>
<filter id="filter5_i_48_347" x="-230.482" y="217.91" width="865.073" height="383.468" filterUnits="userSpaceOnUse" color-interpolation-filters="sRGB">
<feFlood flood-opacity="0" result="BackgroundImageFix"/>
<feBlend mode="normal" in="SourceGraphic" in2="BackgroundImageFix" result="shape"/>
<feColorMatrix in="SourceAlpha" type="matrix" values="0 0 0 0 0 0 0 0 0 0 0 0 0 0 0 0 0 0 127 0" result="hardAlpha"/>
<feOffset dy="4"/>
<feGaussianBlur stdDeviation="2"/>
<feComposite in2="hardAlpha" operator="arithmetic" k2="-1" k3="1"/>
<feColorMatrix type="matrix" values="0 0 0 0 0 0 0 0 0 0 0 0 0 0 0 0 0 0 0.44 0"/>
<feBlend mode="normal" in2="shape" result="effect1_innerShadow_48_347"/>
</filter>
<clipPath id="clip0_48_347">
<rect width="1734.44" height="1024" fill="white" transform="translate(473.307 -430) rotate(43.6879)"/>
</clipPath>
</defs>
</svg>
