<?xml version="1.0" encoding="UTF-8" standalone="no"?>
<!DOCTYPE svg PUBLIC "-//W3C//DTD SVG 1.1//EN" "http://www.w3.org/Graphics/SVG/1.1/DTD/svg11.dtd">
<svg xmlns="http://www.w3.org/2000/svg" version="1.1" viewBox="0.00 0.00 412.00 108.00">
<g stroke-width="2.00" fill="none" stroke-linecap="butt">
<path stroke="#428625" vector-effect="non-scaling-stroke" d="
  M 36.30 18.61
  Q 35.51 19.00 34.87 18.74
  Q 34.31 18.53 34.34 17.93
  L 34.42 16.08
  A 0.22 0.22 0.0 0 0 34.13 15.86
  Q 30.33 17.05 27.20 17.15
  A 0.32 0.32 0.0 0 0 26.93 17.62
  Q 28.16 19.88 25.84 20.71
  Q 23.95 21.39 23.79 19.39
  L 23.74 18.80
  Q 23.70 18.30 23.23 18.49
  L 17.01 20.97
  Q 16.35 21.24 16.90 21.69
  C 18.16 22.75 17.85 25.04 18.43 26.56
  Q 18.91 27.82 19.12 29.16
  Q 19.28 30.22 19.40 29.16
  Q 19.42 28.98 19.46 28.80
  Q 19.64 27.74 20.55 28.31
  L 21.01 28.61
  Q 21.66 29.01 22.39 28.80
  L 26.76 27.56
  Q 27.21 27.43 27.28 26.96
  Q 27.44 25.88 26.69 24.65
  Q 26.66 24.60 26.71 24.56
  L 26.72 24.56
  Q 26.96 24.39 27.10 24.64
  Q 27.45 25.29 27.56 26.08
  A 1.02 1.01 -10.0 0 0 28.78 26.93
  Q 31.34 26.37 31.40 23.88
  A 0.66 0.66 0.0 0 1 32.59 23.51
  L 33.84 25.22
  Q 34.22 25.73 33.61 25.91
  Q 29.51 27.11 25.32 28.24
  C 23.26 28.80 21.80 29.95 19.86 30.42
  Q 19.39 30.54 19.40 31.02
  L 19.63 42.01"
/>
<path stroke="#4c9025" vector-effect="non-scaling-stroke" d="
  M 19.63 42.01
  Q 19.53 50.55 19.60 59.04
  C 19.63 61.80 20.11 64.48 19.99 67.16
  Q 19.87 69.73 20.69 72.00
  Q 23.14 78.72 28.79 82.97
  C 30.72 84.41 32.97 85.13 35.13 86.12
  Q 36.57 86.77 38.14 86.86
  Q 39.75 86.94 41.31 87.18
  Q 42.36 87.34 41.55 86.66
  Q 41.03 86.23 40.40 85.93
  A 1.09 1.08 -79.5 0 1 39.77 85.01
  C 39.58 81.38 39.91 77.76 39.79 74.17
  Q 39.65 69.76 39.89 65.24
  Q 39.99 63.55 39.60 61.49
  Q 39.51 60.96 38.97 60.95
  L 22.73 60.79
  Q 22.29 60.79 21.92 61.04
  Q 21.37 61.41 20.99 60.89
  A 3.50 2.15 -70.4 0 1 20.53 58.71
  Q 20.61 57.86 21.40 57.87
  Q 22.09 57.88 22.27 58.55
  Q 22.45 59.20 22.37 59.80
  A 0.23 0.23 0.0 0 0 22.63 60.06
  Q 26.04 59.65 28.95 60.02
  Q 30.55 60.22 29.55 58.95
  Q 29.36 58.71 29.46 58.44
  A 0.36 0.36 0.0 0 1 30.03 58.28
  Q 30.72 58.84 31.19 59.62
  Q 31.37 59.91 31.70 59.96
  Q 32.03 60.01 32.33 59.88
  Q 32.72 59.70 32.63 59.28
  Q 32.49 58.64 33.05 58.25
  Q 33.57 57.90 33.73 58.50
  Q 34.13 60.01 36.23 60.07
  Q 36.79 60.08 36.65 59.54
  Q 36.44 58.73 36.82 57.98
  Q 37.26 57.09 37.90 57.85
  Q 38.41 58.46 38.40 59.28
  Q 38.40 60.08 38.87 59.44
  Q 39.03 59.22 39.29 59.17
  Q 39.80 59.07 39.97 59.56
  Q 40.15 60.08 40.70 60.17
  A 0.68 0.67 21.0 0 0 41.39 59.87
  Q 41.98 58.93 41.23 58.21
  Q 41.03 58.01 40.74 58.02
  Q 40.58 58.02 40.42 58.00
  Q 39.92 57.94 39.91 57.44
  L 39.66 43.47"
/>
<path stroke="#428625" vector-effect="non-scaling-stroke" d="
  M 39.66 43.47
  L 39.79 35.05
  Q 39.80 34.13 40.71 34.13
  L 42.53 34.13
  Q 43.43 34.13 43.45 35.03
  L 43.69 48.81
  Q 43.69 48.88 43.62 48.88
  Q 43.09 48.86 43.72 48.88
  Q 43.79 48.88 43.79 48.81
  L 43.92 35.14
  A 0.68 0.68 0.0 0 1 44.55 34.46
  L 54.46 33.77"
/>
<path stroke="#4c9025" vector-effect="non-scaling-stroke" d="
  M 54.46 33.77
  L 62.19 34.37
  Q 62.80 34.42 62.80 35.03
  L 62.78 53.96
  A 0.85 0.84 -76.7 0 1 61.56 54.72
  Q 60.74 54.30 59.79 54.29
  Q 58.81 54.28 58.87 53.30
  Q 58.99 51.48 60.32 50.62
  C 61.69 49.73 61.97 47.28 61.92 45.79
  Q 61.90 45.18 61.42 45.54
  L 60.89 45.94
  A 0.28 0.25 76.3 0 0 60.78 46.14
  Q 60.70 48.64 59.55 50.50
  Q 59.20 51.07 59.15 50.41
  Q 59.06 49.20 59.69 48.13
  Q 59.96 47.67 59.96 47.13
  Q 59.96 45.09 59.75 42.90
  Q 59.74 42.78 59.71 42.65
  Q 59.62 42.26 59.07 42.51
  A 0.35 0.35 0.0 0 0 58.87 42.81
  L 58.68 46.14
  Q 58.65 46.63 58.26 46.93
  C 56.86 48.00 56.37 49.49 57.85 50.81
  Q 58.20 51.12 58.25 51.58
  Q 58.50 53.57 56.89 54.56
  Q 56.13 55.03 56.17 54.14
  Q 56.20 53.33 55.50 52.95
  Q 54.93 52.63 55.43 52.21
  Q 55.74 51.97 55.93 52.18
  Q 56.47 52.76 56.61 51.98
  Q 56.80 50.88 55.82 50.00
  Q 55.40 49.63 55.20 50.15
  Q 55.07 50.49 55.05 50.87
  Q 55.04 51.18 54.82 51.42
  Q 54.61 51.65 54.42 51.61
  Q 53.60 51.42 53.99 52.17
  Q 54.36 52.89 54.91 53.54
  Q 55.38 54.11 54.68 54.32
  L 54.29 54.45
  A 0.72 0.71 -17.0 0 1 53.39 53.98
  Q 53.09 53.00 52.39 52.28
  C 51.24 51.10 51.43 48.97 52.22 47.63
  Q 52.48 47.19 52.99 47.24
  Q 53.92 47.31 54.17 48.17
  A 0.50 0.50 0.0 0 0 55.07 48.30
  Q 57.70 44.08 53.43 42.39
  A 0.67 0.67 0.0 0 1 53.31 41.20
  Q 53.72 40.93 54.10 41.29
  Q 54.57 41.73 55.20 41.61
  Q 56.26 41.43 56.12 40.37
  Q 56.02 39.53 55.40 40.10
  Q 54.34 41.08 53.11 40.16
  Q 52.59 39.77 52.05 40.14
  Q 51.37 40.61 52.04 41.09
  Q 52.34 41.30 52.27 41.65
  Q 52.12 42.32 51.46 42.47
  Q 50.29 42.73 49.70 43.97
  Q 49.49 44.42 49.94 44.63
  L 50.92 45.10
  A 0.98 0.97 11.3 0 1 51.48 45.93
  Q 51.57 47.51 51.25 48.99
  C 50.98 50.26 51.44 51.21 51.93 52.31
  Q 52.23 52.99 52.05 53.71
  Q 51.96 54.04 51.78 54.29
  A 0.44 0.43 53.0 0 1 51.02 54.18
  Q 50.40 52.46 49.46 50.88
  Q 49.25 50.51 49.35 50.10
  Q 49.37 50.00 49.45 49.92
  Q 49.94 49.37 49.22 49.17
  Q 47.60 48.71 46.21 47.77
  Q 45.60 47.35 45.87 48.04
  Q 46.04 48.47 46.47 48.64
  Q 46.93 48.83 47.13 49.29
  Q 47.58 50.30 48.29 51.12
  Q 48.56 51.44 48.59 51.84
  Q 48.64 52.58 48.06 52.11
  Q 46.67 51.00 45.81 49.73
  Q 45.55 49.35 45.32 49.75
  L 45.01 50.26
  A 0.53 0.53 0.0 0 0 45.04 50.86
  L 47.41 53.91
  Q 47.72 54.32 47.20 54.32
  L 44.15 54.31
  Q 43.65 54.31 43.58 54.80
  Q 43.33 56.56 43.79 58.41
  Q 44.01 59.27 44.54 58.56
  Q 44.66 58.41 44.72 58.22
  Q 44.89 57.65 45.48 57.63
  Q 46.94 57.58 47.13 58.94
  Q 47.20 59.42 47.67 59.49
  L 50.33 59.88
  Q 51.40 60.04 50.74 59.18
  Q 50.10 58.33 48.92 58.44
  Q 48.64 58.47 48.59 58.19
  L 48.53 57.91
  A 0.16 0.16 0.0 0 1 48.69 57.72
  L 51.47 57.69
  Q 52.32 57.69 51.83 58.38
  Q 51.18 59.29 51.96 60.00
  Q 52.43 60.42 53.00 60.13
  Q 54.25 59.50 55.70 60.16
  Q 56.40 60.48 56.33 59.71
  Q 56.22 58.55 55.08 58.47
  Q 54.47 58.42 53.99 58.86
  Q 53.45 59.36 53.21 58.63
  Q 53.18 58.55 53.12 58.48
  Q 52.51 57.77 53.45 57.73
  Q 58.04 57.54 62.33 57.62
  Q 62.92 57.63 62.89 58.23
  L 62.77 60.49
  Q 62.74 60.91 62.32 60.91
  L 44.22 60.94"
/>
<path stroke="#428625" vector-effect="non-scaling-stroke" d="
  M 44.22 60.94
  Q 43.78 60.07 43.74 61.51
  Q 43.45 73.69 43.44 84.08
  C 43.44 84.81 43.11 85.53 43.10 86.24
  Q 43.10 86.78 43.64 86.76
  C 52.45 86.54 59.91 79.50 62.69 71.64
  Q 63.16 70.32 63.00 68.88"
/>
<path stroke="#4c9025" vector-effect="non-scaling-stroke" d="
  M 63.00 68.88
  Q 63.32 68.42 63.49 67.74
  A 0.46 0.46 0.0 0 1 63.97 67.39
  Q 64.23 67.41 64.38 67.61
  Q 64.52 67.82 64.56 68.10
  Q 65.03 71.45 63.61 71.43"
/>
<path stroke="#428625" vector-effect="non-scaling-stroke" d="
  M 63.61 71.43
  Q 61.93 77.11 58.96 81.00
  C 58.44 81.68 57.61 81.61 56.95 82.17
  Q 47.47 90.21 35.05 87.11
  Q 30.58 85.99 25.98 81.89
  Q 25.64 81.59 25.20 81.46
  Q 24.98 81.39 24.77 81.29
  Q 24.43 81.14 24.21 80.83
  Q 21.21 76.59 19.86 71.61
  A 0.50 0.50 0.0 0 0 18.98 71.44
  Q 17.24 73.79 16.67 76.89
  Q 16.65 77.02 16.51 76.99
  L 16.50 76.99
  Q 16.18 76.92 16.25 76.60
  C 16.87 73.75 18.82 71.58 19.07 68.79
  C 19.27 66.61 19.41 63.51 18.03 61.86
  Q 17.57 61.32 17.59 62.02
  Q 17.63 63.53 17.10 64.81
  Q 16.85 65.43 16.60 64.81
  Q 15.78 62.80 14.24 61.46
  Q 13.58 60.87 13.82 61.72
  Q 14.75 64.99 14.51 68.99
  C 14.35 71.59 14.28 76.60 16.20 78.59
  C 19.79 82.32 20.71 86.83 26.34 88.97
  Q 29.24 90.06 32.11 91.07
  Q 40.84 94.13 49.45 91.72
  C 51.49 91.15 53.28 90.04 55.33 89.61
  Q 57.65 89.13 59.33 87.84
  C 62.70 85.24 64.60 81.70 66.98 78.29
  C 70.47 73.28 67.36 67.39 69.45 62.15
  Q 69.96 60.87 68.87 61.71
  Q 66.73 63.33 66.47 66.41
  Q 66.45 66.72 66.21 66.52
  Q 66.09 66.42 66.08 66.26
  Q 65.64 59.01 64.75 63.71"
/>
<path stroke="#4c9025" vector-effect="non-scaling-stroke" d="
  M 64.75 63.71
  Q 64.54 64.89 63.79 63.41
  Q 63.59 63.02 63.60 62.56
  Q 63.63 47.71 63.55 33.02"
/>
<path stroke="#428625" vector-effect="non-scaling-stroke" d="
  M 63.55 33.02
  Q 63.94 31.83 63.78 30.73
  Q 63.70 30.19 63.16 30.26
  Q 62.26 30.37 61.48 29.81
  Q 61.02 29.47 61.51 29.17
  L 63.27 28.06
  Q 63.86 27.70 63.94 28.39
  Q 63.99 28.96 63.67 29.51
  Q 63.60 29.62 63.71 29.70
  L 63.71 29.70
  Q 63.88 29.81 63.99 29.64
  Q 64.73 28.48 64.79 27.27
  Q 64.87 25.62 65.47 24.02
  Q 65.62 23.62 65.62 23.19
  Q 65.62 22.22 66.49 21.67
  A 0.43 0.42 -52.2 0 0 66.40 20.91
  L 62.70 19.76
  Q 62.16 19.59 61.76 19.21
  Q 61.29 18.75 60.60 18.55
  Q 59.90 18.35 59.72 19.06
  Q 59.03 21.82 57.65 20.71"
/>
<path stroke="#4c9025" vector-effect="non-scaling-stroke" d="
  M 57.65 20.71
  Q 55.32 20.54 56.06 18.16
  Q 56.21 17.68 55.76 17.46
  Q 54.10 16.64 52.14 16.60
  C 51.06 16.58 50.62 16.30 49.70 15.92
  Q 49.10 15.67 48.87 16.28
  Q 48.53 17.20 49.07 18.33"
/>
<path stroke="#428625" vector-effect="non-scaling-stroke" d="
  M 49.07 18.33
  Q 47.60 18.95 45.18 18.71"
/>
<path stroke="#4c9025" vector-effect="non-scaling-stroke" d="
  M 45.18 18.71
  L 45.39 16.24
  Q 45.45 15.46 44.68 15.55
  Q 41.78 15.88 38.68 15.56
  Q 37.97 15.49 37.99 16.20
  L 38.03 17.78
  Q 38.05 18.42 37.41 18.49
  L 36.30 18.61"
/>
<path stroke="#0a5324" vector-effect="non-scaling-stroke" d="
  M 45.18 18.71
  L 39.54 18.69
  A 1.21 1.20 -82.9 0 0 38.37 19.61
  L 37.10 24.58
  A 0.47 0.47 0.0 0 0 37.60 25.16
  L 39.73 24.96"
/>
<path stroke="#4c9025" vector-effect="non-scaling-stroke" d="
  M 39.73 24.96
  Q 39.55 25.21 39.71 25.48"
/>
<path stroke="#0a5324" vector-effect="non-scaling-stroke" d="
  M 39.71 25.48
  Q 38.10 26.00 36.51 25.84
  Q 36.00 25.79 36.06 25.29
  Q 36.31 23.18 37.02 21.26
  Q 37.73 19.32 36.30 18.61"
/>
<path stroke="#428625" vector-effect="non-scaling-stroke" d="
  M 39.71 25.48
  L 42.98 25.45
  Q 43.79 25.44 43.36 24.75
  L 42.08 22.71
  Q 41.60 21.94 41.12 22.71
  L 39.73 24.96"
/>
<path stroke="#0a5324" vector-effect="non-scaling-stroke" d="
  M 63.55 33.02
  L 60.95 32.33"
/>
<path stroke="#428625" vector-effect="non-scaling-stroke" d="
  M 60.95 32.33
  Q 43.07 24.74 25.29 31.09
  Q 23.41 31.76 21.42 32.93
  Q 20.80 33.29 21.51 33.40
  Q 24.07 33.79 25.50 33.13
  Q 33.27 29.52 45.25 30.30
  Q 52.52 30.77 56.59 32.72"
/>
<path stroke="#0a5324" vector-effect="non-scaling-stroke" d="
  M 56.59 32.72
  Q 57.39 33.83 54.46 33.77"
/>
<path stroke="#0a5324" vector-effect="non-scaling-stroke" d="
  M 39.66 43.47
  Q 39.26 43.88 39.25 43.44"
/>
<path stroke="#428625" vector-effect="non-scaling-stroke" d="
  M 39.25 43.44
  C 38.08 42.08 33.79 39.35 32.32 41.75
  Q 31.70 42.76 31.58 41.58
  Q 31.48 40.63 30.41 40.45
  Q 29.62 40.33 29.17 40.98
  Q 28.66 41.69 27.93 42.11
  A 0.60 0.60 0.0 0 1 27.03 41.61
  Q 26.98 40.49 26.02 40.41
  Q 22.93 40.18 20.70 42.69"
/>
<path stroke="#0a5324" vector-effect="non-scaling-stroke" d="
  M 20.70 42.69
  Q 20.35 42.61 19.63 42.01"
/>
<path stroke="#0a5324" vector-effect="non-scaling-stroke" d="
  M 57.65 20.71
  Q 55.83 21.17 54.75 20.14
  Q 54.39 19.80 53.91 19.67
  L 49.07 18.33"
/>
<path stroke="#0a5324" vector-effect="non-scaling-stroke" d="
  M 64.75 63.71
  C 64.70 66.59 64.24 69.75 65.53 72.36
  Q 66.43 74.19 66.80 76.05
  Q 66.85 76.30 66.62 76.40
  Q 66.18 76.61 66.12 76.12
  Q 65.66 72.40 63.61 71.43"
/>
<path stroke="#0a5324" vector-effect="non-scaling-stroke" d="
  M 63.00 68.88
  Q 62.65 68.90 62.44 68.76"
/>
<path stroke="#4c9025" vector-effect="non-scaling-stroke" d="
  M 62.44 68.76
  L 62.80 62.66
  A 1.07 1.07 0.0 0 0 61.64 61.53
  Q 59.50 61.72 57.35 61.81
  Q 55.33 61.90 53.11 61.75
  Q 49.18 61.49 45.26 61.58
  Q 44.93 61.58 44.82 62.32"
/>
<path stroke="#0a5324" vector-effect="non-scaling-stroke" d="
  M 44.82 62.32
  Q 44.62 61.19 44.22 60.94"
/>
<path stroke="#4c9025" vector-effect="non-scaling-stroke" d="
  M 39.25 43.44
  L 39.30 50.82
  Q 39.31 52.38 37.76 52.37
  L 21.67 52.29
  A 0.98 0.97 0.3 0 1 20.70 51.32
  L 20.70 42.69"
/>
<path stroke="#4c9025" vector-effect="non-scaling-stroke" d="
  M 60.95 32.33
  Q 62.20 33.96 56.59 32.72"
/>
<path stroke="#428625" vector-effect="non-scaling-stroke" d="
  M 44.82 62.32
  L 57.91 77.34
  A 0.52 0.52 0.0 0 0 58.73 77.30
  Q 61.40 73.54 62.44 68.76"
/>
<path stroke="#4c9025" vector-effect="non-scaling-stroke" d="
  M 53.14 36.02
  Q 52.26 35.43 50.97 35.39
  A 0.56 0.55 -80.1 0 0 50.43 35.78
  Q 50.17 36.59 49.53 37.22
  Q 48.91 37.83 49.76 38.00
  L 50.74 38.20
  Q 51.03 38.26 51.17 38.00
  L 51.50 37.39
  A 0.77 0.74 -81.9 0 1 51.97 37.02
  Q 54.44 36.39 55.50 38.69
  Q 55.74 39.20 55.87 38.65
  Q 56.01 38.07 56.56 37.85
  Q 57.27 37.56 56.74 37.02
  Q 56.24 36.50 55.99 35.86
  A 1.09 1.08 -9.9 0 0 54.99 35.16
  Q 54.42 35.16 54.21 35.70
  Q 53.87 36.51 53.14 36.02"
/>
<path stroke="#4c9025" vector-effect="non-scaling-stroke" d="
  M 59.41 58.87
  Q 58.86 58.52 58.19 58.59
  A 0.62 0.61 -2.1 0 0 57.63 59.19
  L 57.62 59.47
  Q 57.61 59.96 58.10 59.98
  Q 59.96 60.04 60.78 58.62
  Q 61.05 58.16 60.52 58.19
  Q 60.07 58.22 59.99 58.62
  A 0.39 0.38 21.6 0 1 59.41 58.87"
/>
<path stroke="#428625" vector-effect="non-scaling-stroke" d="
  M 42.7555 20.4230
  A 1.05 0.55 -5.3 0 0 41.6592 19.9724
  A 1.05 0.55 -5.3 0 0 40.6645 20.6170
  A 1.05 0.55 -5.3 0 0 41.7608 21.0676
  A 1.05 0.55 -5.3 0 0 42.7555 20.4230"
/>
<path stroke="#428625" vector-effect="non-scaling-stroke" d="
  M 32.6686 21.2089
  A 1.05 0.66 -11.6 0 0 31.5073 20.7735
  A 1.05 0.66 -11.6 0 0 30.6114 21.6311
  A 1.05 0.66 -11.6 0 0 31.7727 22.0665
  A 1.05 0.66 -11.6 0 0 32.6686 21.2089"
/>
<path stroke="#428625" vector-effect="non-scaling-stroke" d="
  M 52.8065 21.6033
  A 1.12 0.73 8.9 0 0 51.8129 20.7088
  A 1.12 0.73 8.9 0 0 50.5935 21.2567
  A 1.12 0.73 8.9 0 0 51.5871 22.1512
  A 1.12 0.73 8.9 0 0 52.8065 21.6033"
/>
<path stroke="#428625" vector-effect="non-scaling-stroke" d="
  M 52.82 26.20
  C 52.47 25.26 51.94 24.84 51.71 23.66
  A 0.57 0.57 0.0 0 0 50.69 23.44
  L 49.17 25.55
  Q 48.91 25.90 49.34 25.99
  L 52.49 26.60
  A 0.30 0.30 0.0 0 0 52.82 26.20"
/>
<path stroke="#428625" vector-effect="non-scaling-stroke" d="
  M 28.47 37.49
  Q 28.28 36.73 27.62 36.58
  Q 27.09 36.46 26.89 37.03
  Q 26.73 37.49 26.93 37.89
  Q 27.08 38.20 27.44 38.25
  Q 27.71 38.29 27.97 38.25
  Q 28.64 38.15 28.47 37.49"
/>
<path stroke="#4c9025" vector-effect="non-scaling-stroke" d="
  M 36.28 58.61
  A 0.37 0.36 -51.8 0 0 36.22 58.08
  L 35.98 57.90
  Q 35.25 57.35 34.92 58.20
  Q 34.80 58.52 34.93 58.84
  Q 35.14 59.37 35.64 59.12
  Q 36.01 58.94 36.28 58.61"
/>
<path stroke="#4c9025" vector-effect="non-scaling-stroke" d="
  M 32.68 66.51
  Q 33.18 67.83 33.22 69.24
  Q 33.22 69.31 33.29 69.31
  L 33.55 69.30
  A 0.32 0.32 0.0 0 0 33.86 68.97
  Q 33.83 67.71 34.17 66.69
  Q 34.41 65.96 34.56 66.72
  Q 34.90 68.46 34.90 70.58
  Q 34.91 71.29 35.31 71.78
  Q 35.65 72.21 35.84 71.69
  Q 36.19 70.71 36.98 70.12
  Q 37.52 69.71 37.75 70.34
  Q 38.17 71.46 38.02 72.79
  Q 37.96 73.28 38.45 73.34
  L 38.72 73.37
  Q 38.88 73.39 38.89 73.24
  Q 39.51 68.13 39.21 62.42
  A 0.90 0.90 0.0 0 0 38.31 61.57
  L 21.46 61.65
  A 1.08 1.08 0.0 0 0 20.39 62.80
  Q 20.60 65.98 21.01 69.38
  Q 21.21 71.02 22.80 71.94
  Q 23.30 72.22 23.69 71.81
  Q 24.35 71.13 25.30 71.27
  Q 26.01 71.37 26.06 70.65
  Q 26.13 69.68 26.54 68.75
  Q 26.91 67.93 27.08 68.82
  C 27.25 69.67 27.10 70.82 27.91 71.40
  Q 28.57 71.86 29.30 71.42
  Q 29.82 71.12 29.88 70.52
  Q 30.07 68.70 30.41 66.96
  Q 30.64 65.76 30.99 66.93
  Q 31.20 67.62 31.19 68.41
  Q 31.18 69.12 31.63 68.57
  Q 32.20 67.86 32.04 66.70
  Q 32.04 66.65 32.07 66.62
  L 32.30 66.42
  Q 32.56 66.18 32.68 66.51"
/>
<path stroke="#4c9025" vector-effect="non-scaling-stroke" d="
  M 39.05 77.76
  Q 39.02 77.46 38.71 77.46
  L 25.49 77.51
  A 0.46 0.45 -22.0 0 0 25.16 78.28
  Q 30.63 84.02 38.66 85.98
  A 0.26 0.26 0.0 0 0 38.97 85.79
  Q 39.57 83.23 39.05 77.76"
/>
<path stroke="#428625" vector-effect="non-scaling-stroke" d="
  M 46.08 80.78
  A 0.67 0.67 0.0 0 1 45.96 79.62
  C 46.93 78.93 47.60 77.73 47.51 76.50
  Q 47.35 74.13 46.91 72.11
  Q 46.62 70.76 45.81 71.89
  L 45.25 72.67
  Q 44.37 73.89 44.53 75.39
  Q 44.85 78.23 45.12 81.13
  Q 45.21 82.13 46.10 82.67
  A 0.41 0.41 0.0 0 0 46.68 82.50
  Q 47.27 81.33 46.08 80.78"
/>
<path stroke="#0a5324" vector-effect="non-scaling-stroke" d="
  M 50.74 72.72
  Q 49.95 72.51 49.86 72.87"
/>
<path stroke="#428625" vector-effect="non-scaling-stroke" d="
  M 49.86 72.87
  C 47.72 73.38 48.13 76.53 48.17 78.23
  Q 48.19 78.78 47.71 79.06
  L 47.30 79.31
  A 0.72 0.72 0.0 0 0 47.00 80.19
  Q 47.13 80.53 47.49 80.84"
/>
<path stroke="#0a5324" vector-effect="non-scaling-stroke" d="
  M 47.49 80.84
  Q 47.84 81.16 48.12 81.76"
/>
<path stroke="#428625" vector-effect="non-scaling-stroke" d="
  M 48.12 81.76
  Q 48.20 82.79 48.70 83.10
  A 0.68 0.68 0.0 0 0 49.64 82.87
  Q 50.48 81.49 50.85 79.89
  Q 50.97 79.37 50.58 79.00
  Q 50.13 78.57 50.35 78.00
  Q 50.64 77.25 50.96 77.99
  Q 51.34 78.86 52.00 79.53
  Q 52.42 79.96 52.22 80.53
  Q 52.04 81.02 51.70 81.44
  Q 51.49 81.69 51.74 81.90
  L 51.94 82.08
  Q 52.13 82.25 52.30 82.07
  Q 54.01 80.32 54.12 79.49
  Q 54.59 75.61 52.40 72.54
  Q 52.03 72.02 51.62 72.08
  Q 51.16 72.14 50.74 72.72"
/>
<path stroke="#4c9025" vector-effect="non-scaling-stroke" d="
  M 48.12 81.76
  Q 48.32 80.81 49.75 80.54
  A 0.30 0.29 79.6 0 0 49.99 80.19
  Q 49.92 79.89 49.50 79.85
  A 0.60 0.57 32.3 0 0 49.20 79.91
  L 47.49 80.84"
/>
<path stroke="#4c9025" vector-effect="non-scaling-stroke" d="
  M 49.86 72.87
  Q 49.95 74.68 50.58 75.38
  Q 51.01 75.84 51.15 75.23
  Q 51.41 74.09 50.74 72.72"
/>
<path stroke="#428625" vector-effect="non-scaling-stroke" d="
  M 60.9144 82.4403
  A 3.14 0.73 126.0 0 0 63.3506 80.3291
  A 3.14 0.73 126.0 0 0 64.6056 77.3597
  A 3.14 0.73 126.0 0 0 62.1694 79.4709
  A 3.14 0.73 126.0 0 0 60.9144 82.4403"
/>
<path stroke="#0a5324" vector-effect="non-scaling-stroke" d="
  M 25.47 87.07
  Q 24.68 85.45 24.84 83.38
  Q 24.86 83.17 24.65 83.10
  L 24.33 83.00
  Q 24.14 82.94 24.13 83.15
  Q 24.11 85.13 24.81 87.02
  Q 24.92 87.32 25.22 87.19
  L 25.46 87.09
  Q 25.47 87.08 25.47 87.07"
/>
<path stroke="#428625" vector-effect="non-scaling-stroke" d="
  M 49.21 89.71
  L 49.89 89.93
  Q 50.41 90.11 50.81 89.72
  L 51.84 88.70
  Q 52.29 88.26 52.90 88.42
  Q 53.93 88.70 55.06 88.44
  Q 55.56 88.32 55.17 88.00
  C 54.18 87.19 53.48 86.92 52.20 87.44
  C 50.72 88.04 49.10 88.39 48.14 89.83
  Q 47.82 90.30 48.39 90.35
  Q 48.61 90.38 48.61 90.13
  A 0.46 0.45 -79.7 0 1 49.21 89.71"
/>
<path stroke="#428625" vector-effect="non-scaling-stroke" d="
  M 30.70 88.64
  Q 31.97 89.18 33.40 89.93
  Q 34.74 90.63 36.07 90.81
  Q 38.97 91.19 42.15 91.40
  A 0.69 0.69 0.0 0 0 42.81 91.03
  Q 43.11 90.49 42.70 89.98
  A 0.32 0.32 0.0 0 0 42.31 89.89
  Q 41.10 90.44 39.69 90.39
  Q 39.15 90.37 38.69 90.09
  Q 38.10 89.71 37.38 89.93
  Q 36.83 90.11 36.33 89.85
  Q 33.17 88.23 29.75 87.32
  Q 28.69 87.03 28.28 87.89
  Q 27.99 88.49 28.65 88.39
  Q 29.04 88.33 29.44 88.35
  Q 30.10 88.38 30.70 88.64"
/>
<path stroke="#428625" vector-effect="non-scaling-stroke" d="
  M 45.55 90.61
  Q 45.94 90.79 46.40 90.73
  Q 46.71 90.68 46.94 90.47
  Q 47.08 90.35 47.16 90.19
  Q 47.48 89.52 46.73 89.55
  L 44.69 89.63
  A 0.59 0.59 0.0 0 0 44.15 90.05
  Q 43.95 90.72 44.36 91.00
  Q 44.47 91.06 44.59 91.03
  Q 44.80 90.97 44.92 90.79
  A 0.52 0.51 29.0 0 1 45.55 90.61"
/>
<path stroke="#428625" vector-effect="non-scaling-stroke" d="
  M 59.45 68.73
  Q 56.65 66.57 57.67 63.78
  A 0.72 0.71 9.5 0 0 56.98 62.82
  L 55.12 62.85
  Q 54.15 62.87 54.55 63.76
  Q 54.77 64.23 54.60 64.68
  Q 54.07 66.08 53.60 64.66
  Q 53.21 63.50 51.92 63.62
  Q 51.11 63.69 51.27 64.49
  Q 51.56 66.00 53.38 66.10
  Q 54.69 66.17 53.72 67.05
  Q 53.48 67.27 53.14 67.33
  A 0.66 0.65 76.9 0 0 52.62 68.17
  L 52.71 68.45
  A 0.44 0.43 -20.4 0 0 53.31 68.72
  L 54.66 68.12
  Q 55.31 67.82 55.15 68.52
  L 54.37 71.75
  A 0.61 0.61 0.0 0 0 55.49 72.21
  Q 55.95 71.45 56.06 70.51
  Q 56.19 69.36 56.70 70.40
  Q 57.32 71.69 56.64 72.95
  A 0.31 0.30 16.1 0 0 56.89 73.40
  L 57.23 73.43
  Q 57.77 73.47 58.10 73.04
  Q 58.83 72.06 58.96 70.68
  Q 59.01 70.15 59.50 69.97
  Q 61.29 69.32 60.70 67.32
  Q 60.04 65.10 59.91 62.94
  Q 59.89 62.58 59.56 62.73
  Q 59.04 62.97 58.75 63.42
  A 2.43 2.39 -35.4 0 0 58.43 65.22
  Q 58.78 66.81 59.77 68.13
  Q 59.86 68.25 59.89 68.39
  Q 59.92 68.54 59.82 68.68
  Q 59.66 68.89 59.45 68.73"
/>
</g>
<path fill="#004924" d="
  M 0.00 0.00
  L 83.37 0.00
  Q 83.70 1.50 83.37 3.05
  Q 83.27 3.54 82.76 3.54
  L 0.00 3.55
  L 0.00 0.00
  Z"
/>
<path fill="#84c225" d="
  M 0.00 5.73
  L 82.94 5.76
  Q 83.49 5.76 83.49 6.31
  Q 83.51 35.32 83.50 64.04
  Q 83.50 86.87 66.17 99.47
  Q 54.47 107.98 40.89 107.63
  Q 30.59 107.36 22.00 102.65
  Q 6.63 94.22 1.37 77.20
  C 0.54 74.51 0.34 71.90 0.00 69.12
  L 0.00 5.73
  Z
  M 36.30 18.61
  Q 35.51 19.00 34.87 18.74
  Q 34.31 18.53 34.34 17.93
  L 34.42 16.08
  A 0.22 0.22 0.0 0 0 34.13 15.86
  Q 30.33 17.05 27.20 17.15
  A 0.32 0.32 0.0 0 0 26.93 17.62
  Q 28.16 19.88 25.84 20.71
  Q 23.95 21.39 23.79 19.39
  L 23.74 18.80
  Q 23.70 18.30 23.23 18.49
  L 17.01 20.97
  Q 16.35 21.24 16.90 21.69
  C 18.16 22.75 17.85 25.04 18.43 26.56
  Q 18.91 27.82 19.12 29.16
  Q 19.28 30.22 19.40 29.16
  Q 19.42 28.98 19.46 28.80
  Q 19.64 27.74 20.55 28.31
  L 21.01 28.61
  Q 21.66 29.01 22.39 28.80
  L 26.76 27.56
  Q 27.21 27.43 27.28 26.96
  Q 27.44 25.88 26.69 24.65
  Q 26.66 24.60 26.71 24.56
  L 26.72 24.56
  Q 26.96 24.39 27.10 24.64
  Q 27.45 25.29 27.56 26.08
  A 1.02 1.01 -10.0 0 0 28.78 26.93
  Q 31.34 26.37 31.40 23.88
  A 0.66 0.66 0.0 0 1 32.59 23.51
  L 33.84 25.22
  Q 34.22 25.73 33.61 25.91
  Q 29.51 27.11 25.32 28.24
  C 23.26 28.80 21.80 29.95 19.86 30.42
  Q 19.39 30.54 19.40 31.02
  L 19.63 42.01
  Q 19.53 50.55 19.60 59.04
  C 19.63 61.80 20.11 64.48 19.99 67.16
  Q 19.87 69.73 20.69 72.00
  Q 23.14 78.72 28.79 82.97
  C 30.72 84.41 32.97 85.13 35.13 86.12
  Q 36.57 86.77 38.14 86.86
  Q 39.75 86.94 41.31 87.18
  Q 42.36 87.34 41.55 86.66
  Q 41.03 86.23 40.40 85.93
  A 1.09 1.08 -79.5 0 1 39.77 85.01
  C 39.58 81.38 39.91 77.76 39.79 74.17
  Q 39.65 69.76 39.89 65.24
  Q 39.99 63.55 39.60 61.49
  Q 39.51 60.96 38.97 60.95
  L 22.73 60.79
  Q 22.29 60.79 21.92 61.04
  Q 21.37 61.41 20.99 60.89
  A 3.50 2.15 -70.4 0 1 20.53 58.71
  Q 20.61 57.86 21.40 57.87
  Q 22.09 57.88 22.27 58.55
  Q 22.45 59.20 22.37 59.80
  A 0.23 0.23 0.0 0 0 22.63 60.06
  Q 26.04 59.65 28.95 60.02
  Q 30.55 60.22 29.55 58.95
  Q 29.36 58.71 29.46 58.44
  A 0.36 0.36 0.0 0 1 30.03 58.28
  Q 30.72 58.84 31.19 59.62
  Q 31.37 59.91 31.70 59.96
  Q 32.03 60.01 32.33 59.88
  Q 32.72 59.70 32.63 59.28
  Q 32.49 58.64 33.05 58.25
  Q 33.57 57.90 33.73 58.50
  Q 34.13 60.01 36.23 60.07
  Q 36.79 60.08 36.65 59.54
  Q 36.44 58.73 36.82 57.98
  Q 37.26 57.09 37.90 57.85
  Q 38.41 58.46 38.40 59.28
  Q 38.40 60.08 38.87 59.44
  Q 39.03 59.22 39.29 59.17
  Q 39.80 59.07 39.97 59.56
  Q 40.15 60.08 40.70 60.17
  A 0.68 0.67 21.0 0 0 41.39 59.87
  Q 41.98 58.93 41.23 58.21
  Q 41.03 58.01 40.74 58.02
  Q 40.58 58.02 40.42 58.00
  Q 39.92 57.94 39.91 57.44
  L 39.66 43.47
  L 39.79 35.05
  Q 39.80 34.13 40.71 34.13
  L 42.53 34.13
  Q 43.43 34.13 43.45 35.03
  L 43.69 48.81
  Q 43.69 48.88 43.62 48.88
  Q 43.09 48.86 43.72 48.88
  Q 43.79 48.88 43.79 48.81
  L 43.92 35.14
  A 0.68 0.68 0.0 0 1 44.55 34.46
  L 54.46 33.77
  L 62.19 34.37
  Q 62.80 34.42 62.80 35.03
  L 62.78 53.96
  A 0.85 0.84 -76.7 0 1 61.56 54.72
  Q 60.74 54.30 59.79 54.29
  Q 58.81 54.28 58.87 53.30
  Q 58.99 51.48 60.32 50.62
  C 61.69 49.73 61.97 47.28 61.92 45.79
  Q 61.90 45.18 61.42 45.54
  L 60.89 45.94
  A 0.28 0.25 76.3 0 0 60.78 46.14
  Q 60.70 48.64 59.55 50.50
  Q 59.20 51.07 59.15 50.41
  Q 59.06 49.20 59.69 48.13
  Q 59.96 47.67 59.96 47.13
  Q 59.96 45.09 59.75 42.90
  Q 59.74 42.78 59.71 42.65
  Q 59.62 42.26 59.07 42.51
  A 0.35 0.35 0.0 0 0 58.87 42.81
  L 58.68 46.14
  Q 58.65 46.63 58.26 46.93
  C 56.86 48.00 56.37 49.49 57.85 50.81
  Q 58.20 51.12 58.25 51.58
  Q 58.50 53.57 56.89 54.56
  Q 56.13 55.03 56.17 54.14
  Q 56.20 53.33 55.50 52.95
  Q 54.93 52.63 55.43 52.21
  Q 55.74 51.97 55.93 52.18
  Q 56.47 52.76 56.61 51.98
  Q 56.80 50.88 55.82 50.00
  Q 55.40 49.63 55.20 50.15
  Q 55.07 50.49 55.05 50.87
  Q 55.04 51.18 54.82 51.42
  Q 54.61 51.65 54.42 51.61
  Q 53.60 51.42 53.99 52.17
  Q 54.36 52.89 54.91 53.54
  Q 55.38 54.11 54.68 54.32
  L 54.29 54.45
  A 0.72 0.71 -17.0 0 1 53.39 53.98
  Q 53.09 53.00 52.39 52.28
  C 51.24 51.10 51.43 48.97 52.22 47.63
  Q 52.48 47.19 52.99 47.24
  Q 53.92 47.31 54.17 48.17
  A 0.50 0.50 0.0 0 0 55.07 48.30
  Q 57.70 44.08 53.43 42.39
  A 0.67 0.67 0.0 0 1 53.31 41.20
  Q 53.72 40.93 54.10 41.29
  Q 54.57 41.73 55.20 41.61
  Q 56.26 41.43 56.12 40.37
  Q 56.02 39.53 55.40 40.10
  Q 54.34 41.08 53.11 40.16
  Q 52.59 39.77 52.05 40.14
  Q 51.37 40.61 52.04 41.09
  Q 52.34 41.30 52.27 41.65
  Q 52.12 42.32 51.46 42.47
  Q 50.29 42.73 49.70 43.97
  Q 49.49 44.42 49.94 44.63
  L 50.92 45.10
  A 0.98 0.97 11.3 0 1 51.48 45.93
  Q 51.57 47.51 51.25 48.99
  C 50.98 50.26 51.44 51.21 51.93 52.31
  Q 52.23 52.99 52.05 53.71
  Q 51.96 54.04 51.78 54.29
  A 0.44 0.43 53.0 0 1 51.02 54.18
  Q 50.40 52.46 49.46 50.88
  Q 49.25 50.51 49.35 50.10
  Q 49.37 50.00 49.45 49.92
  Q 49.94 49.37 49.22 49.17
  Q 47.60 48.71 46.21 47.77
  Q 45.60 47.35 45.87 48.04
  Q 46.04 48.47 46.47 48.64
  Q 46.93 48.83 47.13 49.29
  Q 47.58 50.30 48.29 51.12
  Q 48.56 51.44 48.59 51.84
  Q 48.64 52.58 48.06 52.11
  Q 46.67 51.00 45.81 49.73
  Q 45.55 49.35 45.32 49.75
  L 45.01 50.26
  A 0.53 0.53 0.0 0 0 45.04 50.86
  L 47.41 53.91
  Q 47.72 54.32 47.20 54.32
  L 44.15 54.31
  Q 43.65 54.31 43.58 54.80
  Q 43.33 56.56 43.79 58.41
  Q 44.01 59.27 44.54 58.56
  Q 44.66 58.41 44.72 58.22
  Q 44.89 57.65 45.48 57.63
  Q 46.94 57.58 47.13 58.94
  Q 47.20 59.42 47.67 59.49
  L 50.33 59.88
  Q 51.40 60.04 50.74 59.18
  Q 50.10 58.33 48.92 58.44
  Q 48.64 58.47 48.59 58.19
  L 48.53 57.91
  A 0.16 0.16 0.0 0 1 48.69 57.72
  L 51.47 57.69
  Q 52.32 57.69 51.83 58.38
  Q 51.18 59.29 51.96 60.00
  Q 52.43 60.42 53.00 60.13
  Q 54.25 59.50 55.70 60.16
  Q 56.40 60.48 56.33 59.71
  Q 56.22 58.55 55.08 58.47
  Q 54.47 58.42 53.99 58.86
  Q 53.45 59.36 53.21 58.63
  Q 53.18 58.55 53.12 58.48
  Q 52.51 57.77 53.45 57.73
  Q 58.04 57.54 62.33 57.62
  Q 62.92 57.63 62.89 58.23
  L 62.77 60.49
  Q 62.74 60.91 62.32 60.91
  L 44.22 60.94
  Q 43.78 60.07 43.74 61.51
  Q 43.45 73.69 43.44 84.08
  C 43.44 84.81 43.11 85.53 43.10 86.24
  Q 43.10 86.78 43.64 86.76
  C 52.45 86.54 59.91 79.50 62.69 71.64
  Q 63.16 70.32 63.00 68.88
  Q 63.32 68.42 63.49 67.74
  A 0.46 0.46 0.0 0 1 63.97 67.39
  Q 64.23 67.41 64.38 67.61
  Q 64.52 67.82 64.56 68.10
  Q 65.03 71.45 63.61 71.43
  Q 61.93 77.11 58.96 81.00
  C 58.44 81.68 57.61 81.61 56.95 82.17
  Q 47.47 90.21 35.05 87.11
  Q 30.58 85.99 25.98 81.89
  Q 25.64 81.59 25.20 81.46
  Q 24.98 81.39 24.77 81.29
  Q 24.43 81.14 24.21 80.83
  Q 21.21 76.59 19.86 71.61
  A 0.50 0.50 0.0 0 0 18.98 71.44
  Q 17.24 73.79 16.67 76.89
  Q 16.65 77.02 16.51 76.99
  L 16.50 76.99
  Q 16.18 76.92 16.25 76.60
  C 16.87 73.75 18.82 71.58 19.07 68.79
  C 19.27 66.61 19.41 63.51 18.03 61.86
  Q 17.57 61.32 17.59 62.02
  Q 17.63 63.53 17.10 64.81
  Q 16.85 65.43 16.60 64.81
  Q 15.78 62.80 14.24 61.46
  Q 13.58 60.87 13.82 61.72
  Q 14.75 64.99 14.51 68.99
  C 14.35 71.59 14.28 76.60 16.20 78.59
  C 19.79 82.32 20.71 86.83 26.34 88.97
  Q 29.24 90.06 32.11 91.07
  Q 40.84 94.13 49.45 91.72
  C 51.49 91.15 53.28 90.04 55.33 89.61
  Q 57.65 89.13 59.33 87.84
  C 62.70 85.24 64.60 81.70 66.98 78.29
  C 70.47 73.28 67.36 67.39 69.45 62.15
  Q 69.96 60.87 68.87 61.71
  Q 66.73 63.33 66.47 66.41
  Q 66.45 66.72 66.21 66.52
  Q 66.09 66.42 66.08 66.26
  Q 65.64 59.01 64.75 63.71
  Q 64.54 64.89 63.79 63.41
  Q 63.59 63.02 63.60 62.56
  Q 63.63 47.71 63.55 33.02
  Q 63.94 31.83 63.78 30.73
  Q 63.70 30.19 63.16 30.26
  Q 62.26 30.37 61.48 29.81
  Q 61.02 29.47 61.51 29.17
  L 63.27 28.06
  Q 63.86 27.70 63.94 28.39
  Q 63.99 28.96 63.67 29.51
  Q 63.60 29.62 63.71 29.70
  L 63.71 29.70
  Q 63.88 29.81 63.99 29.64
  Q 64.73 28.48 64.79 27.27
  Q 64.87 25.62 65.47 24.02
  Q 65.62 23.62 65.62 23.19
  Q 65.62 22.22 66.49 21.67
  A 0.43 0.42 -52.2 0 0 66.40 20.91
  L 62.70 19.76
  Q 62.16 19.59 61.76 19.21
  Q 61.29 18.75 60.60 18.55
  Q 59.90 18.35 59.72 19.06
  Q 59.03 21.82 57.65 20.71
  Q 55.32 20.54 56.06 18.16
  Q 56.21 17.68 55.76 17.46
  Q 54.10 16.64 52.14 16.60
  C 51.06 16.58 50.62 16.30 49.70 15.92
  Q 49.10 15.67 48.87 16.28
  Q 48.53 17.20 49.07 18.33
  Q 47.60 18.95 45.18 18.71
  L 45.39 16.24
  Q 45.45 15.46 44.68 15.55
  Q 41.78 15.88 38.68 15.56
  Q 37.97 15.49 37.99 16.20
  L 38.03 17.78
  Q 38.05 18.42 37.41 18.49
  L 36.30 18.61
  Z
  M 53.14 36.02
  Q 52.26 35.43 50.97 35.39
  A 0.56 0.55 -80.1 0 0 50.43 35.78
  Q 50.17 36.59 49.53 37.22
  Q 48.91 37.83 49.76 38.00
  L 50.74 38.20
  Q 51.03 38.26 51.17 38.00
  L 51.50 37.39
  A 0.77 0.74 -81.9 0 1 51.97 37.02
  Q 54.44 36.39 55.50 38.69
  Q 55.74 39.20 55.87 38.65
  Q 56.01 38.07 56.56 37.85
  Q 57.27 37.56 56.74 37.02
  Q 56.24 36.50 55.99 35.86
  A 1.09 1.08 -9.9 0 0 54.99 35.16
  Q 54.42 35.16 54.21 35.70
  Q 53.87 36.51 53.14 36.02
  Z
  M 59.41 58.87
  Q 58.86 58.52 58.19 58.59
  A 0.62 0.61 -2.1 0 0 57.63 59.19
  L 57.62 59.47
  Q 57.61 59.96 58.10 59.98
  Q 59.96 60.04 60.78 58.62
  Q 61.05 58.16 60.52 58.19
  Q 60.07 58.22 59.99 58.62
  A 0.39 0.38 21.6 0 1 59.41 58.87
  Z"
/>
<path fill="#004924" d="
  M 259.44 13.74
  L 266.80 12.25
  A 1.17 1.17 0.0 0 1 268.19 13.21
  L 268.59 15.66
  A 1.17 1.17 0.0 0 1 267.63 17.00
  L 259.85 18.29
  A 1.17 1.17 0.0 0 1 258.49 17.13
  L 258.50 14.88
  A 1.17 1.17 0.0 0 1 259.44 13.74
  Z"
/>
<path fill="#135d24" d="
  M 45.18 18.71
  L 39.54 18.69
  A 1.21 1.20 -82.9 0 0 38.37 19.61
  L 37.10 24.58
  A 0.47 0.47 0.0 0 0 37.60 25.16
  L 39.73 24.96
  Q 39.55 25.21 39.71 25.48
  Q 38.10 26.00 36.51 25.84
  Q 36.00 25.79 36.06 25.29
  Q 36.31 23.18 37.02 21.26
  Q 37.73 19.32 36.30 18.61
  L 37.41 18.49
  Q 38.05 18.42 38.03 17.78
  L 37.99 16.20
  Q 37.97 15.49 38.68 15.56
  Q 41.78 15.88 44.68 15.55
  Q 45.45 15.46 45.39 16.24
  L 45.18 18.71
  Z"
/>
<path fill="#135d24" d="
  M 57.65 20.71
  Q 55.83 21.17 54.75 20.14
  Q 54.39 19.80 53.91 19.67
  L 49.07 18.33
  Q 48.53 17.20 48.87 16.28
  Q 49.10 15.67 49.70 15.92
  C 50.62 16.30 51.06 16.58 52.14 16.60
  Q 54.10 16.64 55.76 17.46
  Q 56.21 17.68 56.06 18.16
  Q 55.32 20.54 57.65 20.71
  Z"
/>
<path fill="#004924" d="
  M 36.30 18.61
  Q 37.73 19.32 37.02 21.26
  Q 36.31 23.18 36.06 25.29
  Q 36.00 25.79 36.51 25.84
  Q 38.10 26.00 39.71 25.48
  L 42.98 25.45
  Q 43.79 25.44 43.36 24.75
  L 42.08 22.71
  Q 41.60 21.94 41.12 22.71
  L 39.73 24.96
  L 37.60 25.16
  A 0.47 0.47 0.0 0 1 37.10 24.58
  L 38.37 19.61
  A 1.21 1.20 -82.9 0 1 39.54 18.69
  L 45.18 18.71
  Q 47.60 18.95 49.07 18.33
  L 53.91 19.67
  Q 54.39 19.80 54.75 20.14
  Q 55.83 21.17 57.65 20.71
  Q 59.03 21.82 59.72 19.06
  Q 59.90 18.35 60.60 18.55
  Q 61.29 18.75 61.76 19.21
  Q 62.16 19.59 62.70 19.76
  L 66.40 20.91
  A 0.43 0.42 -52.2 0 1 66.49 21.67
  Q 65.62 22.22 65.62 23.19
  Q 65.62 23.62 65.47 24.02
  Q 64.87 25.62 64.79 27.27
  Q 64.73 28.48 63.99 29.64
  Q 63.88 29.81 63.71 29.70
  L 63.71 29.70
  Q 63.60 29.62 63.67 29.51
  Q 63.99 28.96 63.94 28.39
  Q 63.86 27.70 63.27 28.06
  L 61.51 29.17
  Q 61.02 29.47 61.48 29.81
  Q 62.26 30.37 63.16 30.26
  Q 63.70 30.19 63.78 30.73
  Q 63.94 31.83 63.55 33.02
  L 60.95 32.33
  Q 43.07 24.74 25.29 31.09
  Q 23.41 31.76 21.42 32.93
  Q 20.80 33.29 21.51 33.40
  Q 24.07 33.79 25.50 33.13
  Q 33.27 29.52 45.25 30.30
  Q 52.52 30.77 56.59 32.72
  Q 57.39 33.83 54.46 33.77
  L 44.55 34.46
  A 0.68 0.68 0.0 0 0 43.92 35.14
  L 43.79 48.81
  Q 43.79 48.88 43.72 48.88
  Q 43.09 48.86 43.62 48.88
  Q 43.69 48.88 43.69 48.81
  L 43.45 35.03
  Q 43.43 34.13 42.53 34.13
  L 40.71 34.13
  Q 39.80 34.13 39.79 35.05
  L 39.66 43.47
  Q 39.26 43.88 39.25 43.44
  C 38.08 42.08 33.79 39.35 32.32 41.75
  Q 31.70 42.76 31.58 41.58
  Q 31.48 40.63 30.41 40.45
  Q 29.62 40.33 29.17 40.98
  Q 28.66 41.69 27.93 42.11
  A 0.60 0.60 0.0 0 1 27.03 41.61
  Q 26.98 40.49 26.02 40.41
  Q 22.93 40.18 20.70 42.69
  Q 20.35 42.61 19.63 42.01
  L 19.40 31.02
  Q 19.39 30.54 19.86 30.42
  C 21.80 29.95 23.26 28.80 25.32 28.24
  Q 29.51 27.11 33.61 25.91
  Q 34.22 25.73 33.84 25.22
  L 32.59 23.51
  A 0.66 0.66 0.0 0 0 31.40 23.88
  Q 31.34 26.37 28.78 26.93
  A 1.02 1.01 -10.0 0 1 27.56 26.08
  Q 27.45 25.29 27.10 24.64
  Q 26.96 24.39 26.72 24.56
  L 26.71 24.56
  Q 26.66 24.60 26.69 24.65
  Q 27.44 25.88 27.28 26.96
  Q 27.21 27.43 26.76 27.56
  L 22.39 28.80
  Q 21.66 29.01 21.01 28.61
  L 20.55 28.31
  Q 19.64 27.74 19.46 28.80
  Q 19.42 28.98 19.40 29.16
  Q 19.28 30.22 19.12 29.16
  Q 18.91 27.82 18.43 26.56
  C 17.85 25.04 18.16 22.75 16.90 21.69
  Q 16.35 21.24 17.01 20.97
  L 23.23 18.49
  Q 23.70 18.30 23.74 18.80
  L 23.79 19.39
  Q 23.95 21.39 25.84 20.71
  Q 28.16 19.88 26.93 17.62
  A 0.32 0.32 0.0 0 1 27.20 17.15
  Q 30.33 17.05 34.13 15.86
  A 0.22 0.22 0.0 0 1 34.42 16.08
  L 34.34 17.93
  Q 34.31 18.53 34.87 18.74
  Q 35.51 19.00 36.30 18.61
  Z
  M 42.7555 20.4230
  A 1.05 0.55 -5.3 0 0 41.6592 19.9724
  A 1.05 0.55 -5.3 0 0 40.6645 20.6170
  A 1.05 0.55 -5.3 0 0 41.7608 21.0676
  A 1.05 0.55 -5.3 0 0 42.7555 20.4230
  Z
  M 32.6686 21.2089
  A 1.05 0.66 -11.6 0 0 31.5073 20.7735
  A 1.05 0.66 -11.6 0 0 30.6114 21.6311
  A 1.05 0.66 -11.6 0 0 31.7727 22.0665
  A 1.05 0.66 -11.6 0 0 32.6686 21.2089
  Z
  M 52.8065 21.6033
  A 1.12 0.73 8.9 0 0 51.8129 20.7088
  A 1.12 0.73 8.9 0 0 50.5935 21.2567
  A 1.12 0.73 8.9 0 0 51.5871 22.1512
  A 1.12 0.73 8.9 0 0 52.8065 21.6033
  Z
  M 52.82 26.20
  C 52.47 25.26 51.94 24.84 51.71 23.66
  A 0.57 0.57 0.0 0 0 50.69 23.44
  L 49.17 25.55
  Q 48.91 25.90 49.34 25.99
  L 52.49 26.60
  A 0.30 0.30 0.0 0 0 52.82 26.20
  Z
  M 28.47 37.49
  Q 28.28 36.73 27.62 36.58
  Q 27.09 36.46 26.89 37.03
  Q 26.73 37.49 26.93 37.89
  Q 27.08 38.20 27.44 38.25
  Q 27.71 38.29 27.97 38.25
  Q 28.64 38.15 28.47 37.49
  Z"
/>
<path fill="#004924" d="
  M 213.73 28.93
  A 1.42 1.41 87.0 0 0 212.18 27.53
  L 211.49 27.59
  Q 209.85 27.75 209.86 29.39
  L 209.97 62.21
  Q 209.98 63.70 211.46 63.83
  L 212.00 63.87
  A 1.56 1.55 2.4 0 0 213.69 62.33
  Q 213.70 57.70 213.51 52.43
  Q 213.45 50.71 212.72 49.11
  Q 211.32 46.01 211.98 41.37
  Q 212.07 40.76 212.69 40.75
  L 221.54 40.61
  Q 222.50 40.60 222.49 41.56
  Q 222.46 49.08 222.57 56.22
  Q 222.68 63.73 221.42 66.46
  Q 218.73 72.30 210.02 71.48
  C 203.43 70.85 201.15 65.85 201.20 59.88
  Q 201.32 44.11 201.24 30.25
  C 201.19 22.49 206.36 19.21 213.44 19.76
  C 219.51 20.22 222.90 24.38 222.44 30.68
  Q 222.32 32.34 220.74 32.87
  L 215.08 34.77
  Q 213.75 35.22 213.75 33.82
  L 213.73 28.93
  Z"
/>
<path fill="#004924" d="
  M 331.94 62.36
  A 9.16 9.16 0.0 0 1 322.78 71.52
  L 320.02 71.52
  A 9.16 9.16 0.0 0 1 310.86 62.36
  L 310.86 28.96
  A 9.16 9.16 0.0 0 1 320.02 19.80
  L 322.78 19.80
  A 9.16 9.16 0.0 0 1 331.94 28.96
  L 331.94 62.36
  Z
  M 323.4918 29.5264
  A 2.02 2.02 0.0 0 0 321.4683 27.5100
  L 321.3883 27.5101
  A 2.02 2.02 0.0 0 0 319.3718 29.5336
  L 319.4282 61.8336
  A 2.02 2.02 0.0 0 0 321.4517 63.8500
  L 321.5317 63.8499
  A 2.02 2.02 0.0 0 0 323.5482 61.8264
  L 323.4918 29.5264
  Z"
/>
<path fill="#004924" d="
  M 352.03 63.88
  Q 353.67 64.00 353.68 62.35
  L 353.77 52.17
  Q 353.79 50.31 352.31 49.17
  L 343.05 42.07
  A 4.54 4.52 19.0 0 1 341.28 38.46
  C 341.30 32.20 339.37 22.01 348.07 20.14
  C 356.06 18.41 362.47 21.50 362.50 30.65
  C 362.51 32.26 361.57 33.02 360.11 33.32
  Q 357.24 33.90 354.42 34.75
  A 0.53 0.53 0.0 0 1 353.74 34.25
  L 353.69 29.56
  Q 353.67 27.65 351.76 27.58
  Q 351.58 27.57 351.40 27.58
  A 1.67 1.67 0.0 0 0 349.80 29.16
  C 349.64 32.11 348.92 36.94 351.59 38.92
  Q 355.75 42.00 359.78 44.99
  Q 362.26 46.82 362.37 50.21
  Q 362.55 55.74 362.49 61.35
  C 362.33 75.46 340.72 74.93 341.20 61.48
  Q 341.30 58.52 341.25 55.50
  A 1.36 1.35 -11.7 0 1 342.10 54.22
  Q 345.19 52.99 348.56 52.47
  Q 349.71 52.29 349.73 53.46
  L 349.81 62.28
  A 1.58 1.57 -88.4 0 0 351.27 63.83
  L 352.03 63.88
  Z"
/>
<ellipse fill="#84c225" cx="0.00" cy="0.00" transform="translate(41.71,20.52) rotate(-5.3)" rx="1.05" ry="0.55"/>
<path fill="#004924" d="
  M 260.85 63.14
  L 260.49 69.64
  Q 260.43 70.63 259.46 70.77
  Q 256.67 71.18 253.09 70.88
  Q 251.52 70.74 251.71 69.17
  Q 254.09 49.50 256.85 23.02
  Q 256.97 21.78 257.32 20.57
  A 0.32 0.31 6.9 0 1 257.63 20.34
  L 268.18 20.46
  Q 268.82 20.47 268.90 21.10
  Q 270.19 30.74 271.07 39.34
  Q 271.70 45.45 272.80 54.63
  Q 273.72 62.38 274.30 69.91
  Q 274.38 71.00 273.28 71.00
  L 267.31 71.00
  A 1.50 1.50 0.0 0 1 265.81 69.57
  L 265.49 63.26
  Q 265.45 62.32 264.51 62.24
  L 262.11 62.04
  Q 260.92 61.94 260.85 63.14
  Z
  M 262.22 54.16
  L 263.80 54.16
  A 0.43 0.43 0.0 0 0 264.23 53.73
  L 264.23 53.50
  A 18.70 1.15 -90.0 0 0 263.08 34.80
  L 262.94 34.80
  A 18.70 1.15 90.0 0 0 261.79 53.50
  L 261.79 53.73
  A 0.43 0.43 0.0 0 0 262.22 54.16
  Z"
/>
<path fill="#004924" d="
  M 110.60 29.31
  A 0.55 0.55 0.0 0 0 110.06 28.76
  L 102.83 28.69
  A 0.84 0.84 0.0 0 1 102.00 27.84
  L 102.07 21.28
  Q 102.08 20.39 102.97 20.38
  L 117.96 20.28
  A 1.04 1.04 0.0 0 1 119.00 21.32
  Q 119.01 41.76 119.00 61.28
  C 119.00 68.35 114.28 71.97 107.55 71.67
  C 102.58 71.45 98.52 68.30 97.97 63.29
  Q 97.54 59.36 97.90 53.09
  Q 97.95 52.15 98.86 51.89
  L 105.27 50.04
  Q 106.43 49.70 106.44 50.91
  L 106.51 62.22
  A 1.44 1.39 -68.7 0 0 106.92 63.20
  Q 107.81 64.09 108.59 63.90
  Q 110.54 63.42 110.55 61.40
  L 110.60 29.31
  Z"
/>
<path fill="#004924" d="
  M 131.90 63.12
  L 131.46 69.95
  A 1.09 1.09 0.0 0 1 130.38 70.97
  L 123.99 71.03
  A 1.09 1.09 0.0 0 1 122.90 69.82
  L 128.33 21.24
  A 1.09 1.09 0.0 0 1 129.42 20.27
  L 139.21 20.35
  A 1.09 1.09 0.0 0 1 140.29 21.32
  L 145.62 69.77
  A 1.09 1.09 0.0 0 1 144.54 70.98
  L 138.04 71.01
  A 1.09 1.09 0.0 0 1 136.95 69.96
  L 136.68 63.15
  A 1.09 1.09 0.0 0 0 135.59 62.10
  L 132.99 62.10
  A 1.09 1.09 0.0 0 0 131.90 63.12
  Z
  M 133.36 54.14
  L 135.30 54.12
  A 0.29 0.29 0.0 0 0 135.59 53.83
  L 135.59 53.63
  A 19.39 1.23 89.4 0 0 134.16 34.25
  L 134.10 34.25
  A 19.39 1.23 89.4 0 0 133.07 53.65
  L 133.07 53.85
  A 0.29 0.29 0.0 0 0 133.36 54.14
  Z"
/>
<path fill="#004924" d="
  M 159.48 55.56
  Q 158.46 52.13 158.48 55.71
  L 158.55 69.95
  A 1.01 1.01 0.0 0 1 157.55 70.97
  L 151.17 71.02
  Q 150.06 71.03 150.06 69.92
  L 150.02 20.97
  A 0.62 0.61 -1.5 0 1 150.61 20.36
  C 154.92 20.18 159.34 20.12 163.66 20.62
  C 168.00 21.12 170.83 24.82 170.94 29.10
  Q 171.10 34.88 170.92 41.31
  Q 170.77 46.42 166.89 48.62
  A 1.35 1.35 0.0 0 0 166.27 50.21
  L 172.36 69.47
  Q 172.84 70.99 171.25 70.99
  L 165.29 71.01
  A 1.68 1.67 81.6 0 1 163.69 69.82
  L 159.48 55.56
  Z
  M 162.1383 29.4296
  A 1.61 1.61 0.0 0 0 160.5005 27.8480
  L 160.1405 27.8543
  A 1.61 1.61 0.0 0 0 158.5589 29.4921
  L 158.7617 41.1104
  A 1.61 1.61 0.0 0 0 160.3995 42.6920
  L 160.7595 42.6857
  A 1.61 1.61 0.0 0 0 162.3411 41.0479
  L 162.1383 29.4296
  Z"
/>
<path fill="#004924" d="
  M 184.23 63.43
  L 183.58 69.76
  Q 183.46 70.97 182.24 70.98
  L 175.99 71.03
  Q 174.94 71.04 175.06 70.00
  L 180.33 22.10
  Q 180.54 20.27 182.38 20.27
  L 190.97 20.28
  A 1.70 1.68 -2.0 0 1 192.65 21.83
  Q 193.69 34.51 195.03 44.83
  Q 195.98 52.18 196.56 59.98
  C 196.82 63.44 197.89 66.60 197.76 70.07
  Q 197.73 70.99 196.81 70.99
  L 190.45 71.01
  A 1.37 1.37 0.0 0 1 189.08 69.68
  L 188.91 63.71
  A 1.73 1.72 89.5 0 0 187.21 62.03
  L 185.82 62.01
  Q 184.37 61.99 184.23 63.43
  Z
  M 187.10 40.88
  Q 186.66 38.00 186.58 35.13
  Q 186.57 35.02 186.47 35.03
  L 186.19 35.04
  Q 186.02 35.05 186.01 35.23
  Q 185.81 38.78 185.79 42.17
  C 185.76 45.82 184.56 49.27 184.84 53.00
  A 1.30 1.30 0.0 0 0 186.04 54.20
  Q 186.65 54.25 186.68 54.25
  Q 187.88 54.34 187.91 53.15
  Q 188.05 46.96 187.10 40.88
  Z"
/>
<path fill="#004924" d="
  M 237.23 63.92
  Q 238.05 64.47 239.15 62.73
  A 1.96 1.93 -28.7 0 0 239.45 61.73
  L 239.65 21.62
  Q 239.66 20.39 240.88 20.39
  L 246.79 20.35
  Q 248.10 20.34 248.14 21.64
  Q 248.20 23.33 248.19 24.97
  Q 247.99 44.98 247.98 60.75
  C 247.98 65.49 246.37 69.97 241.55 71.05
  C 236.14 72.27 227.56 70.99 227.47 63.80
  Q 227.18 41.65 227.25 20.89
  A 0.54 0.54 0.0 0 1 227.78 20.35
  L 234.49 20.28
  Q 235.36 20.27 235.37 21.14
  Q 235.63 38.81 235.52 60.44
  Q 235.51 62.76 237.23 63.92
  Z"
/>
<path fill="#004924" d="
  M 285.36 20.97
  A 0.74 0.74 0.0 0 1 286.10 20.23
  L 296.82 20.23
  A 10.02 9.62 90.0 0 1 306.44 30.25
  L 306.44 60.99
  A 10.02 9.62 90.0 0 1 296.82 71.01
  L 286.10 71.01
  A 0.74 0.74 0.0 0 1 285.36 70.27
  L 285.36 20.97
  Z
  M 297.5565 29.6099
  A 1.94 1.94 0.0 0 0 295.6063 27.6800
  L 295.5263 27.6805
  A 1.94 1.94 0.0 0 0 293.5965 29.6306
  L 293.7635 61.5301
  A 1.94 1.94 0.0 0 0 295.7137 63.4600
  L 295.7937 63.4595
  A 1.94 1.94 0.0 0 0 297.7235 61.5094
  L 297.5565 29.6099
  Z"
/>
<path fill="#004924" d="
  M 375.51 62.64
  Q 376.75 64.38 377.61 63.82
  Q 379.34 62.70 379.33 60.90
  Q 379.22 40.67 379.26 20.76
  Q 379.26 20.65 379.36 20.63
  Q 382.19 20.15 387.02 20.53
  Q 387.18 20.55 387.18 20.71
  Q 387.53 40.84 387.50 61.32
  C 387.49 66.72 385.04 70.43 379.77 71.39
  C 373.28 72.56 366.71 69.66 366.66 62.32
  Q 366.54 42.68 366.58 21.44
  Q 366.58 20.32 367.70 20.32
  L 373.80 20.29
  Q 374.81 20.29 374.87 21.30
  C 374.97 23.11 375.23 24.92 375.19 26.73
  Q 374.87 44.17 375.16 61.57
  A 1.91 1.90 -63.3 0 0 375.51 62.64
  Z"
/>
<path fill="#004924" d="
  M 402.36 62.30
  Q 406.57 62.97 411.08 62.04
  Q 411.43 61.97 411.43 62.33
  L 411.48 70.64
  A 0.38 0.37 -90.0 0 1 411.11 71.02
  L 394.41 71.00
  A 1.08 1.08 0.0 0 1 393.33 69.91
  L 393.72 21.34
  Q 393.73 20.41 394.66 20.41
  L 400.68 20.42
  Q 401.68 20.42 401.68 21.43
  L 401.73 61.56
  Q 401.73 62.20 402.36 62.30
  Z"
/>
<ellipse fill="#84c225" cx="0.00" cy="0.00" transform="translate(31.64,21.42) rotate(-11.6)" rx="1.05" ry="0.66"/>
<ellipse fill="#84c225" cx="0.00" cy="0.00" transform="translate(51.70,21.43) rotate(8.9)" rx="1.12" ry="0.73"/>
<path fill="#84c225" d="
  M 39.71 25.48
  Q 39.55 25.21 39.73 24.96
  L 41.12 22.71
  Q 41.60 21.94 42.08 22.71
  L 43.36 24.75
  Q 43.79 25.44 42.98 25.45
  L 39.71 25.48
  Z"
/>
<path fill="#84c225" d="
  M 51.71 23.66
  C 51.94 24.84 52.47 25.26 52.82 26.20
  A 0.30 0.30 0.0 0 1 52.49 26.60
  L 49.34 25.99
  Q 48.91 25.90 49.17 25.55
  L 50.69 23.44
  A 0.57 0.57 0.0 0 1 51.71 23.66
  Z"
/>
<path fill="#84c225" d="
  M 60.95 32.33
  Q 62.20 33.96 56.59 32.72
  Q 52.52 30.77 45.25 30.30
  Q 33.27 29.52 25.50 33.13
  Q 24.07 33.79 21.51 33.40
  Q 20.80 33.29 21.42 32.93
  Q 23.41 31.76 25.29 31.09
  Q 43.07 24.74 60.95 32.33
  Z"
/>
<path fill="#135d24" d="
  M 60.95 32.33
  L 63.55 33.02
  Q 63.63 47.71 63.60 62.56
  Q 63.59 63.02 63.79 63.41
  Q 64.54 64.89 64.75 63.71
  C 64.70 66.59 64.24 69.75 65.53 72.36
  Q 66.43 74.19 66.80 76.05
  Q 66.85 76.30 66.62 76.40
  Q 66.18 76.61 66.12 76.12
  Q 65.66 72.40 63.61 71.43
  Q 65.03 71.45 64.56 68.10
  Q 64.52 67.82 64.38 67.61
  Q 64.23 67.41 63.97 67.39
  A 0.46 0.46 0.0 0 0 63.49 67.74
  Q 63.32 68.42 63.00 68.88
  Q 62.65 68.90 62.44 68.76
  L 62.80 62.66
  A 1.07 1.07 0.0 0 0 61.64 61.53
  Q 59.50 61.72 57.35 61.81
  Q 55.33 61.90 53.11 61.75
  Q 49.18 61.49 45.26 61.58
  Q 44.93 61.58 44.82 62.32
  Q 44.62 61.19 44.22 60.94
  L 62.32 60.91
  Q 62.74 60.91 62.77 60.49
  L 62.89 58.23
  Q 62.92 57.63 62.33 57.62
  Q 58.04 57.54 53.45 57.73
  Q 52.51 57.77 53.12 58.48
  Q 53.18 58.55 53.21 58.63
  Q 53.45 59.36 53.99 58.86
  Q 54.47 58.42 55.08 58.47
  Q 56.22 58.55 56.33 59.71
  Q 56.40 60.48 55.70 60.16
  Q 54.25 59.50 53.00 60.13
  Q 52.43 60.42 51.96 60.00
  Q 51.18 59.29 51.83 58.38
  Q 52.32 57.69 51.47 57.69
  L 48.69 57.72
  A 0.16 0.16 0.0 0 0 48.53 57.91
  L 48.59 58.19
  Q 48.64 58.47 48.92 58.44
  Q 50.10 58.33 50.74 59.18
  Q 51.40 60.04 50.33 59.88
  L 47.67 59.49
  Q 47.20 59.42 47.13 58.94
  Q 46.94 57.58 45.48 57.63
  Q 44.89 57.65 44.72 58.22
  Q 44.66 58.41 44.54 58.56
  Q 44.01 59.27 43.79 58.41
  Q 43.33 56.56 43.58 54.80
  Q 43.65 54.31 44.15 54.31
  L 47.20 54.32
  Q 47.72 54.32 47.41 53.91
  L 45.04 50.86
  A 0.53 0.53 0.0 0 1 45.01 50.26
  L 45.32 49.75
  Q 45.55 49.35 45.81 49.73
  Q 46.67 51.00 48.06 52.11
  Q 48.64 52.58 48.59 51.84
  Q 48.56 51.44 48.29 51.12
  Q 47.58 50.30 47.13 49.29
  Q 46.93 48.83 46.47 48.64
  Q 46.04 48.47 45.87 48.04
  Q 45.60 47.35 46.21 47.77
  Q 47.60 48.71 49.22 49.17
  Q 49.94 49.37 49.45 49.92
  Q 49.37 50.00 49.35 50.10
  Q 49.25 50.51 49.46 50.88
  Q 50.40 52.46 51.02 54.18
  A 0.44 0.43 53.0 0 0 51.78 54.29
  Q 51.96 54.04 52.05 53.71
  Q 52.23 52.99 51.93 52.31
  C 51.44 51.21 50.98 50.26 51.25 48.99
  Q 51.57 47.51 51.48 45.93
  A 0.98 0.97 11.3 0 0 50.92 45.10
  L 49.94 44.63
  Q 49.49 44.42 49.70 43.97
  Q 50.29 42.73 51.46 42.47
  Q 52.12 42.32 52.27 41.65
  Q 52.34 41.30 52.04 41.09
  Q 51.37 40.61 52.05 40.14
  Q 52.59 39.77 53.11 40.16
  Q 54.34 41.08 55.40 40.10
  Q 56.02 39.53 56.12 40.37
  Q 56.26 41.43 55.20 41.61
  Q 54.57 41.73 54.10 41.29
  Q 53.72 40.93 53.31 41.20
  A 0.67 0.67 0.0 0 0 53.43 42.39
  Q 57.70 44.08 55.07 48.30
  A 0.50 0.50 0.0 0 1 54.17 48.17
  Q 53.92 47.31 52.99 47.24
  Q 52.48 47.19 52.22 47.63
  C 51.43 48.97 51.24 51.10 52.39 52.28
  Q 53.09 53.00 53.39 53.98
  A 0.72 0.71 -17.0 0 0 54.29 54.45
  L 54.68 54.32
  Q 55.38 54.11 54.91 53.54
  Q 54.36 52.89 53.99 52.17
  Q 53.60 51.42 54.42 51.61
  Q 54.61 51.65 54.82 51.42
  Q 55.04 51.18 55.05 50.87
  Q 55.07 50.49 55.20 50.15
  Q 55.40 49.63 55.82 50.00
  Q 56.80 50.88 56.61 51.98
  Q 56.47 52.76 55.93 52.18
  Q 55.74 51.97 55.43 52.21
  Q 54.93 52.63 55.50 52.95
  Q 56.20 53.33 56.17 54.14
  Q 56.13 55.03 56.89 54.56
  Q 58.50 53.57 58.25 51.58
  Q 58.20 51.12 57.85 50.81
  C 56.37 49.49 56.86 48.00 58.26 46.93
  Q 58.65 46.63 58.68 46.14
  L 58.87 42.81
  A 0.35 0.35 0.0 0 1 59.07 42.51
  Q 59.62 42.26 59.71 42.65
  Q 59.74 42.78 59.75 42.90
  Q 59.96 45.09 59.96 47.13
  Q 59.96 47.67 59.69 48.13
  Q 59.06 49.20 59.15 50.41
  Q 59.20 51.07 59.55 50.50
  Q 60.70 48.64 60.78 46.14
  A 0.28 0.25 76.3 0 1 60.89 45.94
  L 61.42 45.54
  Q 61.90 45.18 61.92 45.79
  C 61.97 47.28 61.69 49.73 60.32 50.62
  Q 58.99 51.48 58.87 53.30
  Q 58.81 54.28 59.79 54.29
  Q 60.74 54.30 61.56 54.72
  A 0.85 0.84 -76.7 0 0 62.78 53.96
  L 62.80 35.03
  Q 62.80 34.42 62.19 34.37
  L 54.46 33.77
  Q 57.39 33.83 56.59 32.72
  Q 62.20 33.96 60.95 32.33
  Z"
/>
<path fill="#135d24" d="
  M 54.21 35.70
  Q 54.42 35.16 54.99 35.16
  A 1.09 1.08 -9.9 0 1 55.99 35.86
  Q 56.24 36.50 56.74 37.02
  Q 57.27 37.56 56.56 37.85
  Q 56.01 38.07 55.87 38.65
  Q 55.74 39.20 55.50 38.69
  Q 54.44 36.39 51.97 37.02
  A 0.77 0.74 -81.9 0 0 51.50 37.39
  L 51.17 38.00
  Q 51.03 38.26 50.74 38.20
  L 49.76 38.00
  Q 48.91 37.83 49.53 37.22
  Q 50.17 36.59 50.43 35.78
  A 0.56 0.55 -80.1 0 1 50.97 35.39
  Q 52.26 35.43 53.14 36.02
  Q 53.87 36.51 54.21 35.70
  Z"
/>
<path fill="#84c225" d="
  M 28.47 37.49
  Q 28.64 38.15 27.97 38.25
  Q 27.71 38.29 27.44 38.25
  Q 27.08 38.20 26.93 37.89
  Q 26.73 37.49 26.89 37.03
  Q 27.09 36.46 27.62 36.58
  Q 28.28 36.73 28.47 37.49
  Z"
/>
<path fill="#84c225" d="
  M 39.25 43.44
  L 39.30 50.82
  Q 39.31 52.38 37.76 52.37
  L 21.67 52.29
  A 0.98 0.97 0.3 0 1 20.70 51.32
  L 20.70 42.69
  Q 22.93 40.18 26.02 40.41
  Q 26.98 40.49 27.03 41.61
  A 0.60 0.60 0.0 0 0 27.93 42.11
  Q 28.66 41.69 29.17 40.98
  Q 29.62 40.33 30.41 40.45
  Q 31.48 40.63 31.58 41.58
  Q 31.70 42.76 32.32 41.75
  C 33.79 39.35 38.08 42.08 39.25 43.44
  Z"
/>
<path fill="#135d24" d="
  M 19.63 42.01
  Q 20.35 42.61 20.70 42.69
  L 20.70 51.32
  A 0.98 0.97 0.3 0 0 21.67 52.29
  L 37.76 52.37
  Q 39.31 52.38 39.30 50.82
  L 39.25 43.44
  Q 39.26 43.88 39.66 43.47
  L 39.91 57.44
  Q 39.92 57.94 40.42 58.00
  Q 40.58 58.02 40.74 58.02
  Q 41.03 58.01 41.23 58.21
  Q 41.98 58.93 41.39 59.87
  A 0.68 0.67 21.0 0 1 40.70 60.17
  Q 40.15 60.08 39.97 59.56
  Q 39.80 59.07 39.29 59.17
  Q 39.03 59.22 38.87 59.44
  Q 38.40 60.08 38.40 59.28
  Q 38.41 58.46 37.90 57.85
  Q 37.26 57.09 36.82 57.98
  Q 36.44 58.73 36.65 59.54
  Q 36.79 60.08 36.23 60.07
  Q 34.13 60.01 33.73 58.50
  Q 33.57 57.90 33.05 58.25
  Q 32.49 58.64 32.63 59.28
  Q 32.72 59.70 32.33 59.88
  Q 32.03 60.01 31.70 59.96
  Q 31.37 59.91 31.19 59.62
  Q 30.72 58.84 30.03 58.28
  A 0.36 0.36 0.0 0 0 29.46 58.44
  Q 29.36 58.71 29.55 58.95
  Q 30.55 60.22 28.95 60.02
  Q 26.04 59.65 22.63 60.06
  A 0.23 0.23 0.0 0 1 22.37 59.80
  Q 22.45 59.20 22.27 58.55
  Q 22.09 57.88 21.40 57.87
  Q 20.61 57.86 20.53 58.71
  A 3.50 2.15 -70.4 0 0 20.99 60.89
  Q 21.37 61.41 21.92 61.04
  Q 22.29 60.79 22.73 60.79
  L 38.97 60.95
  Q 39.51 60.96 39.60 61.49
  Q 39.99 63.55 39.89 65.24
  Q 39.65 69.76 39.79 74.17
  C 39.91 77.76 39.58 81.38 39.77 85.01
  A 1.09 1.08 -79.5 0 0 40.40 85.93
  Q 41.03 86.23 41.55 86.66
  Q 42.36 87.34 41.31 87.18
  Q 39.75 86.94 38.14 86.86
  Q 36.57 86.77 35.13 86.12
  C 32.97 85.13 30.72 84.41 28.79 82.97
  Q 23.14 78.72 20.69 72.00
  Q 19.87 69.73 19.99 67.16
  C 20.11 64.48 19.63 61.80 19.60 59.04
  Q 19.53 50.55 19.63 42.01
  Z
  M 36.28 58.61
  A 0.37 0.36 -51.8 0 0 36.22 58.08
  L 35.98 57.90
  Q 35.25 57.35 34.92 58.20
  Q 34.80 58.52 34.93 58.84
  Q 35.14 59.37 35.64 59.12
  Q 36.01 58.94 36.28 58.61
  Z
  M 32.68 66.51
  Q 33.18 67.83 33.22 69.24
  Q 33.22 69.31 33.29 69.31
  L 33.55 69.30
  A 0.32 0.32 0.0 0 0 33.86 68.97
  Q 33.83 67.71 34.17 66.69
  Q 34.41 65.96 34.56 66.72
  Q 34.90 68.46 34.90 70.58
  Q 34.91 71.29 35.31 71.78
  Q 35.65 72.21 35.84 71.69
  Q 36.19 70.71 36.98 70.12
  Q 37.52 69.71 37.75 70.34
  Q 38.17 71.46 38.02 72.79
  Q 37.96 73.28 38.45 73.34
  L 38.72 73.37
  Q 38.88 73.39 38.89 73.24
  Q 39.51 68.13 39.21 62.42
  A 0.90 0.90 0.0 0 0 38.31 61.57
  L 21.46 61.65
  A 1.08 1.08 0.0 0 0 20.39 62.80
  Q 20.60 65.98 21.01 69.38
  Q 21.21 71.02 22.80 71.94
  Q 23.30 72.22 23.69 71.81
  Q 24.35 71.13 25.30 71.27
  Q 26.01 71.37 26.06 70.65
  Q 26.13 69.68 26.54 68.75
  Q 26.91 67.93 27.08 68.82
  C 27.25 69.67 27.10 70.82 27.91 71.40
  Q 28.57 71.86 29.30 71.42
  Q 29.82 71.12 29.88 70.52
  Q 30.07 68.70 30.41 66.96
  Q 30.64 65.76 30.99 66.93
  Q 31.20 67.62 31.19 68.41
  Q 31.18 69.12 31.63 68.57
  Q 32.20 67.86 32.04 66.70
  Q 32.04 66.65 32.07 66.62
  L 32.30 66.42
  Q 32.56 66.18 32.68 66.51
  Z
  M 39.05 77.76
  Q 39.02 77.46 38.71 77.46
  L 25.49 77.51
  A 0.46 0.45 -22.0 0 0 25.16 78.28
  Q 30.63 84.02 38.66 85.98
  A 0.26 0.26 0.0 0 0 38.97 85.79
  Q 39.57 83.23 39.05 77.76
  Z"
/>
<path fill="#84c225" d="
  M 36.28 58.61
  Q 36.01 58.94 35.64 59.12
  Q 35.14 59.37 34.93 58.84
  Q 34.80 58.52 34.92 58.20
  Q 35.25 57.35 35.98 57.90
  L 36.22 58.08
  A 0.37 0.36 -51.8 0 1 36.28 58.61
  Z"
/>
<path fill="#135d24" d="
  M 59.99 58.62
  Q 60.07 58.22 60.52 58.19
  Q 61.05 58.16 60.78 58.62
  Q 59.96 60.04 58.10 59.98
  Q 57.61 59.96 57.62 59.47
  L 57.63 59.19
  A 0.62 0.61 -2.1 0 1 58.19 58.59
  Q 58.86 58.52 59.41 58.87
  A 0.39 0.38 21.6 0 0 59.99 58.62
  Z"
/>
<path fill="#004924" d="
  M 44.22 60.94
  Q 44.62 61.19 44.82 62.32
  L 57.91 77.34
  A 0.52 0.52 0.0 0 0 58.73 77.30
  Q 61.40 73.54 62.44 68.76
  Q 62.65 68.90 63.00 68.88
  Q 63.16 70.32 62.69 71.64
  C 59.91 79.50 52.45 86.54 43.64 86.76
  Q 43.10 86.78 43.10 86.24
  C 43.11 85.53 43.44 84.81 43.44 84.08
  Q 43.45 73.69 43.74 61.51
  Q 43.78 60.07 44.22 60.94
  Z
  M 46.08 80.78
  A 0.67 0.67 0.0 0 1 45.96 79.62
  C 46.93 78.93 47.60 77.73 47.51 76.50
  Q 47.35 74.13 46.91 72.11
  Q 46.62 70.76 45.81 71.89
  L 45.25 72.67
  Q 44.37 73.89 44.53 75.39
  Q 44.85 78.23 45.12 81.13
  Q 45.21 82.13 46.10 82.67
  A 0.41 0.41 0.0 0 0 46.68 82.50
  Q 47.27 81.33 46.08 80.78
  Z
  M 50.74 72.72
  Q 49.95 72.51 49.86 72.87
  C 47.72 73.38 48.13 76.53 48.17 78.23
  Q 48.19 78.78 47.71 79.06
  L 47.30 79.31
  A 0.72 0.72 0.0 0 0 47.00 80.19
  Q 47.13 80.53 47.49 80.84
  Q 47.84 81.16 48.12 81.76
  Q 48.20 82.79 48.70 83.10
  A 0.68 0.68 0.0 0 0 49.64 82.87
  Q 50.48 81.49 50.85 79.89
  Q 50.97 79.37 50.58 79.00
  Q 50.13 78.57 50.35 78.00
  Q 50.64 77.25 50.96 77.99
  Q 51.34 78.86 52.00 79.53
  Q 52.42 79.96 52.22 80.53
  Q 52.04 81.02 51.70 81.44
  Q 51.49 81.69 51.74 81.90
  L 51.94 82.08
  Q 52.13 82.25 52.30 82.07
  Q 54.01 80.32 54.12 79.49
  Q 54.59 75.61 52.40 72.54
  Q 52.03 72.02 51.62 72.08
  Q 51.16 72.14 50.74 72.72
  Z"
/>
<path fill="#004924" d="
  M 63.61 71.43
  Q 65.66 72.40 66.12 76.12
  Q 66.18 76.61 66.62 76.40
  Q 66.85 76.30 66.80 76.05
  Q 66.43 74.19 65.53 72.36
  C 64.24 69.75 64.70 66.59 64.75 63.71
  Q 65.64 59.01 66.08 66.26
  Q 66.09 66.42 66.21 66.52
  Q 66.45 66.72 66.47 66.41
  Q 66.73 63.33 68.87 61.71
  Q 69.96 60.87 69.45 62.15
  C 67.36 67.39 70.47 73.28 66.98 78.29
  C 64.60 81.70 62.70 85.24 59.33 87.84
  Q 57.65 89.13 55.33 89.61
  C 53.28 90.04 51.49 91.15 49.45 91.72
  Q 40.84 94.13 32.11 91.07
  Q 29.24 90.06 26.34 88.97
  C 20.71 86.83 19.79 82.32 16.20 78.59
  C 14.28 76.60 14.35 71.59 14.51 68.99
  Q 14.75 64.99 13.82 61.72
  Q 13.58 60.87 14.24 61.46
  Q 15.78 62.80 16.60 64.81
  Q 16.85 65.43 17.10 64.81
  Q 17.63 63.53 17.59 62.02
  Q 17.57 61.32 18.03 61.86
  C 19.41 63.51 19.27 66.61 19.07 68.79
  C 18.82 71.58 16.87 73.75 16.25 76.60
  Q 16.18 76.92 16.50 76.99
  L 16.51 76.99
  Q 16.65 77.02 16.67 76.89
  Q 17.24 73.79 18.98 71.44
  A 0.50 0.50 0.0 0 1 19.86 71.61
  Q 21.21 76.59 24.21 80.83
  Q 24.43 81.14 24.77 81.29
  Q 24.98 81.39 25.20 81.46
  Q 25.64 81.59 25.98 81.89
  Q 30.58 85.99 35.05 87.11
  Q 47.47 90.21 56.95 82.17
  C 57.61 81.61 58.44 81.68 58.96 81.00
  Q 61.93 77.11 63.61 71.43
  Z
  M 60.9144 82.4403
  A 3.14 0.73 126.0 0 0 63.3506 80.3291
  A 3.14 0.73 126.0 0 0 64.6056 77.3597
  A 3.14 0.73 126.0 0 0 62.1694 79.4709
  A 3.14 0.73 126.0 0 0 60.9144 82.4403
  Z
  M 25.47 87.07
  Q 24.68 85.45 24.84 83.38
  Q 24.86 83.17 24.65 83.10
  L 24.33 83.00
  Q 24.14 82.94 24.13 83.15
  Q 24.11 85.13 24.81 87.02
  Q 24.92 87.32 25.22 87.19
  L 25.46 87.09
  Q 25.47 87.08 25.47 87.07
  Z
  M 49.21 89.71
  L 49.89 89.93
  Q 50.41 90.11 50.81 89.72
  L 51.84 88.70
  Q 52.29 88.26 52.90 88.42
  Q 53.93 88.70 55.06 88.44
  Q 55.56 88.32 55.17 88.00
  C 54.18 87.19 53.48 86.92 52.20 87.44
  C 50.72 88.04 49.10 88.39 48.14 89.83
  Q 47.82 90.30 48.39 90.35
  Q 48.61 90.38 48.61 90.13
  A 0.46 0.45 -79.7 0 1 49.21 89.71
  Z
  M 30.70 88.64
  Q 31.97 89.18 33.40 89.93
  Q 34.74 90.63 36.07 90.81
  Q 38.97 91.19 42.15 91.40
  A 0.69 0.69 0.0 0 0 42.81 91.03
  Q 43.11 90.49 42.70 89.98
  A 0.32 0.32 0.0 0 0 42.31 89.89
  Q 41.10 90.44 39.69 90.39
  Q 39.15 90.37 38.69 90.09
  Q 38.10 89.71 37.38 89.93
  Q 36.83 90.11 36.33 89.85
  Q 33.17 88.23 29.75 87.32
  Q 28.69 87.03 28.28 87.89
  Q 27.99 88.49 28.65 88.39
  Q 29.04 88.33 29.44 88.35
  Q 30.10 88.38 30.70 88.64
  Z
  M 45.55 90.61
  Q 45.94 90.79 46.40 90.73
  Q 46.71 90.68 46.94 90.47
  Q 47.08 90.35 47.16 90.19
  Q 47.48 89.52 46.73 89.55
  L 44.69 89.63
  A 0.59 0.59 0.0 0 0 44.15 90.05
  Q 43.95 90.72 44.36 91.00
  Q 44.47 91.06 44.59 91.03
  Q 44.80 90.97 44.92 90.79
  A 0.52 0.51 29.0 0 1 45.55 90.61
  Z"
/>
<path fill="#84c225" d="
  M 32.68 66.51
  Q 32.56 66.18 32.30 66.42
  L 32.07 66.62
  Q 32.04 66.65 32.04 66.70
  Q 32.20 67.86 31.63 68.57
  Q 31.18 69.12 31.19 68.41
  Q 31.20 67.62 30.99 66.93
  Q 30.64 65.76 30.41 66.96
  Q 30.07 68.70 29.88 70.52
  Q 29.82 71.12 29.30 71.42
  Q 28.57 71.86 27.91 71.40
  C 27.10 70.82 27.25 69.67 27.08 68.82
  Q 26.91 67.93 26.54 68.75
  Q 26.13 69.68 26.06 70.65
  Q 26.01 71.37 25.30 71.27
  Q 24.35 71.13 23.69 71.81
  Q 23.30 72.22 22.80 71.94
  Q 21.21 71.02 21.01 69.38
  Q 20.60 65.98 20.39 62.80
  A 1.08 1.08 0.0 0 1 21.46 61.65
  L 38.31 61.57
  A 0.90 0.90 0.0 0 1 39.21 62.42
  Q 39.51 68.13 38.89 73.24
  Q 38.88 73.39 38.72 73.37
  L 38.45 73.34
  Q 37.96 73.28 38.02 72.79
  Q 38.17 71.46 37.75 70.34
  Q 37.52 69.71 36.98 70.12
  Q 36.19 70.71 35.84 71.69
  Q 35.65 72.21 35.31 71.78
  Q 34.91 71.29 34.90 70.58
  Q 34.90 68.46 34.56 66.72
  Q 34.41 65.96 34.17 66.69
  Q 33.83 67.71 33.86 68.97
  A 0.32 0.32 0.0 0 1 33.55 69.30
  L 33.29 69.31
  Q 33.22 69.31 33.22 69.24
  Q 33.18 67.83 32.68 66.51
  Z"
/>
<path fill="#84c225" d="
  M 62.44 68.76
  Q 61.40 73.54 58.73 77.30
  A 0.52 0.52 0.0 0 1 57.91 77.34
  L 44.82 62.32
  Q 44.93 61.58 45.26 61.58
  Q 49.18 61.49 53.11 61.75
  Q 55.33 61.90 57.35 61.81
  Q 59.50 61.72 61.64 61.53
  A 1.07 1.07 0.0 0 1 62.80 62.66
  L 62.44 68.76
  Z
  M 59.45 68.73
  Q 56.65 66.57 57.67 63.78
  A 0.72 0.71 9.5 0 0 56.98 62.82
  L 55.12 62.85
  Q 54.15 62.87 54.55 63.76
  Q 54.77 64.23 54.60 64.68
  Q 54.07 66.08 53.60 64.66
  Q 53.21 63.50 51.92 63.62
  Q 51.11 63.69 51.27 64.49
  Q 51.56 66.00 53.38 66.10
  Q 54.69 66.17 53.72 67.05
  Q 53.48 67.27 53.14 67.33
  A 0.66 0.65 76.9 0 0 52.62 68.17
  L 52.71 68.45
  A 0.44 0.43 -20.4 0 0 53.31 68.72
  L 54.66 68.12
  Q 55.31 67.82 55.15 68.52
  L 54.37 71.75
  A 0.61 0.61 0.0 0 0 55.49 72.21
  Q 55.95 71.45 56.06 70.51
  Q 56.19 69.36 56.70 70.40
  Q 57.32 71.69 56.64 72.95
  A 0.31 0.30 16.1 0 0 56.89 73.40
  L 57.23 73.43
  Q 57.77 73.47 58.10 73.04
  Q 58.83 72.06 58.96 70.68
  Q 59.01 70.15 59.50 69.97
  Q 61.29 69.32 60.70 67.32
  Q 60.04 65.10 59.91 62.94
  Q 59.89 62.58 59.56 62.73
  Q 59.04 62.97 58.75 63.42
  A 2.43 2.39 -35.4 0 0 58.43 65.22
  Q 58.78 66.81 59.77 68.13
  Q 59.86 68.25 59.89 68.39
  Q 59.92 68.54 59.82 68.68
  Q 59.66 68.89 59.45 68.73
  Z"
/>
<path fill="#004924" d="
  M 59.82 68.68
  Q 59.92 68.54 59.89 68.39
  Q 59.86 68.25 59.77 68.13
  Q 58.78 66.81 58.43 65.22
  A 2.43 2.39 -35.4 0 1 58.75 63.42
  Q 59.04 62.97 59.56 62.73
  Q 59.89 62.58 59.91 62.94
  Q 60.04 65.10 60.70 67.32
  Q 61.29 69.32 59.50 69.97
  Q 59.01 70.15 58.96 70.68
  Q 58.83 72.06 58.10 73.04
  Q 57.77 73.47 57.23 73.43
  L 56.89 73.40
  A 0.31 0.30 16.1 0 1 56.64 72.95
  Q 57.32 71.69 56.70 70.40
  Q 56.19 69.36 56.06 70.51
  Q 55.95 71.45 55.49 72.21
  A 0.61 0.61 0.0 0 1 54.37 71.75
  L 55.15 68.52
  Q 55.31 67.82 54.66 68.12
  L 53.31 68.72
  A 0.44 0.43 -20.4 0 1 52.71 68.45
  L 52.62 68.17
  A 0.66 0.65 76.9 0 1 53.14 67.33
  Q 53.48 67.27 53.72 67.05
  Q 54.69 66.17 53.38 66.10
  Q 51.56 66.00 51.27 64.49
  Q 51.11 63.69 51.92 63.62
  Q 53.21 63.50 53.60 64.66
  Q 54.07 66.08 54.60 64.68
  Q 54.77 64.23 54.55 63.76
  Q 54.15 62.87 55.12 62.85
  L 56.98 62.82
  A 0.72 0.71 9.5 0 1 57.67 63.78
  Q 56.65 66.57 59.45 68.73
  Q 59.66 68.89 59.82 68.68
  Z"
/>
<path fill="#84c225" d="
  M 46.08 80.78
  Q 47.27 81.33 46.68 82.50
  A 0.41 0.41 0.0 0 1 46.10 82.67
  Q 45.21 82.13 45.12 81.13
  Q 44.85 78.23 44.53 75.39
  Q 44.37 73.89 45.25 72.67
  L 45.81 71.89
  Q 46.62 70.76 46.91 72.11
  Q 47.35 74.13 47.51 76.50
  C 47.60 77.73 46.93 78.93 45.96 79.62
  A 0.67 0.67 0.0 0 0 46.08 80.78
  Z"
/>
<path fill="#84c225" d="
  M 48.12 81.76
  Q 48.32 80.81 49.75 80.54
  A 0.30 0.29 79.6 0 0 49.99 80.19
  Q 49.92 79.89 49.50 79.85
  A 0.60 0.57 32.3 0 0 49.20 79.91
  L 47.49 80.84
  Q 47.13 80.53 47.00 80.19
  A 0.72 0.72 0.0 0 1 47.30 79.31
  L 47.71 79.06
  Q 48.19 78.78 48.17 78.23
  C 48.13 76.53 47.72 73.38 49.86 72.87
  Q 49.95 74.68 50.58 75.38
  Q 51.01 75.84 51.15 75.23
  Q 51.41 74.09 50.74 72.72
  Q 51.16 72.14 51.62 72.08
  Q 52.03 72.02 52.40 72.54
  Q 54.59 75.61 54.12 79.49
  Q 54.01 80.32 52.30 82.07
  Q 52.13 82.25 51.94 82.08
  L 51.74 81.90
  Q 51.49 81.69 51.70 81.44
  Q 52.04 81.02 52.22 80.53
  Q 52.42 79.96 52.00 79.53
  Q 51.34 78.86 50.96 77.99
  Q 50.64 77.25 50.35 78.00
  Q 50.13 78.57 50.58 79.00
  Q 50.97 79.37 50.85 79.89
  Q 50.48 81.49 49.64 82.87
  A 0.68 0.68 0.0 0 1 48.70 83.10
  Q 48.20 82.79 48.12 81.76
  Z"
/>
<path fill="#135d24" d="
  M 50.74 72.72
  Q 51.41 74.09 51.15 75.23
  Q 51.01 75.84 50.58 75.38
  Q 49.95 74.68 49.86 72.87
  Q 49.95 72.51 50.74 72.72
  Z"
/>
<ellipse fill="#84c225" cx="0.00" cy="0.00" transform="translate(62.76,79.90) rotate(126.0)" rx="3.14" ry="0.73"/>
<path fill="#84c225" d="
  M 39.05 77.76
  Q 39.57 83.23 38.97 85.79
  A 0.26 0.26 0.0 0 1 38.66 85.98
  Q 30.63 84.02 25.16 78.28
  A 0.46 0.45 -22.0 0 1 25.49 77.51
  L 38.71 77.46
  Q 39.02 77.46 39.05 77.76
  Z"
/>
<path fill="#135d24" d="
  M 48.12 81.76
  Q 47.84 81.16 47.49 80.84
  L 49.20 79.91
  A 0.60 0.57 32.3 0 1 49.50 79.85
  Q 49.92 79.89 49.99 80.19
  A 0.30 0.29 79.6 0 1 49.75 80.54
  Q 48.32 80.81 48.12 81.76
  Z"
/>
<path fill="#004924" d="
  M 172.78 93.21
  L 172.66 99.74
  A 1.37 1.36 3.8 0 1 171.14 101.06
  Q 170.89 101.03 170.65 100.99
  A 1.11 1.11 0.0 0 1 169.69 99.91
  L 169.39 82.49
  Q 169.35 80.32 171.50 80.62
  Q 174.56 81.03 175.15 81.11
  Q 177.41 81.42 177.63 83.68
  C 177.89 86.34 178.75 93.38 173.67 92.49
  Q 172.80 92.33 172.78 93.21
  Z
  M 174.4788 84.5357
  A 0.71 0.71 0.0 0 0 173.7651 83.8295
  L 173.5451 83.8306
  A 0.71 0.71 0.0 0 0 172.8388 84.5443
  L 172.8612 88.8243
  A 0.71 0.71 0.0 0 0 173.5749 89.5305
  L 173.7949 89.5294
  A 0.71 0.71 0.0 0 0 174.5012 88.8157
  L 174.4788 84.5357
  Z"
/>
<path fill="#004924" d="
  M 191.50 95.19
  Q 191.22 97.09 191.50 99.28
  Q 191.71 100.82 190.17 100.99
  Q 190.02 101.00 189.87 101.02
  Q 188.46 101.15 188.46 99.74
  L 188.45 82.22
  Q 188.45 80.40 190.26 80.63
  Q 192.47 80.92 194.09 81.13
  A 2.46 2.46 0.0 0 1 196.21 83.18
  Q 197.05 88.29 195.19 92.23
  Q 194.92 92.81 195.08 93.42
  L 196.73 99.76
  Q 197.08 101.08 195.72 101.01
  L 195.34 101.00
  Q 193.89 100.93 193.51 99.52
  Q 192.91 97.23 192.08 95.13
  Q 191.67 94.07 191.50 95.19
  Z
  M 193.3377 84.6555
  A 0.89 0.89 0.0 0 0 192.4338 83.7796
  L 192.3338 83.7811
  A 0.89 0.89 0.0 0 0 191.4579 84.6850
  L 191.5223 88.7845
  A 0.89 0.89 0.0 0 0 192.4262 89.6604
  L 192.5262 89.6589
  A 0.89 0.89 0.0 0 0 193.4021 88.7550
  L 193.3377 84.6555
  Z"
/>
<path fill="#004924" d="
  M 210.81 84.57
  Q 210.19 87.97 212.70 88.72
  Q 213.26 88.89 213.52 89.41
  C 214.01 90.40 213.18 91.31 212.19 91.39
  Q 211.84 91.42 211.49 91.46
  Q 210.89 91.53 210.86 92.14
  L 210.60 96.78
  A 0.73 0.73 0.0 0 0 211.28 97.55
  L 213.48 97.69
  A 1.01 1.00 -1.0 0 1 214.41 98.58
  L 214.50 99.50
  Q 214.62 100.60 213.50 100.63
  L 208.51 100.75
  A 0.74 0.74 0.0 0 1 207.75 100.01
  L 207.69 81.51
  Q 207.69 80.71 208.49 80.72
  L 213.15 80.79
  Q 214.47 80.80 214.62 82.11
  Q 214.74 83.14 213.70 83.82
  A 0.81 0.78 -60.1 0 1 213.22 83.96
  L 211.56 83.95
  Q 210.93 83.94 210.81 84.57
  Z"
/>
<path fill="#004924" d="
  M 247.20 88.48
  Q 248.33 88.61 249.08 89.49
  Q 249.52 90.00 249.06 90.49
  Q 248.24 91.36 247.11 91.16
  A 0.69 0.69 0.0 0 0 246.30 91.83
  L 246.21 96.66
  Q 246.20 97.24 246.75 97.41
  Q 247.86 97.76 248.87 98.25
  Q 250.64 99.11 248.91 100.05
  Q 247.27 100.94 244.80 100.23
  Q 244.27 100.08 244.11 99.55
  Q 243.62 97.83 243.61 95.50
  Q 243.57 89.17 243.78 82.85
  A 1.99 1.97 84.4 0 1 245.29 81.00
  Q 246.96 80.60 248.80 80.82
  Q 249.31 80.88 249.62 81.25
  C 250.35 82.11 249.73 83.39 248.66 83.57
  Q 247.99 83.68 247.31 83.80
  Q 246.71 83.89 246.59 84.50
  Q 246.23 86.28 246.60 87.95
  Q 246.71 88.43 247.20 88.48
  Z"
/>
<path fill="#004924" d="
  M 264.37 81.55
  L 264.19 100.40
  A 0.83 0.83 0.0 0 1 262.95 101.11
  L 262.04 100.59
  A 0.83 0.83 0.0 0 1 261.63 99.87
  L 261.58 81.51
  A 0.83 0.83 0.0 0 1 262.44 80.68
  L 263.57 80.71
  A 0.83 0.83 0.0 0 1 264.37 81.55
  Z"
/>
<path fill="#004924" d="
  M 276.20 83.25
  A 1.18 1.17 19.4 0 1 275.67 82.15
  Q 275.80 80.90 276.88 80.89
  Q 279.81 80.84 282.20 81.07
  A 0.99 0.99 0.0 0 1 282.98 82.53
  Q 282.48 83.47 281.70 84.14
  Q 281.30 84.50 281.27 85.04
  L 280.55 99.99
  A 1.03 1.02 -88.0 0 1 279.51 100.97
  L 279.10 100.97
  Q 278.12 100.95 278.05 99.98
  Q 277.49 92.84 277.43 85.53
  Q 277.42 84.06 276.20 83.25
  Z"
/>
<path fill="#004924" d="
  M 297.77 97.80
  L 298.19 97.87
  A 0.42 0.42 0.0 0 0 298.68 97.46
  L 298.75 81.76
  Q 298.75 80.78 299.74 80.77
  L 300.98 80.75
  A 1.03 1.03 0.0 0 1 302.02 81.78
  Q 302.05 89.23 301.99 96.78
  C 301.94 102.45 293.84 102.61 293.71 97.02
  Q 293.53 88.82 293.77 81.26
  Q 293.79 80.72 294.33 80.74
  L 296.11 80.79
  Q 296.99 80.82 296.99 81.69
  L 297.05 96.94
  Q 297.05 97.67 297.77 97.80
  Z"
/>
<path fill="#004924" d="
  M 316.29 95.74
  Q 316.08 97.53 316.22 99.51
  Q 316.33 100.91 314.93 100.95
  L 314.00 100.97
  Q 312.75 101.01 312.75 99.75
  L 312.75 82.24
  Q 312.75 80.57 314.42 80.64
  Q 316.47 80.72 318.28 81.02
  Q 320.64 81.40 321.01 83.76
  C 321.36 86.05 321.65 90.04 319.72 91.92
  A 1.37 1.37 0.0 0 0 319.38 93.33
  L 321.45 99.49
  Q 322.00 101.15 320.26 100.95
  L 319.65 100.88
  Q 318.08 100.70 317.81 99.15
  Q 317.51 97.44 317.01 95.68
  Q 316.51 93.90 316.29 95.74
  Z
  M 317.6626 84.4810
  A 0.72 0.72 0.0 0 0 316.9338 83.7699
  L 316.8738 83.7706
  A 0.72 0.72 0.0 0 0 316.1627 84.4993
  L 316.2174 88.9790
  A 0.72 0.72 0.0 0 0 316.9462 89.6901
  L 317.0062 89.6894
  A 0.72 0.72 0.0 0 0 317.7173 88.9607
  L 317.6626 84.4810
  Z"
/>
<path fill="#004924" d="
  M 335.61 97.03
  Q 334.70 97.93 334.76 99.34
  A 1.58 1.58 0.0 0 1 333.12 100.97
  Q 332.93 100.97 332.74 100.96
  Q 331.24 100.91 331.42 99.42
  L 333.68 81.50
  Q 333.77 80.79 334.49 80.79
  L 337.49 80.79
  Q 338.18 80.79 338.26 81.49
  L 340.36 99.88
  Q 340.48 100.98 339.38 100.94
  L 338.25 100.89
  A 1.32 1.32 0.0 0 1 336.97 99.57
  Q 336.97 98.23 336.37 97.14
  A 0.48 0.48 0.0 0 0 335.61 97.03
  Z
  M 336.49 91.16
  C 336.38 90.09 336.50 88.84 336.27 87.86
  Q 336.04 86.92 335.92 87.88
  Q 335.53 91.04 335.81 93.81
  Q 335.82 93.91 335.88 93.98
  Q 336.01 94.14 336.24 94.17
  A 0.30 0.30 0.0 0 0 336.59 93.88
  Q 336.63 92.56 336.49 91.16
  Z"
/>
<path fill="#004924" d="
  M 228.75 84.37
  Q 228.42 86.02 228.83 87.34
  A 1.33 1.30 8.3 0 0 229.37 88.05
  L 231.47 89.42
  Q 232.10 89.83 231.53 90.32
  Q 230.60 91.11 229.49 91.24
  Q 228.86 91.31 228.81 91.94
  L 228.23 99.45
  Q 228.15 100.57 227.09 100.97
  Q 226.63 101.14 226.16 100.88
  A 0.87 0.86 -75.4 0 1 225.71 100.10
  L 225.86 81.85
  A 0.83 0.82 86.5 0 1 226.58 81.03
  Q 228.96 80.73 231.31 81.24
  Q 231.83 81.35 232.08 81.79
  Q 232.36 82.28 232.06 82.80
  A 1.28 1.26 -80.4 0 1 231.20 83.42
  L 229.32 83.79
  Q 228.84 83.88 228.75 84.37
  Z"
/>
<path fill="#135d24" d="
  M 25.47 87.07
  Q 25.47 87.08 25.46 87.09
  L 25.22 87.19
  Q 24.92 87.32 24.81 87.02
  Q 24.11 85.13 24.13 83.15
  Q 24.14 82.94 24.33 83.00
  L 24.65 83.10
  Q 24.86 83.17 24.84 83.38
  Q 24.68 85.45 25.47 87.07
  Z"
/>
<path fill="#84c225" d="
  M 48.61 90.13
  Q 48.61 90.38 48.39 90.35
  Q 47.82 90.30 48.14 89.83
  C 49.10 88.39 50.72 88.04 52.20 87.44
  C 53.48 86.92 54.18 87.19 55.17 88.00
  Q 55.56 88.32 55.06 88.44
  Q 53.93 88.70 52.90 88.42
  Q 52.29 88.26 51.84 88.70
  L 50.81 89.72
  Q 50.41 90.11 49.89 89.93
  L 49.21 89.71
  A 0.46 0.45 -79.7 0 0 48.61 90.13
  Z"
/>
<path fill="#84c225" d="
  M 29.44 88.35
  Q 29.04 88.33 28.65 88.39
  Q 27.99 88.49 28.28 87.89
  Q 28.69 87.03 29.75 87.32
  Q 33.17 88.23 36.33 89.85
  Q 36.83 90.11 37.38 89.93
  Q 38.10 89.71 38.69 90.09
  Q 39.15 90.37 39.69 90.39
  Q 41.10 90.44 42.31 89.89
  A 0.32 0.32 0.0 0 1 42.70 89.98
  Q 43.11 90.49 42.81 91.03
  A 0.69 0.69 0.0 0 1 42.15 91.40
  Q 38.97 91.19 36.07 90.81
  Q 34.74 90.63 33.40 89.93
  Q 31.97 89.18 30.70 88.64
  Q 30.10 88.38 29.44 88.35
  Z"
/>
<path fill="#84c225" d="
  M 44.92 90.79
  Q 44.80 90.97 44.59 91.03
  Q 44.47 91.06 44.36 91.00
  Q 43.95 90.72 44.15 90.05
  A 0.59 0.59 0.0 0 1 44.69 89.63
  L 46.73 89.55
  Q 47.48 89.52 47.16 90.19
  Q 47.08 90.35 46.94 90.47
  Q 46.71 90.68 46.40 90.73
  Q 45.94 90.79 45.55 90.61
  A 0.52 0.51 29.0 0 0 44.92 90.79
  Z"
/>
<path fill="#004924" d="
  M 60.42 107.38
  C 66.69 107.17 73.16 107.33 79.42 107.33
  Q 79.49 107.33 79.48 107.39
  Q 79.48 107.40 79.48 107.41
  Q 79.48 107.43 79.46 107.43
  Q 69.68 107.55 60.40 107.41
  Q 60.36 107.41 60.36 107.39
  Q 60.37 107.25 60.36 107.32
  Q 60.36 107.38 60.42 107.38
  Z"
/>
</svg>
