<svg width="98" height="61" viewBox="0 0 98 61" fill="none" xmlns="http://www.w3.org/2000/svg">
<path d="M48.8918 54.8794C27.8439 70.4499 -1.45351 54.4331 0.602565 27.9912C1.62111 14.9202 11.718 3.36023 24.5289 0.8289C33.2846 -0.905409 41.3465 0.89904 48.7147 6.24224C48.8243 6.32301 48.9319 6.32087 49.0373 6.23586C54.5328 2.08287 60.5914 0.00425076 67.213 0C88.2672 0 102.976 21.2835 95.5488 41.0432C88.5329 59.6998 65.5049 67.1343 49.4612 54.8858C49.2756 54.7412 49.0858 54.7391 48.8918 54.8794ZM29.4508 13.8617C25.946 18.7395 25.7942 25.479 28.679 30.7075C30.6992 34.3716 33.776 36.8604 37.9092 38.1739C37.9569 38.1883 38.0076 38.1896 38.056 38.1775C38.1043 38.1655 38.1486 38.1405 38.1841 38.1054C38.2196 38.0702 38.2452 38.0261 38.258 37.9776C38.2709 37.9291 38.2706 37.878 38.2572 37.8296C35.2584 27.0603 38.6937 15.545 46.918 8.10407C46.9866 8.04082 47.0364 7.95952 47.0617 7.86931C47.087 7.7791 47.0868 7.68356 47.0612 7.59345C47.0355 7.50334 46.9854 7.42223 46.9166 7.35924C46.8477 7.29626 46.7627 7.25389 46.6712 7.23692C39.2989 5.94044 33.5588 8.1487 29.4508 13.8617ZM42.4199 28.9923C40.2563 31.9954 39.6616 34.7372 39.5414 38.2887C39.533 38.5522 39.6595 38.6989 39.921 38.7286C43.3035 39.1325 46.3402 38.7117 49.031 37.4662C54.6994 34.8392 58.6344 29.0816 58.4003 22.6672C58.3974 22.5573 58.3531 22.4522 58.2761 22.3722C58.199 22.2922 58.0946 22.2429 57.9828 22.2336C51.2557 21.681 46.0681 23.9339 42.4199 28.9923ZM59.8807 23.2984C62.4935 34.4694 59.2228 45.6276 50.7834 53.2599C50.7618 53.2789 50.7457 53.3035 50.7368 53.331C50.728 53.3585 50.7268 53.3879 50.7333 53.4161C50.7398 53.4443 50.7538 53.4701 50.7737 53.4909C50.7937 53.5117 50.8189 53.5266 50.8466 53.534C57.5906 55.2428 64.4167 53.1833 68.3328 47.4257C69.7625 45.3258 70.644 43.3088 70.9772 41.3747C72.4702 32.767 68.143 26.021 60.3425 22.8967C60.2841 22.8724 60.2201 22.8649 60.1577 22.875C60.0952 22.8852 60.0368 22.9127 59.989 22.9543C59.9411 22.9959 59.9056 23.0501 59.8865 23.1109C59.8674 23.1717 59.8654 23.2366 59.8807 23.2984Z" fill="url(#paint0_linear_78_59)"/>
<defs>
<linearGradient id="paint0_linear_78_59" x1="49" y1="0" x2="49" y2="61" gradientUnits="userSpaceOnUse">
<stop stop-color="#386DBD"/>
<stop offset="1" stop-color="#0F4571"/>
</linearGradient>
</defs>
</svg>
