<?xml version="1.0" encoding="UTF-8" standalone="no"?>
<!DOCTYPE svg PUBLIC "-//W3C//DTD SVG 1.1//EN" "http://www.w3.org/Graphics/SVG/1.1/DTD/svg11.dtd">
<svg xmlns="http://www.w3.org/2000/svg" version="1.1" viewBox="0.00 0.00 29.00 29.00">
<path fill="#2c2d5b" d="
  M 18.19 0.00
  L 20.22 0.00
  C 23.23 0.66 25.80 3.97 22.59 6.17
  C 16.81 10.13 10.21 2.28 18.19 0.00
  Z"
/>
<path fill="#2c2d5b" d="
  M 18.31 29.00
  L 15.38 29.00
  C 9.81 27.48 8.27 23.80 11.45 19.29
  Q 12.91 17.21 14.21 15.22
  A 1.49 1.49 0.0 0 0 13.49 13.02
  Q 10.97 12.05 9.79 14.06
  Q 9.53 14.50 9.03 14.50
  L 5.52 14.51
  A 0.54 0.54 0.0 0 1 5.00 13.82
  C 7.48 5.47 22.11 9.52 18.78 16.10
  Q 17.19 19.27 14.72 22.64
  A 1.41 1.41 0.0 0 0 14.79 24.41
  C 15.88 25.67 18.38 25.90 19.17 24.03
  Q 19.39 23.51 19.96 23.50
  L 23.50 23.49
  A 0.52 0.51 7.7 0 1 24.00 24.14
  Q 22.94 28.07 18.31 29.00
  Z"
/>
</svg>
