<svg width="115" height="135" viewBox="0 0 115 135" fill="none" xmlns="http://www.w3.org/2000/svg">
<path fill-rule="evenodd" clip-rule="evenodd" d="M25 67C38.8071 67 50 55.8071 50 42C50 28.1929 38.8071 17 25 17C11.1929 17 0 28.1929 0 42C0 55.8071 11.1929 67 25 67Z" fill="#F4F6F9"/>
<path fill-rule="evenodd" clip-rule="evenodd" d="M24.5508 39.1922L24.5822 39.7112L24.0576 39.6477C22.148 39.404 20.4798 38.5778 19.0633 37.1902L18.3709 36.5017L18.1925 37.0101C17.8148 38.1435 18.0561 39.3405 18.843 40.1455C19.2627 40.5904 19.1683 40.654 18.4443 40.3891C18.1925 40.3044 17.9721 40.2408 17.9512 40.2726C17.8777 40.3468 18.1295 41.3107 18.3289 41.692C18.6017 42.2217 19.1578 42.7407 19.7663 43.0479L20.2804 43.2915L19.6719 43.3021C19.0843 43.3021 19.0633 43.3127 19.1263 43.5351C19.3361 44.2236 20.165 44.9545 21.0883 45.2723L21.7388 45.4947L21.1723 45.8337C20.3329 46.321 19.3466 46.5964 18.3604 46.6175C17.8882 46.6281 17.5 46.6705 17.5 46.7023C17.5 46.8082 18.78 47.4014 19.525 47.6344C21.7598 48.3229 24.4144 48.0264 26.4079 46.8506C27.8243 46.0138 29.2408 44.3507 29.9018 42.7407C30.2585 41.8827 30.6152 40.315 30.6152 39.5629C30.6152 39.0757 30.6467 39.0121 31.2343 38.4295C31.5805 38.0906 31.9058 37.7198 31.9687 37.6139C32.0737 37.4126 32.0632 37.4126 31.5281 37.5927C30.6362 37.9105 30.5103 37.8681 30.951 37.3915C31.2762 37.0525 31.6645 36.4381 31.6645 36.2581C31.6645 36.2263 31.5071 36.2792 31.3287 36.3746C31.1398 36.4805 30.7202 36.6394 30.4054 36.7347L29.8388 36.9148L29.3247 36.5652C29.0414 36.3746 28.6427 36.1627 28.4329 36.0992C27.8978 35.9509 27.0794 35.9721 26.5967 36.1415C25.2852 36.6182 24.4563 37.8469 24.5508 39.1922Z" fill="url(#paint0_linear_105_225)"/>
<mask id="mask0_105_225" style="mask-type:luminance" maskUnits="userSpaceOnUse" x="17" y="36" width="16" height="12">
<path fill-rule="evenodd" clip-rule="evenodd" d="M24.5508 39.1922L24.5822 39.7112L24.0576 39.6477C22.148 39.404 20.4798 38.5778 19.0633 37.1902L18.3709 36.5017L18.1925 37.0101C17.8148 38.1435 18.0561 39.3405 18.843 40.1455C19.2627 40.5904 19.1683 40.654 18.4443 40.3891C18.1925 40.3044 17.9721 40.2408 17.9512 40.2726C17.8777 40.3468 18.1295 41.3107 18.3289 41.692C18.6017 42.2217 19.1578 42.7407 19.7663 43.0479L20.2804 43.2915L19.6719 43.3021C19.0843 43.3021 19.0633 43.3127 19.1263 43.5351C19.3361 44.2236 20.165 44.9545 21.0883 45.2723L21.7388 45.4947L21.1723 45.8337C20.3329 46.321 19.3466 46.5964 18.3604 46.6175C17.8882 46.6281 17.5 46.6705 17.5 46.7023C17.5 46.8082 18.78 47.4014 19.525 47.6344C21.7598 48.3229 24.4144 48.0264 26.4079 46.8506C27.8243 46.0138 29.2408 44.3507 29.9018 42.7407C30.2585 41.8827 30.6152 40.315 30.6152 39.5629C30.6152 39.0757 30.6467 39.0121 31.2343 38.4295C31.5805 38.0906 31.9058 37.7198 31.9687 37.6139C32.0737 37.4126 32.0632 37.4126 31.5281 37.5927C30.6362 37.9105 30.5103 37.8681 30.951 37.3915C31.2762 37.0525 31.6645 36.4381 31.6645 36.2581C31.6645 36.2263 31.5071 36.2792 31.3287 36.3746C31.1398 36.4805 30.7202 36.6394 30.4054 36.7347L29.8388 36.9148L29.3247 36.5652C29.0414 36.3746 28.6427 36.1627 28.4329 36.0992C27.8978 35.9509 27.0794 35.9721 26.5967 36.1415C25.2852 36.6182 24.4563 37.8469 24.5508 39.1922Z" fill="white"/>
</mask>
<g mask="url(#mask0_105_225)">
<rect x="10" y="27" width="30" height="30" fill="url(#paint1_linear_105_225)"/>
</g>
<path fill-rule="evenodd" clip-rule="evenodd" d="M87 67C100.807 67 112 55.8071 112 42C112 28.1929 100.807 17 87 17C73.1929 17 62 28.1929 62 42C62 55.8071 73.1929 67 87 67Z" fill="#F4F6F9"/>
<path fill-rule="evenodd" clip-rule="evenodd" d="M88.0635 49.8197V41.6589H90.3162L90.6147 38.8466H88.0635L88.0673 37.4391C88.0673 36.7056 88.137 36.3126 89.1905 36.3126H90.5988V33.5H88.3457C85.6395 33.5 84.6869 34.8642 84.6869 37.1585V38.8469H83V41.6592H84.6869V49.8197H88.0635Z" fill="url(#paint2_linear_105_225)"/>
<mask id="mask1_105_225" style="mask-type:luminance" maskUnits="userSpaceOnUse" x="83" y="33" width="8" height="17">
<path fill-rule="evenodd" clip-rule="evenodd" d="M88.0635 49.8197V41.6589H90.3162L90.6147 38.8466H88.0635L88.0673 37.4391C88.0673 36.7056 88.137 36.3126 89.1905 36.3126H90.5988V33.5H88.3457C85.6395 33.5 84.6869 34.8642 84.6869 37.1585V38.8469H83V41.6592H84.6869V49.8197H88.0635Z" fill="white"/>
</mask>
<g mask="url(#mask1_105_225)">
<rect x="72" y="27" width="30" height="30" fill="url(#paint3_linear_105_225)"/>
</g>
<path fill-rule="evenodd" clip-rule="evenodd" d="M25 129C38.8071 129 50 117.807 50 104C50 90.1929 38.8071 79 25 79C11.1929 79 0 90.1929 0 104C0 117.807 11.1929 129 25 129Z" fill="#F4F6F9"/>
<path d="M24.9977 100.999C23.3451 100.999 21.9965 102.347 21.9965 104C21.9965 105.653 23.3451 107.001 24.9977 107.001C26.6504 107.001 27.999 105.653 27.999 104C27.999 102.347 26.6504 100.999 24.9977 100.999ZM33.9993 104C33.9993 102.757 34.0106 101.526 33.9408 100.285C33.871 98.844 33.5423 97.5652 32.4886 96.5114C31.4326 95.4555 30.156 95.129 28.715 95.0592C27.4722 94.9894 26.2406 95.0007 25 95.0007C23.7572 95.0007 22.5256 94.9894 21.285 95.0592C19.844 95.129 18.5652 95.4577 17.5114 96.5114C16.4555 97.5674 16.129 98.844 16.0592 100.285C15.9894 101.528 16.0007 102.759 16.0007 104C16.0007 105.241 15.9894 106.474 16.0592 107.715C16.129 109.156 16.4577 110.435 17.5114 111.489C18.5674 112.545 19.844 112.871 21.285 112.941C22.5278 113.011 23.7594 112.999 25 112.999C26.2428 112.999 27.4744 113.011 28.715 112.941C30.156 112.871 31.4349 112.542 32.4886 111.489C33.5445 110.433 33.871 109.156 33.9408 107.715C34.0128 106.474 33.9993 105.243 33.9993 104ZM24.9977 108.618C22.4423 108.618 20.3799 106.555 20.3799 104C20.3799 101.445 22.4423 99.3821 24.9977 99.3821C27.5532 99.3821 29.6156 101.445 29.6156 104C29.6156 106.555 27.5532 108.618 24.9977 108.618ZM29.8047 100.271C29.2081 100.271 28.7263 99.7897 28.7263 99.193C28.7263 98.5963 29.2081 98.1145 29.8047 98.1145C30.4014 98.1145 30.8832 98.5963 30.8832 99.193C30.8834 99.3347 30.8556 99.475 30.8015 99.6059C30.7474 99.7369 30.6679 99.8558 30.5677 99.956C30.4676 100.056 30.3486 100.136 30.2177 100.19C30.0867 100.244 29.9464 100.272 29.8047 100.271Z" fill="black"/>
<mask id="mask2_105_225" style="mask-type:luminance" maskUnits="userSpaceOnUse" x="16" y="95" width="19" height="18">
<path d="M24.9977 100.999C23.3451 100.999 21.9965 102.347 21.9965 104C21.9965 105.653 23.3451 107.001 24.9977 107.001C26.6504 107.001 27.999 105.653 27.999 104C27.999 102.347 26.6504 100.999 24.9977 100.999ZM33.9993 104C33.9993 102.757 34.0106 101.526 33.9408 100.285C33.871 98.844 33.5423 97.5652 32.4886 96.5114C31.4326 95.4555 30.156 95.129 28.715 95.0592C27.4722 94.9894 26.2406 95.0007 25 95.0007C23.7572 95.0007 22.5256 94.9894 21.285 95.0592C19.844 95.129 18.5652 95.4577 17.5114 96.5114C16.4555 97.5674 16.129 98.844 16.0592 100.285C15.9894 101.528 16.0007 102.759 16.0007 104C16.0007 105.241 15.9894 106.474 16.0592 107.715C16.129 109.156 16.4577 110.435 17.5114 111.489C18.5674 112.545 19.844 112.871 21.285 112.941C22.5278 113.011 23.7594 112.999 25 112.999C26.2428 112.999 27.4744 113.011 28.715 112.941C30.156 112.871 31.4349 112.542 32.4886 111.489C33.5445 110.433 33.871 109.156 33.9408 107.715C34.0128 106.474 33.9993 105.243 33.9993 104ZM24.9977 108.618C22.4423 108.618 20.3799 106.555 20.3799 104C20.3799 101.445 22.4423 99.3821 24.9977 99.3821C27.5532 99.3821 29.6156 101.445 29.6156 104C29.6156 106.555 27.5532 108.618 24.9977 108.618ZM29.8047 100.271C29.2081 100.271 28.7263 99.7897 28.7263 99.193C28.7263 98.5963 29.2081 98.1145 29.8047 98.1145C30.4014 98.1145 30.8832 98.5963 30.8832 99.193C30.8834 99.3347 30.8556 99.475 30.8015 99.6059C30.7474 99.7369 30.6679 99.8558 30.5677 99.956C30.4676 100.056 30.3486 100.136 30.2177 100.19C30.0867 100.244 29.9464 100.272 29.8047 100.271Z" fill="white"/>
</mask>
<g mask="url(#mask2_105_225)">
<rect x="8.02466" y="86.0264" width="30" height="30" fill="url(#paint4_linear_105_225)"/>
</g>
<path fill-rule="evenodd" clip-rule="evenodd" d="M87 129C100.807 129 112 117.807 112 104C112 90.1929 100.807 79 87 79C73.1929 79 62 90.1929 62 104C62 117.807 73.1929 129 87 129Z" fill="#F4F6F9"/>
<path d="M78.0036 113L79.2204 108.529C78.4186 107.154 77.9974 105.591 78 104C78 99.0293 82.0293 95 87 95C91.9707 95 96 99.0293 96 104C96 108.971 91.9707 113 87 113C85.4095 113.003 83.847 112.582 82.473 111.78L78.0036 113ZM83.7519 99.7772C83.6357 99.7844 83.5221 99.815 83.418 99.8672C83.3204 99.9225 83.2313 99.9916 83.1534 100.072C83.0454 100.174 82.9842 100.262 82.9185 100.348C82.5859 100.781 82.407 101.312 82.41 101.858C82.4118 102.299 82.527 102.728 82.707 103.13C83.0751 103.941 83.6808 104.801 84.4809 105.597C84.6735 105.789 84.8616 105.982 85.0641 106.161C86.0572 107.035 87.2405 107.666 88.5201 108.002L89.0322 108.081C89.1987 108.09 89.3652 108.077 89.5326 108.069C89.7947 108.055 90.0507 107.984 90.2823 107.861C90.4002 107.8 90.5152 107.734 90.627 107.663C90.627 107.663 90.6657 107.638 90.7395 107.582C90.861 107.492 90.9357 107.428 91.0365 107.323C91.1112 107.245 91.176 107.154 91.2255 107.051C91.2957 106.904 91.3659 106.624 91.3947 106.391C91.4163 106.213 91.41 106.116 91.4073 106.056C91.4037 105.959 91.3236 105.859 91.2363 105.817L90.7125 105.582C90.7125 105.582 89.9295 105.241 89.4516 105.023C89.4012 105.001 89.3472 104.989 89.2923 104.986C89.2307 104.98 89.1685 104.987 89.1098 105.007C89.0512 105.026 88.9974 105.058 88.9521 105.101V105.099C88.9476 105.099 88.8873 105.15 88.2366 105.939C88.1993 105.989 88.1478 106.027 88.0888 106.048C88.0298 106.068 87.966 106.071 87.9054 106.056C87.8468 106.04 87.7893 106.02 87.7335 105.996C87.6219 105.949 87.5832 105.931 87.5067 105.898L87.5022 105.896C86.9873 105.671 86.5106 105.368 86.0892 104.996C85.9758 104.897 85.8705 104.789 85.7625 104.685C85.4084 104.346 85.0999 103.962 84.8445 103.544L84.7914 103.458C84.7533 103.401 84.7224 103.339 84.6996 103.274C84.6654 103.141 84.7545 103.035 84.7545 103.035C84.7545 103.035 84.9732 102.796 85.0749 102.666C85.1596 102.558 85.2386 102.446 85.3116 102.33C85.4178 102.159 85.4511 101.984 85.3953 101.848C85.1433 101.232 84.8823 100.62 84.6141 100.011C84.561 99.8906 84.4035 99.8042 84.2604 99.7871C84.2118 99.7817 84.1632 99.7763 84.1146 99.7727C83.9937 99.7667 83.8726 99.7679 83.7519 99.7763V99.7772Z" fill="black"/>
<mask id="mask3_105_225" style="mask-type:luminance" maskUnits="userSpaceOnUse" x="78" y="95" width="18" height="18">
<path d="M78.0036 113L79.2204 108.529C78.4186 107.154 77.9974 105.591 78 104C78 99.0293 82.0293 95 87 95C91.9707 95 96 99.0293 96 104C96 108.971 91.9707 113 87 113C85.4095 113.003 83.847 112.582 82.473 111.78L78.0036 113ZM83.7519 99.7772C83.6357 99.7844 83.5221 99.815 83.418 99.8672C83.3204 99.9225 83.2313 99.9916 83.1534 100.072C83.0454 100.174 82.9842 100.262 82.9185 100.348C82.5859 100.781 82.407 101.312 82.41 101.858C82.4118 102.299 82.527 102.728 82.707 103.13C83.0751 103.941 83.6808 104.801 84.4809 105.597C84.6735 105.789 84.8616 105.982 85.0641 106.161C86.0572 107.035 87.2405 107.666 88.5201 108.002L89.0322 108.081C89.1987 108.09 89.3652 108.077 89.5326 108.069C89.7947 108.055 90.0507 107.984 90.2823 107.861C90.4002 107.8 90.5152 107.734 90.627 107.663C90.627 107.663 90.6657 107.638 90.7395 107.582C90.861 107.492 90.9357 107.428 91.0365 107.323C91.1112 107.245 91.176 107.154 91.2255 107.051C91.2957 106.904 91.3659 106.624 91.3947 106.391C91.4163 106.213 91.41 106.116 91.4073 106.056C91.4037 105.959 91.3236 105.859 91.2363 105.817L90.7125 105.582C90.7125 105.582 89.9295 105.241 89.4516 105.023C89.4012 105.001 89.3472 104.989 89.2923 104.986C89.2307 104.98 89.1685 104.987 89.1098 105.007C89.0512 105.026 88.9974 105.058 88.9521 105.101V105.099C88.9476 105.099 88.8873 105.15 88.2366 105.939C88.1993 105.989 88.1478 106.027 88.0888 106.048C88.0298 106.068 87.966 106.071 87.9054 106.056C87.8468 106.04 87.7893 106.02 87.7335 105.996C87.6219 105.949 87.5832 105.931 87.5067 105.898L87.5022 105.896C86.9873 105.671 86.5106 105.368 86.0892 104.996C85.9758 104.897 85.8705 104.789 85.7625 104.685C85.4084 104.346 85.0999 103.962 84.8445 103.544L84.7914 103.458C84.7533 103.401 84.7224 103.339 84.6996 103.274C84.6654 103.141 84.7545 103.035 84.7545 103.035C84.7545 103.035 84.9732 102.796 85.0749 102.666C85.1596 102.558 85.2386 102.446 85.3116 102.33C85.4178 102.159 85.4511 101.984 85.3953 101.848C85.1433 101.232 84.8823 100.62 84.6141 100.011C84.561 99.8906 84.4035 99.8042 84.2604 99.7871C84.2118 99.7817 84.1632 99.7763 84.1146 99.7727C83.9937 99.7667 83.8726 99.7679 83.7519 99.7763V99.7772Z" fill="white"/>
</mask>
<g mask="url(#mask3_105_225)">
<rect x="73" y="90" width="30" height="30" fill="url(#paint5_linear_105_225)"/>
</g>
<defs>
<linearGradient id="paint0_linear_105_225" x1="17.5" y1="42" x2="32.021" y2="42" gradientUnits="userSpaceOnUse">
<stop stop-color="#2C2D5B"/>
<stop offset="1" stop-color="#9FA1FF"/>
</linearGradient>
<linearGradient id="paint1_linear_105_225" x1="10" y1="42" x2="40" y2="42" gradientUnits="userSpaceOnUse">
<stop stop-color="#2C2D5B"/>
<stop offset="1" stop-color="#9FA1FF"/>
</linearGradient>
<linearGradient id="paint2_linear_105_225" x1="83" y1="41.6598" x2="90.6147" y2="41.6598" gradientUnits="userSpaceOnUse">
<stop stop-color="#2C2D5B"/>
<stop offset="1" stop-color="#9FA1FF"/>
</linearGradient>
<linearGradient id="paint3_linear_105_225" x1="72" y1="42" x2="102" y2="42" gradientUnits="userSpaceOnUse">
<stop stop-color="#2C2D5B"/>
<stop offset="1" stop-color="#9FA1FF"/>
</linearGradient>
<linearGradient id="paint4_linear_105_225" x1="8.02466" y1="101.026" x2="38.0247" y2="101.026" gradientUnits="userSpaceOnUse">
<stop stop-color="#2C2D5B"/>
<stop offset="1" stop-color="#9FA1FF"/>
</linearGradient>
<linearGradient id="paint5_linear_105_225" x1="73" y1="105" x2="103" y2="105" gradientUnits="userSpaceOnUse">
<stop stop-color="#2C2D5B"/>
<stop offset="1" stop-color="#9FA1FF"/>
</linearGradient>
</defs>
</svg>
