<svg width="240" height="76" viewBox="0 0 240 76" fill="none" xmlns="http://www.w3.org/2000/svg">
<path d="M103.12 36.256C103.12 37.1147 102.981 37.904 102.704 38.624C102.432 39.3387 102.045 39.9573 101.544 40.48C101.043 40.9973 100.443 41.4 99.744 41.688C99.0453 41.976 98.2693 42.12 97.416 42.12C96.568 42.12 95.792 41.976 95.088 41.688C94.3893 41.4 93.7893 40.9973 93.288 40.48C92.792 39.9573 92.4053 39.3387 92.128 38.624C91.8507 37.904 91.712 37.1147 91.712 36.256C91.712 35.4027 91.8507 34.616 92.128 33.896C92.4053 33.176 92.792 32.5573 93.288 32.04C93.7893 31.5173 94.3893 31.112 95.088 30.824C95.792 30.5307 96.568 30.384 97.416 30.384C98.2693 30.384 99.0453 30.5307 99.744 30.824C100.443 31.112 101.043 31.5173 101.544 32.04C102.045 32.5573 102.432 33.176 102.704 33.896C102.981 34.616 103.12 35.4027 103.12 36.256ZM101.376 36.256C101.376 35.5733 101.283 34.96 101.096 34.416C100.909 33.872 100.643 33.4107 100.296 33.032C99.9547 32.6533 99.5387 32.3627 99.048 32.16C98.5627 31.9573 98.0187 31.856 97.416 31.856C96.8133 31.856 96.2667 31.9573 95.776 32.16C95.2907 32.3627 94.8747 32.6533 94.528 33.032C94.1813 33.4107 93.9147 33.872 93.728 34.416C93.5413 34.96 93.448 35.5733 93.448 36.256C93.448 36.944 93.5413 37.56 93.728 38.104C93.9147 38.6427 94.1813 39.1013 94.528 39.48C94.8747 39.8587 95.2907 40.1493 95.776 40.352C96.2667 40.5493 96.8133 40.648 97.416 40.648C98.0187 40.648 98.5627 40.5493 99.048 40.352C99.5387 40.1493 99.9547 39.8587 100.296 39.48C100.643 39.1013 100.909 38.6427 101.096 38.104C101.283 37.56 101.376 36.944 101.376 36.256ZM106.399 30.192V42H104.831V30.192H106.399ZM112.995 38.392C112.361 38.4133 111.822 38.464 111.379 38.544C110.937 38.6187 110.577 38.72 110.299 38.848C110.022 38.976 109.822 39.128 109.699 39.304C109.577 39.4747 109.515 39.6667 109.515 39.88C109.515 40.0827 109.547 40.2587 109.611 40.408C109.681 40.552 109.771 40.672 109.883 40.768C110.001 40.8587 110.137 40.9253 110.291 40.968C110.446 41.0107 110.614 41.032 110.795 41.032C111.035 41.032 111.254 41.008 111.451 40.96C111.654 40.912 111.843 40.8453 112.019 40.76C112.195 40.6693 112.363 40.56 112.523 40.432C112.683 40.304 112.841 40.1573 112.995 39.992V38.392ZM108.419 35.008C108.873 34.576 109.363 34.2533 109.891 34.04C110.425 33.8267 111.009 33.72 111.643 33.72C112.107 33.72 112.518 33.7973 112.875 33.952C113.233 34.1013 113.534 34.312 113.779 34.584C114.025 34.856 114.209 35.1813 114.331 35.56C114.459 35.9387 114.523 36.3573 114.523 36.816V42H113.827C113.673 42 113.555 41.976 113.475 41.928C113.395 41.8747 113.331 41.7787 113.283 41.64L113.115 40.928C112.907 41.12 112.702 41.2907 112.499 41.44C112.297 41.584 112.083 41.7093 111.859 41.816C111.641 41.9173 111.406 41.9947 111.155 42.048C110.905 42.1013 110.627 42.128 110.323 42.128C110.003 42.128 109.702 42.0853 109.419 42C109.142 41.9093 108.899 41.7733 108.691 41.592C108.483 41.4107 108.318 41.184 108.195 40.912C108.078 40.64 108.019 40.3227 108.019 39.96C108.019 39.64 108.105 39.3333 108.275 39.04C108.451 38.7413 108.734 38.4747 109.123 38.24C109.518 38.0053 110.03 37.8133 110.659 37.664C111.294 37.5147 112.073 37.4293 112.995 37.408V36.816C112.995 36.2027 112.865 35.744 112.603 35.44C112.342 35.136 111.958 34.984 111.451 34.984C111.11 34.984 110.822 35.0267 110.587 35.112C110.358 35.1973 110.158 35.2933 109.987 35.4C109.822 35.5013 109.675 35.5947 109.547 35.68C109.425 35.7653 109.297 35.808 109.163 35.808C109.057 35.808 108.963 35.7787 108.883 35.72C108.809 35.6613 108.747 35.592 108.699 35.512L108.419 35.008ZM113.907 30.384L112.011 32.448C111.931 32.5387 111.854 32.6027 111.779 32.64C111.705 32.672 111.606 32.688 111.483 32.688H110.539L111.723 30.752C111.798 30.6293 111.878 30.5387 111.963 30.48C112.054 30.416 112.193 30.384 112.379 30.384H113.907ZM118.444 30.512V35.088C118.444 35.328 118.438 35.5627 118.428 35.792C118.417 36.0213 118.401 36.2533 118.38 36.488C118.364 36.7173 118.342 36.9547 118.316 37.2C118.289 37.4453 118.26 37.704 118.228 37.976H117.172C117.14 37.704 117.11 37.4453 117.084 37.2C117.057 36.9547 117.033 36.7173 117.012 36.488C116.996 36.2533 116.982 36.0213 116.972 35.792C116.961 35.5627 116.956 35.328 116.956 35.088V30.512H118.444ZM116.62 41.064C116.62 40.92 116.646 40.784 116.7 40.656C116.753 40.528 116.828 40.416 116.924 40.32C117.02 40.224 117.132 40.1493 117.26 40.096C117.388 40.0373 117.526 40.008 117.676 40.008C117.82 40.008 117.956 40.0373 118.084 40.096C118.212 40.1493 118.324 40.224 118.42 40.32C118.516 40.416 118.59 40.528 118.644 40.656C118.702 40.784 118.732 40.92 118.732 41.064C118.732 41.2133 118.702 41.352 118.644 41.48C118.59 41.608 118.516 41.72 118.42 41.816C118.324 41.912 118.212 41.9867 118.084 42.04C117.956 42.0933 117.82 42.12 117.676 42.12C117.526 42.12 117.388 42.0933 117.26 42.04C117.132 41.9867 117.02 41.912 116.924 41.816C116.828 41.72 116.753 41.608 116.7 41.48C116.646 41.352 116.62 41.2133 116.62 41.064ZM129.818 40.632C130.277 40.632 130.687 40.5547 131.05 40.4C131.413 40.2453 131.719 40.0293 131.97 39.752C132.221 39.4693 132.413 39.136 132.546 38.752C132.679 38.3627 132.746 37.9333 132.746 37.464V30.512H134.442V37.464C134.442 38.136 134.335 38.7573 134.122 39.328C133.909 39.8987 133.602 40.392 133.202 40.808C132.802 41.224 132.317 41.5493 131.746 41.784C131.175 42.0187 130.533 42.136 129.818 42.136C129.103 42.136 128.461 42.0187 127.89 41.784C127.319 41.5493 126.834 41.224 126.434 40.808C126.034 40.392 125.727 39.8987 125.514 39.328C125.301 38.7573 125.194 38.136 125.194 37.464V30.512H126.898V37.456C126.898 37.9253 126.962 38.3547 127.09 38.744C127.223 39.1333 127.415 39.4693 127.666 39.752C127.917 40.0293 128.223 40.2453 128.586 40.4C128.949 40.5547 129.359 40.632 129.818 40.632ZM141.232 35.272C141.189 35.3413 141.144 35.392 141.096 35.424C141.048 35.4507 140.986 35.464 140.912 35.464C140.826 35.464 140.73 35.4347 140.624 35.376C140.522 35.3173 140.397 35.2533 140.248 35.184C140.104 35.1147 139.933 35.0507 139.736 34.992C139.538 34.9333 139.304 34.904 139.032 34.904C138.808 34.904 138.602 34.9333 138.416 34.992C138.234 35.0453 138.08 35.1227 137.952 35.224C137.824 35.32 137.725 35.4373 137.656 35.576C137.586 35.7093 137.552 35.8533 137.552 36.008C137.552 36.2107 137.61 36.3787 137.728 36.512C137.85 36.6453 138.008 36.76 138.2 36.856C138.397 36.952 138.618 37.04 138.864 37.12C139.114 37.1947 139.368 37.2747 139.624 37.36C139.885 37.4453 140.138 37.544 140.384 37.656C140.634 37.7627 140.856 37.8987 141.048 38.064C141.245 38.224 141.402 38.4187 141.52 38.648C141.642 38.8773 141.704 39.1573 141.704 39.488C141.704 39.8667 141.634 40.2187 141.496 40.544C141.362 40.864 141.162 41.1413 140.896 41.376C140.634 41.6107 140.309 41.7947 139.92 41.928C139.53 42.0613 139.085 42.128 138.584 42.128C138.024 42.128 137.506 42.0347 137.032 41.848C136.557 41.6613 136.16 41.424 135.84 41.136L136.208 40.536C136.25 40.4613 136.304 40.4053 136.368 40.368C136.432 40.3253 136.517 40.304 136.624 40.304C136.725 40.304 136.829 40.3413 136.936 40.416C137.042 40.4907 137.17 40.5733 137.32 40.664C137.469 40.7493 137.65 40.8293 137.864 40.904C138.077 40.9733 138.344 41.008 138.664 41.008C138.93 41.008 139.162 40.976 139.36 40.912C139.557 40.8427 139.72 40.752 139.848 40.64C139.981 40.5227 140.08 40.3893 140.144 40.24C140.208 40.0907 140.24 39.9333 140.24 39.768C140.24 39.5547 140.178 39.3787 140.056 39.24C139.938 39.096 139.781 38.9733 139.584 38.872C139.392 38.7707 139.17 38.6827 138.92 38.608C138.669 38.5333 138.413 38.4533 138.152 38.368C137.89 38.2827 137.634 38.184 137.384 38.072C137.133 37.96 136.909 37.8187 136.712 37.648C136.52 37.4773 136.362 37.2693 136.24 37.024C136.122 36.7787 136.064 36.48 136.064 36.128C136.064 35.8133 136.128 35.512 136.256 35.224C136.389 34.936 136.578 34.6827 136.824 34.464C137.074 34.2453 137.381 34.072 137.744 33.944C138.112 33.8107 138.53 33.744 139 33.744C139.538 33.744 140.024 33.8293 140.456 34C140.893 34.1707 141.266 34.4053 141.576 34.704L141.232 35.272ZM150.153 33.872V42H149.217C149.004 42 148.865 41.896 148.801 41.688L148.689 40.872C148.513 41.0587 148.329 41.2293 148.137 41.384C147.945 41.5387 147.74 41.672 147.521 41.784C147.302 41.8907 147.07 41.9733 146.825 42.032C146.58 42.096 146.316 42.128 146.033 42.128C145.585 42.128 145.19 42.0533 144.849 41.904C144.513 41.7547 144.23 41.5467 144.001 41.28C143.772 41.008 143.598 40.6827 143.481 40.304C143.364 39.9253 143.305 39.5067 143.305 39.048V33.872H144.873V39.048C144.873 39.6293 145.006 40.0827 145.273 40.408C145.54 40.728 145.948 40.888 146.497 40.888C146.897 40.888 147.27 40.7947 147.617 40.608C147.964 40.416 148.289 40.1547 148.593 39.824V33.872H150.153ZM156.698 38.392C156.064 38.4133 155.525 38.464 155.082 38.544C154.64 38.6187 154.28 38.72 154.002 38.848C153.725 38.976 153.525 39.128 153.402 39.304C153.28 39.4747 153.218 39.6667 153.218 39.88C153.218 40.0827 153.25 40.2587 153.314 40.408C153.384 40.552 153.474 40.672 153.586 40.768C153.704 40.8587 153.84 40.9253 153.994 40.968C154.149 41.0107 154.317 41.032 154.498 41.032C154.738 41.032 154.957 41.008 155.154 40.96C155.357 40.912 155.546 40.8453 155.722 40.76C155.898 40.6693 156.066 40.56 156.226 40.432C156.386 40.304 156.544 40.1573 156.698 39.992V38.392ZM152.122 35.008C152.576 34.576 153.066 34.2533 153.594 34.04C154.128 33.8267 154.712 33.72 155.346 33.72C155.81 33.72 156.221 33.7973 156.578 33.952C156.936 34.1013 157.237 34.312 157.482 34.584C157.728 34.856 157.912 35.1813 158.034 35.56C158.162 35.9387 158.226 36.3573 158.226 36.816V42H157.53C157.376 42 157.258 41.976 157.178 41.928C157.098 41.8747 157.034 41.7787 156.986 41.64L156.818 40.928C156.61 41.12 156.405 41.2907 156.202 41.44C156 41.584 155.786 41.7093 155.562 41.816C155.344 41.9173 155.109 41.9947 154.858 42.048C154.608 42.1013 154.33 42.128 154.026 42.128C153.706 42.128 153.405 42.0853 153.122 42C152.845 41.9093 152.602 41.7733 152.394 41.592C152.186 41.4107 152.021 41.184 151.898 40.912C151.781 40.64 151.722 40.3227 151.722 39.96C151.722 39.64 151.808 39.3333 151.978 39.04C152.154 38.7413 152.437 38.4747 152.826 38.24C153.221 38.0053 153.733 37.8133 154.362 37.664C154.997 37.5147 155.776 37.4293 156.698 37.408V36.816C156.698 36.2027 156.568 35.744 156.306 35.44C156.045 35.136 155.661 34.984 155.154 34.984C154.813 34.984 154.525 35.0267 154.29 35.112C154.061 35.1973 153.861 35.2933 153.69 35.4C153.525 35.5013 153.378 35.5947 153.25 35.68C153.128 35.7653 153 35.808 152.866 35.808C152.76 35.808 152.666 35.7787 152.586 35.72C152.512 35.6613 152.45 35.592 152.402 35.512L152.122 35.008ZM157.61 30.384L155.714 32.448C155.634 32.5387 155.557 32.6027 155.482 32.64C155.408 32.672 155.309 32.688 155.186 32.688H154.242L155.426 30.752C155.501 30.6293 155.581 30.5387 155.666 30.48C155.757 30.416 155.896 30.384 156.082 30.384H157.61ZM161.787 35.432C162.048 34.8987 162.363 34.48 162.731 34.176C163.099 33.872 163.541 33.72 164.059 33.72C164.235 33.72 164.4 33.7413 164.555 33.784C164.715 33.8213 164.853 33.88 164.971 33.96L164.867 35.136C164.829 35.28 164.741 35.352 164.603 35.352C164.528 35.352 164.416 35.3387 164.267 35.312C164.117 35.28 163.957 35.264 163.787 35.264C163.536 35.264 163.315 35.3013 163.123 35.376C162.931 35.4453 162.757 35.552 162.603 35.696C162.453 35.8347 162.32 36.008 162.203 36.216C162.085 36.4187 161.976 36.6507 161.875 36.912V42H160.315V33.872H161.211C161.381 33.872 161.496 33.904 161.555 33.968C161.619 34.0267 161.664 34.1333 161.691 34.288L161.787 35.432ZM167.806 33.872V42H166.246V33.872H167.806ZM168.102 31.36C168.102 31.504 168.073 31.6427 168.014 31.776C167.955 31.904 167.875 32.0187 167.774 32.12C167.678 32.216 167.563 32.2933 167.43 32.352C167.297 32.4053 167.158 32.432 167.014 32.432C166.87 32.432 166.734 32.4053 166.606 32.352C166.478 32.2933 166.363 32.216 166.262 32.12C166.166 32.0187 166.089 31.904 166.03 31.776C165.977 31.6427 165.95 31.504 165.95 31.36C165.95 31.2107 165.977 31.072 166.03 30.944C166.089 30.8107 166.166 30.696 166.262 30.6C166.363 30.4987 166.478 30.4213 166.606 30.368C166.734 30.3093 166.87 30.28 167.014 30.28C167.158 30.28 167.297 30.3093 167.43 30.368C167.563 30.4213 167.678 30.4987 167.774 30.6C167.875 30.696 167.955 30.8107 168.014 30.944C168.073 31.072 168.102 31.2107 168.102 31.36ZM173.529 33.744C174.126 33.744 174.665 33.8427 175.145 34.04C175.63 34.232 176.041 34.512 176.377 34.88C176.718 35.2427 176.979 35.6827 177.161 36.2C177.342 36.712 177.433 37.288 177.433 37.928C177.433 38.568 177.342 39.1467 177.161 39.664C176.979 40.1813 176.718 40.6213 176.377 40.984C176.041 41.3467 175.63 41.6267 175.145 41.824C174.665 42.016 174.126 42.112 173.529 42.112C172.926 42.112 172.382 42.016 171.897 41.824C171.417 41.6267 171.006 41.3467 170.665 40.984C170.323 40.6213 170.059 40.1813 169.873 39.664C169.691 39.1467 169.601 38.568 169.601 37.928C169.601 37.288 169.691 36.712 169.873 36.2C170.059 35.6827 170.323 35.2427 170.665 34.88C171.006 34.512 171.417 34.232 171.897 34.04C172.382 33.8427 172.926 33.744 173.529 33.744ZM173.529 40.896C174.297 40.896 174.87 40.6373 175.249 40.12C175.627 39.6027 175.817 38.8747 175.817 37.936C175.817 36.9973 175.627 36.2693 175.249 35.752C174.87 35.2293 174.297 34.968 173.529 34.968C172.75 34.968 172.169 35.2293 171.785 35.752C171.406 36.2693 171.217 36.9973 171.217 37.936C171.217 38.8747 171.406 39.6027 171.785 40.12C172.169 40.6373 172.75 40.896 173.529 40.896ZM192.453 42H190.765C190.642 42 190.544 41.968 190.469 41.904C190.394 41.8347 190.336 41.7627 190.293 41.688L187.325 36.96C187.282 37.0933 187.232 37.208 187.173 37.304L184.285 41.688C184.232 41.7627 184.17 41.8347 184.101 41.904C184.032 41.968 183.944 42 183.837 42H182.245L186.173 36.088L182.413 30.512H184.101C184.224 30.512 184.314 30.5307 184.373 30.568C184.432 30.6053 184.482 30.6613 184.525 30.736L187.429 35.24C187.472 35.1013 187.53 34.9733 187.605 34.856L190.325 30.768C190.373 30.6827 190.426 30.6187 190.485 30.576C190.544 30.5333 190.618 30.512 190.709 30.512H192.333L188.549 36.016L192.453 42ZM200.506 42H199.002C198.879 42 198.78 41.968 198.706 41.904C198.636 41.8347 198.58 41.7627 198.538 41.688L196.578 38.592C196.551 38.672 196.524 38.7493 196.498 38.824C196.471 38.8987 196.436 38.968 196.394 39.032L194.594 41.688C194.54 41.7627 194.479 41.8347 194.41 41.904C194.34 41.968 194.25 42 194.138 42H192.746L195.578 37.816L192.858 33.872H194.362C194.484 33.872 194.572 33.8907 194.626 33.928C194.684 33.9653 194.735 34.0213 194.778 34.096L196.706 37.064C196.732 36.984 196.762 36.9067 196.794 36.832C196.826 36.752 196.868 36.6693 196.922 36.584L198.578 34.128C198.674 33.9573 198.802 33.872 198.962 33.872H200.394L197.674 37.744L200.506 42ZM208.568 42H207.064C206.942 42 206.843 41.968 206.768 41.904C206.699 41.8347 206.643 41.7627 206.6 41.688L204.64 38.592C204.614 38.672 204.587 38.7493 204.56 38.824C204.534 38.8987 204.499 38.968 204.456 39.032L202.656 41.688C202.603 41.7627 202.542 41.8347 202.472 41.904C202.403 41.968 202.312 42 202.2 42H200.808L203.64 37.816L200.92 33.872H202.424C202.547 33.872 202.635 33.8907 202.688 33.928C202.747 33.9653 202.798 34.0213 202.84 34.096L204.768 37.064C204.795 36.984 204.824 36.9067 204.856 36.832C204.888 36.752 204.931 36.6693 204.984 36.584L206.64 34.128C206.736 33.9573 206.864 33.872 207.024 33.872H208.456L205.736 37.744L208.568 42ZM223.094 42H221.406C221.283 42 221.184 41.968 221.11 41.904C221.035 41.8347 220.976 41.7627 220.934 41.688L217.966 36.96C217.923 37.0933 217.872 37.208 217.814 37.304L214.926 41.688C214.872 41.7627 214.811 41.8347 214.742 41.904C214.672 41.968 214.584 42 214.478 42H212.886L216.814 36.088L213.054 30.512H214.742C214.864 30.512 214.955 30.5307 215.014 30.568C215.072 30.6053 215.123 30.6613 215.166 30.736L218.07 35.24C218.112 35.1013 218.171 34.9733 218.246 34.856L220.966 30.768C221.014 30.6827 221.067 30.6187 221.126 30.576C221.184 30.5333 221.259 30.512 221.35 30.512H222.974L219.19 36.016L223.094 42ZM231.146 42H229.642C229.52 42 229.421 41.968 229.346 41.904C229.277 41.8347 229.221 41.7627 229.178 41.688L227.218 38.592C227.192 38.672 227.165 38.7493 227.138 38.824C227.112 38.8987 227.077 38.968 227.034 39.032L225.234 41.688C225.181 41.7627 225.12 41.8347 225.05 41.904C224.981 41.968 224.89 42 224.778 42H223.386L226.218 37.816L223.498 33.872H225.002C225.125 33.872 225.213 33.8907 225.266 33.928C225.325 33.9653 225.376 34.0213 225.418 34.096L227.346 37.064C227.373 36.984 227.402 36.9067 227.434 36.832C227.466 36.752 227.509 36.6693 227.562 36.584L229.218 34.128C229.314 33.9573 229.442 33.872 229.602 33.872H231.034L228.314 37.744L231.146 42ZM239.209 42H237.705C237.582 42 237.484 41.968 237.409 41.904C237.34 41.8347 237.284 41.7627 237.241 41.688L235.281 38.592C235.254 38.672 235.228 38.7493 235.201 38.824C235.174 38.8987 235.14 38.968 235.097 39.032L233.297 41.688C233.244 41.7627 233.182 41.8347 233.113 41.904C233.044 41.968 232.953 42 232.841 42H231.449L234.281 37.816L231.561 33.872H233.065C233.188 33.872 233.276 33.8907 233.329 33.928C233.388 33.9653 233.438 34.0213 233.481 34.096L235.409 37.064C235.436 36.984 235.465 36.9067 235.497 36.832C235.529 36.752 235.572 36.6693 235.625 36.584L237.281 34.128C237.377 33.9573 237.505 33.872 237.665 33.872H239.097L236.377 37.744L239.209 42Z" fill="#979797"/>
<circle cx="38" cy="38" r="38" fill="#D9D9D9"/>
<path d="M37.4999 35.2083C39.3129 35.2083 41.0852 34.6707 42.5926 33.6635C44.1001 32.6562 45.275 31.2246 45.9688 29.5496C46.6626 27.8746 46.8441 26.0315 46.4904 24.2533C46.1368 22.4752 45.2637 20.8418 43.9817 19.5599C42.6997 18.2779 41.0664 17.4048 39.2882 17.0511C37.5101 16.6974 35.667 16.879 33.992 17.5728C32.317 18.2666 30.8854 19.4415 29.8781 20.9489C28.8709 22.4564 28.3333 24.2287 28.3333 26.0417C28.3333 28.4728 29.299 30.8044 31.0181 32.5235C32.7372 34.2426 35.0688 35.2083 37.4999 35.2083Z" fill="#979797"/>
<path d="M51.2499 58.125C51.8577 58.125 52.4406 57.8835 52.8704 57.4537C53.3001 57.024 53.5416 56.4411 53.5416 55.8333C53.5416 51.5788 51.8515 47.4985 48.8431 44.4901C45.8347 41.4817 41.7544 39.7916 37.4999 39.7916C33.2454 39.7916 29.1651 41.4817 26.1567 44.4901C23.1484 47.4985 21.4583 51.5788 21.4583 55.8333C21.4583 56.4411 21.6997 57.024 22.1295 57.4537C22.5592 57.8835 23.1421 58.125 23.7499 58.125H51.2499Z" fill="#979797"/>
</svg>
